<?xml version="1.0" encoding="UTF-8" standalone="no"?>
<!-- Created with Inkscape (http://www.inkscape.org/) -->

<svg
   xmlns:dc="http://purl.org/dc/elements/1.1/"
   xmlns:cc="http://creativecommons.org/ns#"
   xmlns:rdf="http://www.w3.org/1999/02/22-rdf-syntax-ns#"
   xmlns:svg="http://www.w3.org/2000/svg"
   xmlns="http://www.w3.org/2000/svg"
   xmlns:sodipodi="http://sodipodi.sourceforge.net/DTD/sodipodi-0.dtd"
   xmlns:inkscape="http://www.inkscape.org/namespaces/inkscape"
   width="58mm"
   height="72mm"
   viewBox="0 0 58 72"
   version="1.1"
   id="svg13772"
   inkscape:version="0.92.4 (5da689c313, 2019-01-14)"
   sodipodi:docname="alice-n-bob.svg">
  <defs
     id="defs13766" />
  <sodipodi:namedview
     id="base"
     pagecolor="#ffffff"
     bordercolor="#666666"
     borderopacity="1.0"
     inkscape:pageopacity="0.0"
     inkscape:pageshadow="2"
     inkscape:zoom="2.6265487"
     inkscape:cx="52.417449"
     inkscape:cy="159.0566"
     inkscape:document-units="mm"
     inkscape:current-layer="layer1"
     showgrid="false"
     inkscape:window-width="1920"
     inkscape:window-height="1017"
     inkscape:window-x="-8"
     inkscape:window-y="-8"
     inkscape:window-maximized="1" />
  <metadata
     id="metadata13769">
    <rdf:RDF>
      <cc:Work
         rdf:about="">
        <dc:format>image/svg+xml</dc:format>
        <dc:type
           rdf:resource="http://purl.org/dc/dcmitype/StillImage" />
        <dc:title />
      </cc:Work>
    </rdf:RDF>
  </metadata>
  <g
     inkscape:label="Layer 1"
     inkscape:groupmode="layer"
     id="layer1"
     transform="translate(0,-225)">
    <path
       style="display:inline;opacity:1;fill:#ffffff;fill-opacity:1;stroke:#333333;stroke-width:0.1;stroke-miterlimit:4;stroke-dasharray:none;stroke-dashoffset:0;stroke-opacity:1"
       d="M 3.5127592,228.01839 H 54.95053 v 30.96384 H 3.5127592 Z"
       id="rect35382" />
    <path
       inkscape:connector-curvature="0"
       id="path35221"
       d="m 11.170949,255.41357 c -0.906884,-0.24301 -2.1920855,-1.02922 -2.6937505,-1.64788 -1.8737105,-2.31067 -1.6655415,-5.4723 0.585069,-8.88621 0.817463,-1.24 1.1652275,-2.86666 1.3703405,-6.40974 0.0914,-1.57962 0.154407,-1.97392 0.405323,-2.53443 0.431581,-0.96441 1.144199,-1.7967 2.255045,-2.63376 1.205846,-0.90865 2.086164,-1.20968 3.991638,-1.365 0.763335,-0.0622 1.93099,-0.15868 2.594786,-0.2143 0.663796,-0.0557 1.435258,-0.17293 1.714448,-0.26062 0.449449,-0.14117 0.533557,-0.136 0.733646,0.0451 0.124436,0.11252 0.318947,0.20455 0.432509,0.20455 0.413461,0 1.238769,0.53485 1.926236,1.24826 0.772971,0.8021 0.773871,0.80746 0.317419,1.84542 l -0.272375,0.61961 0.500803,1.80188 c 0.552305,1.98719 0.586925,2.29557 0.316641,2.81823 -0.166931,0.32257 -0.165084,0.39297 0.01641,0.7483 0.111284,0.21572 0.553749,0.75634 0.983034,1.20136 0.958145,0.99313 0.95492,1.19697 -0.02606,1.72691 -0.617102,0.33288 -0.668249,0.39324 -0.668605,0.7889 -2.91e-4,0.23563 0.06712,0.49699 0.15031,0.58078 0.12094,0.12197 0.111078,0.17482 -0.04912,0.26522 -0.128946,0.0727 -0.176174,0.20361 -0.133464,0.36776 0.04912,0.18778 -0.0495,0.36134 -0.374894,0.65938 -0.429801,0.39375 -0.439513,0.42175 -0.365389,1.05258 0.07143,0.60793 0.05231,0.67549 -0.312601,1.09087 -0.449542,0.512 -0.828833,0.55767 -2.174096,0.26176 -1.119404,-0.24621 -1.159218,-0.23743 -1.50192,0.33189 -0.482935,0.80228 -1.233426,2.83814 -1.401379,3.80165 -0.146813,0.84162 -0.165496,0.87498 -0.490556,0.87498 -0.221518,0 -0.56813,-0.18741 -1.004792,-0.54309 -0.366757,-0.29871 -0.742963,-0.5431 -0.836108,-0.5431 -0.093,0 -0.161803,-0.0679 -0.152972,-0.15085 0.0084,-0.083 -0.591988,-0.74269 -1.335471,-1.46603 l -1.351863,-1.31517 -0.143523,0.31536 c -0.124633,0.27408 -0.105537,0.36723 0.148454,0.71173 0.160772,0.21802 0.399371,0.60507 0.530351,0.86015 0.299476,0.58303 0.749413,0.91006 1.411362,1.02582 l 0.516471,0.0903 -0.498237,0.33273 c -0.428816,0.28636 -0.586017,0.32458 -1.127963,0.27423 -0.738174,-0.0685 -0.981919,-0.25562 -1.480668,-1.13635 -0.19917,-0.35151 -0.387803,-0.61322 -0.41947,-0.5816 -0.08953,0.0895 0.443328,1.43508 0.669262,1.68993 0.434825,0.49055 0.875387,0.56838 2.06269,0.36443 1.594234,-0.27385 1.669567,-0.20804 0.589198,0.51454 -1.839648,1.23042 -3.693044,1.6327 -5.406733,1.17351 z m 7.057932,-8.34487 c 0.419197,-0.41861 0.54534,-0.74984 0.54534,-1.43193 0,-0.56191 -0.209294,-1.09716 -0.535141,-1.36744 -0.244467,-0.20295 -0.238346,-0.1547 0.05259,0.4158 0.267416,0.52439 0.314072,1.26256 0.105537,1.66738 -0.238373,0.46276 -0.622258,0.80671 -0.900398,0.80671 -0.34978,0 -0.862919,-0.61231 -0.963797,-1.15009 -0.112522,-0.59864 0.03075,-1.1998 0.386199,-1.62216 0.343565,-0.40831 0.182952,-0.50363 -0.201429,-0.11942 -0.732927,0.73296 -0.647882,2.38465 0.151744,2.94468 0.422629,0.29604 0.977991,0.23738 1.359457,-0.14354 z"
       style="display:inline;fill:#333333;fill-opacity:1;stroke-width:0.12068716" />
    <g
       aria-label="Alice"
       style="font-style:normal;font-variant:normal;font-weight:normal;font-stretch:normal;font-size:7.84701633px;line-height:1.25;font-family:'Segoe Script';-inkscape-font-specification:'Segoe Script';letter-spacing:0px;word-spacing:0px;display:inline;fill:#333333;fill-opacity:1;stroke:none;stroke-width:0.19617547"
       id="text35225">
      <path
         d="m 36.347126,255.93718 q 0,0.15326 -0.09962,0.26055 -0.09579,0.11111 -0.252883,0.11111 -0.06897,0 -0.111115,-0.0306 -0.05364,-0.0421 -0.118778,-0.11112 -0.06514,-0.0728 -0.137936,-0.18008 -0.141767,-0.2184 -0.260545,-0.45595 -0.114947,-0.24139 -0.187746,-0.42531 -0.01916,-0.0536 -0.04215,-0.0958 -0.01916,-0.046 -0.04215,-0.092 -0.01916,-0.0498 -0.04215,-0.10345 -0.02299,-0.0575 -0.04981,-0.13794 -0.111115,-0.32951 -0.160925,-0.43296 -0.05364,0.0536 -0.103452,0.0843 -0.04981,0.0268 -0.107283,0.0421 -0.05364,0.0115 -0.114947,0.0153 -0.05747,0 -0.126441,0 -0.03832,0 -0.09579,0.0153 -0.05747,0.0153 -0.126442,0.0345 -0.06514,0.0192 -0.130272,0.0421 -0.06514,0.023 -0.12261,0.0383 -0.191578,0.0536 -0.386987,0.0958 -0.195409,0.0421 -0.402312,0.0843 -0.206904,0.0383 -0.432966,0.0766 -0.226061,0.0345 -0.478944,0.0766 -0.114946,0.0192 -0.218398,0.14943 -0.09962,0.13411 -0.413808,0.57473 -0.306524,0.4368 -0.52109,0.63987 -0.210736,0.20307 -0.409976,0.20307 -0.252883,0 -0.421471,-0.0996 -0.191578,-0.1226 -0.191578,-0.26054 0,-0.0728 0.08046,-0.10345 0.08429,-0.0345 0.226062,-0.0613 0.04598,-0.004 0.210735,-0.18774 0.157093,-0.17625 0.237556,-0.2912 0.160925,-0.21074 0.325682,-0.44829 0.168588,-0.24139 0.375492,-0.54025 0.09962,-0.15326 0.176251,-0.26438 0.07663,-0.11111 0.126441,-0.18774 0.05364,-0.0766 0.118778,-0.17242 0.06897,-0.0958 0.157094,-0.21457 0.03832,-0.0536 0.09196,-0.13027 0.05364,-0.0766 0.126441,-0.17242 0.0728,-0.0996 0.130273,-0.17626 0.0613,-0.0766 0.103452,-0.13793 0.04598,-0.0613 0.114947,-0.15326 0.0728,-0.092 0.168588,-0.2184 0.03065,-0.0383 0.118778,-0.18008 0.09196,-0.14177 0.245219,-0.39082 0.214567,-0.35634 0.279703,-0.52109 0.448292,-1.08816 0.674353,-1.08816 0.09962,0 0.160925,0.0191 0.06131,0.0153 0.09579,0.0575 0.03448,0.0383 0.04598,0.10728 0.01149,0.0651 0.01149,0.16093 0,0.0651 0,0.11494 0,0.0498 -0.0038,0.0805 -0.0038,0.0613 -0.0077,0.1571 -0.0038,0.0958 -0.01149,0.22606 0.191578,0.40231 0.363998,0.86593 0.08812,0.23373 0.183914,0.51343 0.09962,0.27587 0.210735,0.60921 0.111115,0.32952 0.195409,0.56324 0.08429,0.23373 0.137936,0.37933 0.05364,0.1456 0.126441,0.33334 0.07663,0.18775 0.180083,0.4253 0.03832,0.0881 0.287367,0.42531 0.245219,0.33717 0.245219,0.48277 z m -1.697377,-2.26445 q -0.06897,-0.21073 -0.149431,-0.45212 -0.08046,-0.24522 -0.168588,-0.48661 -0.08429,-0.24521 -0.176251,-0.47128 -0.08813,-0.22606 -0.176252,-0.40231 -0.214566,0.2912 -0.406144,0.55941 -0.191578,0.26821 -0.37166,0.54025 -0.176252,0.2682 -0.352503,0.55174 -0.17242,0.28353 -0.352503,0.60538 0.04215,0.0153 0.07663,0.0153 0.05747,0 0.145599,-0.008 0.09196,-0.0115 0.183915,-0.023 0.09579,-0.0153 0.180082,-0.0306 0.08813,-0.0153 0.141768,-0.0268 0.09196,-0.023 0.157093,-0.0383 0.06897,-0.0153 0.130273,-0.0307 0.0613,-0.0153 0.130273,-0.0307 0.0728,-0.0191 0.17242,-0.0421 0.22223,-0.0575 0.440628,-0.11495 0.218398,-0.0613 0.39465,-0.11495 z"
         style="font-style:normal;font-variant:normal;font-weight:normal;font-stretch:normal;font-family:'Segoe Script';-inkscape-font-specification:'Segoe Script';fill:#333333;fill-opacity:1;stroke-width:0.19617547"
         id="path42517" />
      <path
         d="m 40.523517,254.47353 q -0.306524,0.4253 -0.624543,0.77014 -0.314187,0.34484 -0.624543,0.59006 -0.306524,0.24139 -0.601554,0.37549 -0.291197,0.13411 -0.54408,0.13411 -0.409976,0 -0.647532,-0.35251 -0.233724,-0.3525 -0.233724,-1.03835 0,-0.38315 0.04598,-0.84294 0.04598,-0.45978 0.118778,-0.93107 0.0728,-0.47128 0.160925,-0.92723 0.09196,-0.45596 0.183915,-0.83145 0.06897,-0.28736 0.137936,-0.4981 0.0728,-0.21073 0.153262,-0.34484 0.08046,-0.1341 0.172419,-0.19924 0.09579,-0.0651 0.214567,-0.0651 0.07663,0 0.137936,0.0345 0.06514,0.0345 0.111115,0.0881 0.04598,0.0537 0.06897,0.12645 0.02682,0.069 0.02682,0.14176 0,0.069 -0.03832,0.18775 -0.03448,0.11495 -0.09196,0.25671 -0.05364,0.14177 -0.118778,0.29886 -0.06514,0.1571 -0.126441,0.3027 -0.0613,0.14176 -0.111115,0.26437 -0.04598,0.12261 -0.06514,0.19924 -0.05747,0.24905 -0.114947,0.5824 -0.05747,0.32951 -0.107283,0.68585 -0.04598,0.3525 -0.07663,0.705 -0.03065,0.34867 -0.03065,0.63987 0,0.25672 0.04598,0.4253 0.04598,0.16476 0.114946,0.26438 0.0728,0.0958 0.153262,0.13794 0.08429,0.0383 0.157094,0.0383 0.134104,0 0.295029,-0.069 0.160926,-0.0728 0.337177,-0.19924 0.180083,-0.12644 0.367829,-0.29503 0.191577,-0.17242 0.383155,-0.37166 0.191577,-0.19924 0.379323,-0.41764 0.187746,-0.22223 0.360166,-0.44829 0.06514,-0.0881 0.103452,-0.1341 0.03832,-0.046 0.0728,-0.046 0.04215,0 0.0613,0.0498 0.02299,0.046 0.02299,0.12261 0,0.0613 -0.01916,0.13794 -0.01916,0.0728 -0.04981,0.15326 -0.03065,0.0766 -0.0728,0.15326 -0.04215,0.0766 -0.08813,0.1456 z"
         style="font-style:normal;font-variant:normal;font-weight:normal;font-stretch:normal;font-family:'Segoe Script';-inkscape-font-specification:'Segoe Script';fill:#333333;fill-opacity:1;stroke-width:0.19617547"
         id="path42519" />
      <path
         d="m 41.853065,250.58067 q 0,0.24905 -0.130273,0.42531 -0.126441,0.17625 -0.37166,0.17625 -0.153262,0 -0.341008,-0.046 -0.183915,-0.046 -0.183915,-0.14943 0,-0.18775 0.114947,-0.35634 0.118778,-0.17242 0.283535,-0.2797 0.130272,-0.0766 0.172419,-0.0766 0.218399,0 0.337177,0.0613 0.118778,0.0575 0.118778,0.24522 z m 2.509666,3.11505 q 0.0038,0.0805 -0.0728,0.2184 -0.0728,0.13794 -0.203072,0.31419 -0.126441,0.17242 -0.298861,0.37166 -0.168588,0.19924 -0.356334,0.39848 -0.214567,0.22989 -0.455955,0.44446 -0.237556,0.21074 -0.509596,0.40998 -0.536417,0.39848 -0.957888,0.39848 -0.463617,0 -0.720331,-0.31036 -0.256714,-0.31418 -0.348671,-0.75864 -0.09196,-0.44063 -0.09196,-0.90808 0,-0.19541 0.04598,-0.60922 0.02299,-0.2069 0.04598,-0.35633 0.02299,-0.14943 0.04981,-0.24139 0.05364,-0.18008 0.226061,-0.31419 0.176252,-0.14177 0.367829,-0.14177 0.103452,0 0.103452,0.19541 0,0.13028 -0.02682,0.29503 -0.02299,0.16476 -0.04981,0.32569 -0.04981,0.30269 -0.0728,0.54408 -0.02299,0.23755 -0.02299,0.4138 0,0.38699 0.107284,0.78164 0.107283,0.40231 0.386986,0.40231 0.283535,0 0.659027,-0.2069 0.187746,-0.10728 0.375492,-0.23756 0.187746,-0.13027 0.375492,-0.2912 0.191578,-0.16092 0.367829,-0.32185 0.176251,-0.16475 0.34484,-0.33717 0.168588,-0.17242 0.302692,-0.32185 0.134104,-0.14943 0.233725,-0.27587 0.0038,-0.008 0.01149,-0.023 0.0115,-0.0192 0.02299,-0.0345 0.01149,-0.0192 0.02299,-0.0307 0.01149,-0.0115 0.02299,-0.008 0.05364,0 0.08046,0.0843 0.03448,0.0805 0.03448,0.13027 z"
         style="font-style:normal;font-variant:normal;font-weight:normal;font-stretch:normal;font-family:'Segoe Script';-inkscape-font-specification:'Segoe Script';fill:#333333;fill-opacity:1;stroke-width:0.19617547"
         id="path42521" />
      <path
         d="m 47.834115,254.59997 q 0,0.0306 -0.01533,0.0728 -0.0115,0.0383 -0.03065,0.0766 -0.01533,0.0345 -0.03448,0.0651 -0.01533,0.0307 -0.02299,0.0345 -0.287366,0.21074 -0.647532,0.44446 -0.360166,0.23373 -0.762478,0.43297 -0.398482,0.1954 -0.823784,0.32568 -0.425302,0.12644 -0.842941,0.12644 -0.04981,0 -0.130273,-0.0115 -0.08046,-0.0115 -0.183914,-0.0421 -0.09962,-0.0307 -0.214567,-0.0843 -0.111115,-0.0536 -0.226062,-0.13793 -0.05747,-0.0383 -0.118778,-0.10345 -0.0613,-0.069 -0.114946,-0.1456 -0.04981,-0.0766 -0.08429,-0.14943 -0.03448,-0.0766 -0.03448,-0.13411 0,-0.22989 0.02299,-0.44446 0.02682,-0.21457 0.08046,-0.43296 0.02682,-0.13028 0.114946,-0.35251 0.09196,-0.22606 0.241388,-0.47894 0.14943,-0.25671 0.352503,-0.5096 0.206903,-0.25288 0.459786,-0.44062 0.260545,-0.19158 0.49427,-0.28354 0.233724,-0.092 0.42147,-0.092 0.08429,0 0.183915,0.0805 0.09962,0.0766 0.180083,0.19924 0.08429,0.11877 0.137935,0.26437 0.05747,0.1456 0.05747,0.27971 0,0.0766 -0.06131,0.19924 -0.0613,0.11878 -0.157094,0.23372 -0.09196,0.11495 -0.203072,0.19924 -0.111115,0.0805 -0.206904,0.0805 -0.04215,0 -0.07663,-0.0153 -0.03448,-0.0192 -0.03448,-0.0728 0,-0.0575 0.04215,-0.1456 0.04215,-0.092 0.09196,-0.18775 0.04981,-0.0996 0.09196,-0.19157 0.04215,-0.0958 0.04215,-0.16476 0,-0.0306 -0.01149,-0.0651 -0.0077,-0.0383 -0.03065,-0.069 -0.02299,-0.0345 -0.0613,-0.0537 -0.03448,-0.023 -0.09196,-0.023 -0.103452,0 -0.191578,0.023 -0.08429,0.023 -0.172419,0.0805 -0.08813,0.0536 -0.19541,0.14943 -0.107283,0.0958 -0.24905,0.24139 -0.12261,0.13027 -0.241388,0.31418 -0.118778,0.18009 -0.218398,0.39848 -0.09579,0.21457 -0.157094,0.45596 -0.05747,0.23755 -0.05747,0.47894 0,0.1456 0.05364,0.26055 0.05747,0.11111 0.141768,0.19158 0.08813,0.0805 0.195409,0.1226 0.111115,0.0421 0.22223,0.0421 0.241388,0 0.505765,-0.0536 0.264377,-0.0575 0.532585,-0.14943 0.268209,-0.092 0.528754,-0.21074 0.264377,-0.12261 0.501933,-0.25288 0.237556,-0.13027 0.440629,-0.26054 0.203072,-0.13411 0.352502,-0.24905 0.01916,-0.023 0.06514,-0.0498 0.04981,-0.0307 0.0613,-0.0307 0.04215,0 0.06514,0.0728 0.02299,0.069 0.02299,0.14177 z"
         style="font-style:normal;font-variant:normal;font-weight:normal;font-stretch:normal;font-family:'Segoe Script';-inkscape-font-specification:'Segoe Script';fill:#333333;fill-opacity:1;stroke-width:0.19617547"
         id="path42523" />
      <path
         d="m 49.62345,252.64971 q 0,-0.0421 -0.02299,-0.0766 -0.02299,-0.0345 -0.05747,-0.0575 -0.03065,-0.023 -0.06897,-0.0345 -0.03448,-0.0153 -0.06131,-0.0153 -0.168588,0 -0.344839,0.12261 -0.176252,0.11877 -0.329514,0.33334 -0.153262,0.21457 -0.268208,0.5096 -0.114947,0.29503 -0.157094,0.63987 0.05364,-0.0345 0.141767,-0.0996 0.08813,-0.0651 0.187746,-0.14177 0.103452,-0.0805 0.203073,-0.16093 0.103452,-0.0805 0.183914,-0.14943 0.176251,-0.14943 0.291198,-0.26437 0.114946,-0.11878 0.180083,-0.21457 0.06897,-0.0996 0.09579,-0.19158 0.02682,-0.0958 0.02682,-0.19924 z m 1.77784,1.63607 q 0,0.13411 -0.09962,0.2912 -0.09962,0.15709 -0.283535,0.3525 -0.210735,0.22223 -0.463618,0.41381 -0.252882,0.18775 -0.521091,0.32951 -0.268208,0.13794 -0.54408,0.2184 -0.275871,0.0805 -0.532585,0.0805 -0.601554,0 -0.931067,-0.38699 -0.329514,-0.38699 -0.329514,-1.13414 0,-0.23756 0.04215,-0.48278 0.04215,-0.24905 0.12261,-0.49043 0.08429,-0.24139 0.206904,-0.46745 0.126441,-0.22607 0.291198,-0.42147 0.103452,-0.11878 0.229893,-0.24139 0.126441,-0.12261 0.279703,-0.2184 0.153262,-0.0996 0.333345,-0.16093 0.183914,-0.0613 0.398481,-0.0613 0.153262,0 0.275872,0.0613 0.122609,0.0575 0.206904,0.14943 0.08429,0.092 0.126441,0.20691 0.04598,0.11495 0.04598,0.22606 0,0.23372 -0.126441,0.47511 -0.126441,0.23756 -0.356334,0.48278 -0.229893,0.24139 -0.551743,0.4866 -0.321851,0.24139 -0.7165,0.48278 -0.05364,0.0307 -0.107284,0.069 -0.05364,0.0345 -0.05364,0.0881 0,0.11495 0.03065,0.24139 0.03065,0.12644 0.111115,0.23373 0.08046,0.10345 0.214567,0.17242 0.137936,0.069 0.348671,0.069 0.268208,0 0.54408,-0.0843 0.279703,-0.0881 0.54408,-0.24139 0.268209,-0.15326 0.51726,-0.364 0.252882,-0.21073 0.47128,-0.45595 0.12261,-0.1341 0.19541,-0.1341 0.04215,0 0.0613,0.0498 0.01916,0.0498 0.01916,0.16475 z"
         style="font-style:normal;font-variant:normal;font-weight:normal;font-stretch:normal;font-family:'Segoe Script';-inkscape-font-specification:'Segoe Script';fill:#333333;fill-opacity:1;stroke-width:0.19617547"
         id="path42525" />
    </g>
    <g
       style="display:inline"
       id="g35233"
       transform="matrix(2.1694183,0,0,2.1694183,-176.43383,256.2995)">
      <path
         inkscape:connector-curvature="0"
         id="path35227"
         d="m 99.379021,-6.7103416 -0.10922,-0.0011 v -0.112291 -0.112269 h 0.11234 0.11234 v 0.112091 c 0,0.06165 -10e-4,0.112671 -0.003,0.113378 -10e-4,6.91e-4 -0.0523,7.62e-4 -0.11234,1.74e-4 z m -1.935746,-0.568901 v -0.56793 h 0.56793 0.56793 v 0.56793 0.567929 h -0.56793 -0.56793 z m 0.91119,0 v -0.343254 h -0.34326 -0.34325 v 0.343254 0.343254 h 0.34325 0.34326 z m -0.45351,0.0021 v -0.112338 h 0.11233 0.11234 v 0.112338 0.112337 h -0.11234 -0.11233 z m 0.911186,-0.0021 v -0.56793 h 0.34117 0.34117 v 0.114418 0.114419 h 0.1165 0.11649 v -0.114419 -0.114418 h 0.11234 0.11233 v 0.341174 0.341174 h -0.34116 -0.34118 v -0.114418 -0.114418 h -0.11649 -0.1165 v 0.341174 0.341173 h -0.11234 -0.11233 z m 0.91533,0.455591 v -0.112337 h 0.11234 0.11233 v 0.112337 0.112338 h -0.11233 -0.11234 z m -2.284196,-1.8244466 v -0.567929 h 0.56793 0.56793 v 0.567929 0.56793 h -0.56793 -0.56793 z m 0.91119,0 v -0.343254 h -0.34326 -0.34325 v 0.343254 0.343254 h 0.34325 0.34326 z m -0.45351,0.0021 v -0.112326 h 0.11233 0.11234 v 0.112338 0.112337 h -0.11234 -0.11233 z m 0.911186,-0.0021 v -0.567929 h 0.57 0.57 v 0.567929 0.56793 h -0.57 -0.57 z m 0.91533,0 v -0.343254 h -0.34533 -0.34533 v 0.343254 0.343254 h 0.34533 0.34533 z m -0.45767,0.0021 v -0.112326 h 0.11234 0.11234 v 0.112338 0.112337 h -0.11234 -0.11234 z"
         style="fill:#333333;fill-opacity:1;stroke-width:0.00416065" />
      <g
         aria-label="A"
         style="font-style:normal;font-variant:normal;font-weight:normal;font-stretch:normal;font-size:3.52777767px;line-height:1.25;font-family:'Roboto Medium';-inkscape-font-specification:'Roboto Medium, ';letter-spacing:0px;word-spacing:0px;fill:#333333;fill-opacity:1;stroke:none;stroke-width:0.26458332"
         id="text35231">
        <path
           d="m 96.794472,-7.3275383 h -0.971517 l -0.203261,0.5839437 h -0.45303 l 0.947401,-2.5080295 h 0.391019 l 0.949123,2.5080295 H 96.999455 Z M 95.945256,-7.678938 h 0.726915 l -0.363458,-1.0404188 z"
           style="font-size:3.52777767px;fill:#333333;fill-opacity:1;stroke-width:0.26458332"
           id="path42528" />
      </g>
    </g>
    <g
       aria-label="signature"
       style="font-style:normal;font-variant:normal;font-weight:normal;font-stretch:normal;font-size:3.86348605px;line-height:1.25;font-family:'Roboto Medium';-inkscape-font-specification:'Roboto Medium, ';letter-spacing:0px;word-spacing:0px;display:inline;fill:#333333;fill-opacity:1;stroke:none;stroke-width:0.29355758"
       id="text35237">
      <path
         d="m 31.221354,247.35772 q 0,-0.12262 -0.101869,-0.18676 -0.09998,-0.0641 -0.333905,-0.11319 -0.233922,-0.049 -0.390499,-0.12451 -0.343337,-0.16601 -0.343337,-0.48105 0,-0.2641 0.222603,-0.44143 0.222604,-0.17733 0.565941,-0.17733 0.365974,0 0.590464,0.1811 0.226376,0.1811 0.226376,0.46973 h -0.458411 q 0,-0.13205 -0.0981,-0.21883 -0.0981,-0.0887 -0.260332,-0.0887 -0.150918,0 -0.247128,0.0698 -0.09432,0.0698 -0.09432,0.18676 0,0.10564 0.08866,0.16412 0.08866,0.0585 0.358429,0.11885 0.269765,0.0585 0.422569,0.14148 0.15469,0.0811 0.228262,0.1962 0.07546,0.11507 0.07546,0.27919 0,0.27543 -0.228263,0.4471 -0.228262,0.16978 -0.59801,0.16978 -0.2509,0 -0.447093,-0.0906 -0.196192,-0.0906 -0.305608,-0.24902 -0.109415,-0.15846 -0.109415,-0.34145 h 0.445207 q 0.0094,0.16224 0.12262,0.2509 0.113188,0.0868 0.299948,0.0868 0.181101,0 0.275425,-0.0679 0.09432,-0.0698 0.09432,-0.1811 z"
         style="font-size:3.86348605px;fill:#333333;fill-opacity:1;stroke-width:0.29355758"
         id="path42531" />
      <path
         d="m 32.556973,247.91234 h -0.458411 v -2.04116 h 0.458411 z m -0.486708,-2.57126 q 0,-0.10564 0.06603,-0.17544 0.06791,-0.0698 0.19242,-0.0698 0.124507,0 0.192419,0.0698 0.06791,0.0698 0.06791,0.17544 0,0.10376 -0.06791,0.17356 -0.06791,0.0679 -0.192419,0.0679 -0.124507,0 -0.19242,-0.0679 -0.06603,-0.0698 -0.06603,-0.17356 z"
         style="font-size:3.86348605px;fill:#333333;fill-opacity:1;stroke-width:0.29355758"
         id="path42533" />
      <path
         d="m 32.977656,246.87667 q 0,-0.47539 0.222603,-0.75836 0.22449,-0.28486 0.594237,-0.28486 0.348997,0 0.548962,0.24336 l 0.02075,-0.20563 h 0.413136 v 1.9789 q 0,0.40182 -0.2509,0.63386 -0.249014,0.23203 -0.673469,0.23203 -0.22449,0 -0.439547,-0.0943 -0.213171,-0.0924 -0.324473,-0.24335 l 0.216944,-0.27543 q 0.211285,0.2509 0.520665,0.2509 0.228263,0 0.360316,-0.12451 0.132052,-0.12262 0.132052,-0.3622 v -0.13771 q -0.198079,0.22072 -0.528211,0.22072 -0.358429,0 -0.586691,-0.28486 -0.226376,-0.28486 -0.226376,-0.78854 z m 0.456525,0.0396 q 0,0.3075 0.124507,0.48483 0.126393,0.17544 0.348996,0.17544 0.277311,0 0.41125,-0.2377 v -0.89796 q -0.130166,-0.23203 -0.407477,-0.23203 -0.226376,0 -0.352769,0.17921 -0.124507,0.17922 -0.124507,0.52821 z"
         style="font-size:3.86348605px;fill:#333333;fill-opacity:1;stroke-width:0.29355758"
         id="path42535" />
      <path
         d="m 35.671532,245.87118 0.0132,0.23581 q 0.226376,-0.27354 0.594237,-0.27354 0.637627,0 0.648945,0.73006 v 1.34883 h -0.458411 v -1.32242 q 0,-0.1943 -0.08489,-0.28674 -0.08301,-0.0943 -0.273538,-0.0943 -0.277311,0 -0.413137,0.2509 v 1.45258 h -0.458411 v -2.04116 z"
         style="font-size:3.86348605px;fill:#333333;fill-opacity:1;stroke-width:0.29355758"
         id="path42537" />
      <path
         d="m 38.616308,247.91234 q -0.03018,-0.0585 -0.05282,-0.19053 -0.21883,0.22826 -0.535757,0.22826 -0.307494,0 -0.5018,-0.17544 -0.194307,-0.17545 -0.194307,-0.43389 0,-0.32636 0.241468,-0.49992 0.243355,-0.17544 0.694221,-0.17544 h 0.281083 v -0.13394 q 0,-0.15846 -0.08866,-0.25278 -0.08866,-0.0962 -0.269765,-0.0962 -0.156576,0 -0.256559,0.0792 -0.09998,0.0773 -0.09998,0.19808 h -0.458412 q 0,-0.1679 0.111302,-0.31316 0.111301,-0.14714 0.301835,-0.23014 0.192419,-0.083 0.428228,-0.083 0.358429,0 0.5716,0.1811 0.21317,0.17922 0.21883,0.50558 v 0.92059 q 0,0.27543 0.07735,0.43955 v 0.0321 z m -0.503687,-0.33013 q 0.135826,0 0.254673,-0.066 0.120734,-0.066 0.181101,-0.17733 v -0.38484 h -0.247127 q -0.254673,0 -0.382953,0.0887 -0.12828,0.0887 -0.12828,0.2509 0,0.13205 0.08678,0.21128 0.08866,0.0773 0.235808,0.0773 z"
         style="font-size:3.86348605px;fill:#333333;fill-opacity:1;stroke-width:0.29355758"
         id="path42539" />
      <path
         d="m 40.061342,245.37504 v 0.49614 h 0.360316 v 0.33956 h -0.360316 v 1.13943 q 0,0.11696 0.04527,0.16978 0.04716,0.0509 0.16601,0.0509 0.07923,0 0.160349,-0.0189 v 0.35466 q -0.156576,0.0434 -0.301834,0.0434 -0.528211,0 -0.528211,-0.58292 v -1.15641 h -0.335792 v -0.33956 h 0.335792 v -0.49614 z"
         style="font-size:3.86348605px;fill:#333333;fill-opacity:1;stroke-width:0.29355758"
         id="path42541" />
      <path
         d="m 42.00629,247.71237 q -0.201852,0.2377 -0.573486,0.2377 -0.332018,0 -0.503687,-0.19431 -0.169782,-0.1943 -0.169782,-0.56217 v -1.32241 h 0.458412 v 1.31675 q 0,0.38862 0.322586,0.38862 0.333904,0 0.450865,-0.23958 v -1.46579 h 0.458412 v 2.04116 h -0.432001 z"
         style="font-size:3.86348605px;fill:#333333;fill-opacity:1;stroke-width:0.29355758"
         id="path42543" />
      <path
         d="m 43.988968,246.28998 q -0.09055,-0.0151 -0.18676,-0.0151 -0.31504,0 -0.424455,0.24147 v 1.39599 h -0.458412 v -2.04116 h 0.437661 l 0.01132,0.22826 q 0.16601,-0.26599 0.460299,-0.26599 0.0981,0 0.162236,0.0264 z"
         style="font-size:3.86348605px;fill:#333333;fill-opacity:1;stroke-width:0.29355758"
         id="path42545" />
      <path
         d="m 45.139713,247.95007 q -0.435774,0 -0.707425,-0.27354 -0.269765,-0.27542 -0.269765,-0.73195 v -0.0566 q 0,-0.30561 0.116961,-0.54519 0.118847,-0.24147 0.332018,-0.37541 0.213171,-0.13394 0.47539,-0.13394 0.41691,0 0.643286,0.26599 0.228262,0.26599 0.228262,0.7527 v 0.18488 h -1.333732 q 0.02075,0.25278 0.167895,0.39993 0.149031,0.14714 0.373521,0.14714 0.31504,0 0.513119,-0.25467 l 0.247127,0.23581 q -0.12262,0.18299 -0.328245,0.28485 -0.203739,0.1 -0.458412,0.1 z m -0.05471,-1.74876 q -0.188647,0 -0.305608,0.13205 -0.115075,0.13206 -0.147145,0.36787 h 0.873435 v -0.034 q -0.01509,-0.23015 -0.12262,-0.34711 -0.107529,-0.11885 -0.298062,-0.11885 z"
         style="font-size:3.86348605px;fill:#333333;fill-opacity:1;stroke-width:0.29355758"
         id="path42547" />
    </g>
    <g
       aria-label="address"
       style="font-style:normal;font-variant:normal;font-weight:normal;font-stretch:normal;font-size:3.86348605px;line-height:1.25;font-family:'Roboto Medium';-inkscape-font-specification:'Roboto Medium, ';letter-spacing:0px;word-spacing:0px;display:inline;fill:#333333;fill-opacity:1;stroke:none;stroke-width:0.29355758"
       id="text35241">
      <path
         d="m 31.360572,234.22063 q -0.03018,-0.0585 -0.05282,-0.19054 -0.218831,0.22827 -0.535757,0.22827 -0.307494,0 -0.501801,-0.17545 -0.194306,-0.17544 -0.194306,-0.43388 0,-0.32636 0.241468,-0.49992 0.243354,-0.17544 0.69422,-0.17544 h 0.281084 v -0.13394 q 0,-0.15846 -0.08866,-0.25278 -0.08866,-0.0962 -0.269765,-0.0962 -0.156577,0 -0.25656,0.0792 -0.09998,0.0773 -0.09998,0.19808 h -0.458412 q 0,-0.1679 0.111302,-0.31316 0.111301,-0.14714 0.301834,-0.23015 0.19242,-0.083 0.428229,-0.083 0.358428,0 0.571599,0.1811 0.213171,0.17921 0.218831,0.50557 v 0.9206 q 0,0.27542 0.07735,0.43955 v 0.0321 z m -0.503687,-0.33014 q 0.135825,0 0.254673,-0.066 0.120734,-0.066 0.181101,-0.17733 v -0.38484 h -0.247127 q -0.254674,0 -0.382953,0.0887 -0.12828,0.0887 -0.12828,0.2509 0,0.13205 0.08678,0.21128 0.08866,0.0773 0.235809,0.0773 z"
         style="font-size:3.86348605px;fill:#333333;fill-opacity:1;stroke-width:0.29355758"
         id="path42550" />
      <path
         d="m 32.145342,233.18496 q 0,-0.47162 0.218831,-0.75648 0.21883,-0.28674 0.586691,-0.28674 0.324473,0 0.524438,0.22638 v -1.04511 h 0.458412 v 2.89762 h -0.415023 l -0.02264,-0.21129 q -0.205625,0.24902 -0.548962,0.24902 -0.358429,0 -0.581032,-0.28863 -0.220717,-0.28863 -0.220717,-0.78477 z m 0.458412,0.0396 q 0,0.31127 0.118848,0.48671 0.120733,0.17356 0.34145,0.17356 0.281084,0 0.41125,-0.2509 v -0.87155 q -0.126393,-0.24524 -0.407477,-0.24524 -0.222603,0 -0.343337,0.17732 -0.120734,0.17545 -0.120734,0.5301 z"
         style="font-size:3.86348605px;fill:#333333;fill-opacity:1;stroke-width:0.29355758"
         id="path42552" />
      <path
         d="m 34.326099,233.18496 q 0,-0.47162 0.21883,-0.75648 0.218831,-0.28674 0.586692,-0.28674 0.324472,0 0.524438,0.22638 v -1.04511 h 0.458412 v 2.89762 h -0.415023 l -0.02264,-0.21129 q -0.205625,0.24902 -0.548962,0.24902 -0.358429,0 -0.581032,-0.28863 -0.220717,-0.28863 -0.220717,-0.78477 z m 0.458412,0.0396 q 0,0.31127 0.118847,0.48671 0.120734,0.17356 0.341451,0.17356 0.281084,0 0.41125,-0.2509 v -0.87155 q -0.126393,-0.24524 -0.407477,-0.24524 -0.222603,0 -0.343337,0.17732 -0.120734,0.17545 -0.120734,0.5301 z"
         style="font-size:3.86348605px;fill:#333333;fill-opacity:1;stroke-width:0.29355758"
         id="path42554" />
      <path
         d="m 37.661375,232.59826 q -0.09055,-0.0151 -0.186761,-0.0151 -0.31504,0 -0.424455,0.24147 v 1.39599 h -0.458412 v -2.04116 h 0.437661 l 0.01132,0.22826 q 0.166009,-0.26599 0.460298,-0.26599 0.0981,0 0.162236,0.0264 z"
         style="font-size:3.86348605px;fill:#333333;fill-opacity:1;stroke-width:0.29355758"
         id="path42556" />
      <path
         d="m 38.81212,234.25836 q -0.435775,0 -0.707426,-0.27354 -0.269765,-0.27543 -0.269765,-0.73195 v -0.0566 q 0,-0.3056 0.116961,-0.54518 0.118848,-0.24147 0.332019,-0.37541 0.21317,-0.13394 0.475389,-0.13394 0.41691,0 0.643286,0.26599 0.228263,0.26599 0.228263,0.7527 v 0.18488 h -1.333733 q 0.02075,0.25278 0.167895,0.39993 0.149031,0.14714 0.373521,0.14714 0.31504,0 0.513119,-0.25467 l 0.247128,0.23581 q -0.122621,0.18298 -0.328246,0.28485 -0.203738,0.1 -0.458411,0.1 z m -0.05471,-1.74876 q -0.188647,0 -0.305608,0.13205 -0.115074,0.13206 -0.147144,0.36786 h 0.873434 v -0.034 q -0.01509,-0.23015 -0.12262,-0.34711 -0.107529,-0.11885 -0.298062,-0.11885 z"
         style="font-size:3.86348605px;fill:#333333;fill-opacity:1;stroke-width:0.29355758"
         id="path42558" />
      <path
         d="m 41.132475,233.66601 q 0,-0.12263 -0.10187,-0.18677 -0.09998,-0.0641 -0.333904,-0.11318 -0.233923,-0.049 -0.390499,-0.12451 -0.343337,-0.16601 -0.343337,-0.48105 0,-0.2641 0.222603,-0.44143 0.222603,-0.17733 0.56594,-0.17733 0.365975,0 0.590464,0.1811 0.226377,0.1811 0.226377,0.46973 h -0.458412 q 0,-0.13205 -0.0981,-0.21883 -0.0981,-0.0887 -0.260333,-0.0887 -0.150917,0 -0.247127,0.0698 -0.09432,0.0698 -0.09432,0.18676 0,0.10564 0.08866,0.16412 0.08866,0.0585 0.358429,0.11885 0.269765,0.0585 0.422569,0.14148 0.15469,0.0811 0.228263,0.19619 0.07546,0.11508 0.07546,0.2792 0,0.27543 -0.228262,0.44709 -0.228263,0.16979 -0.598011,0.16979 -0.2509,0 -0.447092,-0.0906 -0.196193,-0.0906 -0.305608,-0.24902 -0.109415,-0.15846 -0.109415,-0.34145 h 0.445206 q 0.0094,0.16224 0.12262,0.2509 0.113189,0.0868 0.299949,0.0868 0.181101,0 0.275424,-0.0679 0.09432,-0.0698 0.09432,-0.1811 z"
         style="font-size:3.86348605px;fill:#333333;fill-opacity:1;stroke-width:0.29355758"
         id="path42560" />
      <path
         d="m 43.124585,233.66601 q 0,-0.12263 -0.101869,-0.18677 -0.09998,-0.0641 -0.333905,-0.11318 -0.233922,-0.049 -0.390499,-0.12451 -0.343337,-0.16601 -0.343337,-0.48105 0,-0.2641 0.222603,-0.44143 0.222603,-0.17733 0.56594,-0.17733 0.365975,0 0.590465,0.1811 0.226376,0.1811 0.226376,0.46973 h -0.458412 q 0,-0.13205 -0.0981,-0.21883 -0.0981,-0.0887 -0.260333,-0.0887 -0.150917,0 -0.247127,0.0698 -0.09432,0.0698 -0.09432,0.18676 0,0.10564 0.08866,0.16412 0.08866,0.0585 0.358429,0.11885 0.269764,0.0585 0.422568,0.14148 0.154691,0.0811 0.228263,0.19619 0.07546,0.11508 0.07546,0.2792 0,0.27543 -0.228263,0.44709 -0.228263,0.16979 -0.59801,0.16979 -0.2509,0 -0.447093,-0.0906 -0.196193,-0.0906 -0.305608,-0.24902 -0.109415,-0.15846 -0.109415,-0.34145 h 0.445206 q 0.0094,0.16224 0.122621,0.2509 0.113188,0.0868 0.299948,0.0868 0.181101,0 0.275424,-0.0679 0.09432,-0.0698 0.09432,-0.1811 z"
         style="font-size:3.86348605px;fill:#333333;fill-opacity:1;stroke-width:0.29355758"
         id="path42562" />
    </g>
    <path
       style="display:inline;opacity:1;fill:#ffffff;fill-opacity:1;stroke:#333333;stroke-width:0.1;stroke-miterlimit:4;stroke-dasharray:none;stroke-dashoffset:0;stroke-opacity:1"
       d="M 3.5127592,262.68527 H 54.95053 v 30.96385 H 3.5127592 Z"
       id="rect35484" />
    <path
       inkscape:connector-curvature="0"
       id="path35243"
       d="m 46.501624,287.34721 4.74438,-3.296 -0.77662,-1.03148 c -0.42715,-0.56732 -0.89234,-1.27722 -1.03372,-1.57756 -0.39634,-0.84184 -0.34105,-2.313 0.16041,-4.26956 0.10837,-0.42285 0.13635,-0.44349 0.51803,-0.38156 0.6691,0.10857 1.05165,-0.19027 1.57617,-1.23134 0.46845,-0.92973 0.48379,-1.05653 0.22071,-1.8233 -0.0687,-0.20022 -0.21596,-0.69169 -0.32722,-1.09215 -0.7477,-2.69089 -3.25991,-4.85585 -6.48617,-5.58965 -0.55412,-0.12602 -0.9718,-0.29467 -1.08933,-0.4398 -0.23414,-0.28915 -1.14073,-0.43663 -1.39365,-0.22673 -0.13759,0.11426 -0.54388,0.11422 -1.85177,-1.5e-4 -3.75668,-0.32856 -6.07616,0.24846 -7.82527,1.94672 -1.29458,1.25692 -1.04646,2.02132 0.84972,2.61773 l 0.68681,0.21603 -1.69033,0.56354 c -0.92965,0.30995 -1.71088,0.62523 -1.73601,0.70063 -0.0731,0.21883 0.74406,0.31029 2.1685,0.24278 l 1.31781,-0.0625 -0.0771,0.31906 c -0.12873,0.53329 -0.25505,0.81861 -0.44707,1.01064 -0.10078,0.10075 -0.26842,0.3872 -0.37263,0.63656 -0.21028,0.50328 -0.1565,0.68373 0.3423,1.15036 0.17296,0.16181 0.31451,0.34658 0.31451,0.41059 0,0.064 -0.35178,0.66884 -0.78172,1.34404 -0.42994,0.67521 -0.95569,1.60015 -1.16833,2.05546 -0.32444,0.69466 -0.36504,0.87522 -0.25237,1.12249 0.12689,0.27844 0.19127,0.29467 1.16835,0.29467 1.1655,0 1.2168,0.0559 0.85206,0.92885 -0.2488,0.59544 -0.23157,0.70854 0.13348,0.87482 0.30465,0.13882 0.30866,0.15408 0.11701,0.44659 -0.18919,0.28876 -0.18386,0.32202 0.11516,0.71393 0.50264,0.65899 0.52156,1.1572 0.0689,1.81509 -0.35901,0.5218 -0.37162,0.5761 -0.20752,0.89161 0.25192,0.48425 0.70391,0.87011 1.17876,1.00629 0.60116,0.17242 2.4747,0.13725 3.38771,-0.0636 1.16832,-0.25698 1.16591,-0.2577 1.32792,0.39439 0.12996,0.52272 1.31786,2.70341 1.46314,2.68581 0.0333,-0.004 2.19564,-1.49056 4.80506,-3.30336 z"
       style="display:inline;fill:#333333;fill-opacity:1;stroke-width:0.12135061" />
    <g
       aria-label="Bob"
       style="font-style:normal;font-variant:normal;font-weight:normal;font-stretch:normal;font-size:7.89106274px;line-height:1.25;font-family:'Segoe Script';-inkscape-font-specification:'Segoe Script';letter-spacing:0px;word-spacing:0px;display:inline;fill:#333333;fill-opacity:1;stroke:none;stroke-width:0.19727664"
       id="text35247">
      <path
         d="m 12.387229,288.20308 q 0,0.0886 -0.02312,0.2543 -0.02312,0.16954 -0.03468,0.19651 -0.05009,0.20036 -0.181093,0.43925 -0.131004,0.23503 -0.304392,0.45466 -0.165681,0.21191 -0.335216,0.38145 -0.169534,0.16568 -0.288979,0.24659 -0.123298,0.0886 -0.312098,0.17339 -0.184947,0.0886 -0.439249,0.16568 -0.5047501,0.15798 -0.8823498,0.15798 -0.3236569,0 -0.593371,-0.11559 -0.269714,-0.10789 -0.269714,-0.41999 0,-0.1888 0.096326,-0.27356 0.1001795,-0.0886 0.3544814,-0.0886 0.2812732,0 0.4893383,0.0963 0.2119182,0.0925 0.3621877,0.0925 0.08477,0 0.339069,-0.0578 0.250449,-0.0617 0.396865,-0.16183 0.161828,-0.10788 0.335216,-0.27742 0.173388,-0.17339 0.315951,-0.36989 0.146416,-0.20036 0.235036,-0.40457 0.08862,-0.20421 0.08477,-0.38531 0,-0.26201 -0.208065,-0.46622 -0.208065,-0.20806 -0.489338,-0.32366 -0.285126,-0.11559 -0.485485,-0.11559 -0.308245,0 -0.470073,0.0462 -0.1656819,0.0424 -0.3159512,0.11559 -0.1502692,0.0732 -0.2581548,0.0732 -0.1232979,0 -0.2543019,-0.0809 -0.1310039,-0.0809 -0.1310039,-0.20422 0,-0.10788 0.030824,-0.18494 0.034677,-0.0809 0.08862,-0.13486 0.053943,-0.0578 0.1232978,-0.0886 0.069355,-0.0347 0.1464162,-0.0501 0.077061,-0.0193 0.1656815,-0.0308 0.08862,-0.0154 0.1887998,-0.0231 0.2003587,-0.0154 0.2427427,-0.0385 0.265861,-0.15413 0.547134,-0.36604 0.146416,-0.10789 0.269714,-0.21963 0.127151,-0.11559 0.23889,-0.23504 0.223477,-0.23503 0.223477,-0.3853 0,-0.20421 -0.169534,-0.30825 -0.169535,-0.10403 -0.558694,-0.10403 -0.127151,0 -0.273567,0.0116 -0.146416,0.0116 -0.300538,0.0385 -0.1541227,0.0231 -0.312098,0.0616 -0.1541224,0.0347 -0.3043916,0.0809 -0.1502693,0.0462 -0.2889794,0.10404 -0.1387101,0.0578 -0.2581549,0.12715 -0.1194448,0.0694 -0.2119181,0.15027 -0.092473,0.0771 -0.1502693,0.16183 -0.030824,0.0462 -0.046237,0.15797 -0.011559,0.10789 -0.023118,0.34678 -0.00385,0.11944 -0.00771,0.262 -0.00385,0.13871 -0.011559,0.3121 -0.00771,0.17339 -0.015412,0.30054 -0.00385,0.1233 -0.011559,0.21192 -0.00771,0.0732 -0.023118,0.18109 -0.011559,0.10404 -0.030824,0.2466 -0.038531,0.27742 -0.061649,0.48163 -0.019265,0.20421 -0.019265,0.38531 0,0.0616 0.00385,0.15027 0.00385,0.0848 0.011559,0.1965 0.00771,0.11174 0.011559,0.20036 0.00385,0.0848 0.00385,0.13871 0,0.33522 -0.08862,0.49319 -0.08862,0.15412 -0.2966855,0.15412 -0.4585139,0 -0.4585139,-0.78217 0,-0.0925 0.092473,-0.62034 0.092473,-0.52401 0.1040325,-0.65502 0.019265,-0.17724 0.030825,-0.33521 0.015412,-0.15798 0.030824,-0.30054 0.015412,-0.14257 0.034677,-0.33522 0.019265,-0.19265 0.046237,-0.4431 0.019265,-0.15412 0.026971,-0.25045 0.011559,-0.0963 0.011559,-0.13486 0,-0.0925 -0.026971,-0.20421 -0.015412,-0.0616 -0.023118,-0.10403 -0.00385,-0.0462 -0.00385,-0.0732 0,-0.28513 0.1040325,-0.48934 0.1348571,-0.26971 0.2196243,-0.27356 0.1348571,-0.0193 0.2543019,-0.0462 0.1194448,-0.0308 0.2273304,-0.0655 0.5008975,-0.16954 0.7898769,-0.26586 0.2928324,-0.0963 0.3814527,-0.1233 0.1772407,-0.0578 0.3698937,-0.0809 0.100179,-0.0154 0.238889,-0.0193 0.138711,-0.008 0.323657,-0.008 h 0.215772 q 0.08091,-0.004 0.211918,0.0385 0.134857,0.0424 0.269714,0.11174 0.13871,0.0694 0.254302,0.15798 0.115591,0.0848 0.161828,0.17338 0.05394,0.0809 0.09247,0.2466 0.01927,0.0848 0.03083,0.15412 0.01156,0.0655 0.01156,0.11945 0,0.31209 -0.269714,0.6396 -0.265861,0.32751 -0.778318,0.74364 0.285127,0.0578 0.547135,0.1888 0.265861,0.12716 0.46622,0.3044 0.204212,0.17338 0.323656,0.38145 0.123298,0.20421 0.123298,0.41613 z"
         style="font-style:normal;font-variant:normal;font-weight:normal;font-stretch:normal;font-family:'Segoe Script';-inkscape-font-specification:'Segoe Script';fill:#333333;fill-opacity:1;stroke-width:0.19727664"
         id="path42566" />
      <path
         d="m 18.340204,286.86222 q 0,0.22347 -0.285126,0.40842 -0.123298,0.0809 -0.285127,0.15412 -0.161828,0.0694 -0.335216,0.12715 -0.169534,0.0578 -0.339069,0.10018 -0.169534,0.0385 -0.308244,0.0539 -0.0655,0.008 -0.443102,0.0231 -0.385306,0.0193 -0.408424,0.0424 -0.06935,0.0693 -0.09633,0.21577 -0.0077,0.0385 -0.01541,0.0809 -0.0039,0.0385 -0.0077,0.10403 -0.0039,0.0655 -0.0077,0.16569 0,0.0963 0,0.24659 0,0.0925 -0.01927,0.20036 -0.01541,0.10789 -0.04624,0.21577 -0.03083,0.10403 -0.07706,0.20421 -0.04624,0.0963 -0.104033,0.16954 -0.08862,0.11944 -0.223477,0.23889 -0.131004,0.11944 -0.28898,0.23504 -0.157975,0.11173 -0.335216,0.21191 -0.17724,0.10018 -0.358334,0.17339 -0.177241,0.0732 -0.350628,0.11559 -0.169535,0.0424 -0.319804,0.0424 -0.258155,0 -0.42769,-0.0886 -0.169534,-0.0886 -0.269714,-0.23889 -0.09633,-0.15027 -0.13871,-0.35063 -0.03853,-0.20036 -0.03853,-0.42769 0,-0.23118 0.05394,-0.44696 0.05394,-0.21962 0.13871,-0.43154 0.08862,-0.21192 0.192653,-0.41613 0.107885,-0.20806 0.211918,-0.41613 0.100179,-0.16568 0.181093,-0.31595 0.08477,-0.15027 0.165682,-0.28127 0.08477,-0.13101 0.177241,-0.23504 0.09247,-0.10403 0.219624,-0.17724 0.127151,-0.0771 0.296685,-0.11559 0.169535,-0.0424 0.404571,-0.0424 0.104033,0 0.181094,0.027 0.08091,0.027 0.146416,0.0771 0.0655,0.0501 0.123298,0.11944 0.06165,0.0694 0.131004,0.15412 0.07706,0.0963 0.131004,0.16183 0.0578,0.0655 0.09247,0.10018 0.07321,0.0655 0.188799,0.0963 0.115592,0.027 0.32751,0.027 0.281274,0 0.454661,-0.0116 0.173388,-0.0116 0.315951,-0.0347 0.161828,-0.027 0.296685,-0.0578 0.134857,-0.0308 0.265861,-0.0655 0.134857,-0.0347 0.273568,-0.0732 0.13871,-0.0424 0.300538,-0.0963 0.08091,-0.0231 0.181094,-0.0231 0.07706,0 0.07706,0.0539 z m -3.067034,0.97867 q 0,-0.15412 -0.02312,-0.22733 -0.02312,-0.0771 -0.06165,-0.1233 -0.03853,-0.0462 -0.08862,-0.0925 -0.05009,-0.0462 -0.104032,-0.14642 -0.0578,-0.10788 -0.104033,-0.15797 -0.04238,-0.0501 -0.150269,-0.0501 -0.269714,0 -0.51631,0.26971 -0.123298,0.13486 -0.235037,0.30825 -0.111738,0.16953 -0.208065,0.3776 -0.07706,0.16183 -0.150269,0.35448 -0.07321,0.1888 -0.131004,0.3853 -0.0578,0.19651 -0.09633,0.38916 -0.03468,0.1888 -0.03468,0.35448 0,0.0694 0.03083,0.13486 0.03082,0.0655 0.09247,0.11559 0.06165,0.0501 0.146416,0.0809 0.08862,0.0308 0.204212,0.0308 0.08477,0 0.211918,-0.0501 0.131004,-0.0501 0.265861,-0.1233 0.134858,-0.0732 0.250449,-0.15412 0.119445,-0.0848 0.184947,-0.15027 0.184947,-0.1965 0.288979,-0.35833 0.104033,-0.16183 0.154123,-0.32751 0.05009,-0.16954 0.06165,-0.36604 0.01156,-0.20036 0.01156,-0.47393 z"
         style="font-style:normal;font-variant:normal;font-weight:normal;font-stretch:normal;font-family:'Segoe Script';-inkscape-font-specification:'Segoe Script';fill:#333333;fill-opacity:1;stroke-width:0.19727664"
         id="path42568" />
      <path
         d="m 20.883222,287.99116 q 0,0.38531 -0.131004,0.76291 -0.127151,0.37374 -0.342922,0.71667 -0.215771,0.33906 -0.500897,0.6319 -0.281274,0.29283 -0.593371,0.51245 -0.312098,0.22348 -0.631902,0.35834 -0.319804,0.13871 -0.60493,0.16568 -0.07706,-0.004 -0.154122,-0.0347 -0.07321,-0.0308 -0.13871,-0.0732 -0.06165,-0.0424 -0.10018,-0.0963 -0.03853,-0.0501 -0.03853,-0.0925 0,-0.0693 0.04624,-0.13485 0.04624,-0.0616 0.146417,-0.11559 0.215771,0 0.446954,-0.0616 0.235037,-0.0616 0.470073,-0.17724 0.235037,-0.1156 0.458514,-0.27742 0.227331,-0.16569 0.423837,-0.3699 0.165681,-0.16953 0.292832,-0.36604 0.131004,-0.20036 0.219624,-0.40457 0.08862,-0.20421 0.134857,-0.40457 0.04624,-0.20421 0.04624,-0.38145 0,-0.0809 -0.01927,-0.15027 -0.01541,-0.0694 -0.04624,-0.11559 -0.02697,-0.0501 -0.06165,-0.0771 -0.03468,-0.027 -0.06935,-0.027 -0.200359,0 -0.431542,0.11559 -0.231184,0.11174 -0.46622,0.30054 -0.235037,0.1888 -0.458514,0.4354 -0.223478,0.24659 -0.412277,0.51631 -0.184947,0.26971 -0.323657,0.54328 -0.13871,0.26971 -0.196506,0.50475 -0.01927,0.0886 -0.0655,0.18495 -0.04238,0.0963 -0.10018,0.17338 -0.0578,0.0771 -0.123298,0.11945 -0.06165,0.0462 -0.119444,0.027 -0.165682,-0.0616 -0.165682,-0.33907 0,-0.0655 0.03468,-0.23118 0.03853,-0.16954 0.104032,-0.40843 0.07706,-0.30053 0.131004,-0.54713 0.0578,-0.25045 0.104033,-0.48934 0.05009,-0.24274 0.09633,-0.49319 0.04624,-0.2543 0.104033,-0.5664 0.0578,-0.29668 0.111738,-0.55869 0.0578,-0.26586 0.123298,-0.52017 0.0655,-0.25815 0.142563,-0.51245 0.07706,-0.25816 0.177241,-0.53558 0.08091,-0.23118 0.165682,-0.38916 0.08862,-0.16182 0.173387,-0.262 0.08477,-0.10404 0.165682,-0.15027 0.08091,-0.0462 0.150269,-0.0462 0.04624,0 0.09247,0.0154 0.05009,0.0116 0.09247,0.0501 0.04238,0.0347 0.06935,0.10018 0.02697,0.0616 0.02697,0.15798 0,0.131 -0.02697,0.262 -0.02697,0.13101 -0.06935,0.26201 -0.03853,0.12715 -0.08862,0.25045 -0.05009,0.1233 -0.09633,0.23889 -0.05394,0.13486 -0.131004,0.30054 -0.07706,0.16183 -0.154122,0.33136 -0.07706,0.16568 -0.146417,0.31981 -0.0655,0.15412 -0.104032,0.26586 -0.01541,0.0424 -0.04624,0.15797 -0.03082,0.11174 -0.06936,0.26586 -0.03468,0.15413 -0.07706,0.33522 -0.04238,0.17724 -0.08091,0.35063 -0.03468,0.16953 -0.0655,0.3198 -0.02697,0.14642 -0.03853,0.23889 0.115592,-0.18495 0.273567,-0.38145 0.161829,-0.20036 0.346775,-0.38916 0.184947,-0.1888 0.385306,-0.35448 0.200359,-0.16954 0.396865,-0.29669 0.200359,-0.12715 0.385306,-0.20036 0.184947,-0.0732 0.339069,-0.0732 0.0578,0 0.119445,0 0.06165,0 0.115592,0.0116 0.05394,0.0115 0.09633,0.0385 0.04624,0.0231 0.07706,0.0694 0.04624,0.0694 0.08477,0.16183 0.03853,0.0886 0.0655,0.18495 0.02697,0.0925 0.03853,0.18494 0.01541,0.0886 0.01541,0.16183 z"
         style="font-style:normal;font-variant:normal;font-weight:normal;font-stretch:normal;font-family:'Segoe Script';-inkscape-font-specification:'Segoe Script';fill:#333333;fill-opacity:1;stroke-width:0.19727664"
         id="path42570" />
    </g>
    <g
       style="display:inline"
       id="g35263"
       transform="matrix(1.9137376,0,0,1.9137376,-224.02748,390.10961)">
      <path
         inkscape:connector-curvature="0"
         id="path35249"
         d="m 125.51047,-59.29209 -0.12721,-0.0013 v -0.130793 -0.130767 h 0.13085 0.13085 v 0.13056 c 0,0.07181 -10e-4,0.131236 -0.004,0.132059 -0.001,8.05e-4 -0.0609,8.88e-4 -0.13085,2.03e-4 z m -2.25469,-0.662637 v -0.661507 h 0.66151 0.6615 v 0.661507 0.661505 h -0.6615 -0.66151 z m 1.06132,0 v -0.399812 h -0.39981 -0.39981 v 0.399812 0.399811 h 0.39981 0.39981 z m -0.52823,0.0024 v -0.130848 h 0.13084 0.13085 v 0.130848 0.130846 h -0.13085 -0.13084 z m 1.06132,-0.0024 v -0.661507 h 0.39738 0.39739 v 0.13327 0.133272 h 0.13569 0.13569 v -0.133272 -0.13327 h 0.13085 0.13084 v 0.397389 0.397388 h -0.39738 -0.39739 v -0.13327 -0.133271 h -0.13569 -0.13569 v 0.397389 0.397387 h -0.13085 -0.13084 z m 1.06615,0.530658 v -0.130847 h 0.13085 0.13084 v 0.130847 0.130847 h -0.13084 -0.13085 z m -2.66056,-2.125058 v -0.661505 h 0.66151 0.6615 v 0.661505 0.661507 h -0.6615 -0.66151 z m 1.06132,0 v -0.399811 h -0.39981 -0.39981 v 0.399811 0.399812 h 0.39981 0.39981 z m -0.52823,0.0024 v -0.130834 h 0.13084 0.13085 v 0.130848 0.130847 h -0.13085 -0.13084 z m 1.06132,-0.0024 v -0.661505 h 0.66392 0.66392 v 0.661505 0.661507 h -0.66392 -0.66392 z m 1.06615,0 v -0.399811 h -0.40223 -0.40223 v 0.399811 0.399812 h 0.40223 0.40223 z m -0.53308,0.0024 v -0.130834 h 0.13085 0.13085 v 0.130848 0.130847 h -0.13085 -0.13085 z"
         style="fill:#333333;fill-opacity:1;stroke-width:0.00484619" />
      <g
         aria-label="B"
         style="font-style:normal;font-variant:normal;font-weight:normal;font-stretch:normal;font-size:4.10904312px;line-height:1.25;font-family:'Roboto Medium';-inkscape-font-specification:'Roboto Medium, ';letter-spacing:0px;word-spacing:0px;fill:#333333;fill-opacity:1;stroke:none;stroke-width:0.30817825"
         id="text35253">
        <path
           d="m 120.86488,-59.330822 v -2.921273 h 1.00118 q 0.49557,0 0.75439,0.198631 0.25883,0.19863 0.25883,0.591878 0,0.200637 -0.10835,0.361147 -0.10834,0.160509 -0.317,0.24879 0.23675,0.0642 0.36516,0.24277 0.13041,0.176561 0.13041,0.42535 0,0.411306 -0.26484,0.632006 -0.26284,0.220701 -0.7544,0.220701 z m 0.50761,-1.318184 v 0.912898 h 0.56379 q 0.23876,0 0.37319,-0.118376 0.13442,-0.118376 0.13442,-0.329045 0,-0.455445 -0.46547,-0.465477 z m 0,-0.373185 h 0.49758 q 0.23675,0 0.36917,-0.106337 0.13443,-0.108344 0.13443,-0.304968 0,-0.216688 -0.12439,-0.312994 -0.12239,-0.09631 -0.38322,-0.09631 h -0.49357 z"
           style="font-size:4.10904312px;fill:#333333;fill-opacity:1;stroke-width:0.30817825"
           id="path42573" />
      </g>
      <g
         style="font-style:normal;font-variant:normal;font-weight:normal;font-stretch:normal;font-size:10.66666698px;line-height:1.25;font-family:'Roboto Medium';-inkscape-font-specification:'Roboto Medium, ';letter-spacing:0px;word-spacing:0px;fill:#000000;fill-opacity:1;stroke:none"
         id="flowRoot35261" />
    </g>
    <g
       aria-label="signature"
       style="font-style:normal;font-variant:normal;font-weight:normal;font-stretch:normal;font-size:3.86348605px;line-height:1.25;font-family:'Roboto Medium';-inkscape-font-specification:'Roboto Medium, ';letter-spacing:0px;word-spacing:0px;display:inline;fill:#333333;fill-opacity:1;stroke:none;stroke-width:0.29355758"
       id="text35267">
      <path
         d="m 8.4815499,281.74909 q 0,-0.12262 -0.1018693,-0.18676 -0.099983,-0.0641 -0.3339048,-0.11319 -0.233922,-0.0491 -0.3904988,-0.12451 -0.3433372,-0.16601 -0.3433372,-0.48105 0,-0.2641 0.2226032,-0.44143 0.2226032,-0.17733 0.5659404,-0.17733 0.3659747,0 0.5904644,0.1811 0.2263761,0.18111 0.2263761,0.46973 H 8.4589123 q 0,-0.13205 -0.098096,-0.21883 -0.098096,-0.0887 -0.2603325,-0.0887 -0.1509174,0 -0.2471273,0.0698 -0.094323,0.0698 -0.094323,0.18676 0,0.10564 0.088664,0.16412 0.088664,0.0585 0.3584289,0.11885 0.2697649,0.0585 0.4225688,0.14149 0.1546903,0.0811 0.2282626,0.19619 0.075459,0.11507 0.075459,0.2792 0,0.27542 -0.2282626,0.44709 -0.2282626,0.16978 -0.5980103,0.16978 -0.2509002,0 -0.4470929,-0.0905 -0.1961926,-0.0906 -0.3056078,-0.24901 -0.1094151,-0.15847 -0.1094151,-0.34145 h 0.4452064 q 0.00943,0.16223 0.1226204,0.2509 0.1131881,0.0868 0.2999484,0.0868 0.1811009,0 0.2754243,-0.0679 0.094323,-0.0698 0.094323,-0.1811 z"
         style="font-size:3.86348605px;fill:#333333;fill-opacity:1;stroke-width:0.29355758"
         id="path42577" />
      <path
         d="M 9.8171691,282.30371 H 9.3587574 v -2.04116 h 0.4584117 z m -0.4867087,-2.57125 q 0,-0.10565 0.066026,-0.17545 0.067913,-0.0698 0.1924197,-0.0698 0.1245069,0 0.1924197,0.0698 0.067913,0.0698 0.067913,0.17545 0,0.10375 -0.067913,0.17355 -0.067913,0.0679 -0.1924197,0.0679 -0.1245069,0 -0.1924197,-0.0679 -0.066026,-0.0698 -0.066026,-0.17355 z"
         style="font-size:3.86348605px;fill:#333333;fill-opacity:1;stroke-width:0.29355758"
         id="path42579" />
      <path
         d="m 10.237851,281.26804 q 0,-0.47539 0.222604,-0.75836 0.224489,-0.28486 0.594237,-0.28486 0.348997,0 0.548962,0.24336 l 0.02075,-0.20563 h 0.413137 v 1.97891 q 0,0.40182 -0.2509,0.63385 -0.249014,0.23204 -0.673469,0.23204 -0.22449,0 -0.439547,-0.0943 -0.213171,-0.0924 -0.324473,-0.24335 l 0.216944,-0.27543 q 0.211284,0.2509 0.520665,0.2509 0.228263,0 0.360315,-0.1245 0.132053,-0.12262 0.132053,-0.3622 v -0.13772 q -0.198079,0.22072 -0.528211,0.22072 -0.358429,0 -0.586691,-0.28486 -0.226377,-0.28485 -0.226377,-0.78854 z m 0.456526,0.0396 q 0,0.30749 0.124507,0.48482 0.126393,0.17544 0.348996,0.17544 0.277311,0 0.41125,-0.2377 v -0.89795 q -0.130166,-0.23204 -0.407477,-0.23204 -0.226376,0 -0.352769,0.17921 -0.124507,0.17922 -0.124507,0.52822 z"
         style="font-size:3.86348605px;fill:#333333;fill-opacity:1;stroke-width:0.29355758"
         id="path42581" />
      <path
         d="m 12.931728,280.26255 0.01321,0.23581 q 0.226376,-0.27354 0.594237,-0.27354 0.637626,0 0.648945,0.73007 v 1.34882 h -0.458412 v -1.32241 q 0,-0.19431 -0.08489,-0.28675 -0.083,-0.0943 -0.273537,-0.0943 -0.277311,0 -0.413137,0.2509 v 1.45258 h -0.458412 v -2.04116 z"
         style="font-size:3.86348605px;fill:#333333;fill-opacity:1;stroke-width:0.29355758"
         id="path42583" />
      <path
         d="m 15.876504,282.30371 q -0.03018,-0.0585 -0.05282,-0.19053 -0.218831,0.22826 -0.535757,0.22826 -0.307494,0 -0.501801,-0.17544 -0.194306,-0.17544 -0.194306,-0.43389 0,-0.32636 0.241468,-0.49991 0.243354,-0.17544 0.69422,-0.17544 h 0.281084 v -0.13394 q 0,-0.15847 -0.08866,-0.25279 -0.08866,-0.0962 -0.269765,-0.0962 -0.156577,0 -0.25656,0.0792 -0.09998,0.0773 -0.09998,0.19808 h -0.458412 q 0,-0.16789 0.111302,-0.31315 0.111301,-0.14715 0.301834,-0.23015 0.19242,-0.083 0.428229,-0.083 0.358429,0 0.571599,0.1811 0.213171,0.17922 0.218831,0.50558 v 0.92059 q 0,0.27543 0.07735,0.43955 v 0.0321 z m -0.503687,-0.33013 q 0.135826,0 0.254673,-0.066 0.120734,-0.066 0.181101,-0.17733 v -0.38483 h -0.247127 q -0.254673,0 -0.382953,0.0887 -0.12828,0.0887 -0.12828,0.2509 0,0.13205 0.08678,0.21128 0.08866,0.0774 0.235809,0.0774 z"
         style="font-size:3.86348605px;fill:#333333;fill-opacity:1;stroke-width:0.29355758"
         id="path42585" />
      <path
         d="m 17.321538,279.76641 v 0.49614 h 0.360315 v 0.33957 h -0.360315 v 1.13942 q 0,0.11696 0.04528,0.16979 0.04716,0.0509 0.166009,0.0509 0.07923,0 0.16035,-0.0189 v 0.35465 q -0.156577,0.0434 -0.301835,0.0434 -0.528211,0 -0.528211,-0.58292 v -1.1564 h -0.335791 v -0.33957 h 0.335791 v -0.49614 z"
         style="font-size:3.86348605px;fill:#333333;fill-opacity:1;stroke-width:0.29355758"
         id="path42587" />
      <path
         d="m 19.266486,282.10375 q -0.201852,0.23769 -0.573486,0.23769 -0.332019,0 -0.503687,-0.19431 -0.169782,-0.1943 -0.169782,-0.56216 v -1.32242 h 0.458411 v 1.31676 q 0,0.38861 0.322586,0.38861 0.333905,0 0.450866,-0.23958 v -1.46579 h 0.458412 v 2.04116 h -0.432001 z"
         style="font-size:3.86348605px;fill:#333333;fill-opacity:1;stroke-width:0.29355758"
         id="path42589" />
      <path
         d="m 21.249164,280.68135 q -0.09055,-0.0151 -0.18676,-0.0151 -0.31504,0 -0.424456,0.24146 v 1.39599 h -0.458411 v -2.04116 h 0.43766 l 0.01132,0.22827 q 0.166009,-0.266 0.460298,-0.266 0.0981,0 0.162237,0.0264 z"
         style="font-size:3.86348605px;fill:#333333;fill-opacity:1;stroke-width:0.29355758"
         id="path42591" />
      <path
         d="m 22.399909,282.34144 q -0.435774,0 -0.707425,-0.27354 -0.269765,-0.27542 -0.269765,-0.73195 v -0.0566 q 0,-0.30561 0.116961,-0.54519 0.118847,-0.24147 0.332018,-0.37541 0.213171,-0.13394 0.47539,-0.13394 0.416909,0 0.643285,0.266 0.228263,0.26599 0.228263,0.7527 v 0.18487 h -1.333733 q 0.02075,0.25279 0.167896,0.39993 0.149031,0.14715 0.373521,0.14715 0.31504,0 0.513119,-0.25468 l 0.247127,0.23581 q -0.12262,0.18299 -0.328245,0.28486 -0.203739,0.1 -0.458412,0.1 z m -0.05471,-1.74876 q -0.188646,0 -0.305607,0.13206 -0.115075,0.13205 -0.147145,0.36786 h 0.873435 v -0.034 q -0.01509,-0.23015 -0.122621,-0.34711 -0.107528,-0.11885 -0.298062,-0.11885 z"
         style="font-size:3.86348605px;fill:#333333;fill-opacity:1;stroke-width:0.29355758"
         id="path42593" />
    </g>
    <g
       aria-label="address"
       style="font-style:normal;font-variant:normal;font-weight:normal;font-stretch:normal;font-size:3.86348605px;line-height:1.25;font-family:'Roboto Medium';-inkscape-font-specification:'Roboto Medium, ';letter-spacing:0px;word-spacing:0px;display:inline;fill:#333333;fill-opacity:1;stroke:none;stroke-width:0.29355758"
       id="text35271">
      <path
         d="m 8.742586,268.99197 q -0.030183,-0.0585 -0.052821,-0.19053 -0.2188303,0.22826 -0.5357569,0.22826 -0.3074942,0 -0.5018004,-0.17544 -0.1943062,-0.17544 -0.1943062,-0.43389 0,-0.32635 0.2414679,-0.49991 0.2433543,-0.17544 0.6942201,-0.17544 h 0.2810837 v -0.13394 q 0,-0.15846 -0.088664,-0.25279 -0.088664,-0.0962 -0.2697649,-0.0962 -0.1565769,0 -0.2565597,0.0792 -0.099983,0.0773 -0.099983,0.19808 H 7.5012902 q 0,-0.16789 0.1113016,-0.31315 0.1113016,-0.14714 0.3018348,-0.23015 0.1924197,-0.083 0.4282282,-0.083 0.3584289,0 0.5715998,0.1811 0.2131708,0.17921 0.2188302,0.50557 v 0.9206 q 0,0.27542 0.077345,0.43954 v 0.0321 z m -0.5036869,-0.33013 q 0.1358257,0 0.2546731,-0.066 0.120734,-0.066 0.1811009,-0.17733 v -0.38484 H 8.4275459 q -0.2546732,0 -0.382953,0.0887 -0.1282798,0.0887 -0.1282798,0.2509 0,0.13206 0.086778,0.21129 0.088664,0.0773 0.2358085,0.0773 z"
         style="font-size:3.86348605px;fill:#333333;fill-opacity:1;stroke-width:0.29355758"
         id="path42596" />
      <path
         d="m 9.5273567,267.9563 q 0,-0.47161 0.2188302,-0.75647 0.2188303,-0.28674 0.5866911,-0.28674 0.324473,0 0.524438,0.22637 v -1.0451 h 0.458412 v 2.89761 h -0.415023 l -0.02264,-0.21128 q -0.205625,0.24901 -0.548963,0.24901 -0.3584284,0 -0.5810316,-0.28863 -0.2207167,-0.28863 -0.2207167,-0.78477 z m 0.4584116,0.0396 q 0,0.31127 0.1188477,0.48671 0.120734,0.17355 0.34145,0.17355 0.281084,0 0.41125,-0.2509 v -0.87155 q -0.126393,-0.24524 -0.407477,-0.24524 -0.222603,0 -0.343337,0.17733 -0.1207337,0.17544 -0.1207337,0.5301 z"
         style="font-size:3.86348605px;fill:#333333;fill-opacity:1;stroke-width:0.29355758"
         id="path42598" />
      <path
         d="m 11.708113,267.9563 q 0,-0.47161 0.218831,-0.75647 0.21883,-0.28674 0.586691,-0.28674 0.324473,0 0.524438,0.22637 v -1.0451 h 0.458412 v 2.89761 h -0.415023 l -0.02264,-0.21128 q -0.205625,0.24901 -0.548962,0.24901 -0.358429,0 -0.581032,-0.28863 -0.220717,-0.28863 -0.220717,-0.78477 z m 0.458412,0.0396 q 0,0.31127 0.118848,0.48671 0.120734,0.17355 0.34145,0.17355 0.281084,0 0.41125,-0.2509 v -0.87155 q -0.126393,-0.24524 -0.407477,-0.24524 -0.222603,0 -0.343337,0.17733 -0.120734,0.17544 -0.120734,0.5301 z"
         style="font-size:3.86348605px;fill:#333333;fill-opacity:1;stroke-width:0.29355758"
         id="path42600" />
      <path
         d="m 15.043389,267.36961 q -0.09055,-0.0151 -0.186761,-0.0151 -0.31504,0 -0.424455,0.24147 v 1.39598 h -0.458411 v -2.04115 h 0.43766 l 0.01132,0.22826 q 0.166009,-0.26599 0.460298,-0.26599 0.0981,0 0.162236,0.0264 z"
         style="font-size:3.86348605px;fill:#333333;fill-opacity:1;stroke-width:0.29355758"
         id="path42602" />
      <path
         d="m 16.194134,269.0297 q -0.435774,0 -0.707426,-0.27353 -0.269765,-0.27543 -0.269765,-0.73195 v -0.0566 q 0,-0.30561 0.116961,-0.54519 0.118848,-0.24147 0.332019,-0.3754 0.213171,-0.13394 0.47539,-0.13394 0.416909,0 0.643285,0.26599 0.228263,0.26599 0.228263,0.7527 v 0.18487 h -1.333733 q 0.02075,0.25279 0.167896,0.39993 0.149031,0.14715 0.37352,0.14715 0.31504,0 0.51312,-0.25467 l 0.247127,0.2358 q -0.122621,0.18299 -0.328246,0.28486 -0.203738,0.1 -0.458411,0.1 z m -0.05471,-1.74875 q -0.188647,0 -0.305608,0.13205 -0.115074,0.13205 -0.147144,0.36786 h 0.873435 v -0.034 q -0.01509,-0.23015 -0.122621,-0.34711 -0.107529,-0.11885 -0.298062,-0.11885 z"
         style="font-size:3.86348605px;fill:#333333;fill-opacity:1;stroke-width:0.29355758"
         id="path42604" />
      <path
         d="m 18.514489,268.43735 q 0,-0.12262 -0.101869,-0.18676 -0.09998,-0.0641 -0.333905,-0.11319 -0.233922,-0.049 -0.390499,-0.1245 -0.343337,-0.16601 -0.343337,-0.48105 0,-0.26411 0.222603,-0.44144 0.222603,-0.17732 0.56594,-0.17732 0.365975,0 0.590465,0.1811 0.226376,0.1811 0.226376,0.46973 h -0.458412 q 0,-0.13205 -0.0981,-0.21883 -0.0981,-0.0887 -0.260333,-0.0887 -0.150917,0 -0.247127,0.0698 -0.09432,0.0698 -0.09432,0.18676 0,0.10565 0.08866,0.16413 0.08866,0.0585 0.358429,0.11884 0.269764,0.0585 0.422568,0.14149 0.154691,0.0811 0.228263,0.19619 0.07546,0.11508 0.07546,0.2792 0,0.27542 -0.228263,0.44709 -0.228263,0.16978 -0.59801,0.16978 -0.2509,0 -0.447093,-0.0906 -0.196193,-0.0906 -0.305608,-0.24901 -0.109415,-0.15846 -0.109415,-0.34145 h 0.445206 q 0.0094,0.16223 0.122621,0.2509 0.113188,0.0868 0.299948,0.0868 0.181101,0 0.275424,-0.0679 0.09432,-0.0698 0.09432,-0.1811 z"
         style="font-size:3.86348605px;fill:#333333;fill-opacity:1;stroke-width:0.29355758"
         id="path42606" />
      <path
         d="m 20.506599,268.43735 q 0,-0.12262 -0.101869,-0.18676 -0.09998,-0.0641 -0.333905,-0.11319 -0.233922,-0.049 -0.390499,-0.1245 -0.343337,-0.16601 -0.343337,-0.48105 0,-0.26411 0.222603,-0.44144 0.222603,-0.17732 0.565941,-0.17732 0.365974,0 0.590464,0.1811 0.226376,0.1811 0.226376,0.46973 h -0.458412 q 0,-0.13205 -0.0981,-0.21883 -0.0981,-0.0887 -0.260332,-0.0887 -0.150918,0 -0.247128,0.0698 -0.09432,0.0698 -0.09432,0.18676 0,0.10565 0.08866,0.16413 0.08866,0.0585 0.358429,0.11884 0.269765,0.0585 0.422569,0.14149 0.15469,0.0811 0.228262,0.19619 0.07546,0.11508 0.07546,0.2792 0,0.27542 -0.228263,0.44709 -0.228262,0.16978 -0.59801,0.16978 -0.2509,0 -0.447093,-0.0906 -0.196193,-0.0906 -0.305608,-0.24901 -0.109415,-0.15846 -0.109415,-0.34145 h 0.445207 q 0.0094,0.16223 0.12262,0.2509 0.113188,0.0868 0.299948,0.0868 0.181101,0 0.275425,-0.0679 0.09432,-0.0698 0.09432,-0.1811 z"
         style="font-size:3.86348605px;fill:#333333;fill-opacity:1;stroke-width:0.29355758"
         id="path42608" />
    </g>
  </g>
</svg>
