<?xml version="1.0" encoding="UTF-8" standalone="no"?>
<!-- Created with Inkscape (http://www.inkscape.org/) -->

<svg
   xmlns:dc="http://purl.org/dc/elements/1.1/"
   xmlns:cc="http://creativecommons.org/ns#"
   xmlns:rdf="http://www.w3.org/1999/02/22-rdf-syntax-ns#"
   xmlns:svg="http://www.w3.org/2000/svg"
   xmlns="http://www.w3.org/2000/svg"
   xmlns:sodipodi="http://sodipodi.sourceforge.net/DTD/sodipodi-0.dtd"
   xmlns:inkscape="http://www.inkscape.org/namespaces/inkscape"
   width="95mm"
   height="41mm"
   viewBox="0 0 95 41"
   version="1.1"
   id="svg16720"
   inkscape:version="0.92.4 (5da689c313, 2019-01-14)"
   sodipodi:docname="alice-order.svg">
  <defs
     id="defs16714">
    <filter
       inkscape:collect="always"
       style="color-interpolation-filters:sRGB"
       id="filter44739-5">
      <feBlend
         inkscape:collect="always"
         mode="multiply"
         in2="BackgroundImage"
         id="feBlend44741-7" />
    </filter>
    <filter
       inkscape:collect="always"
       style="color-interpolation-filters:sRGB"
       id="filter44739">
      <feBlend
         inkscape:collect="always"
         mode="multiply"
         in2="BackgroundImage"
         id="feBlend44741" />
    </filter>
  </defs>
  <sodipodi:namedview
     id="base"
     pagecolor="#ffffff"
     bordercolor="#666666"
     borderopacity="1.0"
     inkscape:pageopacity="0.0"
     inkscape:pageshadow="2"
     inkscape:zoom="1.3298153"
     inkscape:cx="302.08829"
     inkscape:cy="62.787"
     inkscape:document-units="mm"
     inkscape:current-layer="layer1"
     showgrid="false"
     inkscape:window-width="1920"
     inkscape:window-height="1017"
     inkscape:window-x="-8"
     inkscape:window-y="-8"
     inkscape:window-maximized="1" />
  <metadata
     id="metadata16717">
    <rdf:RDF>
      <cc:Work
         rdf:about="">
        <dc:format>image/svg+xml</dc:format>
        <dc:type
           rdf:resource="http://purl.org/dc/dcmitype/StillImage" />
        <dc:title />
      </cc:Work>
    </rdf:RDF>
  </metadata>
  <g
     inkscape:label="Layer 1"
     inkscape:groupmode="layer"
     id="layer1"
     transform="translate(0,-256)">
    <path
       style="display:inline;fill:#f6f6f6;fill-opacity:1;stroke:#646464;stroke-width:0.36500001;stroke-miterlimit:4;stroke-dasharray:none;stroke-dashoffset:0;stroke-opacity:1;filter:url(#filter44739)"
       d="m 23.645268,258.28026 h 39.981014 l 0.09328,6.06345 h 29.248167 v 30.50925 H 23.645268 Z"
       id="rect34780"
       inkscape:connector-curvature="0"
       sodipodi:nodetypes="ccccccc" />
    <g
       aria-label="DEX orderbook"
       inkscape:transform-center-y="-1.5858263"
       style="font-style:normal;font-variant:normal;font-weight:normal;font-stretch:normal;font-size:4.85527468px;line-height:1.25;font-family:Roboto;-inkscape-font-specification:Roboto;letter-spacing:0px;word-spacing:0px;display:inline;fill:#333333;fill-opacity:1;stroke:none;stroke-width:0.36414564;filter:url(#filter44739)"
       id="text34784">
      <path
         d="m 28.254972,264.20859 v -3.4518 h 0.974374 q 0.45044,0 0.796568,0.19914 0.346128,0.19915 0.533417,0.56661 0.189659,0.36746 0.192029,0.84398 v 0.22048 q 0,0.48837 -0.189659,0.85584 -0.187288,0.36746 -0.538158,0.56423 -0.348498,0.19678 -0.813163,0.20152 z m 0.455182,-3.07722 v 2.70501 h 0.478889 q 0.526304,0 0.817905,-0.32716 0.293972,-0.32716 0.293972,-0.9317 v -0.20151 q 0,-0.58795 -0.277377,-0.91274 -0.275005,-0.32716 -0.782344,-0.3319 z"
         style="font-style:normal;font-variant:normal;font-weight:normal;font-stretch:normal;font-size:4.85527468px;font-family:Roboto;-inkscape-font-specification:Roboto;fill:#333333;fill-opacity:1;stroke-width:0.36414564"
         id="path43323" />
      <path
         d="m 33.392364,262.61308 h -1.495936 v 1.2233 h 1.737752 v 0.37221 h -2.192934 v -3.4518 h 2.169226 v 0.37458 h -1.714044 v 1.1095 h 1.495936 z"
         style="font-style:normal;font-variant:normal;font-weight:normal;font-stretch:normal;font-size:4.85527468px;font-family:Roboto;-inkscape-font-specification:Roboto;fill:#333333;fill-opacity:1;stroke-width:0.36414564"
         id="path43325" />
      <path
         d="m 35.326888,262.07966 0.827388,-1.32287 h 0.535787 l -1.09054,1.71167 1.116618,1.74013 h -0.540528 l -0.848725,-1.34658 -0.853466,1.34658 h -0.538158 l 1.118989,-1.74013 -1.092911,-1.71167 h 0.533416 z"
         style="font-style:normal;font-variant:normal;font-weight:normal;font-stretch:normal;font-size:4.85527468px;font-family:Roboto;-inkscape-font-specification:Roboto;fill:#333333;fill-opacity:1;stroke-width:0.36414564"
         id="path43327" />
      <path
         d="m 38.264235,262.90231 q 0,-0.37695 0.146985,-0.67803 0.149357,-0.30109 0.412509,-0.46467 0.265523,-0.16358 0.604539,-0.16358 0.523933,0 0.846354,0.36273 0.324791,0.36272 0.324791,0.96489 v 0.0308 q 0,0.37457 -0.144615,0.67329 -0.142244,0.29634 -0.410138,0.46229 -0.265523,0.16595 -0.611651,0.16595 -0.521563,0 -0.846354,-0.36272 -0.32242,-0.36272 -0.32242,-0.96015 z m 0.440957,0.0522 q 0,0.42673 0.196771,0.68514 0.199143,0.25841 0.531046,0.25841 0.334274,0 0.531046,-0.26078 0.196771,-0.26315 0.196771,-0.73493 0,-0.42199 -0.201513,-0.68277 -0.199142,-0.26315 -0.531045,-0.26315 -0.324792,0 -0.523934,0.25841 -0.199142,0.25841 -0.199142,0.73967 z"
         style="font-style:normal;font-variant:normal;font-weight:normal;font-stretch:normal;font-size:4.85527468px;font-family:Roboto;-inkscape-font-specification:Roboto;fill:#333333;fill-opacity:1;stroke-width:0.36414564"
         id="path43329" />
      <path
         d="m 42.389321,262.03699 q -0.09957,-0.0166 -0.215737,-0.0166 -0.431474,0 -0.585573,0.36746 v 1.82073 h -0.438586 v -2.56514 h 0.426733 l 0.0071,0.29634 q 0.215737,-0.34376 0.611651,-0.34376 0.12802,0 0.1944,0.0332 z"
         style="font-style:normal;font-variant:normal;font-weight:normal;font-stretch:normal;font-size:4.85527468px;font-family:Roboto;-inkscape-font-specification:Roboto;fill:#333333;fill-opacity:1;stroke-width:0.36414564"
         id="path43331" />
      <path
         d="m 42.635878,262.90468 q 0,-0.59031 0.279747,-0.94829 0.279748,-0.36036 0.732559,-0.36036 0.45044,0 0.713593,0.3082 v -1.3371 h 0.438586 v 3.64146 h -0.403025 l -0.02134,-0.27501 q -0.263152,0.32242 -0.732559,0.32242 -0.445699,0 -0.727817,-0.36509 -0.279747,-0.3651 -0.279747,-0.95304 z m 0.438587,0.0498 q 0,0.43621 0.180176,0.68277 0.180176,0.24656 0.497855,0.24656 0.417251,0 0.609281,-0.37458 v -1.17826 q -0.196772,-0.36272 -0.604539,-0.36272 -0.322421,0 -0.502597,0.24893 -0.180176,0.24892 -0.180176,0.7373 z"
         style="font-style:normal;font-variant:normal;font-weight:normal;font-stretch:normal;font-size:4.85527468px;font-family:Roboto;-inkscape-font-specification:Roboto;fill:#333333;fill-opacity:1;stroke-width:0.36414564"
         id="path43333" />
      <path
         d="m 46.547599,264.256 q -0.521562,0 -0.848724,-0.34138 -0.327163,-0.34376 -0.327163,-0.91748 v -0.0806 q 0,-0.38168 0.144616,-0.6804 0.146985,-0.30108 0.407767,-0.4694 0.263152,-0.1707 0.568977,-0.1707 0.500226,0 0.777603,0.32954 0.277376,0.32953 0.277376,0.94355 v 0.18255 h -1.737752 q 0.0095,0.37932 0.220479,0.61402 0.213367,0.23233 0.540529,0.23233 0.232332,0 0.393542,-0.0948 0.161211,-0.0948 0.282118,-0.2513 l 0.267894,0.20863 Q 47.19244,264.256 46.547599,264.256 Z m -0.05453,-2.29961 q -0.265523,0 -0.445699,0.1944 -0.180176,0.19203 -0.222849,0.54052 h 1.284941 v -0.0332 q -0.01897,-0.33427 -0.180177,-0.51682 -0.16121,-0.18491 -0.436216,-0.18491 z"
         style="font-style:normal;font-variant:normal;font-weight:normal;font-stretch:normal;font-size:4.85527468px;font-family:Roboto;-inkscape-font-specification:Roboto;fill:#333333;fill-opacity:1;stroke-width:0.36414564"
         id="path43335" />
      <path
         d="m 49.292915,262.03699 q -0.09957,-0.0166 -0.215737,-0.0166 -0.431474,0 -0.585573,0.36746 v 1.82073 h -0.438586 v -2.56514 h 0.426733 l 0.0071,0.29634 q 0.215737,-0.34376 0.611651,-0.34376 0.12802,0 0.1944,0.0332 z"
         style="font-style:normal;font-variant:normal;font-weight:normal;font-stretch:normal;font-size:4.85527468px;font-family:Roboto;-inkscape-font-specification:Roboto;fill:#333333;fill-opacity:1;stroke-width:0.36414564"
         id="path43337" />
      <path
         d="m 51.865167,262.95447 q 0,0.58794 -0.270265,0.94592 -0.270264,0.35561 -0.725446,0.35561 -0.486002,0 -0.751524,-0.34375 l -0.02134,0.29634 h -0.403026 v -3.64146 h 0.438587 v 1.35844 q 0.265523,-0.32954 0.732559,-0.32954 0.467035,0 0.732558,0.35324 0.267894,0.35324 0.267894,0.96726 z m -0.438587,-0.0498 q 0,-0.44807 -0.173064,-0.69226 -0.173064,-0.24418 -0.497855,-0.24418 -0.433846,0 -0.623505,0.40302 v 1.10951 q 0.201513,0.40303 0.628246,0.40303 0.315308,0 0.490743,-0.24419 0.175435,-0.24419 0.175435,-0.73493 z"
         style="font-style:normal;font-variant:normal;font-weight:normal;font-stretch:normal;font-size:4.85527468px;font-family:Roboto;-inkscape-font-specification:Roboto;fill:#333333;fill-opacity:1;stroke-width:0.36414564"
         id="path43339" />
      <path
         d="m 52.299012,262.90231 q 0,-0.37695 0.146986,-0.67803 0.149357,-0.30109 0.412509,-0.46467 0.265523,-0.16358 0.604538,-0.16358 0.523934,0 0.846354,0.36273 0.324792,0.36272 0.324792,0.96489 v 0.0308 q 0,0.37457 -0.144615,0.67329 -0.142245,0.29634 -0.410138,0.46229 -0.265523,0.16595 -0.611651,0.16595 -0.521563,0 -0.846354,-0.36272 -0.322421,-0.36272 -0.322421,-0.96015 z m 0.440958,0.0522 q 0,0.42673 0.196771,0.68514 0.199142,0.25841 0.531046,0.25841 0.334274,0 0.531045,-0.26078 0.196772,-0.26315 0.196772,-0.73493 0,-0.42199 -0.201513,-0.68277 -0.199142,-0.26315 -0.531046,-0.26315 -0.324791,0 -0.523933,0.25841 -0.199142,0.25841 -0.199142,0.73967 z"
         style="font-style:normal;font-variant:normal;font-weight:normal;font-stretch:normal;font-size:4.85527468px;font-family:Roboto;-inkscape-font-specification:Roboto;fill:#333333;fill-opacity:1;stroke-width:0.36414564"
         id="path43341" />
      <path
         d="m 55.068036,262.90231 q 0,-0.37695 0.146986,-0.67803 0.149356,-0.30109 0.412509,-0.46467 0.265522,-0.16358 0.604538,-0.16358 0.523934,0 0.846354,0.36273 0.324792,0.36272 0.324792,0.96489 v 0.0308 q 0,0.37457 -0.144616,0.67329 -0.142244,0.29634 -0.410138,0.46229 -0.265522,0.16595 -0.61165,0.16595 -0.521563,0 -0.846354,-0.36272 -0.322421,-0.36272 -0.322421,-0.96015 z m 0.440958,0.0522 q 0,0.42673 0.196771,0.68514 0.199142,0.25841 0.531046,0.25841 0.334274,0 0.531045,-0.26078 0.196772,-0.26315 0.196772,-0.73493 0,-0.42199 -0.201513,-0.68277 -0.199142,-0.26315 -0.531046,-0.26315 -0.324791,0 -0.523933,0.25841 -0.199142,0.25841 -0.199142,0.73967 z"
         style="font-style:normal;font-variant:normal;font-weight:normal;font-stretch:normal;font-size:4.85527468px;font-family:Roboto;-inkscape-font-specification:Roboto;fill:#333333;fill-opacity:1;stroke-width:0.36414564"
         id="path43343" />
      <path
         d="m 58.66919,263.02085 -0.275006,0.28686 v 0.90088 h -0.438587 v -3.64146 h 0.438587 v 2.20242 l 0.234703,-0.28212 0.798939,-0.84398 h 0.533417 l -0.998082,1.07157 1.114248,1.49357 h -0.514451 z"
         style="font-style:normal;font-variant:normal;font-weight:normal;font-stretch:normal;font-size:4.85527468px;font-family:Roboto;-inkscape-font-specification:Roboto;fill:#333333;fill-opacity:1;stroke-width:0.36414564"
         id="path43345" />
    </g>
    <path
       style="display:inline;fill:#333333;fill-opacity:1;stroke-width:0.10939776;filter:url(#filter44739)"
       d="m 5.4284999,281.91393 c -0.822052,-0.2203 -1.987032,-0.9329 -2.44177,-1.4937 -1.698439,-2.0946 -1.509742,-4.9604 0.53034,-8.055 0.740996,-1.124 1.056229,-2.5985 1.242155,-5.8102 0.08285,-1.4318 0.139963,-1.7892 0.36741,-2.2973 0.391209,-0.8742 1.037167,-1.6287 2.044102,-2.3874 1.093048,-0.8237 1.8910178,-1.0965 3.6182511,-1.2373 0.691929,-0.056 1.750359,-0.1439 2.352062,-0.1943 0.601703,-0.051 1.301,-0.1567 1.554074,-0.2362 0.407406,-0.128 0.483646,-0.1233 0.665019,0.041 0.112797,0.102 0.289112,0.1854 0.392051,0.1854 0.374785,0 1.122892,0.4848 1.74605,1.1315 0.700666,0.7271 0.701482,0.7319 0.287727,1.6728 l -0.246896,0.5616 0.453957,1.6334 c 0.500641,1.8013 0.532022,2.0808 0.287022,2.5546 -0.151317,0.2924 -0.149642,0.3562 0.01487,0.6783 0.100873,0.1955 0.50195,0.6855 0.89108,1.0889 0.868517,0.9003 0.865593,1.0851 -0.02362,1.5654 -0.559377,0.3018 -0.60574,0.3565 -0.606062,0.7151 -2.55e-4,0.2136 0.06084,0.4505 0.136249,0.5265 0.109627,0.1106 0.10069,0.1584 -0.04453,0.2404 -0.116882,0.066 -0.159695,0.1845 -0.120979,0.3333 0.04453,0.1703 -0.04487,0.3276 -0.339825,0.5977 -0.389596,0.357 -0.3984,0.3823 -0.331209,0.9542 0.06474,0.551 0.04742,0.6123 -0.283361,0.9888 -0.407489,0.4641 -0.751301,0.5055 -1.970725,0.2373 -1.014692,-0.2232 -1.050781,-0.2153 -1.361426,0.3008 -0.437761,0.7272 -1.118048,2.5727 -1.270291,3.446 -0.13308,0.7629 -0.150015,0.7932 -0.444668,0.7932 -0.200796,0 -0.514986,-0.1699 -0.910802,-0.4923 -0.332449,-0.2708 -0.673464,-0.4923 -0.757895,-0.4923 -0.0843,0 -0.146668,-0.062 -0.138663,-0.1368 0.0076,-0.075 -0.536612,-0.6732 -1.2105459,-1.3289 l -1.2254082,-1.1921 -0.130097,0.2859 c -0.11298,0.2484 -0.09567,0.3329 0.134566,0.6451 0.145734,0.1976 0.3620138,0.5485 0.4807408,0.7797 0.271463,0.5285 0.6793124,0.8249 1.2793403,0.9299 l 0.468159,0.082 -0.45163,0.3016 c -0.3887029,0.2596 -0.5311989,0.2942 -1.0224513,0.2486 -0.6691238,-0.062 -0.8900678,-0.2317 -1.3421628,-1.0301 -0.180538,-0.3186 -0.351526,-0.5559 -0.380231,-0.5272 -0.08116,0.081 0.401858,1.3009 0.606657,1.5319 0.39415,0.4446 0.7935008,0.5152 1.8697412,0.3303 1.4451059,-0.2482 1.5133909,-0.1886 0.5340819,0.4664 -1.6675623,1.1153 -3.3475871,1.48 -4.9009731,1.0638 z m 6.3977161,-7.5643 c 0.379985,-0.3794 0.494328,-0.6797 0.494328,-1.2979 0,-0.5094 -0.189717,-0.9946 -0.485084,-1.2396 -0.221598,-0.1839 -0.21605,-0.1402 0.04767,0.3769 0.242402,0.4754 0.284693,1.1445 0.09567,1.5114 -0.216075,0.4195 -0.56405,0.7313 -0.816172,0.7313 -0.317061,0 -0.7822,-0.555 -0.873641,-1.0425 -0.101994,-0.5427 0.02787,-1.0876 0.350073,-1.4704 0.311426,-0.3701 0.165838,-0.4566 -0.182587,-0.1083 -0.6643659,0.6644 -0.5872759,2.1616 0.13755,2.6692 0.383094,0.2684 0.886507,0.2152 1.232289,-0.1301 z"
       id="path35613"
       inkscape:connector-curvature="0" />
    <path
       style="display:inline;fill:#ffffff;fill-opacity:1;stroke:#ffffff;stroke-width:0.41288957;stroke-miterlimit:4;stroke-dasharray:none;stroke-dashoffset:0;stroke-opacity:0.98924734"
       d="M 28.530173,268.88605 H 51.84719 l 3.984276,3.76385 v 17.20362 H 28.530173 Z"
       id="path44642"
       inkscape:connector-curvature="0"
       sodipodi:nodetypes="cccccc" />
    <path
       style="fill:#ffffff;fill-opacity:1;stroke:#333333;stroke-width:0.41288957;stroke-miterlimit:4;stroke-dasharray:none;stroke-dashoffset:0;stroke-opacity:1"
       d="m 28.530179,268.88605 h 23.317015 l 3.984277,3.76385 v 17.20362 H 28.530179 Z"
       id="path47353"
       inkscape:connector-curvature="0"
       sodipodi:nodetypes="cccccc" />
    <path
       style="fill:none;stroke:#333333;stroke-width:0.41288957;stroke-linecap:butt;stroke-linejoin:miter;stroke-miterlimit:4;stroke-dasharray:none;stroke-opacity:1"
       d="m 51.847194,269.02413 v 3.87304 h 3.984277"
       id="path47355"
       inkscape:connector-curvature="0"
       sodipodi:nodetypes="ccc" />
    <g
       aria-label="sell"
       style="font-style:normal;font-variant:normal;font-weight:normal;font-stretch:normal;font-size:3.92280269px;line-height:1.25;font-family:Roboto;-inkscape-font-specification:Roboto;letter-spacing:0px;word-spacing:0px;opacity:1;fill:#333333;fill-opacity:1;stroke:none;stroke-width:0.12525949"
       id="text47359">
      <path
         d="m 31.42737,273.83208 q 0,-0.14366 -0.10918,-0.22219 -0.107264,-0.0804 -0.37734,-0.13791 -0.26816,-0.0575 -0.427141,-0.13792 -0.157065,-0.0804 -0.233682,-0.19154 -0.0747,-0.11109 -0.0747,-0.26433 0,-0.25475 0.214528,-0.43097 0.216444,-0.17622 0.551644,-0.17622 0.35244,0 0.570799,0.18197 0.220274,0.18196 0.220274,0.46545 H 31.4063 q 0,-0.14558 -0.124503,-0.25093 -0.122588,-0.10534 -0.3103,-0.10534 -0.193458,0 -0.302638,0.0843 -0.109179,0.0843 -0.109179,0.22028 0,0.12833 0.101517,0.19346 0.101518,0.0651 0.365848,0.1245 0.266245,0.0594 0.430972,0.14174 0.164727,0.0824 0.243259,0.19921 0.08045,0.11492 0.08045,0.28157 0,0.27773 -0.22219,0.44629 -0.22219,0.16664 -0.576545,0.16664 -0.249006,0 -0.440549,-0.0881 -0.191543,-0.0881 -0.300723,-0.24517 -0.107264,-0.15898 -0.107264,-0.34286 h 0.354355 q 0.0096,0.17813 0.141742,0.28348 0.13408,0.10343 0.352439,0.10343 0.20112,0 0.321792,-0.0804 0.122588,-0.0824 0.122588,-0.21836 z"
         style="font-style:normal;font-variant:normal;font-weight:normal;font-stretch:normal;font-size:3.92280269px;font-family:Roboto;-inkscape-font-specification:Roboto;fill:#333333;fill-opacity:1;stroke-width:0.12525949"
         id="path43314" />
      <path
         d="m 33.103372,274.42011 q -0.421395,0 -0.685724,-0.27582 -0.26433,-0.27774 -0.26433,-0.74127 v -0.0651 q 0,-0.30839 0.116841,-0.54973 0.118757,-0.24326 0.329455,-0.37926 0.212612,-0.13791 0.459703,-0.13791 0.404156,0 0.628261,0.26625 0.224106,0.26624 0.224106,0.76234 v 0.14749 h -1.404011 q 0.0077,0.30646 0.178135,0.49609 0.172389,0.18771 0.436718,0.18771 0.187712,0 0.317962,-0.0766 0.130249,-0.0766 0.227936,-0.20304 l 0.216444,0.16856 q -0.260499,0.40032 -0.781496,0.40032 z m -0.04406,-1.85796 q -0.214528,0 -0.360101,0.15706 -0.145573,0.15515 -0.180051,0.43672 h 1.038164 v -0.0268 q -0.01532,-0.27007 -0.145573,-0.41756 -0.130249,-0.1494 -0.352439,-0.1494 z"
         style="font-style:normal;font-variant:normal;font-weight:normal;font-stretch:normal;font-size:3.92280269px;font-family:Roboto;-inkscape-font-specification:Roboto;fill:#333333;fill-opacity:1;stroke-width:0.12525949"
         id="path43316" />
      <path
         d="m 34.704672,274.38181 h -0.354355 v -2.94211 h 0.354355 z"
         style="font-style:normal;font-variant:normal;font-weight:normal;font-stretch:normal;font-size:3.92280269px;font-family:Roboto;-inkscape-font-specification:Roboto;fill:#333333;fill-opacity:1;stroke-width:0.12525949"
         id="path43318" />
      <path
         d="m 35.654726,274.38181 h -0.354355 v -2.94211 h 0.354355 z"
         style="font-style:normal;font-variant:normal;font-weight:normal;font-stretch:normal;font-size:3.92280269px;font-family:Roboto;-inkscape-font-specification:Roboto;fill:#333333;fill-opacity:1;stroke-width:0.12525949"
         id="path43320" />
    </g>
    <g
       aria-label="Alice"
       style="font-style:normal;font-variant:normal;font-weight:normal;font-stretch:normal;font-size:4.47300148px;line-height:1.25;font-family:'Segoe Script';-inkscape-font-specification:'Segoe Script';letter-spacing:0px;word-spacing:0px;fill:#333333;fill-opacity:1;stroke:none;stroke-width:0.11182508"
       id="text47363">
      <path
         d="m 33.684811,288.12825 q 0,0.0874 -0.05679,0.14852 -0.0546,0.0633 -0.144149,0.0633 -0.03931,0 -0.06334,-0.0175 -0.03058,-0.024 -0.06771,-0.0633 -0.03713,-0.0415 -0.07863,-0.10266 -0.08081,-0.12449 -0.148518,-0.2599 -0.06552,-0.1376 -0.10702,-0.24244 -0.01092,-0.0306 -0.02403,-0.0546 -0.01092,-0.0262 -0.02403,-0.0524 -0.01092,-0.0284 -0.02403,-0.059 -0.0131,-0.0328 -0.02839,-0.0786 -0.06334,-0.18783 -0.09173,-0.2468 -0.03058,0.0306 -0.05897,0.048 -0.02839,0.0153 -0.06115,0.024 -0.03058,0.007 -0.06552,0.009 -0.03276,0 -0.07207,0 -0.02184,0 -0.0546,0.009 -0.03276,0.009 -0.07207,0.0197 -0.03713,0.0109 -0.07426,0.024 -0.03713,0.0131 -0.06989,0.0219 -0.109204,0.0306 -0.220593,0.0546 -0.111388,0.024 -0.229328,0.048 -0.117941,0.0218 -0.246802,0.0437 -0.128861,0.0197 -0.27301,0.0437 -0.06552,0.0109 -0.124493,0.0852 -0.05679,0.0764 -0.235881,0.32761 -0.174726,0.24899 -0.297035,0.36474 -0.120124,0.11576 -0.233697,0.11576 -0.144149,0 -0.240249,-0.0568 -0.109204,-0.0699 -0.109204,-0.14851 0,-0.0415 0.04587,-0.059 0.04805,-0.0197 0.128861,-0.035 0.02621,-0.002 0.120124,-0.10702 0.08955,-0.10047 0.135413,-0.16599 0.09173,-0.12012 0.185647,-0.25554 0.0961,-0.13759 0.21404,-0.30795 0.05679,-0.0874 0.100468,-0.1507 0.04368,-0.0633 0.07208,-0.10702 0.03058,-0.0437 0.06771,-0.0983 0.03931,-0.0546 0.08955,-0.12231 0.02184,-0.0306 0.05242,-0.0743 0.03058,-0.0437 0.07207,-0.0983 0.0415,-0.0568 0.07426,-0.10047 0.03495,-0.0437 0.05897,-0.0786 0.02621,-0.0349 0.06552,-0.0874 0.0415,-0.0524 0.0961,-0.12449 0.01747,-0.0218 0.06771,-0.10265 0.05242,-0.0808 0.139782,-0.22278 0.122308,-0.20312 0.159438,-0.29703 0.255537,-0.62028 0.384398,-0.62028 0.05679,0 0.09173,0.0109 0.03495,0.009 0.0546,0.0328 0.01966,0.0218 0.02621,0.0611 0.0066,0.0371 0.0066,0.0917 0,0.0371 0,0.0655 0,0.0284 -0.0022,0.0459 -0.0022,0.0349 -0.0044,0.0895 -0.0022,0.0546 -0.0066,0.12886 0.109204,0.22933 0.207487,0.4936 0.05023,0.13323 0.104836,0.29267 0.05679,0.15725 0.120125,0.34727 0.06334,0.18783 0.111388,0.32106 0.04805,0.13323 0.07863,0.21622 0.03058,0.083 0.07207,0.19002 0.04368,0.10702 0.102652,0.24243 0.02184,0.0502 0.163806,0.24244 0.139781,0.1922 0.139781,0.27519 z m -0.967548,-1.29079 q -0.03931,-0.12013 -0.08518,-0.25772 -0.04586,-0.13979 -0.0961,-0.27738 -0.04805,-0.13978 -0.100468,-0.26864 -0.05023,-0.12887 -0.100468,-0.22933 -0.122309,0.16599 -0.231513,0.31887 -0.109204,0.15289 -0.211856,0.30796 -0.100467,0.15288 -0.200935,0.31451 -0.09828,0.16162 -0.200936,0.34508 0.02403,0.009 0.04368,0.009 0.03276,0 0.083,-0.004 0.05242,-0.007 0.104836,-0.0131 0.0546,-0.009 0.102652,-0.0175 0.05023,-0.009 0.08081,-0.0153 0.05242,-0.0131 0.08955,-0.0218 0.03931,-0.009 0.07426,-0.0175 0.03495,-0.009 0.07426,-0.0175 0.0415,-0.0109 0.09828,-0.024 0.126676,-0.0328 0.251169,-0.0655 0.124493,-0.035 0.224961,-0.0655 z"
         style="font-style:normal;font-variant:normal;font-weight:normal;font-stretch:normal;font-family:'Segoe Script';-inkscape-font-specification:'Segoe Script';fill:#333333;fill-opacity:1;stroke-width:0.11182508"
         id="path43303" />
      <path
         d="m 36.065461,287.29393 q -0.174726,0.24243 -0.356005,0.439 -0.179095,0.19657 -0.356006,0.33635 -0.174726,0.1376 -0.342901,0.21404 -0.16599,0.0764 -0.310139,0.0764 -0.233697,0 -0.36911,-0.20093 -0.133229,-0.20094 -0.133229,-0.59189 0,-0.21841 0.02621,-0.4805 0.02621,-0.26209 0.06771,-0.53073 0.0415,-0.26864 0.09173,-0.52855 0.05242,-0.2599 0.104836,-0.47394 0.03931,-0.16381 0.07863,-0.28393 0.0415,-0.12013 0.08736,-0.19657 0.04587,-0.0764 0.09828,-0.11357 0.0546,-0.0371 0.122308,-0.0371 0.04368,0 0.07863,0.0197 0.03713,0.0197 0.06334,0.0502 0.02621,0.0306 0.03931,0.0721 0.01529,0.0393 0.01529,0.0808 0,0.0393 -0.02184,0.10702 -0.01966,0.0655 -0.05242,0.14634 -0.03058,0.0808 -0.06771,0.17036 -0.03713,0.0895 -0.07207,0.17254 -0.03495,0.0808 -0.06334,0.1507 -0.02621,0.0699 -0.03713,0.11357 -0.03276,0.14197 -0.06552,0.33198 -0.03276,0.18783 -0.06115,0.39095 -0.02621,0.20094 -0.04368,0.40187 -0.01747,0.19876 -0.01747,0.36475 0,0.14633 0.02621,0.24243 0.02621,0.0939 0.06552,0.1507 0.0415,0.0546 0.08736,0.0786 0.04805,0.0218 0.08955,0.0218 0.07644,0 0.168174,-0.0393 0.09173,-0.0415 0.1922,-0.11358 0.102651,-0.0721 0.209671,-0.16817 0.109205,-0.0983 0.218409,-0.21186 0.109204,-0.11357 0.216224,-0.23806 0.10702,-0.12668 0.205304,-0.25554 0.03713,-0.0502 0.05897,-0.0764 0.02184,-0.0262 0.0415,-0.0262 0.02402,0 0.03495,0.0284 0.0131,0.0262 0.0131,0.0699 0,0.0349 -0.01092,0.0786 -0.01092,0.0415 -0.02839,0.0874 -0.01747,0.0437 -0.0415,0.0874 -0.02403,0.0437 -0.05023,0.083 z"
         style="font-style:normal;font-variant:normal;font-weight:normal;font-stretch:normal;font-family:'Segoe Script';-inkscape-font-specification:'Segoe Script';fill:#333333;fill-opacity:1;stroke-width:0.11182508"
         id="path43305" />
      <path
         d="m 36.823338,285.0749 q 0,0.14197 -0.07426,0.24244 -0.07207,0.10046 -0.211856,0.10046 -0.08736,0 -0.194383,-0.0262 -0.104836,-0.0262 -0.104836,-0.0852 0,-0.10702 0.06552,-0.20312 0.06771,-0.0983 0.161623,-0.15944 0.07426,-0.0437 0.09828,-0.0437 0.124493,0 0.1922,0.0349 0.06771,0.0328 0.06771,0.13978 z m 1.430574,1.77566 q 0.0022,0.0459 -0.0415,0.12449 -0.0415,0.0786 -0.115757,0.1791 -0.07207,0.0983 -0.170358,0.21186 -0.0961,0.11357 -0.20312,0.22714 -0.122308,0.13105 -0.259906,0.25335 -0.135413,0.12013 -0.290483,0.2337 -0.305771,0.22715 -0.54602,0.22715 -0.264274,0 -0.410608,-0.17692 -0.146333,-0.17909 -0.198751,-0.43244 -0.05242,-0.25117 -0.05242,-0.51763 0,-0.11139 0.02621,-0.34727 0.0131,-0.11794 0.02621,-0.20312 0.0131,-0.0852 0.02839,-0.1376 0.03058,-0.10265 0.128861,-0.17909 0.100467,-0.0808 0.209671,-0.0808 0.05897,0 0.05897,0.11138 0,0.0743 -0.01529,0.16818 -0.0131,0.0939 -0.02839,0.18565 -0.02839,0.17254 -0.0415,0.31014 -0.0131,0.13541 -0.0131,0.23588 0,0.22059 0.06115,0.44555 0.06116,0.22933 0.220593,0.22933 0.161622,0 0.375662,-0.11794 0.10702,-0.0612 0.21404,-0.13542 0.10702,-0.0742 0.21404,-0.16599 0.109204,-0.0917 0.209672,-0.18346 0.100468,-0.0939 0.196567,-0.1922 0.0961,-0.0983 0.172543,-0.18346 0.07644,-0.0852 0.133229,-0.15725 0.0022,-0.004 0.0066,-0.0131 0.0066,-0.0109 0.0131,-0.0197 0.0066,-0.0109 0.0131,-0.0175 0.0066,-0.007 0.0131,-0.004 0.03058,0 0.04587,0.048 0.01966,0.0459 0.01966,0.0743 z"
         style="font-style:normal;font-variant:normal;font-weight:normal;font-stretch:normal;font-family:'Segoe Script';-inkscape-font-specification:'Segoe Script';fill:#333333;fill-opacity:1;stroke-width:0.11182508"
         id="path43307" />
      <path
         d="m 40.232691,287.36601 q 0,0.0175 -0.0087,0.0415 -0.0066,0.0218 -0.01747,0.0437 -0.0087,0.0197 -0.01966,0.0371 -0.0087,0.0175 -0.01311,0.0197 -0.163806,0.12013 -0.36911,0.25335 -0.205304,0.13323 -0.434632,0.24681 -0.227145,0.11138 -0.469578,0.18564 -0.242433,0.0721 -0.480498,0.0721 -0.02839,0 -0.07426,-0.007 -0.04587,-0.007 -0.104836,-0.024 -0.05679,-0.0175 -0.122309,-0.048 -0.06334,-0.0306 -0.128861,-0.0786 -0.03276,-0.0218 -0.06771,-0.059 -0.03495,-0.0393 -0.06552,-0.083 -0.02839,-0.0437 -0.04805,-0.0852 -0.01966,-0.0437 -0.01966,-0.0764 0,-0.13105 0.0131,-0.25336 0.01529,-0.12231 0.04587,-0.2468 0.01529,-0.0743 0.06552,-0.20093 0.05242,-0.12887 0.137598,-0.27301 0.08518,-0.14634 0.200935,-0.29049 0.117941,-0.14415 0.26209,-0.25117 0.148518,-0.1092 0.281747,-0.16162 0.133229,-0.0524 0.240249,-0.0524 0.04805,0 0.104836,0.0459 0.05679,0.0437 0.102652,0.11357 0.04805,0.0677 0.07863,0.1507 0.03276,0.083 0.03276,0.15944 0,0.0437 -0.03495,0.11357 -0.03495,0.0677 -0.08955,0.13323 -0.05242,0.0655 -0.115756,0.11357 -0.06334,0.0459 -0.117941,0.0459 -0.02402,0 -0.04368,-0.009 -0.01966,-0.0109 -0.01966,-0.0415 0,-0.0328 0.02402,-0.083 0.02403,-0.0524 0.05242,-0.10702 0.02839,-0.0568 0.05242,-0.1092 0.02402,-0.0546 0.02402,-0.0939 0,-0.0175 -0.0066,-0.0371 -0.0044,-0.0218 -0.01747,-0.0393 -0.01311,-0.0197 -0.03495,-0.0306 -0.01966,-0.0131 -0.05242,-0.0131 -0.05897,0 -0.109205,0.0131 -0.04805,0.0131 -0.09828,0.0459 -0.05023,0.0306 -0.111388,0.0852 -0.06115,0.0546 -0.141966,0.13759 -0.06989,0.0743 -0.137597,0.1791 -0.06771,0.10265 -0.124493,0.22714 -0.0546,0.12231 -0.08955,0.25991 -0.03276,0.13541 -0.03276,0.27301 0,0.083 0.03058,0.14852 0.03276,0.0633 0.08081,0.1092 0.05023,0.0459 0.111388,0.0699 0.06334,0.024 0.126677,0.024 0.137597,0 0.288299,-0.0306 0.150701,-0.0328 0.303587,-0.0852 0.152886,-0.0524 0.301404,-0.12012 0.150701,-0.0699 0.286115,-0.14415 0.135413,-0.0743 0.251169,-0.14852 0.115756,-0.0764 0.200936,-0.14197 0.01092,-0.0131 0.03713,-0.0284 0.02839,-0.0175 0.03495,-0.0175 0.02403,0 0.03713,0.0415 0.0131,0.0393 0.0131,0.0808 z"
         style="font-style:normal;font-variant:normal;font-weight:normal;font-stretch:normal;font-family:'Segoe Script';-inkscape-font-specification:'Segoe Script';fill:#333333;fill-opacity:1;stroke-width:0.11182508"
         id="path43309" />
      <path
         d="m 41.252658,286.25431 q 0,-0.024 -0.0131,-0.0437 -0.0131,-0.0197 -0.03276,-0.0328 -0.01747,-0.0131 -0.03931,-0.0197 -0.01966,-0.009 -0.03495,-0.009 -0.0961,0 -0.196568,0.0699 -0.100468,0.0677 -0.187831,0.19002 -0.08736,0.12231 -0.152886,0.29048 -0.06552,0.16817 -0.08955,0.36474 0.03058,-0.0197 0.08081,-0.0568 0.05023,-0.0371 0.10702,-0.0808 0.05897,-0.0459 0.115756,-0.0917 0.05897,-0.0459 0.104836,-0.0852 0.100468,-0.0852 0.165991,-0.1507 0.06552,-0.0677 0.102651,-0.12231 0.03931,-0.0568 0.0546,-0.1092 0.01529,-0.0546 0.01529,-0.11357 z m 1.013414,0.9326 q 0,0.0764 -0.05679,0.16599 -0.05679,0.0896 -0.161622,0.20094 -0.120124,0.12667 -0.264274,0.23588 -0.144149,0.10702 -0.297035,0.18783 -0.152886,0.0786 -0.31014,0.12449 -0.157254,0.0459 -0.303587,0.0459 -0.342901,0 -0.530732,-0.2206 -0.187832,-0.22059 -0.187832,-0.64648 0,-0.13542 0.02403,-0.2752 0.02403,-0.14196 0.06989,-0.27956 0.04805,-0.1376 0.11794,-0.26646 0.07207,-0.12886 0.165991,-0.24025 0.05897,-0.0677 0.131045,-0.1376 0.07207,-0.0699 0.159438,-0.12449 0.08736,-0.0568 0.190015,-0.0917 0.104836,-0.0349 0.227145,-0.0349 0.08736,0 0.157254,0.0349 0.06989,0.0328 0.11794,0.0852 0.04805,0.0524 0.07208,0.11794 0.02621,0.0655 0.02621,0.12886 0,0.13323 -0.07207,0.27083 -0.07207,0.13541 -0.20312,0.27519 -0.131045,0.1376 -0.314508,0.27738 -0.183463,0.1376 -0.408423,0.27519 -0.03058,0.0175 -0.06115,0.0393 -0.03058,0.0197 -0.03058,0.0502 0,0.0655 0.01747,0.1376 0.01747,0.0721 0.06334,0.13323 0.04587,0.059 0.122309,0.0983 0.07863,0.0393 0.198752,0.0393 0.152885,0 0.310139,-0.048 0.159438,-0.0502 0.31014,-0.1376 0.152886,-0.0874 0.294851,-0.20749 0.14415,-0.12012 0.268643,-0.2599 0.06989,-0.0765 0.111388,-0.0765 0.02402,0 0.03495,0.0284 0.01092,0.0284 0.01092,0.0939 z"
         style="font-style:normal;font-variant:normal;font-weight:normal;font-stretch:normal;font-family:'Segoe Script';-inkscape-font-specification:'Segoe Script';fill:#333333;fill-opacity:1;stroke-width:0.11182508"
         id="path43311" />
    </g>
    <g
       aria-label="3"
       style="font-style:normal;font-variant:normal;font-weight:normal;font-stretch:normal;font-size:6.06909418px;line-height:1.25;font-family:Roboto;-inkscape-font-specification:Roboto;letter-spacing:0px;word-spacing:0px;opacity:1;fill:#333333;fill-opacity:1;stroke:none;stroke-width:0.1587978"
       id="text47367">
      <path
         d="m 38.813111,272.74615 h 0.411916 q 0.388209,-0.006 0.610466,-0.20448 0.222256,-0.19855 0.222256,-0.53638 0,-0.75864 -0.755673,-0.75864 -0.355611,0 -0.568977,0.20448 -0.210404,0.20151 -0.210404,0.53638 h -0.548233 q 0,-0.51267 0.373391,-0.8505 0.376355,-0.3408 0.954223,-0.3408 0.610466,0 0.957186,0.32302 0.346721,0.32301 0.346721,0.89791 0,0.28153 -0.183732,0.54527 -0.180769,0.26375 -0.494892,0.39414 0.355611,0.11261 0.548233,0.37339 0.195586,0.26078 0.195586,0.63714 0,0.58083 -0.379318,0.92162 -0.379318,0.3408 -0.98682,0.3408 -0.607503,0 -0.989784,-0.32894 -0.379319,-0.32894 -0.379319,-0.86829 h 0.551197 q 0,0.3408 0.222257,0.54527 0.222257,0.20448 0.595649,0.20448 0.397099,0 0.607502,-0.20744 0.210403,-0.20744 0.210403,-0.59565 0,-0.37635 -0.231147,-0.57787 -0.231147,-0.20151 -0.666771,-0.20744 h -0.411916 z"
         style="font-style:normal;font-variant:normal;font-weight:normal;font-stretch:normal;font-size:6.06909418px;font-family:Roboto;-inkscape-font-specification:Roboto;fill:#333333;fill-opacity:1;stroke-width:0.1587978"
         id="path43300" />
    </g>
    <g
       aria-label="0.1"
       style="font-style:normal;font-variant:normal;font-weight:normal;font-stretch:normal;font-size:6.06909418px;line-height:1.25;font-family:Roboto;-inkscape-font-specification:Roboto;letter-spacing:-0.36414564px;word-spacing:0px;fill:#333333;fill-opacity:1;stroke:none;stroke-width:0.40826154;stroke-miterlimit:4;stroke-dasharray:none"
       id="text47371">
      <path
         d="m 38.140399,280.08543 q 0,0.96312 -0.32894,1.43134 -0.32894,0.46822 -1.028309,0.46822 -0.690478,0 -1.022381,-0.45637 -0.331904,-0.45933 -0.343757,-1.3691 v -0.73197 q 0,-0.95126 0.32894,-1.41355 0.32894,-0.46229 1.031272,-0.46229 0.696404,0 1.025345,0.44747 0.32894,0.44452 0.33783,1.37503 z m -0.548234,-0.74974 q 0,-0.69641 -0.195586,-1.01349 -0.195586,-0.32005 -0.619355,-0.32005 -0.420807,0 -0.613429,0.31708 -0.192623,0.31709 -0.19855,0.97497 v 0.87717 q 0,0.69937 0.201513,1.03424 0.204476,0.3319 0.616392,0.3319 0.40599,0 0.601576,-0.31412 0.198549,-0.31412 0.207439,-0.98979 z"
         style="font-style:normal;font-variant:normal;font-weight:normal;font-stretch:normal;font-size:6.06909418px;font-family:Roboto;-inkscape-font-specification:Roboto;letter-spacing:-0.36414564px;fill:#333333;fill-opacity:1;stroke-width:0.40826154;stroke-miterlimit:4;stroke-dasharray:none"
         id="path43293" />
      <path
         d="m 38.552671,281.63827 q 0,-0.14225 0.08298,-0.23708 0.08594,-0.0948 0.254854,-0.0948 0.168915,0 0.254855,0.0948 0.0889,0.0948 0.0889,0.23708 0,0.13632 -0.0889,0.22818 -0.08594,0.0919 -0.254855,0.0919 -0.168915,0 -0.254854,-0.0919 -0.08298,-0.0919 -0.08298,-0.22818 z"
         style="font-style:normal;font-variant:normal;font-weight:normal;font-stretch:normal;font-size:6.06909418px;font-family:Roboto;-inkscape-font-specification:Roboto;letter-spacing:-0.36414564px;fill:#333333;fill-opacity:1;stroke-width:0.40826154;stroke-miterlimit:4;stroke-dasharray:none"
         id="path43295" />
      <path
         d="m 41.522378,281.92572 h -0.551197 v -3.6539 l -1.105357,0.40599 v -0.49786 l 1.570615,-0.58972 h 0.08594 z"
         style="font-style:normal;font-variant:normal;font-weight:normal;font-stretch:normal;font-size:6.06909418px;font-family:Roboto;-inkscape-font-specification:Roboto;letter-spacing:-0.36414564px;fill:#333333;fill-opacity:1;stroke-width:0.40826154;stroke-miterlimit:4;stroke-dasharray:none"
         id="path43297" />
    </g>
    <g
       transform="matrix(1.6030687,0,0,1.6030687,-108.20881,299.17166)"
       id="g47379">
      <path
         style="fill:#333333;fill-opacity:1;stroke-width:0.00416065"
         d="m 100.74744,-6.7103416 -0.10922,-0.0011 v -0.112291 -0.112269 h 0.11234 0.11234 v 0.112091 c 0,0.06165 -10e-4,0.112671 -0.003,0.113378 -10e-4,6.91e-4 -0.0523,7.62e-4 -0.11234,1.74e-4 z m -1.935746,-0.568901 v -0.56793 h 0.56793 0.56793 v 0.56793 0.567929 h -0.56793 -0.56793 z m 0.91119,0 v -0.343254 h -0.34326 -0.34325 v 0.343254 0.343254 h 0.34325 0.34326 z m -0.45351,0.0021 v -0.112338 h 0.11233 0.11234 v 0.112338 0.112337 h -0.11234 -0.11233 z m 0.911186,-0.0021 v -0.56793 h 0.34117 0.34117 v 0.114418 0.114419 h 0.1165 0.11649 v -0.114419 -0.114418 h 0.11234 0.11233 v 0.341174 0.341174 h -0.34116 -0.34118 v -0.114418 -0.114418 h -0.11649 -0.1165 v 0.341174 0.341173 h -0.11234 -0.11233 z m 0.91533,0.455591 v -0.112337 h 0.11234 0.11233 v 0.112337 0.112338 h -0.11233 -0.11234 z m -2.284196,-1.8244466 v -0.567929 h 0.56793 0.56793 v 0.567929 0.56793 h -0.56793 -0.56793 z m 0.91119,0 v -0.343254 h -0.34326 -0.34325 v 0.343254 0.343254 h 0.34325 0.34326 z m -0.45351,0.0021 v -0.112326 h 0.11233 0.11234 v 0.112338 0.112337 h -0.11234 -0.11233 z m 0.911186,-0.0021 v -0.567929 h 0.57 0.57 v 0.567929 0.56793 h -0.57 -0.57 z m 0.91533,0 v -0.343254 h -0.34533 -0.34533 v 0.343254 0.343254 h 0.34533 0.34533 z m -0.45767,0.0021 v -0.112326 h 0.11234 0.11234 v 0.112338 0.112337 h -0.11234 -0.11234 z"
         id="path47373"
         inkscape:connector-curvature="0" />
      <g
         aria-label="A"
         style="font-style:normal;font-variant:normal;font-weight:normal;font-stretch:normal;font-size:3.52777767px;line-height:1.25;font-family:'Roboto Medium';-inkscape-font-specification:'Roboto Medium, ';letter-spacing:0px;word-spacing:0px;fill:#333333;fill-opacity:1;stroke:none;stroke-width:0.26458332"
         id="text47377">
        <path
           d="m 98.162888,-7.3275383 h -0.971517 l -0.203261,0.5839437 h -0.45303 l 0.947401,-2.5080295 H 97.8735 l 0.949123,2.5080295 H 98.367871 Z M 97.313672,-7.678938 h 0.726915 l -0.363458,-1.0404188 z"
           style="font-size:3.52777767px;fill:#333333;fill-opacity:1;stroke-width:0.26458332"
           id="path43290" />
      </g>
    </g>
    <g
       aria-label="for"
       style="font-style:normal;font-variant:normal;font-weight:normal;font-stretch:normal;font-size:3.15592885px;line-height:1.25;font-family:Roboto;-inkscape-font-specification:Roboto;letter-spacing:0px;word-spacing:0px;fill:#333333;fill-opacity:1;stroke:none;stroke-width:0.40826154;stroke-miterlimit:4;stroke-dasharray:none"
       id="text47383">
      <path
         d="m 30.395996,281.19745 v -1.44698 h -0.263508 v -0.22036 h 0.263508 v -0.17105 q 0,-0.26813 0.143311,-0.41453 0.143312,-0.14639 0.405278,-0.14639 0.09862,0 0.195705,0.0262 l -0.01541,0.23115 q -0.07243,-0.0139 -0.154098,-0.0139 -0.138688,0 -0.214196,0.0817 -0.07551,0.0801 -0.07551,0.23115 v 0.17567 h 0.355966 v 0.22036 h -0.355966 v 1.44698 z"
         style="font-style:normal;font-variant:normal;font-weight:normal;font-stretch:normal;font-size:3.15592885px;font-family:Roboto;-inkscape-font-specification:Roboto;fill:#333333;fill-opacity:1;stroke-width:0.40826154;stroke-miterlimit:4;stroke-dasharray:none"
         id="path43283" />
      <path
         d="m 31.277437,280.34837 q 0,-0.24502 0.09554,-0.44072 0.09708,-0.19571 0.268131,-0.30203 0.172589,-0.10633 0.39295,-0.10633 0.340557,0 0.55013,0.23577 0.211114,0.23577 0.211114,0.62718 v 0.02 q 0,0.24347 -0.094,0.43764 -0.09246,0.19262 -0.266589,0.30049 -0.17259,0.10787 -0.397573,0.10787 -0.339016,0 -0.55013,-0.23577 -0.209574,-0.23577 -0.209574,-0.6241 z m 0.286623,0.0339 q 0,0.27738 0.127901,0.44534 0.129442,0.16797 0.34518,0.16797 0.217278,0 0.345179,-0.16951 0.127902,-0.17105 0.127902,-0.4777 0,-0.2743 -0.130984,-0.4438 -0.129442,-0.17105 -0.345179,-0.17105 -0.211115,0 -0.340557,0.16796 -0.129442,0.16797 -0.129442,0.48079 z"
         style="font-style:normal;font-variant:normal;font-weight:normal;font-stretch:normal;font-size:3.15592885px;font-family:Roboto;-inkscape-font-specification:Roboto;fill:#333333;fill-opacity:1;stroke-width:0.40826154;stroke-miterlimit:4;stroke-dasharray:none"
         id="path43285" />
      <path
         d="m 33.958744,279.78591 q -0.06472,-0.0108 -0.140229,-0.0108 -0.280459,0 -0.380623,0.23886 v 1.18347 h -0.285081 v -1.66734 h 0.277377 l 0.0046,0.19262 q 0.140229,-0.22344 0.397573,-0.22344 0.08321,0 0.12636,0.0216 z"
         style="font-style:normal;font-variant:normal;font-weight:normal;font-stretch:normal;font-size:3.15592885px;font-family:Roboto;-inkscape-font-specification:Roboto;fill:#333333;fill-opacity:1;stroke-width:0.40826154;stroke-miterlimit:4;stroke-dasharray:none"
         id="path43287" />
    </g>
    <g
       aria-label="@"
       style="font-style:normal;font-variant:normal;font-weight:normal;font-stretch:normal;font-size:2.42763758px;line-height:1.25;font-family:'Roboto Black';-inkscape-font-specification:'Roboto Black, ';letter-spacing:0px;word-spacing:0px;fill:#333333;fill-opacity:1;stroke:none;stroke-width:0.36414564"
       id="text47387">
      <path
         d="m 45.591451,286.26113 q -0.01185,0.30938 -0.154098,0.49312 -0.142245,0.18373 -0.379319,0.18373 -0.0972,0 -0.171878,-0.0415 -0.07468,-0.0427 -0.116167,-0.11972 -0.116166,0.15647 -0.311752,0.15647 -0.113795,0 -0.199142,-0.0664 -0.08535,-0.0676 -0.125649,-0.19085 -0.03912,-0.12328 -0.02371,-0.27975 0.03556,-0.29634 0.190845,-0.47651 0.155283,-0.18018 0.380504,-0.18018 0.174249,0 0.299898,0.0806 l 0.07468,0.0498 -0.06045,0.69581 q -0.02015,0.16477 0.113795,0.16477 0.100757,0 0.168323,-0.12802 0.06875,-0.12921 0.07586,-0.32953 0.02015,-0.39592 -0.164766,-0.61165 -0.183732,-0.21574 -0.539343,-0.21574 -0.226406,0 -0.403026,0.11616 -0.175435,0.11499 -0.278562,0.32717 -0.101942,0.21099 -0.114981,0.48126 -0.01897,0.41488 0.165952,0.63417 0.184917,0.22048 0.554753,0.22048 0.09957,0 0.210996,-0.0237 0.111425,-0.0225 0.181361,-0.0533 l 0.04386,0.19677 q -0.07231,0.0474 -0.195586,0.0759 -0.122093,0.0296 -0.245372,0.0296 -0.323606,0 -0.54764,-0.12447 -0.22285,-0.12327 -0.331904,-0.36627 -0.109054,-0.24301 -0.0972,-0.58913 0.01422,-0.32717 0.150542,-0.58558 0.137503,-0.25959 0.374576,-0.40065 0.23826,-0.14225 0.536973,-0.14225 0.298713,0 0.515636,0.12447 0.216923,0.12328 0.325977,0.35561 0.109054,0.23233 0.09602,0.53934 z m -1.18537,0.13513 q -0.01304,0.1541 0.02371,0.23352 0.03793,0.0782 0.120908,0.0782 0.05571,0 0.101942,-0.0498 0.04741,-0.0498 0.07823,-0.14224 l 0.04742,-0.54053 q -0.03556,-0.009 -0.07349,-0.009 -0.132761,0 -0.205069,0.10431 -0.07112,0.10313 -0.09364,0.32597 z"
         style="font-style:normal;font-variant:normal;font-weight:normal;font-stretch:normal;font-size:2.42763758px;font-family:'Roboto Black';-inkscape-font-specification:'Roboto Black, ';fill:#333333;fill-opacity:1;stroke-width:0.36414564"
         id="path43280" />
    </g>
    <g
       style="fill:#333333;fill-opacity:1"
       transform="matrix(0.22842418,0,0,0.22842418,41.60434,270.16487)"
       id="g47395">
      <g
         style="fill:#333333;fill-opacity:1"
         id="g47393">
        <path
           id="path47389"
           d="M 7.5554956,7.2222826 2.6807051,2.3474906 h 5.2647754 l 7.7996635,7.7996664 h -5.264776 a 3.8998335,3.8998335 0 1 0 0,7.799666 h 1.949918 l 3.899834,3.899834 H 10.480368 A 7.7996667,7.7996667 0 0 1 2.6807051,14.046989 c 0,-3.163014 1.5599325,-5.7128394 4.8747905,-6.8247064 z"
           inkscape:connector-curvature="0"
           style="fill:#333333;fill-opacity:1" />
        <path
           id="path47391"
           d="m 21.204911,16.971864 4.874791,4.874793 h -5.264775 l -7.799665,-7.799668 h 5.264775 a 3.8998336,3.8998336 0 0 0 0,-7.7996654 H 16.33012 l -3.899834,-3.899833 h 5.849751 a 7.7996667,7.7996667 0 0 1 7.799665,7.7996664 c 0,3.163012 -1.559933,5.712839 -4.874791,6.824707 z"
           inkscape:connector-curvature="0"
           style="fill:#333333;fill-opacity:1" />
      </g>
    </g>
    <path
       inkscape:connector-curvature="0"
       id="path47397"
       d="m 43.65444,282.29468 v -0.47053 l -0.549684,-10e-4 -0.549699,-10e-4 0.07128,-0.34109 0.07127,-0.34109 0.275176,-0.002 0.275189,-0.002 8.81e-4,-1.53739 8.81e-4,-1.53738 h -0.34876 -0.348793 v -0.31354 -0.3137 h 0.550681 0.550678 v -0.47059 -0.47056 h 0.243243 0.243223 v 0.47056 0.47055 h 0.245534 0.245495 v -0.47055 -0.47056 h 0.243242 0.243223 v 0.47056 0.47055 l 0.01513,9e-5 c 0.0452,2.9e-4 0.187978,0.0111 0.237526,0.0177 0.325746,0.0446 0.585055,0.1745 0.775562,0.3886 0.159988,0.18 0.264972,0.41574 0.300844,0.67659 0.0098,0.0735 0.0098,0.19176 3.3e-5,0.24283 -0.02191,0.11112 -0.0678,0.21318 -0.146379,0.32675 -0.05714,0.0824 -0.187743,0.22162 -0.259175,0.27648 l -0.01923,0.0151 0.01512,0.009 c 0.248607,0.15027 0.343478,0.21948 0.441305,0.32206 0.168976,0.1771 0.246447,0.37406 0.264739,0.67242 0.02191,0.33807 -0.09139,0.65663 -0.323689,0.92036 -0.244155,0.27711 -0.60978,0.45666 -1.030383,0.50598 -0.05831,0.007 -0.213235,0.0173 -0.25582,0.0177 l -0.01512,6e-5 v 0.47055 0.47055 h -0.24326 -0.243208 v -0.47057 -0.47055 H 44.385976 44.14044 v 0.47055 0.47055 h -0.243309 -0.24324 v -0.47052 z m 1.461651,-1.16726 c 0.20182,-0.029 0.348795,-0.0952 0.453351,-0.20416 0.0678,-0.0706 0.105838,-0.13489 0.133405,-0.22449 0.02425,-0.0772 0.03174,-0.13382 0.03174,-0.22407 0,-0.18584 -0.05267,-0.33059 -0.1615,-0.44423 -0.100525,-0.10491 -0.237277,-0.17084 -0.416102,-0.20051 -0.08324,-0.014 -0.24018,-0.0179 -0.630994,-0.0167 l -0.383185,10e-4 -8.63e-4,0.65479 c -4.49e-4,0.36013 -1.32e-4,0.65774 8.63e-4,0.66133 0.0013,0.009 0.909309,0.005 0.972962,-0.004 z m -0.250353,-1.87781 c 0.275973,-0.0265 0.486183,-0.18213 0.554719,-0.41064 0.01923,-0.0645 0.02543,-0.11047 0.02526,-0.18673 -8.81e-4,-0.19684 -0.07923,-0.35503 -0.231212,-0.46675 -0.06247,-0.0459 -0.164972,-0.0901 -0.259589,-0.11168 -0.04937,-0.0113 -0.05417,-0.0113 -0.431987,-0.0129 l -0.382002,-0.002 v 0.59442 c 0,0.32693 8.63e-4,0.59592 0.0013,0.59774 0.005,0.005 0.664059,0.003 0.72181,-0.002 z"
       style="fill:#333333;fill-opacity:1;stroke-width:0.00478028" />
    <g
       aria-label="each"
       style="font-style:normal;font-variant:normal;font-weight:normal;font-stretch:normal;font-size:3.15592885px;line-height:1.25;font-family:Roboto;-inkscape-font-specification:Roboto;letter-spacing:0px;word-spacing:0px;fill:#333333;fill-opacity:1;stroke:none;stroke-width:0.40826154;stroke-miterlimit:4;stroke-dasharray:none"
       id="text47401">
      <path
         d="m 48.583057,281.22827 q -0.339016,0 -0.551672,-0.2219 -0.212655,-0.22345 -0.212655,-0.59636 v -0.0524 q 0,-0.24809 0.094,-0.44226 0.09554,-0.1957 0.265049,-0.30511 0.171049,-0.11095 0.369835,-0.11095 0.325147,0 0.505442,0.21419 0.180295,0.2142 0.180295,0.61331 v 0.11866 h -1.129539 q 0.0062,0.24656 0.143311,0.39911 0.138688,0.15102 0.351343,0.15102 0.151017,0 0.255803,-0.0616 0.104787,-0.0616 0.183377,-0.16334 l 0.174131,0.1356 q -0.209574,0.32207 -0.62872,0.32207 z m -0.03544,-1.49475 q -0.17259,0 -0.289704,0.12636 -0.117115,0.12482 -0.144853,0.35134 h 0.835212 v -0.0216 q -0.01233,-0.21728 -0.117114,-0.33594 -0.104787,-0.12019 -0.283541,-0.12019 z"
         style="font-style:normal;font-variant:normal;font-weight:normal;font-stretch:normal;font-size:3.15592885px;font-family:Roboto;-inkscape-font-specification:Roboto;fill:#333333;fill-opacity:1;stroke-width:0.40826154;stroke-miterlimit:4;stroke-dasharray:none"
         id="path43271" />
      <path
         d="m 50.590955,281.19745 q -0.02466,-0.0493 -0.04007,-0.17567 -0.198786,0.20649 -0.474622,0.20649 -0.246557,0 -0.405278,-0.13869 -0.15718,-0.14023 -0.15718,-0.35443 0,-0.26042 0.197246,-0.40373 0.198786,-0.14485 0.557835,-0.14485 h 0.277376 v -0.13099 q 0,-0.14947 -0.08938,-0.23731 -0.08938,-0.0894 -0.263507,-0.0894 -0.152557,0 -0.255803,0.0771 -0.103246,0.077 -0.103246,0.18646 h -0.286622 q 0,-0.12482 0.08784,-0.24039 0.08938,-0.11712 0.240393,-0.18492 0.152557,-0.0678 0.334392,-0.0678 0.288164,0 0.451508,0.14485 0.163344,0.14331 0.169508,0.39603 v 0.76741 q 0,0.22961 0.05856,0.36521 v 0.0247 z m -0.473081,-0.21728 q 0.134065,0 0.254261,-0.0693 0.120197,-0.0693 0.174131,-0.1803 v -0.3421 h -0.223442 q -0.523933,0 -0.523933,0.30666 0,0.13406 0.08938,0.20957 0.08938,0.0755 0.229607,0.0755 z"
         style="font-style:normal;font-variant:normal;font-weight:normal;font-stretch:normal;font-size:3.15592885px;font-family:Roboto;-inkscape-font-specification:Roboto;fill:#333333;fill-opacity:1;stroke-width:0.40826154;stroke-miterlimit:4;stroke-dasharray:none"
         id="path43273" />
      <path
         d="m 51.9501,280.99558 q 0.152557,0 0.26659,-0.0925 0.114032,-0.0925 0.12636,-0.23115 h 0.269672 q -0.0077,0.14332 -0.09862,0.27276 -0.09092,0.12944 -0.243475,0.20649 -0.151016,0.077 -0.320524,0.077 -0.340557,0 -0.542425,-0.22653 -0.200328,-0.22806 -0.200328,-0.62255 v -0.0478 q 0,-0.24348 0.08938,-0.43302 0.08938,-0.18954 0.255803,-0.29433 0.167967,-0.10478 0.396032,-0.10478 0.280458,0 0.465376,0.16796 0.186459,0.16797 0.198787,0.4361 H 52.34305 q -0.01233,-0.1618 -0.123279,-0.26505 -0.109409,-0.10478 -0.271212,-0.10478 -0.217278,0 -0.337475,0.15718 -0.118656,0.15564 -0.118656,0.4515 v 0.0539 q 0,0.28816 0.118656,0.4438 0.118656,0.15564 0.339016,0.15564 z"
         style="font-style:normal;font-variant:normal;font-weight:normal;font-stretch:normal;font-size:3.15592885px;font-family:Roboto;-inkscape-font-specification:Roboto;fill:#333333;fill-opacity:1;stroke-width:0.40826154;stroke-miterlimit:4;stroke-dasharray:none"
         id="path43275" />
      <path
         d="m 53.218327,279.73198 q 0.189541,-0.23269 0.493114,-0.23269 0.528556,0 0.533179,0.59636 v 1.1018 h -0.285081 v -1.10334 q -0.0015,-0.1803 -0.08321,-0.26659 -0.08013,-0.0863 -0.25118,-0.0863 -0.138688,0 -0.243475,0.074 -0.104787,0.074 -0.163344,0.19416 v 1.1881 h -0.285081 v -2.36695 h 0.285081 z"
         style="font-style:normal;font-variant:normal;font-weight:normal;font-stretch:normal;font-size:3.15592885px;font-family:Roboto;-inkscape-font-specification:Roboto;fill:#333333;fill-opacity:1;stroke-width:0.40826154;stroke-miterlimit:4;stroke-dasharray:none"
         id="path43277" />
    </g>
    <g
       style="display:inline"
       id="g5633"
       transform="matrix(0.92495423,0,0,0.92495423,-1.14087,710.84949)">
      <path
         style="opacity:1;fill:#7485ff;fill-opacity:1;stroke:#333333;stroke-width:0.40900001;stroke-miterlimit:4;stroke-dasharray:none;stroke-opacity:1"
         d="m 12.877123,-457.56482 a 3.3700566,3.3700566 0 0 1 -3.3700563,3.37006 3.3700566,3.3700566 0 0 1 -3.3700566,-3.37006 3.3700566,3.3700566 0 0 1 3.3700566,-3.37006 3.3700566,3.3700566 0 0 1 3.3700563,3.37006 z"
         id="circle5582" />
      <g
         id="g5588"
         style="fill:#333333;fill-opacity:1;filter:url(#filter44739-5)"
         transform="matrix(0.15283508,0,0,0.15283508,7.2289534,-459.43887)">
        <path
           id="path5584"
           d="M 7.5554956,7.2222826 2.6807051,2.3474906 h 5.2647754 l 7.7996635,7.7996664 h -5.264776 a 3.8998335,3.8998335 0 1 0 0,7.799666 h 1.949918 l 3.899834,3.899834 H 10.480368 A 7.7996667,7.7996667 0 0 1 2.6807051,14.046989 c 0,-3.163014 1.5599325,-5.7128394 4.8747905,-6.8247064 z"
           inkscape:connector-curvature="0"
           style="fill:#333333;fill-opacity:1" />
        <path
           id="path5586"
           d="m 21.204911,16.971864 4.874791,4.874793 h -5.264775 l -7.799665,-7.799668 h 5.264775 a 3.8998336,3.8998336 0 0 0 0,-7.7996654 H 16.33012 l -3.899834,-3.899833 h 5.849751 a 7.7996667,7.7996667 0 0 1 7.799665,7.7996664 c 0,3.163012 -1.559933,5.712839 -4.874791,6.824707 z"
           inkscape:connector-curvature="0"
           style="fill:#333333;fill-opacity:1" />
      </g>
      <path
         style="opacity:1;fill:#7485ff;fill-opacity:1;stroke:#333333;stroke-width:0.40900001;stroke-miterlimit:4;stroke-dasharray:none;stroke-opacity:1"
         d="m 18.406339,-457.69495 a 3.3700566,3.3700566 0 0 1 -3.370056,3.37006 3.3700566,3.3700566 0 0 1 -3.370057,-3.37006 3.3700566,3.3700566 0 0 1 3.370057,-3.37005 3.3700566,3.3700566 0 0 1 3.370056,3.37005 z"
         id="circle5592" />
      <g
         transform="matrix(0.15283508,0,0,0.15283508,12.758169,-459.56897)"
         style="fill:#333333;fill-opacity:1;filter:url(#filter44739-5)"
         id="g5598">
        <path
           style="fill:#333333;fill-opacity:1"
           inkscape:connector-curvature="0"
           d="M 7.5554956,7.2222826 2.6807051,2.3474906 h 5.2647754 l 7.7996635,7.7996664 h -5.264776 a 3.8998335,3.8998335 0 1 0 0,7.799666 h 1.949918 l 3.899834,3.899834 H 10.480368 A 7.7996667,7.7996667 0 0 1 2.6807051,14.046989 c 0,-3.163014 1.5599325,-5.7128394 4.8747905,-6.8247064 z"
           id="path5594" />
        <path
           style="fill:#333333;fill-opacity:1"
           inkscape:connector-curvature="0"
           d="m 21.204911,16.971864 4.874791,4.874793 h -5.264775 l -7.799665,-7.799668 h 5.264775 a 3.8998336,3.8998336 0 0 0 0,-7.7996654 H 16.33012 l -3.899834,-3.899833 h 5.849751 a 7.7996667,7.7996667 0 0 1 7.799665,7.7996664 c 0,3.163012 -1.559933,5.712839 -4.874791,6.824707 z"
           id="path5596" />
      </g>
      <g
         id="g5580">
        <path
           style="opacity:1;fill:#7485ff;fill-opacity:1;stroke:#333333;stroke-width:0.40900001;stroke-miterlimit:4;stroke-dasharray:none;stroke-opacity:1"
           d="m 15.804356,-454.44247 a 3.3700566,3.3700566 0 0 1 -3.370057,3.37005 3.3700566,3.3700566 0 0 1 -3.3700562,-3.37005 3.3700566,3.3700566 0 0 1 3.3700562,-3.37006 3.3700566,3.3700566 0 0 1 3.370057,3.37006 z"
           id="circle5552" />
        <g
           id="g5558"
           style="fill:#333333;fill-opacity:1;filter:url(#filter44739-5)"
           transform="matrix(0.15283508,0,0,0.15283508,10.156185,-456.31649)">
          <path
             id="path5554"
             d="M 7.5554956,7.2222826 2.6807051,2.3474906 h 5.2647754 l 7.7996635,7.7996664 h -5.264776 a 3.8998335,3.8998335 0 1 0 0,7.799666 h 1.949918 l 3.899834,3.899834 H 10.480368 A 7.7996667,7.7996667 0 0 1 2.6807051,14.046989 c 0,-3.163014 1.5599325,-5.7128394 4.8747905,-6.8247064 z"
             inkscape:connector-curvature="0"
             style="fill:#333333;fill-opacity:1" />
          <path
             id="path5556"
             d="m 21.204911,16.971864 4.874791,4.874793 h -5.264775 l -7.799665,-7.799668 h 5.264775 a 3.8998336,3.8998336 0 0 0 0,-7.7996654 H 16.33012 l -3.899834,-3.899833 h 5.849751 a 7.7996667,7.7996667 0 0 1 7.799665,7.7996664 c 0,3.163012 -1.559933,5.712839 -4.874791,6.824707 z"
             inkscape:connector-curvature="0"
             style="fill:#333333;fill-opacity:1" />
        </g>
      </g>
    </g>
    <flowRoot
       xml:space="preserve"
       id="flowRoot43260"
       style="fill:black;fill-opacity:1;stroke:none;font-family:sans-serif;font-style:normal;font-weight:normal;font-size:40px;line-height:1.25;letter-spacing:0px;word-spacing:0px"><flowRegion
         id="flowRegion43262"><rect
           id="rect43264"
           width="579.02777"
           height="309.06549"
           x="-83.470238"
           y="-54.842941" /></flowRegion><flowPara
         id="flowPara43266"></flowPara></flowRoot>  </g>
</svg>
