<?xml version="1.0" encoding="UTF-8" standalone="no"?>
<!-- Created with Inkscape (http://www.inkscape.org/) -->

<svg
   xmlns:dc="http://purl.org/dc/elements/1.1/"
   xmlns:cc="http://creativecommons.org/ns#"
   xmlns:rdf="http://www.w3.org/1999/02/22-rdf-syntax-ns#"
   xmlns:svg="http://www.w3.org/2000/svg"
   xmlns="http://www.w3.org/2000/svg"
   xmlns:sodipodi="http://sodipodi.sourceforge.net/DTD/sodipodi-0.dtd"
   xmlns:inkscape="http://www.inkscape.org/namespaces/inkscape"
   width="97mm"
   height="43mm"
   viewBox="0 0 97 43"
   version="1.1"
   id="svg15851"
   inkscape:version="0.92.4 (5da689c313, 2019-01-14)"
   sodipodi:docname="bob-order.svg">
  <defs
     id="defs15845">
    <filter
       inkscape:collect="always"
       style="color-interpolation-filters:sRGB"
       id="filter44739">
      <feBlend
         inkscape:collect="always"
         mode="multiply"
         in2="BackgroundImage"
         id="feBlend44741" />
    </filter>
  </defs>
  <sodipodi:namedview
     id="base"
     pagecolor="#ffffff"
     bordercolor="#666666"
     borderopacity="1.0"
     inkscape:pageopacity="0.0"
     inkscape:pageshadow="2"
     inkscape:zoom="1.1943128"
     inkscape:cx="306.79563"
     inkscape:cy="42.857143"
     inkscape:document-units="mm"
     inkscape:current-layer="g47453"
     showgrid="false"
     inkscape:window-width="1920"
     inkscape:window-height="1017"
     inkscape:window-x="-8"
     inkscape:window-y="-8"
     inkscape:window-maximized="1" />
  <metadata
     id="metadata15848">
    <rdf:RDF>
      <cc:Work
         rdf:about="">
        <dc:format>image/svg+xml</dc:format>
        <dc:type
           rdf:resource="http://purl.org/dc/dcmitype/StillImage" />
        <dc:title />
      </cc:Work>
    </rdf:RDF>
  </metadata>
  <g
     inkscape:label="Layer 1"
     inkscape:groupmode="layer"
     id="layer1"
     transform="translate(0,-254)">
    <path
       style="display:inline;fill:#f6f6f6;fill-opacity:1;stroke:#646464;stroke-width:0.36500001;stroke-miterlimit:4;stroke-dasharray:none;stroke-dashoffset:0;stroke-opacity:1;filter:url(#filter44739)"
       d="M 3.8581949,257.61312 H 43.839209 l 0.09328,6.06345 h 29.248167 v 30.50925 H 3.8581949 Z"
       id="rect34780"
       inkscape:connector-curvature="0"
       sodipodi:nodetypes="ccccccc" />
    <g
       aria-label="DEX orderbook"
       inkscape:transform-center-y="-1.5858263"
       style="font-style:normal;font-variant:normal;font-weight:normal;font-stretch:normal;font-size:4.85527468px;line-height:1.25;font-family:Roboto;-inkscape-font-specification:Roboto;letter-spacing:0px;word-spacing:0px;display:inline;fill:#333333;fill-opacity:1;stroke:none;stroke-width:0.36414564;filter:url(#filter44739)"
       id="text34784">
      <path
         d="m 8.4678986,263.54144 v -3.45179 h 0.9743739 q 0.4504406,0 0.7965685,0.19914 0.346128,0.19914 0.533416,0.5666 0.18966,0.36747 0.19203,0.84399 v 0.22048 q 0,0.48837 -0.189659,0.85583 -0.187288,0.36747 -0.538158,0.56424 -0.3484984,0.19677 -0.8131634,0.20151 z m 0.455182,-3.07722 v 2.70502 H 9.40197 q 0.5263042,0 0.817905,-0.32717 0.293972,-0.32716 0.293972,-0.9317 v -0.20151 q 0,-0.58794 -0.277377,-0.91273 -0.2750055,-0.32717 -0.7823438,-0.33191 z"
         style="font-style:normal;font-variant:normal;font-weight:normal;font-stretch:normal;font-size:4.85527468px;font-family:Roboto;-inkscape-font-specification:Roboto;fill:#333333;fill-opacity:1;stroke-width:0.36414564"
         id="path44143" />
      <path
         d="m 13.605291,261.94594 h -1.495936 v 1.2233 h 1.737752 v 0.3722 h -2.192934 v -3.45179 h 2.169226 v 0.37457 h -1.714044 v 1.10951 h 1.495936 z"
         style="font-style:normal;font-variant:normal;font-weight:normal;font-stretch:normal;font-size:4.85527468px;font-family:Roboto;-inkscape-font-specification:Roboto;fill:#333333;fill-opacity:1;stroke-width:0.36414564"
         id="path44145" />
      <path
         d="m 15.539815,261.41252 0.827388,-1.32287 h 0.535787 l -1.09054,1.71167 1.116618,1.74012 H 16.38854 l -0.848725,-1.34658 -0.853466,1.34658 h -0.538158 l 1.118989,-1.74012 -1.092911,-1.71167 h 0.533416 z"
         style="font-style:normal;font-variant:normal;font-weight:normal;font-stretch:normal;font-size:4.85527468px;font-family:Roboto;-inkscape-font-specification:Roboto;fill:#333333;fill-opacity:1;stroke-width:0.36414564"
         id="path44147" />
      <path
         d="m 18.477161,262.23517 q 0,-0.37695 0.146986,-0.67804 0.149357,-0.30108 0.412509,-0.46466 0.265523,-0.16358 0.604539,-0.16358 0.523933,0 0.846354,0.36272 0.324791,0.36272 0.324791,0.96489 v 0.0308 q 0,0.37458 -0.144615,0.67329 -0.142245,0.29634 -0.410138,0.4623 -0.265523,0.16595 -0.611651,0.16595 -0.521563,0 -0.846354,-0.36273 -0.322421,-0.36272 -0.322421,-0.96015 z m 0.440958,0.0522 q 0,0.42673 0.196771,0.68515 0.199142,0.25841 0.531046,0.25841 0.334274,0 0.531046,-0.26079 0.196771,-0.26315 0.196771,-0.73492 0,-0.422 -0.201513,-0.68278 -0.199142,-0.26315 -0.531045,-0.26315 -0.324792,0 -0.523934,0.25841 -0.199142,0.25841 -0.199142,0.73967 z"
         style="font-style:normal;font-variant:normal;font-weight:normal;font-stretch:normal;font-size:4.85527468px;font-family:Roboto;-inkscape-font-specification:Roboto;fill:#333333;fill-opacity:1;stroke-width:0.36414564"
         id="path44149" />
      <path
         d="m 22.602248,261.36985 q -0.09957,-0.0166 -0.215737,-0.0166 -0.431475,0 -0.585573,0.36746 v 1.82073 h -0.438586 v -2.56514 h 0.426733 l 0.0071,0.29635 q 0.215737,-0.34376 0.611651,-0.34376 0.12802,0 0.1944,0.0332 z"
         style="font-style:normal;font-variant:normal;font-weight:normal;font-stretch:normal;font-size:4.85527468px;font-family:Roboto;-inkscape-font-specification:Roboto;fill:#333333;fill-opacity:1;stroke-width:0.36414564"
         id="path44151" />
      <path
         d="m 22.848805,262.23754 q 0,-0.59032 0.279747,-0.9483 0.279748,-0.36035 0.732559,-0.36035 0.45044,0 0.713592,0.30819 v -1.33709 h 0.438587 v 3.64145 h -0.403025 l -0.02134,-0.275 q -0.263152,0.32242 -0.732559,0.32242 -0.445699,0 -0.727817,-0.3651 -0.279747,-0.36509 -0.279747,-0.95303 z m 0.438587,0.0498 q 0,0.43622 0.180176,0.68277 0.180176,0.24656 0.497855,0.24656 0.417251,0 0.60928,-0.37458 v -1.17825 q -0.196771,-0.36273 -0.604538,-0.36273 -0.322421,0 -0.502597,0.24893 -0.180176,0.24893 -0.180176,0.7373 z"
         style="font-style:normal;font-variant:normal;font-weight:normal;font-stretch:normal;font-size:4.85527468px;font-family:Roboto;-inkscape-font-specification:Roboto;fill:#333333;fill-opacity:1;stroke-width:0.36414564"
         id="path44153" />
      <path
         d="m 26.760526,263.58886 q -0.521563,0 -0.848725,-0.34139 -0.327162,-0.34376 -0.327162,-0.91748 v -0.0806 q 0,-0.38169 0.144615,-0.6804 0.146986,-0.30109 0.407768,-0.46941 0.263152,-0.17069 0.568977,-0.17069 0.500226,0 0.777603,0.32953 0.277376,0.32953 0.277376,0.94356 v 0.18254 h -1.737752 q 0.0095,0.37932 0.220479,0.61402 0.213366,0.23234 0.540529,0.23234 0.232332,0 0.393542,-0.0948 0.161211,-0.0948 0.282118,-0.2513 l 0.267894,0.20862 q -0.322421,0.49549 -0.967262,0.49549 z m -0.05453,-2.29962 q -0.265523,0 -0.445699,0.1944 -0.180176,0.19203 -0.222849,0.54053 h 1.28494 v -0.0332 q -0.01896,-0.33428 -0.180176,-0.51682 -0.16121,-0.18492 -0.436216,-0.18492 z"
         style="font-style:normal;font-variant:normal;font-weight:normal;font-stretch:normal;font-size:4.85527468px;font-family:Roboto;-inkscape-font-specification:Roboto;fill:#333333;fill-opacity:1;stroke-width:0.36414564"
         id="path44155" />
      <path
         d="m 29.505842,261.36985 q -0.09957,-0.0166 -0.215737,-0.0166 -0.431475,0 -0.585573,0.36746 v 1.82073 h -0.438586 v -2.56514 h 0.426733 l 0.0071,0.29635 q 0.215737,-0.34376 0.611651,-0.34376 0.12802,0 0.1944,0.0332 z"
         style="font-style:normal;font-variant:normal;font-weight:normal;font-stretch:normal;font-size:4.85527468px;font-family:Roboto;-inkscape-font-specification:Roboto;fill:#333333;fill-opacity:1;stroke-width:0.36414564"
         id="path44157" />
      <path
         d="m 32.078094,262.28732 q 0,0.58795 -0.270265,0.94593 -0.270264,0.35561 -0.725446,0.35561 -0.486002,0 -0.751524,-0.34376 l -0.02134,0.29634 h -0.403026 v -3.64145 h 0.438587 v 1.35843 q 0.265523,-0.32953 0.732558,-0.32953 0.467036,0 0.732559,0.35324 0.267894,0.35324 0.267894,0.96726 z m -0.438587,-0.0498 q 0,-0.44807 -0.173064,-0.69226 -0.173064,-0.24419 -0.497856,-0.24419 -0.433845,0 -0.623504,0.40303 v 1.10951 q 0.201513,0.40302 0.628246,0.40302 0.315308,0 0.490743,-0.24418 0.175435,-0.24419 0.175435,-0.73493 z"
         style="font-style:normal;font-variant:normal;font-weight:normal;font-stretch:normal;font-size:4.85527468px;font-family:Roboto;-inkscape-font-specification:Roboto;fill:#333333;fill-opacity:1;stroke-width:0.36414564"
         id="path44159" />
      <path
         d="m 32.511939,262.23517 q 0,-0.37695 0.146986,-0.67804 0.149356,-0.30108 0.412509,-0.46466 0.265522,-0.16358 0.604538,-0.16358 0.523934,0 0.846354,0.36272 0.324792,0.36272 0.324792,0.96489 v 0.0308 q 0,0.37458 -0.144616,0.67329 -0.142244,0.29634 -0.410138,0.4623 -0.265522,0.16595 -0.61165,0.16595 -0.521563,0 -0.846354,-0.36273 -0.322421,-0.36272 -0.322421,-0.96015 z m 0.440958,0.0522 q 0,0.42673 0.196771,0.68515 0.199142,0.25841 0.531046,0.25841 0.334274,0 0.531045,-0.26079 0.196772,-0.26315 0.196772,-0.73492 0,-0.422 -0.201513,-0.68278 -0.199142,-0.26315 -0.531046,-0.26315 -0.324791,0 -0.523933,0.25841 -0.199142,0.25841 -0.199142,0.73967 z"
         style="font-style:normal;font-variant:normal;font-weight:normal;font-stretch:normal;font-size:4.85527468px;font-family:Roboto;-inkscape-font-specification:Roboto;fill:#333333;fill-opacity:1;stroke-width:0.36414564"
         id="path44161" />
      <path
         d="m 35.280963,262.23517 q 0,-0.37695 0.146986,-0.67804 0.149356,-0.30108 0.412508,-0.46466 0.265523,-0.16358 0.604539,-0.16358 0.523933,0 0.846354,0.36272 0.324791,0.36272 0.324791,0.96489 v 0.0308 q 0,0.37458 -0.144615,0.67329 -0.142244,0.29634 -0.410138,0.4623 -0.265522,0.16595 -0.61165,0.16595 -0.521563,0 -0.846355,-0.36273 -0.32242,-0.36272 -0.32242,-0.96015 z m 0.440957,0.0522 q 0,0.42673 0.196772,0.68515 0.199142,0.25841 0.531046,0.25841 0.334274,0 0.531045,-0.26079 0.196772,-0.26315 0.196772,-0.73492 0,-0.422 -0.201513,-0.68278 -0.199142,-0.26315 -0.531046,-0.26315 -0.324791,0 -0.523933,0.25841 -0.199143,0.25841 -0.199143,0.73967 z"
         style="font-style:normal;font-variant:normal;font-weight:normal;font-stretch:normal;font-size:4.85527468px;font-family:Roboto;-inkscape-font-specification:Roboto;fill:#333333;fill-opacity:1;stroke-width:0.36414564"
         id="path44163" />
      <path
         d="m 38.882116,262.3537 -0.275005,0.28686 v 0.90088 h -0.438587 v -3.64145 h 0.438587 v 2.20241 l 0.234703,-0.28211 0.798939,-0.84399 h 0.533416 l -0.998081,1.07158 1.114248,1.49356 h -0.514451 z"
         style="font-style:normal;font-variant:normal;font-weight:normal;font-stretch:normal;font-size:4.85527468px;font-family:Roboto;-inkscape-font-specification:Roboto;fill:#333333;fill-opacity:1;stroke-width:0.36414564"
         id="path44165" />
    </g>
    <path
       inkscape:connector-curvature="0"
       id="path35793"
       d="m 90.59979,278.47529 4.28572,-2.9774 -0.70155,-0.9318 c -0.38584,-0.5125 -0.80605,-1.1537 -0.93379,-1.425 -0.35802,-0.7605 -0.30807,-2.0894 0.14497,-3.8568 0.0979,-0.382 0.12323,-0.4007 0.46794,-0.3447 0.60441,0.098 0.94998,-0.1719 1.42381,-1.1123 0.42316,-0.8399 0.43702,-0.9544 0.19937,-1.647 -0.062,-0.1809 -0.19508,-0.6249 -0.29559,-0.9866 -0.67542,-2.4308 -2.94476,-4.3864 -5.85912,-5.0493 -0.50055,-0.1138 -0.87786,-0.2662 -0.98403,-0.3973 -0.2115,-0.2612 -1.03044,-0.3944 -1.25892,-0.2048 -0.12436,0.1032 -0.4913,0.1032 -1.67274,-10e-5 -3.39351,-0.2968 -5.48876,0.2244 -7.068784,1.7585 -1.16942,1.1354 -0.94528,1.8259 0.76758,2.3647 l 0.620412,0.1951 -1.526902,0.5091 c -0.8398,0.28 -1.54549,0.5648 -1.56819,0.6329 -0.0659,0.1976 0.67213,0.2803 1.95885,0.2193 l 1.190422,-0.056 -0.0696,0.2882 c -0.11637,0.4817 -0.23038,0.7395 -0.403856,0.9129 -0.091,0.091 -0.242466,0.3498 -0.336576,0.5751 -0.18995,0.4546 -0.14145,0.6176 0.309186,1.0391 0.156256,0.1462 0.284106,0.3131 0.284106,0.3709 0,0.058 -0.317766,0.6042 -0.706142,1.2141 -0.38838,0.6099 -0.8633,1.4455 -1.05539,1.8567 -0.29307,0.6275 -0.32974,0.7907 -0.22796,1.014 0.1146,0.2515 0.17274,0.2662 1.05539,0.2662 1.052832,0 1.099152,0.05 0.769682,0.8391 -0.224746,0.5378 -0.209166,0.64 0.12051,0.7902 0.2752,0.1254 0.27881,0.1392 0.10568,0.4034 -0.17091,0.2609 -0.16607,0.2909 0.10396,0.6449 0.454052,0.5953 0.471132,1.0454 0.0623,1.6397 -0.32431,0.4713 -0.33572,0.5204 -0.18746,0.8054 0.227572,0.4374 0.635862,0.786 1.064802,0.909 0.54304,0.1557 2.23546,0.124 3.0602,-0.057 1.05537,-0.2322 1.05319,-0.2328 1.19954,0.3562 0.11732,0.4722 1.19046,2.4421 1.3217,2.4262 0.0301,0 1.98339,-1.3465 4.34054,-2.984 z"
       style="display:inline;fill:#333333;fill-opacity:1;stroke-width:0.10961915;filter:url(#filter44739)" />
    <g
       style="display:inline;filter:url(#filter44739)"
       id="g35817"
       transform="translate(-29.341014,158.08251)">
      <path
         style="fill:#ffcd5a;fill-opacity:0.89898993;stroke:#020506;stroke-width:0.30000001;stroke-miterlimit:4;stroke-dasharray:none;stroke-dashoffset:0;stroke-opacity:0.92424245"
         d="m 120.16978,130.9966 a 3.3375795,2.8607824 0 0 1 -3.33758,2.86078 3.3375795,2.8607824 0 0 1 -3.33758,-2.86078 3.3375795,2.8607824 0 0 1 3.33758,-2.86079 3.3375795,2.8607824 0 0 1 3.33758,2.86079 z"
         id="ellipse35802" />
      <path
         inkscape:connector-curvature="0"
         id="path35804"
         d="m 116.2332,132.52081 v -0.261 l -0.33084,-7.4e-4 -0.33085,-7.4e-4 0.0429,-0.1892 0.0429,-0.1892 0.16562,-0.001 0.16563,-0.001 6.1e-4,-0.85279 6.1e-4,-0.85279 h -0.20991 -0.20993 v -0.1739 -0.17401 h 0.33144 0.33144 v -0.26103 -0.26102 h 0.1464 0.14639 v 0.26102 0.26101 h 0.14778 0.14776 v -0.26101 -0.26102 h 0.1464 0.14639 v 0.26102 0.26101 l 0.009,6e-5 c 0.0272,1.6e-4 0.11314,0.006 0.14296,0.01 0.19606,0.0247 0.35212,0.0968 0.46678,0.21555 0.0963,0.0998 0.15948,0.23061 0.18108,0.3753 0.006,0.0407 0.006,0.10637 2e-5,0.1347 -0.0132,0.0617 -0.0408,0.11825 -0.0881,0.18125 -0.0344,0.0457 -0.113,0.12293 -0.156,0.15336 l -0.0116,0.008 0.009,0.005 c 0.14963,0.0833 0.20673,0.12175 0.26561,0.17865 0.10171,0.0982 0.14833,0.20749 0.15934,0.37299 0.0132,0.18753 -0.055,0.36423 -0.19482,0.51052 -0.14695,0.15372 -0.36701,0.25331 -0.62016,0.28067 -0.0351,0.004 -0.12834,0.01 -0.15397,0.01 l -0.009,3e-5 v 0.26102 0.26101 h -0.1464 -0.14638 v -0.26104 -0.26102 h -0.14777 -0.14778 v 0.26102 0.26101 h -0.14637 -0.1464 v -0.261 z m 0.87973,-0.64747 c 0.12147,-0.0161 0.20993,-0.0528 0.27286,-0.11326 0.0408,-0.0392 0.0637,-0.0748 0.0803,-0.12452 0.0146,-0.0428 0.0191,-0.0742 0.0191,-0.12429 0,-0.10308 -0.0317,-0.18338 -0.0972,-0.24641 -0.0605,-0.0582 -0.14281,-0.0948 -0.25044,-0.11123 -0.0501,-0.008 -0.14456,-0.01 -0.37978,-0.009 l -0.23063,8e-4 -6.1e-4,0.36321 c -3.7e-4,0.19976 -8e-5,0.36484 6.1e-4,0.36684 8.7e-4,0.005 0.54729,0.003 0.5856,-0.002 z m -0.15068,-1.04163 c 0.1661,-0.0147 0.29262,-0.10103 0.33387,-0.22778 0.0116,-0.0358 0.0153,-0.0613 0.0152,-0.10358 -5.7e-4,-0.10919 -0.0477,-0.19694 -0.13916,-0.25891 -0.0376,-0.0255 -0.0993,-0.05 -0.15623,-0.0619 -0.0297,-0.006 -0.0326,-0.006 -0.26,-0.007 l -0.22993,-8.5e-4 v 0.32973 c 0,0.18135 6.1e-4,0.33055 8.7e-4,0.33156 0.003,0.003 0.39968,0.002 0.43444,-9.8e-4 z"
         style="fill:#000000;stroke-width:0.00276206" />
    </g>
    <path
       style="display:inline;fill:#ffffff;fill-opacity:1;stroke:#ffffff;stroke-width:0.41288957;stroke-miterlimit:4;stroke-dasharray:none;stroke-dashoffset:0;stroke-opacity:0.98924734"
       d="M 8.7430999,268.21891 H 32.060117 l 3.984276,3.76385 v 17.20362 H 8.7430999 Z"
       id="path44642"
       inkscape:connector-curvature="0"
       sodipodi:nodetypes="cccccc" />
    <g
       transform="matrix(1.3762985,0,0,1.3762985,-85.715156,293.55801)"
       id="g47403"
       style="display:inline;opacity:0.51700003">
      <path
         sodipodi:nodetypes="cccccc"
         inkscape:connector-curvature="0"
         id="path47353"
         d="m 68.632104,-18.411045 h 16.94183 l 2.894922,2.734765 V -3.1763627 H 68.632104 Z"
         style="fill:#ffffff;fill-opacity:1;stroke:#333333;stroke-width:0.30000001;stroke-miterlimit:4;stroke-dasharray:none;stroke-dashoffset:0;stroke-opacity:1" />
      <path
         sodipodi:nodetypes="ccc"
         inkscape:connector-curvature="0"
         id="path47355"
         d="m 85.573934,-18.310712 v 2.814093 h 2.894922"
         style="fill:none;stroke:#333333;stroke-width:0.30000001;stroke-linecap:butt;stroke-linejoin:miter;stroke-miterlimit:4;stroke-dasharray:none;stroke-opacity:1" />
      <g
         aria-label="sell"
         style="font-style:normal;font-variant:normal;font-weight:normal;font-stretch:normal;font-size:2.85025573px;line-height:1.25;font-family:Roboto;-inkscape-font-specification:Roboto;letter-spacing:0px;word-spacing:0px;opacity:1;fill:#333333;fill-opacity:1;stroke:none;stroke-width:0.09101187"
         id="text47359">
        <path
           d="m 70.737164,-14.817334 q 0,-0.10438 -0.07933,-0.16144 -0.07794,-0.05845 -0.27417,-0.100205 -0.194842,-0.04175 -0.310355,-0.100204 -0.114122,-0.05845 -0.169791,-0.139173 -0.05428,-0.08072 -0.05428,-0.192058 0,-0.1851 0.155873,-0.313138 0.157265,-0.128039 0.400817,-0.128039 0.256078,0 0.414735,0.132214 0.160048,0.132214 0.160048,0.338189 h -0.258861 q 0,-0.105771 -0.09046,-0.182316 -0.08907,-0.07655 -0.22546,-0.07655 -0.140564,0 -0.219892,0.06124 -0.07933,0.06124 -0.07933,0.160049 0,0.09324 0.07376,0.140564 0.07376,0.04732 0.26582,0.09046 0.193449,0.04314 0.313138,0.102988 0.119688,0.05984 0.176749,0.14474 0.05845,0.0835 0.05845,0.204583 0,0.201801 -0.161441,0.324273 -0.16144,0.12108 -0.418909,0.12108 -0.180925,0 -0.320097,-0.06402 -0.139173,-0.06402 -0.218501,-0.178141 -0.07794,-0.115513 -0.07794,-0.249119 h 0.257469 q 0.007,0.129431 0.102988,0.205976 0.09742,0.07515 0.256078,0.07515 0.146131,0 0.23381,-0.05845 0.08907,-0.05984 0.08907,-0.158657 z"
           style="font-style:normal;font-variant:normal;font-weight:normal;font-stretch:normal;font-size:2.85025573px;font-family:Roboto;-inkscape-font-specification:Roboto;fill:#333333;fill-opacity:1;stroke-width:0.09101187"
           id="path44090" />
        <path
           d="m 71.954925,-14.390074 q -0.30618,0 -0.498238,-0.200409 -0.192058,-0.2018 -0.192058,-0.538598 v -0.04732 q 0,-0.224068 0.0849,-0.399425 0.08629,-0.176749 0.239377,-0.275562 0.154482,-0.100204 0.334014,-0.100204 0.293655,0 0.456487,0.19345 0.162832,0.19345 0.162832,0.553907 v 0.107163 h -1.020136 q 0.0056,0.222676 0.129431,0.360457 0.125255,0.136389 0.317313,0.136389 0.136389,0 0.231027,-0.05567 0.09464,-0.05567 0.165615,-0.147523 l 0.157265,0.122472 q -0.189274,0.290871 -0.567824,0.290871 z m -0.03201,-1.349975 q -0.155873,0 -0.261644,0.114122 -0.105772,0.11273 -0.130823,0.317313 h 0.754316 v -0.01948 q -0.01113,-0.196233 -0.105771,-0.303396 -0.09464,-0.108555 -0.256078,-0.108555 z"
           style="font-style:normal;font-variant:normal;font-weight:normal;font-stretch:normal;font-size:2.85025573px;font-family:Roboto;-inkscape-font-specification:Roboto;fill:#333333;fill-opacity:1;stroke-width:0.09101187"
           id="path44092" />
        <path
           d="M 73.118408,-14.417909 H 72.860939 V -16.5556 h 0.257469 z"
           style="font-style:normal;font-variant:normal;font-weight:normal;font-stretch:normal;font-size:2.85025573px;font-family:Roboto;-inkscape-font-specification:Roboto;fill:#333333;fill-opacity:1;stroke-width:0.09101187"
           id="path44094" />
        <path
           d="m 73.808705,-14.417909 h -0.25747 V -16.5556 h 0.25747 z"
           style="font-style:normal;font-variant:normal;font-weight:normal;font-stretch:normal;font-size:2.85025573px;font-family:Roboto;-inkscape-font-specification:Roboto;fill:#333333;fill-opacity:1;stroke-width:0.09101187"
           id="path44096" />
      </g>
      <g
         aria-label="Alice"
         style="font-style:normal;font-variant:normal;font-weight:normal;font-stretch:normal;font-size:3.25002289px;line-height:1.25;font-family:'Segoe Script';-inkscape-font-specification:'Segoe Script';letter-spacing:0px;word-spacing:0px;fill:#333333;fill-opacity:1;stroke:none;stroke-width:0.0812506"
         id="text47363">
        <path
           d="m 72.377391,-4.42991 q 0,0.063477 -0.04126,0.1079109 -0.03967,0.046021 -0.104737,0.046021 -0.02856,0 -0.04602,-0.012695 -0.02222,-0.017456 -0.04919,-0.046021 -0.02698,-0.030151 -0.05713,-0.074585 -0.05872,-0.090455 -0.10791,-0.1888441 -0.04761,-0.099976 -0.07776,-0.1761487 -0.0079,-0.022217 -0.01746,-0.039673 -0.0079,-0.019043 -0.01746,-0.038086 -0.0079,-0.02063 -0.01746,-0.042847 -0.0095,-0.023804 -0.02063,-0.057129 -0.04602,-0.1364755 -0.06665,-0.1793225 -0.02222,0.022217 -0.04285,0.034912 -0.02063,0.011108 -0.04443,0.017456 -0.02222,0.00476 -0.04761,0.00635 -0.0238,0 -0.05237,0 -0.01587,0 -0.03967,0.00635 -0.0238,0.00635 -0.05237,0.014282 -0.02698,0.00793 -0.05396,0.017456 -0.02698,0.00952 -0.05078,0.015869 -0.07935,0.022217 -0.16028,0.039673 -0.08093,0.017456 -0.166627,0.034912 -0.08569,0.015869 -0.179322,0.031738 -0.09363,0.014282 -0.198366,0.031739 -0.04761,0.00793 -0.09045,0.06189 -0.04126,0.055542 -0.171388,0.2380388 -0.126954,0.1809095 -0.215821,0.2650166 -0.08728,0.084107 -0.169801,0.084107 -0.104738,0 -0.174562,-0.04126 -0.07935,-0.050782 -0.07935,-0.1079109 0,-0.030152 0.03332,-0.042847 0.03491,-0.014282 0.09363,-0.025391 0.01904,-0.00159 0.08728,-0.077759 0.06506,-0.072999 0.09839,-0.1206063 0.06665,-0.087281 0.134888,-0.1856703 0.06983,-0.099976 0.155519,-0.2237564 0.04126,-0.063477 0.073,-0.1094979 0.03174,-0.046021 0.05237,-0.077759 0.02222,-0.031739 0.04919,-0.071412 0.02857,-0.039673 0.06506,-0.088868 0.01587,-0.022217 0.03809,-0.053955 0.02222,-0.031739 0.05237,-0.071412 0.03015,-0.04126 0.05396,-0.072999 0.02539,-0.031738 0.04285,-0.057129 0.01904,-0.025391 0.04761,-0.063477 0.03015,-0.038086 0.06982,-0.090455 0.0127,-0.015869 0.04919,-0.074586 0.03809,-0.058716 0.101563,-0.1618663 0.08887,-0.1475841 0.115846,-0.2158219 0.18567,-0.4506867 0.279299,-0.4506867 0.04126,0 0.06665,0.00793 0.02539,0.00635 0.03967,0.023804 0.01428,0.015869 0.01904,0.044434 0.0048,0.026978 0.0048,0.066651 0,0.026978 0,0.047608 0,0.02063 -0.0016,0.033325 -0.0016,0.025391 -0.0032,0.065064 -0.0016,0.039673 -0.0048,0.093628 0.07935,0.1666272 0.150758,0.3586452 0.0365,0.096802 0.07617,0.2126479 0.04126,0.1142587 0.08728,0.2523211 0.04602,0.1364756 0.08093,0.2332781 0.03491,0.096802 0.05713,0.1571056 0.02222,0.060303 0.05237,0.1380625 0.03174,0.077759 0.07459,0.1761487 0.01587,0.036499 0.119019,0.1761487 0.101563,0.1396494 0.101563,0.1999525 z m -0.703008,-0.9378728 q -0.02856,-0.087281 -0.06189,-0.1872572 -0.03333,-0.1015632 -0.06982,-0.2015395 -0.03491,-0.1015632 -0.073,-0.1951918 -0.0365,-0.093629 -0.073,-0.1666271 -0.08887,0.1206063 -0.168215,0.2316911 -0.07935,0.1110847 -0.153931,0.2237564 -0.073,0.1110848 -0.145997,0.2285173 -0.07141,0.1174324 -0.145997,0.2507341 0.01746,0.00635 0.03174,0.00635 0.0238,0 0.0603,-0.00317 0.03809,-0.00476 0.07617,-0.00952 0.03967,-0.00635 0.07458,-0.012695 0.0365,-0.00635 0.05872,-0.011108 0.03809,-0.00952 0.06506,-0.015869 0.02857,-0.00635 0.05396,-0.012695 0.02539,-0.00635 0.05396,-0.012695 0.03015,-0.00793 0.07141,-0.017456 0.09204,-0.023804 0.182496,-0.047608 0.09045,-0.025391 0.163453,-0.047608 z"
           style="font-style:normal;font-variant:normal;font-weight:normal;font-stretch:normal;font-family:'Segoe Script';-inkscape-font-specification:'Segoe Script';fill:#333333;fill-opacity:1;stroke-width:0.0812506"
           id="path44099" />
        <path
           d="m 74.10714,-5.0361154 q -0.126954,0.1761487 -0.258669,0.318972 -0.130128,0.1428232 -0.258669,0.2443865 -0.126954,0.099976 -0.249147,0.1555186 -0.120606,0.055542 -0.225343,0.055542 -0.169801,0 -0.268191,-0.1459971 -0.0968,-0.1459971 -0.0968,-0.4300568 0,-0.1586925 0.01904,-0.3491235 0.01904,-0.190431 0.04919,-0.3856228 0.03015,-0.1951918 0.06665,-0.3840359 0.03809,-0.1888441 0.07617,-0.3443628 0.02856,-0.1190194 0.05713,-0.2063003 0.03015,-0.087281 0.06348,-0.1428233 0.03333,-0.055542 0.07141,-0.08252 0.03967,-0.026978 0.08887,-0.026978 0.03174,0 0.05713,0.014282 0.02698,0.014282 0.04602,0.036499 0.01904,0.022217 0.02856,0.052369 0.01111,0.028565 0.01111,0.058716 0,0.028565 -0.01587,0.077759 -0.01428,0.047608 -0.03809,0.106324 -0.02222,0.058716 -0.04919,0.1237802 -0.02698,0.065064 -0.05237,0.125367 -0.02539,0.058716 -0.04602,0.1094979 -0.01904,0.050782 -0.02698,0.08252 -0.0238,0.1031501 -0.04761,0.2412126 -0.0238,0.1364756 -0.04443,0.2840597 -0.01904,0.1459971 -0.03174,0.2919942 -0.0127,0.1444102 -0.0127,0.2650165 0,0.106324 0.01904,0.1761487 0.01904,0.068238 0.04761,0.1094979 0.03015,0.039673 0.06348,0.057129 0.03491,0.015869 0.06506,0.015869 0.05554,0 0.122193,-0.028565 0.06665,-0.030152 0.139649,-0.08252 0.07459,-0.052369 0.152345,-0.1221933 0.07935,-0.071412 0.158693,-0.1539317 0.07935,-0.08252 0.157105,-0.1729749 0.07776,-0.092042 0.149171,-0.1856702 0.02698,-0.036499 0.04285,-0.055542 0.01587,-0.019043 0.03015,-0.019043 0.01746,0 0.02539,0.02063 0.0095,0.019043 0.0095,0.050782 0,0.025391 -0.0079,0.057129 -0.0079,0.030152 -0.02063,0.063477 -0.0127,0.031738 -0.03015,0.063477 -0.01746,0.031738 -0.0365,0.060303 z"
           style="font-style:normal;font-variant:normal;font-weight:normal;font-stretch:normal;font-family:'Segoe Script';-inkscape-font-specification:'Segoe Script';fill:#333333;fill-opacity:1;stroke-width:0.0812506"
           id="path44101" />
        <path
           d="m 74.657803,-6.6484315 q 0,0.1031502 -0.05396,0.1761488 -0.05237,0.072998 -0.153931,0.072998 -0.06348,0 -0.141237,-0.019043 -0.07617,-0.019043 -0.07617,-0.06189 0,-0.077759 0.04761,-0.147584 0.04919,-0.071412 0.117432,-0.1158456 0.05396,-0.031738 0.07141,-0.031738 0.09045,0 0.139649,0.025391 0.04919,0.023804 0.04919,0.1015632 z m 1.039436,1.2901703 q 0.0016,0.033325 -0.03015,0.090455 -0.03015,0.057129 -0.08411,0.1301279 -0.05237,0.071412 -0.12378,0.1539317 -0.06982,0.08252 -0.147584,0.1650402 -0.08887,0.095216 -0.188844,0.1840834 -0.09839,0.087281 -0.211061,0.169801 -0.22217,0.1650402 -0.396731,0.1650402 -0.192018,0 -0.298342,-0.1285409 -0.106324,-0.1301279 -0.144411,-0.3142112 -0.03809,-0.1824964 -0.03809,-0.3761013 0,-0.080933 0.01904,-0.2523211 0.0095,-0.085694 0.01904,-0.1475841 0.0095,-0.06189 0.02063,-0.099976 0.02222,-0.074586 0.09363,-0.1301278 0.073,-0.058716 0.152345,-0.058716 0.04285,0 0.04285,0.080933 0,0.053955 -0.01111,0.1221933 -0.0095,0.068238 -0.02063,0.1348886 -0.02063,0.1253671 -0.03015,0.2253434 -0.0095,0.098389 -0.0095,0.1713879 0,0.1602795 0.04443,0.3237328 0.04443,0.1666271 0.16028,0.1666271 0.117432,0 0.272951,-0.085694 0.07776,-0.044434 0.155518,-0.098389 0.07776,-0.053956 0.155519,-0.1206063 0.07935,-0.066651 0.152345,-0.1333018 0.073,-0.068238 0.142823,-0.1396494 0.06982,-0.071412 0.125367,-0.1333017 0.05554,-0.06189 0.0968,-0.1142586 0.0016,-0.00317 0.0048,-0.00952 0.0048,-0.00793 0.0095,-0.014282 0.0048,-0.00793 0.0095,-0.012695 0.0048,-0.00476 0.0095,-0.00317 0.02222,0 0.03333,0.034912 0.01428,0.033325 0.01428,0.053955 z"
           style="font-style:normal;font-variant:normal;font-weight:normal;font-stretch:normal;font-family:'Segoe Script';-inkscape-font-specification:'Segoe Script';fill:#333333;fill-opacity:1;stroke-width:0.0812506"
           id="path44103" />
        <path
           d="m 77.134993,-4.9837469 q 0,0.012695 -0.0063,0.030152 -0.0048,0.015869 -0.0127,0.031739 -0.0063,0.014282 -0.01428,0.026978 -0.0063,0.012695 -0.0095,0.014282 -0.119019,0.087281 -0.26819,0.1840833 -0.149171,0.096802 -0.315798,0.1793225 -0.165041,0.080933 -0.341189,0.1348887 -0.176149,0.052369 -0.349124,0.052369 -0.02063,0 -0.05396,-0.00476 -0.03333,-0.00476 -0.07617,-0.017456 -0.04126,-0.012695 -0.08887,-0.034912 -0.04602,-0.022217 -0.09363,-0.057129 -0.0238,-0.015869 -0.0492,-0.042847 -0.02539,-0.028565 -0.04761,-0.060303 -0.02063,-0.031739 -0.03491,-0.06189 -0.01428,-0.031739 -0.01428,-0.055542 0,-0.095216 0.0095,-0.1840833 0.01111,-0.088868 0.03333,-0.1793226 0.01111,-0.053955 0.04761,-0.1459971 0.03809,-0.093629 0.09998,-0.1983657 0.06189,-0.1063239 0.145997,-0.211061 0.08569,-0.1047371 0.190431,-0.1824964 0.107911,-0.079346 0.204713,-0.1174325 0.0968,-0.038086 0.174562,-0.038086 0.03491,0 0.07617,0.033325 0.04126,0.031739 0.07458,0.08252 0.03491,0.049195 0.05713,0.1094978 0.0238,0.060303 0.0238,0.1158455 0,0.031739 -0.02539,0.08252 -0.02539,0.049195 -0.06506,0.096802 -0.03809,0.047608 -0.08411,0.08252 -0.04602,0.033325 -0.08569,0.033325 -0.01746,0 -0.03174,-0.00635 -0.01428,-0.00793 -0.01428,-0.030152 0,-0.023804 0.01746,-0.060303 0.01746,-0.038086 0.03809,-0.077759 0.02063,-0.04126 0.03809,-0.079346 0.01746,-0.039673 0.01746,-0.068238 0,-0.012695 -0.0048,-0.026978 -0.0032,-0.015869 -0.0127,-0.028565 -0.0095,-0.014282 -0.02539,-0.022217 -0.01428,-0.00952 -0.03809,-0.00952 -0.04285,0 -0.07935,0.00952 -0.03491,0.00952 -0.07141,0.033325 -0.0365,0.022217 -0.08093,0.06189 -0.04443,0.039673 -0.10315,0.099976 -0.05078,0.053955 -0.09998,0.1301278 -0.04919,0.074586 -0.09046,0.1650403 -0.03967,0.088868 -0.06506,0.1888441 -0.0238,0.098389 -0.0238,0.1983656 0,0.060303 0.02222,0.1079109 0.0238,0.046021 0.05872,0.079346 0.0365,0.033325 0.08093,0.050782 0.04602,0.017456 0.09204,0.017456 0.09998,0 0.209474,-0.022217 0.109498,-0.023804 0.220583,-0.06189 0.111085,-0.038086 0.218996,-0.087281 0.109497,-0.050782 0.207887,-0.1047371 0.09839,-0.053955 0.182496,-0.1079109 0.08411,-0.055542 0.145997,-0.1031502 0.0079,-0.00952 0.02698,-0.02063 0.02063,-0.012695 0.02539,-0.012695 0.01746,0 0.02698,0.030152 0.0095,0.028565 0.0095,0.058716 z"
           style="font-style:normal;font-variant:normal;font-weight:normal;font-stretch:normal;font-family:'Segoe Script';-inkscape-font-specification:'Segoe Script';fill:#333333;fill-opacity:1;stroke-width:0.0812506"
           id="path44105" />
        <path
           d="m 77.876087,-5.7914918 q 0,-0.017456 -0.0095,-0.031738 -0.0095,-0.014282 -0.0238,-0.023804 -0.0127,-0.00952 -0.02857,-0.014282 -0.01428,-0.00635 -0.02539,-0.00635 -0.06982,0 -0.142823,0.050782 -0.073,0.049195 -0.136476,0.1380625 -0.06348,0.088868 -0.111084,0.211061 -0.04761,0.1221933 -0.06506,0.2650165 0.02222,-0.014282 0.05872,-0.04126 0.0365,-0.026978 0.07776,-0.058716 0.04285,-0.033326 0.08411,-0.066651 0.04285,-0.033325 0.07617,-0.06189 0.073,-0.06189 0.120606,-0.1094978 0.04761,-0.049195 0.07459,-0.088868 0.02856,-0.04126 0.03967,-0.079346 0.01111,-0.039673 0.01111,-0.08252 z m 0.736333,0.6776171 q 0,0.055542 -0.04126,0.1206063 -0.04126,0.065064 -0.117432,0.1459971 -0.08728,0.092042 -0.192018,0.1713879 -0.104737,0.077759 -0.215822,0.1364756 -0.111085,0.057129 -0.225343,0.090455 -0.114259,0.033326 -0.220583,0.033326 -0.249147,0 -0.385623,-0.1602795 -0.136475,-0.1602794 -0.136475,-0.4697299 0,-0.098389 0.01746,-0.1999525 0.01746,-0.1031502 0.05078,-0.2031265 0.03491,-0.099976 0.08569,-0.1936048 0.05237,-0.093629 0.120606,-0.1745618 0.04285,-0.049195 0.09521,-0.099976 0.05237,-0.050782 0.115846,-0.090455 0.06348,-0.04126 0.138062,-0.066651 0.07617,-0.025391 0.165041,-0.025391 0.06348,0 0.114258,0.025391 0.05078,0.023804 0.08569,0.06189 0.03491,0.038086 0.05237,0.085694 0.01904,0.047608 0.01904,0.093629 0,0.096802 -0.05237,0.1967788 -0.05237,0.098389 -0.147584,0.1999525 -0.09522,0.099976 -0.228517,0.2015395 -0.133302,0.099976 -0.296755,0.1999526 -0.02222,0.012695 -0.04443,0.028565 -0.02222,0.014282 -0.02222,0.036499 0,0.047608 0.0127,0.099976 0.01269,0.052369 0.04602,0.096803 0.03333,0.042847 0.08887,0.071412 0.05713,0.028565 0.14441,0.028565 0.111085,0 0.225344,-0.034912 0.115845,-0.036499 0.225343,-0.099976 0.111085,-0.063477 0.214235,-0.1507579 0.104737,-0.087281 0.195192,-0.1888441 0.05078,-0.055542 0.08093,-0.055542 0.01746,0 0.02539,0.02063 0.0079,0.02063 0.0079,0.068238 z"
           style="font-style:normal;font-variant:normal;font-weight:normal;font-stretch:normal;font-family:'Segoe Script';-inkscape-font-specification:'Segoe Script';fill:#333333;fill-opacity:1;stroke-width:0.0812506"
           id="path44107" />
      </g>
      <g
         aria-label="3"
         style="font-style:normal;font-variant:normal;font-weight:normal;font-stretch:normal;font-size:4.40972233px;line-height:1.25;font-family:Roboto;-inkscape-font-specification:Roboto;letter-spacing:0px;word-spacing:0px;opacity:1;fill:#333333;fill-opacity:1;stroke:none;stroke-width:0.11538035"
         id="text47367">
        <path
           d="m 76.103544,-15.606358 h 0.299292 q 0.282067,-0.0043 0.443556,-0.14857 0.161489,-0.144263 0.161489,-0.389726 0,-0.551215 -0.549062,-0.551215 -0.258382,0 -0.413411,0.148569 -0.152876,0.146417 -0.152876,0.389727 h -0.39834 q 0,-0.372501 0.271302,-0.617964 0.273454,-0.247616 0.693325,-0.247616 0.443556,0 0.695479,0.234697 0.251922,0.234697 0.251922,0.652415 0,0.204552 -0.133497,0.396186 -0.131344,0.191633 -0.359582,0.286373 0.258382,0.08182 0.398339,0.271302 0.14211,0.18948 0.14211,0.462934 0,0.422024 -0.275607,0.669641 -0.275608,0.247616 -0.717011,0.247616 -0.441403,0 -0.719163,-0.239004 -0.275608,-0.239003 -0.275608,-0.630883 h 0.400492 q 0,0.247617 0.161489,0.396186 0.161489,0.14857 0.43279,0.14857 0.288527,0 0.441403,-0.150723 0.152876,-0.150723 0.152876,-0.43279 0,-0.273454 -0.167948,-0.419871 -0.167949,-0.146417 -0.484467,-0.150723 h -0.299292 z"
           style="font-style:normal;font-variant:normal;font-weight:normal;font-stretch:normal;font-size:4.40972233px;font-family:Roboto;-inkscape-font-specification:Roboto;fill:#333333;fill-opacity:1;stroke-width:0.11538035"
           id="path44110" />
      </g>
      <g
         aria-label="0.1"
         style="font-style:normal;font-variant:normal;font-weight:normal;font-stretch:normal;font-size:4.40972233px;line-height:1.25;font-family:Roboto;-inkscape-font-specification:Roboto;letter-spacing:-0.26458332px;word-spacing:0px;fill:#333333;fill-opacity:1;stroke:none;stroke-width:0.29663736;stroke-miterlimit:4;stroke-dasharray:none"
         id="text47371">
        <path
           d="m 75.61476,-10.273721 q 0,0.6997853 -0.239004,1.0399885 -0.239003,0.3402031 -0.747155,0.3402031 -0.501692,0 -0.742849,-0.3315904 -0.241156,-0.3337436 -0.249769,-0.9947712 v -0.531837 q 0,-0.691172 0.239003,-1.027069 0.239004,-0.335897 0.749309,-0.335897 0.505998,0 0.745002,0.325131 0.239003,0.322978 0.245463,0.999078 z m -0.398339,-0.544756 q 0,-0.505998 -0.142111,-0.736389 -0.14211,-0.232544 -0.450015,-0.232544 -0.305752,0 -0.44571,0.230391 -0.139957,0.230391 -0.144263,0.708398 v 0.637343 q 0,0.5081512 0.146417,0.7514611 0.148569,0.2411566 0.447862,0.2411566 0.294986,0 0.437097,-0.2282375 0.144263,-0.2282376 0.150723,-0.7191642 z"
           style="font-style:normal;font-variant:normal;font-weight:normal;font-stretch:normal;font-size:4.40972233px;font-family:Roboto;-inkscape-font-specification:Roboto;letter-spacing:-0.26458332px;fill:#333333;fill-opacity:1;stroke-width:0.29663736;stroke-miterlimit:4;stroke-dasharray:none"
           id="path44113" />
        <path
           d="m 75.914311,-9.145452 q 0,-0.1033528 0.06029,-0.1722548 0.06244,-0.068902 0.185174,-0.068902 0.122731,0 0.185174,0.068902 0.06459,0.068902 0.06459,0.1722548 0,0.099047 -0.06459,0.1657952 -0.06244,0.066749 -0.185174,0.066749 -0.122732,0 -0.185174,-0.066749 -0.06029,-0.066749 -0.06029,-0.1657952 z"
           style="font-style:normal;font-variant:normal;font-weight:normal;font-stretch:normal;font-size:4.40972233px;font-family:Roboto;-inkscape-font-specification:Roboto;letter-spacing:-0.26458332px;fill:#333333;fill-opacity:1;stroke-width:0.29663736;stroke-miterlimit:4;stroke-dasharray:none"
           id="path44115" />
        <path
           d="M 78.07206,-8.9365931 H 77.671568 V -11.59147 l -0.803138,0.294986 v -0.361735 l 1.141188,-0.428483 h 0.06244 z"
           style="font-style:normal;font-variant:normal;font-weight:normal;font-stretch:normal;font-size:4.40972233px;font-family:Roboto;-inkscape-font-specification:Roboto;letter-spacing:-0.26458332px;fill:#333333;fill-opacity:1;stroke-width:0.29663736;stroke-miterlimit:4;stroke-dasharray:none"
           id="path44117" />
      </g>
      <g
         id="g47379"
         transform="matrix(1.1647682,0,0,1.1647682,-30.720608,3.594078)">
        <path
           inkscape:connector-curvature="0"
           id="path47373"
           d="m 100.74744,-6.7103416 -0.10922,-0.0011 v -0.112291 -0.112269 h 0.11234 0.11234 v 0.112091 c 0,0.06165 -10e-4,0.112671 -0.003,0.113378 -10e-4,6.91e-4 -0.0523,7.62e-4 -0.11234,1.74e-4 z m -1.935746,-0.568901 v -0.56793 h 0.56793 0.56793 v 0.56793 0.567929 h -0.56793 -0.56793 z m 0.91119,0 v -0.343254 h -0.34326 -0.34325 v 0.343254 0.343254 h 0.34325 0.34326 z m -0.45351,0.0021 v -0.112338 h 0.11233 0.11234 v 0.112338 0.112337 h -0.11234 -0.11233 z m 0.911186,-0.0021 v -0.56793 h 0.34117 0.34117 v 0.114418 0.114419 h 0.1165 0.11649 v -0.114419 -0.114418 h 0.11234 0.11233 v 0.341174 0.341174 h -0.34116 -0.34118 v -0.114418 -0.114418 h -0.11649 -0.1165 v 0.341174 0.341173 h -0.11234 -0.11233 z m 0.91533,0.455591 v -0.112337 h 0.11234 0.11233 v 0.112337 0.112338 h -0.11233 -0.11234 z m -2.284196,-1.8244466 v -0.567929 h 0.56793 0.56793 v 0.567929 0.56793 h -0.56793 -0.56793 z m 0.91119,0 v -0.343254 h -0.34326 -0.34325 v 0.343254 0.343254 h 0.34325 0.34326 z m -0.45351,0.0021 v -0.112326 h 0.11233 0.11234 v 0.112338 0.112337 h -0.11234 -0.11233 z m 0.911186,-0.0021 v -0.567929 h 0.57 0.57 v 0.567929 0.56793 h -0.57 -0.57 z m 0.91533,0 v -0.343254 h -0.34533 -0.34533 v 0.343254 0.343254 h 0.34533 0.34533 z m -0.45767,0.0021 v -0.112326 h 0.11234 0.11234 v 0.112338 0.112337 h -0.11234 -0.11234 z"
           style="fill:#333333;fill-opacity:1;stroke-width:0.00416065" />
        <g
           aria-label="A"
           style="font-style:normal;font-variant:normal;font-weight:normal;font-stretch:normal;font-size:3.52777767px;line-height:1.25;font-family:'Roboto Medium';-inkscape-font-specification:'Roboto Medium, ';letter-spacing:0px;word-spacing:0px;fill:#333333;fill-opacity:1;stroke:none;stroke-width:0.26458332"
           id="text47377">
          <path
             d="m 98.162888,-7.3275383 h -0.971517 l -0.203261,0.5839437 h -0.45303 l 0.947401,-2.5080295 H 97.8735 l 0.949123,2.5080295 H 98.367871 Z M 97.313672,-7.678938 h 0.726915 l -0.363458,-1.0404188 z"
             style="font-size:3.52777767px;fill:#333333;fill-opacity:1;stroke-width:0.26458332"
             id="path44120" />
        </g>
      </g>
      <g
         aria-label="for"
         style="font-style:normal;font-variant:normal;font-weight:normal;font-stretch:normal;font-size:2.29305553px;line-height:1.25;font-family:Roboto;-inkscape-font-specification:Roboto;letter-spacing:0px;word-spacing:0px;fill:#333333;fill-opacity:1;stroke:none;stroke-width:0.29663736;stroke-miterlimit:4;stroke-dasharray:none"
         id="text47383">
        <path
           d="m 69.987782,-9.4657583 v -1.0513567 h -0.191461 v -0.160111 h 0.191461 v -0.124282 q 0,-0.19482 0.104128,-0.301187 0.104128,-0.106368 0.294469,-0.106368 0.07166,0 0.142197,0.01903 l -0.0112,0.167949 q -0.05262,-0.01008 -0.111966,-0.01008 -0.100769,0 -0.155632,0.05934 -0.05486,0.05822 -0.05486,0.167948 v 0.127641 h 0.258641 v 0.160111 h -0.258641 v 1.0513567 z"
           style="font-style:normal;font-variant:normal;font-weight:normal;font-stretch:normal;font-size:2.29305553px;font-family:Roboto;-inkscape-font-specification:Roboto;fill:#333333;fill-opacity:1;stroke-width:0.29663736;stroke-miterlimit:4;stroke-dasharray:none"
           id="path44123" />
        <path
           d="m 70.628225,-10.082689 q 0,-0.178025 0.06942,-0.320221 0.07054,-0.142197 0.19482,-0.219453 0.125401,-0.07726 0.285512,-0.07726 0.247444,0 0.399717,0.171307 0.153393,0.171307 0.153393,0.4557 v 0.01456 q 0,0.1769053 -0.0683,0.317982 -0.06718,0.139957 -0.1937,0.2183329 -0.125402,0.078376 -0.288872,0.078376 -0.246324,0 -0.399717,-0.1713074 -0.152273,-0.1713073 -0.152273,-0.4534604 z m 0.208256,0.02463 q 0,0.2015377 0.09293,0.3235802 0.09405,0.1220425 0.250803,0.1220425 0.157872,0 0.250803,-0.1231621 0.09293,-0.1242818 0.09293,-0.3470936 0,-0.199299 -0.09517,-0.322461 -0.09405,-0.124282 -0.250803,-0.124282 -0.153393,0 -0.247444,0.122043 -0.09405,0.122042 -0.09405,0.349333 z"
           style="font-style:normal;font-variant:normal;font-weight:normal;font-stretch:normal;font-size:2.29305553px;font-family:Roboto;-inkscape-font-specification:Roboto;fill:#333333;fill-opacity:1;stroke-width:0.29663736;stroke-miterlimit:4;stroke-dasharray:none"
           id="path44125" />
        <path
           d="m 72.576426,-10.491363 q -0.04703,-0.0078 -0.101888,-0.0078 -0.203778,0 -0.276555,0.173547 v 0.8598957 h -0.207137 v -1.2114677 h 0.201538 l 0.0034,0.139957 q 0.101889,-0.16235 0.288872,-0.16235 0.06046,0 0.09181,0.01567 z"
           style="font-style:normal;font-variant:normal;font-weight:normal;font-stretch:normal;font-size:2.29305553px;font-family:Roboto;-inkscape-font-specification:Roboto;fill:#333333;fill-opacity:1;stroke-width:0.29663736;stroke-miterlimit:4;stroke-dasharray:none"
           id="path44127" />
      </g>
      <g
         aria-label="@"
         style="font-style:normal;font-variant:normal;font-weight:normal;font-stretch:normal;font-size:1.76388884px;line-height:1.25;font-family:'Roboto Black';-inkscape-font-specification:'Roboto Black, ';letter-spacing:0px;word-spacing:0px;fill:#333333;fill-opacity:1;stroke:none;stroke-width:0.26458332"
         id="text47387">
        <path
           d="m 81.028594,-5.7865435 q -0.0086,0.2247925 -0.111966,0.35829 -0.103352,0.1334974 -0.275607,0.1334974 -0.07062,0 -0.124885,-0.030145 -0.05426,-0.031006 -0.08441,-0.086989 -0.08441,0.1136881 -0.226515,0.1136881 -0.08268,0 -0.144694,-0.048231 -0.06201,-0.049093 -0.0913,-0.1386651 -0.02842,-0.089573 -0.01723,-0.2032606 0.02584,-0.2153185 0.138665,-0.3462321 0.112827,-0.1309137 0.276469,-0.1309137 0.126607,0 0.217902,0.058567 l 0.05426,0.036174 -0.04393,0.5055677 q -0.01464,0.1197171 0.08268,0.1197171 0.07321,0 0.122301,-0.093018 0.04995,-0.093879 0.05512,-0.2394341 0.01464,-0.2876655 -0.119717,-0.4444173 -0.133497,-0.1567519 -0.39188,-0.1567519 -0.164503,0 -0.292833,0.084405 -0.127468,0.083544 -0.202399,0.2377116 -0.07407,0.1533067 -0.08354,0.3496771 -0.01378,0.3014459 0.120579,0.4607815 0.134358,0.160197 0.403076,0.160197 0.07235,0 0.153307,-0.017225 0.08096,-0.016364 0.131774,-0.038757 l 0.03187,0.1429714 q -0.05254,0.034451 -0.142111,0.055122 -0.08871,0.021532 -0.178283,0.021532 -0.235128,0 -0.397909,-0.090434 -0.161919,-0.089573 -0.241156,-0.2661337 -0.07924,-0.1765611 -0.07062,-0.4280531 0.01033,-0.2377115 0.109382,-0.4254692 0.09991,-0.188619 0.272162,-0.2911106 0.173116,-0.1033529 0.390157,-0.1033529 0.217041,0 0.374655,0.090434 0.157613,0.089573 0.23685,0.2583821 0.07924,0.1688097 0.06976,0.3918796 z m -0.861274,0.098185 q -0.0095,0.1119656 0.01723,0.1696709 0.02756,0.056844 0.08785,0.056844 0.04048,0 0.07407,-0.036174 0.03445,-0.036174 0.05684,-0.1033529 l 0.03445,-0.3927409 q -0.02584,-0.00689 -0.0534,-0.00689 -0.09646,0 -0.149,0.075792 -0.05168,0.074931 -0.06804,0.2368504 z"
           style="font-style:normal;font-variant:normal;font-weight:normal;font-stretch:normal;font-size:1.76388884px;font-family:'Roboto Black';-inkscape-font-specification:'Roboto Black, ';fill:#333333;fill-opacity:1;stroke-width:0.26458332"
           id="path44130" />
      </g>
      <g
         id="g47395"
         transform="matrix(0.16596994,0,0,0.16596994,78.131614,-17.481869)"
         style="fill:#333333;fill-opacity:1">
        <g
           id="g47393"
           style="fill:#333333;fill-opacity:1">
          <path
             style="fill:#333333;fill-opacity:1"
             inkscape:connector-curvature="0"
             d="M 7.5554956,7.2222826 2.6807051,2.3474906 h 5.2647754 l 7.7996635,7.7996664 h -5.264776 a 3.8998335,3.8998335 0 1 0 0,7.799666 h 1.949918 l 3.899834,3.899834 H 10.480368 A 7.7996667,7.7996667 0 0 1 2.6807051,14.046989 c 0,-3.163014 1.5599325,-5.7128394 4.8747905,-6.8247064 z"
             id="path47389" />
          <path
             style="fill:#333333;fill-opacity:1"
             inkscape:connector-curvature="0"
             d="m 21.204911,16.971864 4.874791,4.874793 h -5.264775 l -7.799665,-7.799668 h 5.264775 a 3.8998336,3.8998336 0 0 0 0,-7.7996654 H 16.33012 l -3.899834,-3.899833 h 5.849751 a 7.7996667,7.7996667 0 0 1 7.799665,7.7996664 c 0,3.163012 -1.559933,5.712839 -4.874791,6.824707 z"
             id="path47391" />
        </g>
      </g>
      <path
         style="fill:#333333;fill-opacity:1;stroke-width:0.00347329"
         d="m 79.621189,-8.6685141 v -0.3418806 l -0.399393,-9.69e-4 -0.399404,-9.702e-4 0.05179,-0.2478278 0.05178,-0.2478321 0.199939,-0.00171 0.199949,-0.00171 6.4e-4,-1.1170422 6.4e-4,-1.117043 h -0.253404 -0.253429 v -0.227809 -0.227932 h 0.400118 0.400115 v -0.341926 -0.3419 h 0.176737 0.176723 v 0.3419 0.341895 h 0.178401 0.178374 v -0.341895 -0.3419 h 0.176736 0.176723 v 0.3419 0.341895 l 0.01099,6.9e-5 c 0.03284,2.09e-4 0.136582,0.0081 0.172583,0.01282 0.236683,0.03239 0.425093,0.126793 0.563513,0.282354 0.116245,0.130784 0.192525,0.302068 0.218589,0.491598 0.0071,0.05338 0.0071,0.139332 2.4e-5,0.176438 -0.01592,0.08074 -0.04926,0.154897 -0.106357,0.237413 -0.04152,0.05988 -0.136411,0.161026 -0.188313,0.200885 l -0.01397,0.01099 0.01099,0.0065 c 0.180634,0.109183 0.249566,0.159471 0.320646,0.234006 0.122776,0.128675 0.179065,0.271785 0.192356,0.488569 0.01592,0.245641 -0.0664,0.477101 -0.235188,0.6687217 -0.1774,0.2013492 -0.443058,0.3318029 -0.748663,0.3676425 -0.04237,0.00499 -0.154933,0.012538 -0.185875,0.012823 l -0.01099,3.84e-5 v 0.3418977 0.3418949 H 80.50781 80.331098 V -8.6685162 -9.0104125 H 80.152713 79.97431 v 0.3418963 0.3418949 H 79.797525 79.62079 v -0.3418735 z m 1.062016,-0.8481097 c 0.14664,-0.021059 0.25343,-0.069146 0.329399,-0.1483464 0.04926,-0.051307 0.0769,-0.098003 0.09693,-0.163111 0.01762,-0.056088 0.02306,-0.097231 0.02306,-0.1628055 0,-0.1350283 -0.03827,-0.2402013 -0.117344,-0.3227693 -0.07304,-0.07623 -0.172402,-0.124129 -0.302334,-0.145687 -0.06048,-0.01014 -0.174512,-0.01297 -0.458472,-0.01211 l -0.278417,0.001 -6.27e-4,0.4757611 c -3.26e-4,0.2616686 -9.6e-5,0.4779014 6.27e-4,0.4805145 9.66e-4,0.00656 0.660692,0.00398 0.706941,-0.00256 z m -0.181903,-1.3643942 c 0.200518,-0.01927 0.353254,-0.132336 0.403051,-0.29837 0.01397,-0.04686 0.01848,-0.08026 0.01835,-0.13567 -6.4e-4,-0.143025 -0.05757,-0.257964 -0.167995,-0.339139 -0.04539,-0.03337 -0.119867,-0.06548 -0.188614,-0.08114 -0.03587,-0.0082 -0.03936,-0.0082 -0.313876,-0.0094 l -0.277558,-0.0011 v 0.431897 c 0,0.237545 6.27e-4,0.432985 9.53e-4,0.43431 0.0036,0.0039 0.482496,0.0025 0.524457,-0.0013 z"
         id="path47397"
         inkscape:connector-curvature="0" />
      <g
         aria-label="each"
         style="font-style:normal;font-variant:normal;font-weight:normal;font-stretch:normal;font-size:2.29305553px;line-height:1.25;font-family:Roboto;-inkscape-font-specification:Roboto;letter-spacing:0px;word-spacing:0px;fill:#333333;fill-opacity:1;stroke:none;stroke-width:0.29663736;stroke-miterlimit:4;stroke-dasharray:none"
         id="text47401">
        <path
           d="m 83.202255,-9.4433652 q -0.246324,0 -0.400836,-0.1612305 -0.154513,-0.1623501 -0.154513,-0.4333073 v -0.03807 q 0,-0.180264 0.0683,-0.321341 0.06942,-0.142196 0.192581,-0.221692 0.124282,-0.08061 0.268717,-0.08061 0.236248,0 0.367247,0.155632 0.131,0.155632 0.131,0.445623 v 0.08621 h -0.820708 q 0.0045,0.1791445 0.104128,0.2899904 0.100769,0.1097263 0.255282,0.1097263 0.109726,0 0.185863,-0.044786 0.07614,-0.044786 0.133239,-0.1186835 l 0.126521,0.09853 q -0.152273,0.2340081 -0.45682,0.2340081 z m -0.02575,-1.0860668 q -0.125401,0 -0.210495,0.09181 -0.08509,0.09069 -0.105248,0.255282 h 0.606854 v -0.01567 q -0.009,-0.157872 -0.08509,-0.244085 -0.07614,-0.08733 -0.206017,-0.08733 z"
           style="font-style:normal;font-variant:normal;font-weight:normal;font-stretch:normal;font-size:2.29305553px;font-family:Roboto;-inkscape-font-specification:Roboto;fill:#333333;fill-opacity:1;stroke-width:0.29663736;stroke-miterlimit:4;stroke-dasharray:none"
           id="path44133" />
        <path
           d="m 84.661167,-9.4657583 q -0.01791,-0.035829 -0.02911,-0.1276408 -0.144436,0.1500339 -0.344854,0.1500339 -0.179145,0 -0.294469,-0.100769 -0.114205,-0.1018887 -0.114205,-0.2575209 0,-0.1892219 0.143316,-0.2933499 0.144435,-0.105248 0.405315,-0.105248 h 0.201538 v -0.09517 q 0,-0.108607 -0.06494,-0.172427 -0.06494,-0.06494 -0.191461,-0.06494 -0.110846,0 -0.185863,0.05598 -0.07502,0.05598 -0.07502,0.135479 H 83.90316 q 0,-0.09069 0.06382,-0.174667 0.06494,-0.08509 0.174667,-0.134358 0.110846,-0.04927 0.242965,-0.04927 0.209376,0 0.328059,0.105247 0.118684,0.104128 0.123163,0.287752 v 0.5575887 q 0,0.1668287 0.04255,0.2653585 v 0.017915 z m -0.343734,-0.1578715 q 0.09741,0 0.184743,-0.050384 0.08733,-0.050385 0.126521,-0.1309998 v -0.2485639 h -0.16235 q -0.380683,0 -0.380683,0.2228118 0,0.09741 0.06494,0.1522732 0.06494,0.054863 0.166829,0.054863 z"
           style="font-style:normal;font-variant:normal;font-weight:normal;font-stretch:normal;font-size:2.29305553px;font-family:Roboto;-inkscape-font-specification:Roboto;fill:#333333;fill-opacity:1;stroke-width:0.29663736;stroke-miterlimit:4;stroke-dasharray:none"
           id="path44135" />
        <path
           d="m 85.648704,-9.6124333 q 0.110846,0 0.1937,-0.067179 0.08285,-0.067179 0.09181,-0.1679484 h 0.19594 q -0.0056,0.104128 -0.07166,0.1981791 -0.06606,0.094051 -0.176906,0.1500339 -0.109726,0.055983 -0.232888,0.055983 -0.247444,0 -0.394119,-0.1645894 -0.145555,-0.1657091 -0.145555,-0.4523414 v -0.03471 q 0,-0.176906 0.06494,-0.314623 0.06494,-0.137718 0.185863,-0.213855 0.122042,-0.07614 0.287751,-0.07614 0.203778,0 0.338136,0.122042 0.135479,0.122043 0.144436,0.316863 h -0.19594 q -0.009,-0.117564 -0.08957,-0.192581 -0.0795,-0.07614 -0.19706,-0.07614 -0.157871,0 -0.245205,0.114205 -0.08621,0.113086 -0.08621,0.32806 v 0.03919 q 0,0.2093752 0.08621,0.3224605 0.08621,0.1130852 0.246325,0.1130852 z"
           style="font-style:normal;font-variant:normal;font-weight:normal;font-stretch:normal;font-size:2.29305553px;font-family:Roboto;-inkscape-font-specification:Roboto;fill:#333333;fill-opacity:1;stroke-width:0.29663736;stroke-miterlimit:4;stroke-dasharray:none"
           id="path44137" />
        <path
           d="m 86.570181,-10.530551 q 0.137718,-0.169068 0.35829,-0.169068 0.384042,0 0.387401,0.433307 v 0.8005537 h -0.207137 v -0.8016737 q -0.0011,-0.131 -0.06046,-0.193701 -0.05822,-0.0627 -0.182504,-0.0627 -0.100769,0 -0.176906,0.05374 -0.07614,0.05374 -0.118683,0.141077 v 0.8632547 H 86.363044 V -11.18555 h 0.207137 z"
           style="font-style:normal;font-variant:normal;font-weight:normal;font-stretch:normal;font-size:2.29305553px;font-family:Roboto;-inkscape-font-specification:Roboto;fill:#333333;fill-opacity:1;stroke-width:0.29663736;stroke-miterlimit:4;stroke-dasharray:none"
           id="path44139" />
      </g>
    </g>
    <g
       style="display:inline"
       transform="translate(-35.358818,766.50558)"
       id="g47453">
      <g
         id="g47409">
        <path
           style="fill:#ffffff;fill-opacity:1;stroke:#333333;stroke-width:0.41288957;stroke-miterlimit:4;stroke-dasharray:none;stroke-dashoffset:0;stroke-opacity:1"
           d="m 76.66224,-498.26264 h 23.31702 l 3.98428,3.76385 v 17.20362 h -27.3013 z"
           id="path47405"
           inkscape:connector-curvature="0"
           sodipodi:nodetypes="cccccc" />
        <path
           style="fill:none;stroke:#333333;stroke-width:0.41288957;stroke-linecap:butt;stroke-linejoin:miter;stroke-miterlimit:4;stroke-dasharray:none;stroke-opacity:1"
           d="m 99.97926,-498.12455 v 3.87303 h 3.98428"
           id="path47407"
           inkscape:connector-curvature="0"
           sodipodi:nodetypes="ccc" />
      </g>
      <g
         aria-label="buy"
         style="font-style:normal;font-variant:normal;font-weight:normal;font-stretch:normal;font-size:3.92280269px;line-height:1.25;font-family:Roboto;-inkscape-font-specification:Roboto;letter-spacing:0px;word-spacing:0px;opacity:1;fill:#333333;fill-opacity:1;stroke:none;stroke-width:0.12525949"
         id="text47413">
        <path
           d="m 80.107244,-493.78014 q 0,0.47503 -0.218359,0.76426 -0.218359,0.28731 -0.586122,0.28731 -0.392663,0 -0.607192,-0.27774 l -0.01724,0.23943 h -0.325624 v -2.9421 h 0.354355 v 1.09754 q 0.214528,-0.26624 0.591868,-0.26624 0.37734,0 0.591868,0.2854 0.216444,0.2854 0.216444,0.78149 z m -0.354355,-0.0402 q 0,-0.36202 -0.139826,-0.55931 -0.139827,-0.19729 -0.402241,-0.19729 -0.350523,0 -0.503758,0.32562 v 0.89643 q 0.162812,0.32562 0.507589,0.32562 0.254753,0 0.396494,-0.19729 0.141742,-0.19729 0.141742,-0.59378 z"
           style="font-style:normal;font-variant:normal;font-weight:normal;font-stretch:normal;font-size:3.92280269px;font-family:Roboto;-inkscape-font-specification:Roboto;fill:#333333;fill-opacity:1;stroke-width:0.12525949"
           id="path44083" />
        <path
           d="m 81.831132,-492.97183 q -0.206867,0.24326 -0.607192,0.24326 -0.331369,0 -0.505673,-0.19154 -0.172389,-0.19346 -0.174305,-0.5708 v -1.34846 h 0.354355 v 1.33888 q 0,0.4712 0.383086,0.4712 0.406072,0 0.540152,-0.30264 v -1.50744 h 0.354355 v 2.07249 h -0.337116 z"
           style="font-style:normal;font-variant:normal;font-weight:normal;font-stretch:normal;font-size:3.92280269px;font-family:Roboto;-inkscape-font-specification:Roboto;fill:#333333;fill-opacity:1;stroke-width:0.12525949"
           id="path44085" />
        <path
           d="m 83.390293,-493.28596 0.482688,-1.55341 h 0.379256 l -0.833213,2.39237 q -0.193458,0.51717 -0.614853,0.51717 l -0.06704,-0.006 -0.132165,-0.0249 v -0.28731 l 0.09577,0.008 q 0.18005,0 0.279653,-0.0728 0.101517,-0.0728 0.166642,-0.26624 l 0.07853,-0.2107 -0.739357,-2.04951 h 0.386917 z"
           style="font-style:normal;font-variant:normal;font-weight:normal;font-stretch:normal;font-size:3.92280269px;font-family:Roboto;-inkscape-font-specification:Roboto;fill:#333333;fill-opacity:1;stroke-width:0.12525949"
           id="path44087" />
      </g>
      <g
         aria-label="Bob"
         style="font-style:normal;font-variant:normal;font-weight:normal;font-stretch:normal;font-size:4.47300148px;line-height:1.25;font-family:'Segoe Script';-inkscape-font-specification:'Segoe Script';letter-spacing:0px;word-spacing:0px;fill:#333333;fill-opacity:1;stroke:none;stroke-width:0.11182509"
         id="text47417">
        <path
           d="m 81.415005,-480.04477 q 0,0.0502 -0.0131,0.14415 -0.0131,0.0961 -0.01966,0.11139 -0.02839,0.11357 -0.102652,0.24899 -0.07426,0.13323 -0.172543,0.25772 -0.09392,0.12012 -0.190015,0.21622 -0.0961,0.0939 -0.163806,0.13978 -0.06989,0.0502 -0.176911,0.0983 -0.104836,0.0502 -0.248985,0.0939 -0.286115,0.0896 -0.500155,0.0896 -0.183463,0 -0.336349,-0.0655 -0.152886,-0.0612 -0.152886,-0.23807 0,-0.10702 0.0546,-0.15507 0.05679,-0.0502 0.200936,-0.0502 0.159438,0 0.277378,0.0546 0.120125,0.0524 0.205304,0.0524 0.04805,0 0.192199,-0.0328 0.141966,-0.0349 0.224961,-0.0917 0.09173,-0.0612 0.190015,-0.15726 0.09828,-0.0983 0.179095,-0.20967 0.08299,-0.11357 0.133229,-0.22933 0.05023,-0.11575 0.04805,-0.21841 0,-0.14851 -0.117941,-0.26427 -0.11794,-0.11794 -0.277378,-0.18346 -0.161622,-0.0655 -0.275195,-0.0655 -0.174726,0 -0.266458,0.0262 -0.09392,0.024 -0.179094,0.0655 -0.08518,0.0415 -0.146334,0.0415 -0.06989,0 -0.14415,-0.0459 -0.07426,-0.0459 -0.07426,-0.11576 0,-0.0611 0.01747,-0.10483 0.01966,-0.0459 0.05023,-0.0765 0.03058,-0.0328 0.06989,-0.0502 0.03931,-0.0197 0.08299,-0.0284 0.04368,-0.0109 0.09392,-0.0175 0.05023,-0.009 0.10702,-0.0131 0.113572,-0.009 0.137597,-0.0218 0.150702,-0.0874 0.31014,-0.20749 0.08299,-0.0611 0.152885,-0.12449 0.07207,-0.0655 0.135414,-0.13323 0.126676,-0.13323 0.126676,-0.21841 0,-0.11576 -0.0961,-0.17473 -0.0961,-0.059 -0.316692,-0.059 -0.07207,0 -0.15507,0.007 -0.08299,0.007 -0.170359,0.0218 -0.08736,0.0131 -0.17691,0.0349 -0.08736,0.0197 -0.172543,0.0459 -0.08518,0.0262 -0.163806,0.059 -0.07863,0.0328 -0.146334,0.0721 -0.06771,0.0393 -0.120124,0.0852 -0.05242,0.0437 -0.08518,0.0917 -0.01747,0.0262 -0.02621,0.0895 -0.0066,0.0611 -0.0131,0.19657 -0.0022,0.0677 -0.0044,0.14852 -0.0022,0.0786 -0.0066,0.17691 -0.0044,0.0983 -0.0087,0.17035 -0.0022,0.0699 -0.0066,0.12013 -0.0044,0.0415 -0.0131,0.10265 -0.0066,0.059 -0.01747,0.13978 -0.02184,0.15726 -0.03494,0.27301 -0.01092,0.11576 -0.01092,0.21841 0,0.0349 0.0022,0.0852 0.0022,0.048 0.0066,0.11139 0.0044,0.0633 0.0066,0.11357 0.0022,0.048 0.0022,0.0786 0,0.19001 -0.05023,0.27956 -0.05023,0.0874 -0.168174,0.0874 -0.259906,0 -0.259906,-0.44337 0,-0.0524 0.05242,-0.35163 0.05242,-0.29704 0.05897,-0.3713 0.01092,-0.10046 0.01747,-0.19001 0.0087,-0.0896 0.01747,-0.17036 0.0087,-0.0808 0.01966,-0.19002 0.01092,-0.1092 0.02621,-0.25117 0.01092,-0.0874 0.01529,-0.14196 0.0066,-0.0546 0.0066,-0.0764 0,-0.0524 -0.01529,-0.11576 -0.0087,-0.0349 -0.0131,-0.059 -0.0022,-0.0262 -0.0022,-0.0415 0,-0.16162 0.05897,-0.27738 0.07644,-0.15288 0.124493,-0.15507 0.07644,-0.0109 0.144149,-0.0262 0.06771,-0.0175 0.128861,-0.0371 0.283931,-0.0961 0.447737,-0.15071 0.16599,-0.0546 0.216224,-0.0699 0.100468,-0.0328 0.209672,-0.0459 0.05679,-0.009 0.135413,-0.0109 0.07863,-0.004 0.183463,-0.004 h 0.122309 q 0.04587,-0.002 0.120124,0.0218 0.07644,0.024 0.152886,0.0633 0.07863,0.0393 0.14415,0.0896 0.06552,0.048 0.09173,0.0983 0.03058,0.0459 0.05242,0.13978 0.01092,0.0481 0.01747,0.0874 0.0066,0.0371 0.0066,0.0677 0,0.17691 -0.152886,0.36256 -0.150702,0.18565 -0.441185,0.42153 0.161623,0.0328 0.31014,0.10702 0.150702,0.0721 0.264274,0.17254 0.115757,0.0983 0.183463,0.21622 0.06989,0.11576 0.06989,0.23588 z"
           style="font-style:normal;font-variant:normal;font-weight:normal;font-stretch:normal;font-family:'Segoe Script';-inkscape-font-specification:'Segoe Script';fill:#333333;fill-opacity:1;stroke-width:0.11182509"
           id="path44076" />
        <path
           d="m 84.789413,-480.80483 q 0,0.12668 -0.161623,0.23152 -0.06989,0.0459 -0.161622,0.0874 -0.09173,0.0393 -0.190015,0.0721 -0.0961,0.0328 -0.192199,0.0568 -0.0961,0.0218 -0.174727,0.0306 -0.03713,0.004 -0.251169,0.0131 -0.218409,0.0109 -0.231513,0.024 -0.03931,0.0393 -0.0546,0.12231 -0.0044,0.0218 -0.0087,0.0459 -0.0022,0.0218 -0.0044,0.059 -0.0022,0.0371 -0.0044,0.0939 0,0.0546 0,0.13978 0,0.0524 -0.01092,0.11357 -0.0087,0.0611 -0.02621,0.12231 -0.01747,0.059 -0.04368,0.11576 -0.02621,0.0546 -0.05897,0.0961 -0.05023,0.0677 -0.126677,0.13541 -0.07426,0.0677 -0.163806,0.13323 -0.08955,0.0633 -0.190015,0.12012 -0.100468,0.0568 -0.20312,0.0983 -0.100468,0.0415 -0.198752,0.0655 -0.0961,0.024 -0.181278,0.024 -0.146334,0 -0.242434,-0.0502 -0.0961,-0.0502 -0.152885,-0.13541 -0.0546,-0.0852 -0.07863,-0.19876 -0.02184,-0.11357 -0.02184,-0.24243 0,-0.13104 0.03058,-0.25335 0.03058,-0.1245 0.07863,-0.24462 0.05023,-0.12012 0.109204,-0.23588 0.06115,-0.11794 0.120125,-0.23588 0.05679,-0.0939 0.102652,-0.1791 0.04805,-0.0852 0.09391,-0.15943 0.04805,-0.0743 0.100468,-0.13323 0.05242,-0.059 0.124493,-0.10047 0.07207,-0.0437 0.168174,-0.0655 0.0961,-0.024 0.229329,-0.024 0.05897,0 0.102652,0.0153 0.04587,0.0153 0.08299,0.0437 0.03713,0.0284 0.06989,0.0677 0.03495,0.0393 0.07426,0.0874 0.04368,0.0546 0.07426,0.0917 0.03276,0.0371 0.05242,0.0568 0.0415,0.0371 0.10702,0.0546 0.06552,0.0153 0.185647,0.0153 0.159438,0 0.257722,-0.007 0.09828,-0.007 0.179095,-0.0197 0.09173,-0.0153 0.168174,-0.0328 0.07644,-0.0175 0.150702,-0.0371 0.07644,-0.0197 0.15507,-0.0415 0.07863,-0.024 0.170358,-0.0546 0.04587,-0.0131 0.102652,-0.0131 0.04368,0 0.04368,0.0306 z m -1.73853,0.55476 q 0,-0.0874 -0.0131,-0.12886 -0.0131,-0.0437 -0.03495,-0.0699 -0.02184,-0.0262 -0.05023,-0.0524 -0.02839,-0.0262 -0.05897,-0.083 -0.03276,-0.0612 -0.05897,-0.0896 -0.02403,-0.0284 -0.08518,-0.0284 -0.152885,0 -0.292667,0.15288 -0.06989,0.0764 -0.133229,0.17473 -0.06334,0.0961 -0.11794,0.21404 -0.04368,0.0917 -0.08518,0.20093 -0.0415,0.10702 -0.07426,0.21841 -0.03276,0.11139 -0.0546,0.22059 -0.01966,0.10702 -0.01966,0.20094 0,0.0393 0.01747,0.0764 0.01747,0.0371 0.05242,0.0655 0.03495,0.0284 0.083,0.0459 0.05023,0.0175 0.115756,0.0175 0.04805,0 0.120125,-0.0284 0.07426,-0.0284 0.150701,-0.0699 0.07644,-0.0415 0.141966,-0.0874 0.06771,-0.0481 0.104836,-0.0852 0.104836,-0.11139 0.163806,-0.20312 0.05897,-0.0917 0.08736,-0.18565 0.02839,-0.0961 0.03495,-0.20749 0.0066,-0.11357 0.0066,-0.26864 z"
           style="font-style:normal;font-variant:normal;font-weight:normal;font-stretch:normal;font-family:'Segoe Script';-inkscape-font-specification:'Segoe Script';fill:#333333;fill-opacity:1;stroke-width:0.11182509"
           id="path44078" />
        <path
           d="m 86.230907,-480.16489 q 0,0.21841 -0.07426,0.43245 -0.07207,0.21185 -0.194384,0.40624 -0.122308,0.1922 -0.283931,0.35819 -0.159438,0.16599 -0.336348,0.29048 -0.176911,0.12668 -0.35819,0.20312 -0.181279,0.0786 -0.342901,0.0939 -0.04368,-0.002 -0.08736,-0.0197 -0.0415,-0.0175 -0.07863,-0.0415 -0.03495,-0.024 -0.05679,-0.0546 -0.02184,-0.0284 -0.02184,-0.0524 0,-0.0393 0.02621,-0.0764 0.02621,-0.0349 0.08299,-0.0655 0.122309,0 0.253354,-0.0349 0.133229,-0.035 0.266458,-0.10047 0.133229,-0.0655 0.259906,-0.15725 0.12886,-0.0939 0.240249,-0.20967 0.09392,-0.0961 0.16599,-0.20749 0.07426,-0.11357 0.124493,-0.22933 0.05023,-0.11576 0.07644,-0.22933 0.02621,-0.11576 0.02621,-0.21622 0,-0.0459 -0.01092,-0.0852 -0.0087,-0.0393 -0.02621,-0.0655 -0.01529,-0.0284 -0.03495,-0.0437 -0.01966,-0.0153 -0.03931,-0.0153 -0.113572,0 -0.244617,0.0655 -0.131045,0.0633 -0.264274,0.17036 -0.133229,0.10702 -0.259906,0.2468 -0.126677,0.13978 -0.233697,0.29266 -0.104836,0.15289 -0.183463,0.30796 -0.07863,0.15289 -0.111388,0.28611 -0.01092,0.0502 -0.03713,0.10484 -0.02403,0.0546 -0.05679,0.0983 -0.03276,0.0437 -0.06989,0.0677 -0.03495,0.0262 -0.06771,0.0153 -0.09391,-0.0349 -0.09391,-0.1922 0,-0.0371 0.01966,-0.13104 0.02184,-0.0961 0.05897,-0.23152 0.04368,-0.17036 0.07426,-0.31014 0.03276,-0.14196 0.05897,-0.27738 0.02839,-0.13759 0.0546,-0.27956 0.02621,-0.14415 0.05897,-0.32106 0.03276,-0.16817 0.06334,-0.31669 0.03276,-0.1507 0.06989,-0.29485 0.03713,-0.14634 0.08081,-0.29048 0.04368,-0.14634 0.100468,-0.30359 0.04587,-0.13105 0.09392,-0.22059 0.05023,-0.0917 0.09828,-0.14852 0.04805,-0.059 0.09392,-0.0852 0.04587,-0.0262 0.08518,-0.0262 0.02621,0 0.05242,0.009 0.02839,0.007 0.05242,0.0284 0.02402,0.0197 0.03931,0.0568 0.01529,0.0349 0.01529,0.0895 0,0.0743 -0.01529,0.14852 -0.01529,0.0743 -0.03931,0.14852 -0.02184,0.0721 -0.05023,0.14196 -0.02839,0.0699 -0.0546,0.13542 -0.03058,0.0764 -0.07426,0.17035 -0.04368,0.0917 -0.08736,0.18784 -0.04368,0.0939 -0.08299,0.18127 -0.03713,0.0874 -0.05897,0.15071 -0.0087,0.024 -0.02621,0.0895 -0.01747,0.0633 -0.03931,0.15071 -0.01966,0.0874 -0.04368,0.19001 -0.02402,0.10047 -0.04587,0.19875 -0.01966,0.0961 -0.03713,0.18128 -0.01529,0.083 -0.02184,0.13541 0.06552,-0.10483 0.155069,-0.21622 0.09173,-0.11357 0.196568,-0.22059 0.104836,-0.10702 0.218408,-0.20094 0.113572,-0.0961 0.224961,-0.16817 0.113572,-0.0721 0.218408,-0.11357 0.104836,-0.0415 0.192199,-0.0415 0.03276,0 0.06771,0 0.03494,0 0.06552,0.007 0.03058,0.007 0.0546,0.0218 0.02621,0.0131 0.04368,0.0393 0.02621,0.0393 0.04805,0.0917 0.02184,0.0502 0.03713,0.10483 0.01529,0.0524 0.02184,0.10484 0.0087,0.0502 0.0087,0.0917 z"
           style="font-style:normal;font-variant:normal;font-weight:normal;font-stretch:normal;font-family:'Segoe Script';-inkscape-font-specification:'Segoe Script';fill:#333333;fill-opacity:1;stroke-width:0.11182509"
           id="path44080" />
      </g>
      <g
         aria-label="3"
         style="font-style:normal;font-variant:normal;font-weight:normal;font-stretch:normal;font-size:6.06909418px;line-height:1.25;font-family:Roboto;-inkscape-font-specification:Roboto;letter-spacing:0px;word-spacing:0px;opacity:1;fill:#333333;fill-opacity:1;stroke:none;stroke-width:0.1587978"
         id="text47421">
        <path
           d="m 86.945164,-494.40254 h 0.411916 q 0.388209,-0.006 0.610466,-0.20447 0.222257,-0.19855 0.222257,-0.53638 0,-0.75864 -0.755673,-0.75864 -0.355611,0 -0.568978,0.20448 -0.210403,0.20151 -0.210403,0.53638 h -0.548234 q 0,-0.51268 0.373392,-0.85051 0.376355,-0.34079 0.954223,-0.34079 0.610465,0 0.957186,0.32301 0.34672,0.32302 0.34672,0.89792 0,0.28153 -0.183732,0.54527 -0.180769,0.26375 -0.494892,0.39414 0.355611,0.11261 0.548234,0.37339 0.195586,0.26078 0.195586,0.63713 0,0.58084 -0.379319,0.92163 -0.379318,0.34079 -0.98682,0.34079 -0.607502,0 -0.989784,-0.32894 -0.379318,-0.32894 -0.379318,-0.86828 h 0.551197 q 0,0.34079 0.222257,0.54527 0.222256,0.20448 0.595648,0.20448 0.397099,0 0.607502,-0.20744 0.210403,-0.20744 0.210403,-0.59565 0,-0.37636 -0.231147,-0.57787 -0.231147,-0.20151 -0.666771,-0.20744 h -0.411916 z"
           style="font-style:normal;font-variant:normal;font-weight:normal;font-stretch:normal;font-size:6.06909418px;font-family:Roboto;-inkscape-font-specification:Roboto;fill:#333333;fill-opacity:1;stroke-width:0.1587978"
           id="path44073" />
      </g>
      <path
         style="fill:#333333;fill-opacity:1;stroke-width:0.00666981"
         d="m 101.42832,-478.73416 -0.17508,-0.002 v -0.18001 -0.17998 h 0.18009 0.18008 v 0.17969 c 0,0.0988 -0.002,0.18062 -0.005,0.18176 -0.002,10e-4 -0.0838,10e-4 -0.18008,2.9e-4 z m -3.10313,-0.91199 v -0.91043 h 0.91043 0.91043 v 0.91043 0.91043 h -0.91043 -0.91043 z m 1.4607,0 v -0.55026 h -0.55027 -0.55025 v 0.55026 0.55026 h 0.55025 0.55027 z m -0.72701,0.003 v -0.18008 h 0.18008 0.18008 v 0.18008 0.18009 h -0.18008 -0.18008 z m 1.4607,-0.003 v -0.91043 h 0.54692 0.54691 v 0.18342 0.18342 h 0.18676 0.18674 v -0.18342 -0.18342 h 0.18009 0.18007 v 0.54693 0.54692 h -0.5469 -0.54693 v -0.18342 -0.18342 h -0.18674 -0.18676 v 0.54693 0.54692 h -0.18009 -0.18007 z m 1.46733,0.73035 v -0.18009 h 0.18009 0.18007 v 0.18009 0.18008 h -0.18007 -0.18009 z m -3.66172,-2.92472 v -0.91043 h 0.91043 0.91043 v 0.91043 0.91043 h -0.91043 -0.91043 z m 1.4607,0 v -0.55026 h -0.55027 -0.55025 v 0.55026 0.55026 h 0.55025 0.55027 z m -0.72701,0.003 v -0.18006 h 0.18008 0.18008 v 0.18008 0.18009 h -0.18008 -0.18008 z m 1.4607,-0.003 v -0.91043 h 0.91375 0.91374 v 0.91043 0.91043 h -0.91374 -0.91375 z m 1.46733,0 v -0.55026 h -0.55358 -0.55359 v 0.55026 0.55026 h 0.55359 0.55358 z m -0.73367,0.003 v -0.18006 h 0.18009 0.18008 v 0.18008 0.18009 h -0.18008 -0.18009 z"
         id="path47423"
         inkscape:connector-curvature="0" />
      <g
         aria-label="B"
         style="font-style:normal;font-variant:normal;font-weight:normal;font-stretch:normal;font-size:5.6552701px;line-height:1.25;font-family:'Roboto Medium';-inkscape-font-specification:'Roboto Medium, ';letter-spacing:0px;word-spacing:0px;fill:#333333;fill-opacity:1;stroke:none;stroke-width:0.42414525"
         id="text47427">
        <path
           d="m 95.034597,-478.78748 v -4.02054 h 1.37792 q 0.682056,0 1.038272,0.27338 0.356216,0.27337 0.356216,0.8146 0,0.27613 -0.149114,0.49704 -0.149113,0.22091 -0.436295,0.34241 0.325841,0.0884 0.502568,0.33413 0.179489,0.243 0.179489,0.58541 0,0.56607 -0.3645,0.86982 -0.361739,0.30375 -1.038272,0.30375 z m 0.698625,-1.81421 v 1.25642 h 0.775943 q 0.328602,0 0.513613,-0.16292 0.185011,-0.16292 0.185011,-0.45286 0,-0.62683 -0.640636,-0.64064 z m 0,-0.51361 h 0.684818 q 0.32584,0 0.50809,-0.14636 0.185012,-0.14911 0.185012,-0.41972 0,-0.29823 -0.171205,-0.43078 -0.168443,-0.13254 -0.52742,-0.13254 h -0.679295 z"
           style="font-size:5.6552701px;fill:#333333;fill-opacity:1;stroke-width:0.42414525"
           id="path44070" />
      </g>
      <g
         aria-label="with"
         style="font-style:normal;font-variant:normal;font-weight:normal;font-stretch:normal;font-size:3.15592885px;line-height:1.25;font-family:Roboto;-inkscape-font-specification:Roboto;letter-spacing:0px;word-spacing:0px;fill:#333333;fill-opacity:1;stroke:none;stroke-width:0.40826154;stroke-miterlimit:4;stroke-dasharray:none"
         id="text47431">
        <path
           d="m 79.864101,-486.34421 0.320524,-1.27439 h 0.285081 l -0.485409,1.66734 H 79.75315 l -0.405278,-1.26361 -0.394491,1.26361 h -0.231147 l -0.483868,-1.66734 h 0.283541 l 0.328228,1.24819 0.388328,-1.24819 h 0.229606 z"
           style="font-style:normal;font-variant:normal;font-weight:normal;font-stretch:normal;font-size:3.15592885px;font-family:Roboto;-inkscape-font-specification:Roboto;fill:#333333;fill-opacity:1;stroke-width:0.40826154;stroke-miterlimit:4;stroke-dasharray:none"
           id="path44061" />
        <path
           d="m 81.070689,-485.95126 h -0.285082 v -1.66734 h 0.285082 z m -0.308196,-2.10961 q 0,-0.0693 0.04161,-0.11711 0.04315,-0.0478 0.126361,-0.0478 0.08321,0 0.12636,0.0478 0.04315,0.0478 0.04315,0.11711 0,0.0694 -0.04315,0.11558 -0.04315,0.0462 -0.12636,0.0462 -0.08321,0 -0.126361,-0.0462 -0.04161,-0.0462 -0.04161,-0.11558 z"
           style="font-style:normal;font-variant:normal;font-weight:normal;font-stretch:normal;font-size:3.15592885px;font-family:Roboto;-inkscape-font-specification:Roboto;fill:#333333;fill-opacity:1;stroke-width:0.40826154;stroke-miterlimit:4;stroke-dasharray:none"
           id="path44063" />
        <path
           d="m 81.912065,-488.02234 v 0.40374 h 0.311278 v 0.22036 h -0.311278 v 1.03399 q 0,0.10017 0.04161,0.15102 0.04161,0.0493 0.14177,0.0493 0.04931,0 0.135607,-0.0185 v 0.23115 q -0.112492,0.0308 -0.21882,0.0308 -0.191081,0 -0.288163,-0.11558 -0.09708,-0.11557 -0.09708,-0.32823 v -1.03399 H 81.32341 v -0.22036 h 0.303573 v -0.40374 z"
           style="font-style:normal;font-variant:normal;font-weight:normal;font-stretch:normal;font-size:3.15592885px;font-family:Roboto;-inkscape-font-specification:Roboto;fill:#333333;fill-opacity:1;stroke-width:0.40826154;stroke-miterlimit:4;stroke-dasharray:none"
           id="path44065" />
        <path
           d="m 82.839735,-487.41674 q 0.189541,-0.23268 0.493114,-0.23268 0.528556,0 0.533179,0.59636 v 1.1018 h -0.285081 v -1.10335 q -0.0015,-0.18029 -0.08321,-0.26659 -0.08013,-0.0863 -0.25118,-0.0863 -0.138688,0 -0.243475,0.074 -0.104787,0.074 -0.163344,0.19416 v 1.1881 h -0.285081 v -2.36695 h 0.285081 z"
           style="font-style:normal;font-variant:normal;font-weight:normal;font-stretch:normal;font-size:3.15592885px;font-family:Roboto;-inkscape-font-specification:Roboto;fill:#333333;fill-opacity:1;stroke-width:0.40826154;stroke-miterlimit:4;stroke-dasharray:none"
           id="path44067" />
      </g>
      <g
         aria-label="@"
         style="font-style:normal;font-variant:normal;font-weight:normal;font-stretch:normal;font-size:2.42763758px;line-height:1.25;font-family:'Roboto Black';-inkscape-font-specification:'Roboto Black, ';letter-spacing:0px;word-spacing:0px;fill:#333333;fill-opacity:1;stroke:none;stroke-width:0.36414564"
         id="text47435">
        <path
           d="m 91.679181,-480.30347 q -0.01185,0.30938 -0.154098,0.49311 -0.142244,0.18373 -0.379318,0.18373 -0.0972,0 -0.171879,-0.0415 -0.07468,-0.0427 -0.116166,-0.11973 -0.116167,0.15647 -0.311753,0.15647 -0.113795,0 -0.199142,-0.0664 -0.08535,-0.0676 -0.125649,-0.19084 -0.03912,-0.12328 -0.02371,-0.27975 0.03556,-0.29634 0.190844,-0.47652 0.155284,-0.18018 0.380504,-0.18018 0.174249,0 0.299899,0.0806 l 0.07468,0.0498 -0.06045,0.69582 q -0.02015,0.16476 0.113796,0.16476 0.100756,0 0.168322,-0.12802 0.06875,-0.1292 0.07586,-0.32953 0.02015,-0.39591 -0.164767,-0.61165 -0.183732,-0.21574 -0.539343,-0.21574 -0.226406,0 -0.403026,0.11617 -0.175435,0.11498 -0.278562,0.32716 -0.101942,0.211 -0.114981,0.48126 -0.01897,0.41488 0.165952,0.63417 0.184918,0.22048 0.554753,0.22048 0.09957,0 0.210996,-0.0237 0.111425,-0.0225 0.181362,-0.0533 l 0.04386,0.19677 q -0.07231,0.0474 -0.195586,0.0759 -0.122093,0.0296 -0.245371,0.0296 -0.323606,0 -0.547641,-0.12446 -0.22285,-0.12328 -0.331904,-0.36628 -0.109054,-0.243 -0.0972,-0.58913 0.01422,-0.32716 0.150542,-0.58557 0.137503,-0.2596 0.374577,-0.40066 0.238259,-0.14224 0.536972,-0.14224 0.298714,0 0.515636,0.12446 0.216923,0.12328 0.325977,0.35561 0.109054,0.23234 0.09601,0.53935 z m -1.18537,0.13513 q -0.01304,0.1541 0.02371,0.23352 0.03793,0.0782 0.120907,0.0782 0.05571,0 0.101942,-0.0498 0.04742,-0.0498 0.07823,-0.14225 l 0.04741,-0.54053 q -0.03556,-0.009 -0.07349,-0.009 -0.132761,0 -0.205069,0.10431 -0.07112,0.10313 -0.09364,0.32598 z"
           style="font-style:normal;font-variant:normal;font-weight:normal;font-stretch:normal;font-size:2.42763758px;font-family:'Roboto Black';-inkscape-font-specification:'Roboto Black, ';fill:#333333;fill-opacity:1;stroke-width:0.36414564"
           id="path44058" />
      </g>
      <g
         id="g47443"
         transform="matrix(0.22842418,0,0,0.22842418,89.73641,-496.98382)"
         style="fill:#333333;fill-opacity:1">
        <g
           id="g47441"
           style="fill:#333333;fill-opacity:1">
          <path
             style="fill:#333333;fill-opacity:1"
             inkscape:connector-curvature="0"
             d="M 7.5554956,7.2222826 2.6807051,2.3474906 h 5.2647754 l 7.7996635,7.7996664 h -5.264776 a 3.8998335,3.8998335 0 1 0 0,7.799666 h 1.949918 l 3.899834,3.899834 H 10.480368 A 7.7996667,7.7996667 0 0 1 2.6807051,14.046989 c 0,-3.163014 1.5599325,-5.7128394 4.8747905,-6.8247064 z"
             id="path47437" />
          <path
             style="fill:#333333;fill-opacity:1"
             inkscape:connector-curvature="0"
             d="m 21.204911,16.971864 4.874791,4.874793 h -5.264775 l -7.799665,-7.799668 h 5.264775 a 3.8998336,3.8998336 0 0 0 0,-7.7996654 H 16.33012 l -3.899834,-3.899833 h 5.849751 a 7.7996667,7.7996667 0 0 1 7.799665,7.7996664 c 0,3.163012 -1.559933,5.712839 -4.874791,6.824707 z"
             id="path47439" />
        </g>
      </g>
      <path
         style="fill:#333333;fill-opacity:1;stroke-width:0.00478028"
         d="m 85.66111,-484.51329 v -0.47053 l -0.54969,-0.001 -0.5497,-10e-4 0.0713,-0.34108 0.0713,-0.34109 0.27517,-0.002 0.27519,-0.002 8.7e-4,-1.53739 8.8e-4,-1.53739 h -0.34875 -0.34879 v -0.31356 -0.31371 h 0.55068 0.55068 v -0.4706 -0.47055 h 0.24324 0.24323 v 0.47055 0.47055 h 0.24553 0.24549 v -0.47055 -0.47055 h 0.24325 0.24322 v 0.47055 0.47055 l 0.0151,1e-4 c 0.0452,3e-4 0.18798,0.0111 0.23753,0.0176 0.32575,0.0446 0.58506,0.1745 0.77556,0.3886 0.15999,0.18 0.26497,0.41574 0.30085,0.67659 0.01,0.0735 0.01,0.19176 3e-5,0.24283 -0.0219,0.11112 -0.0678,0.21318 -0.14638,0.32675 -0.0571,0.0824 -0.18774,0.22162 -0.25917,0.27648 l -0.0192,0.0151 0.0151,0.009 c 0.24861,0.15026 0.34348,0.21949 0.44131,0.32207 0.16898,0.17708 0.24645,0.37406 0.26474,0.67242 0.0219,0.33807 -0.0914,0.65663 -0.32369,0.92035 -0.24416,0.27711 -0.60978,0.45667 -1.03038,0.50598 -0.0583,0.007 -0.21324,0.0173 -0.25582,0.0177 l -0.0151,5e-5 v 0.47056 0.47056 h -0.24326 -0.24321 v -0.47057 -0.47055 h -0.24551 -0.24553 v 0.47055 0.47055 h -0.24331 -0.24324 v -0.47051 z m 1.46165,-1.16725 c 0.20182,-0.029 0.34879,-0.0952 0.45335,-0.20417 0.0678,-0.0706 0.10584,-0.13488 0.1334,-0.22449 0.0242,-0.0772 0.0317,-0.13382 0.0317,-0.22407 0,-0.18584 -0.0527,-0.33059 -0.1615,-0.44422 -0.10052,-0.10492 -0.23728,-0.17084 -0.4161,-0.20051 -0.0832,-0.014 -0.24018,-0.0178 -0.631,-0.0167 l -0.38318,0.001 -8.7e-4,0.65479 c -4.5e-4,0.36013 -1.4e-4,0.65773 8.7e-4,0.66133 0.001,0.009 0.90931,0.006 0.97296,-0.003 z m -0.25036,-1.87781 c 0.27598,-0.0265 0.48619,-0.18214 0.55472,-0.41065 0.0192,-0.0645 0.0254,-0.11046 0.0253,-0.18672 -8.7e-4,-0.19685 -0.0792,-0.35504 -0.23121,-0.46676 -0.0625,-0.0459 -0.16498,-0.0901 -0.25959,-0.11167 -0.0494,-0.0113 -0.0542,-0.0113 -0.43199,-0.0129 l -0.382,-0.002 v 0.59442 c 0,0.32693 8.5e-4,0.59592 10e-4,0.59774 0.005,0.005 0.66406,0.003 0.72181,-0.002 z"
         id="path47445"
         inkscape:connector-curvature="0" />
      <g
         aria-label="at market
price"
         style="font-style:normal;font-variant:normal;font-weight:normal;font-stretch:normal;font-size:3.15592885px;line-height:1;font-family:Roboto;-inkscape-font-specification:Roboto;letter-spacing:0px;word-spacing:0px;fill:#333333;fill-opacity:1;stroke:none;stroke-width:0.40826154;stroke-miterlimit:4;stroke-dasharray:none"
         id="text47451">
        <path
           d="m 90.481547,-487.84955 q -0.02466,-0.0493 -0.04007,-0.17567 -0.198787,0.20649 -0.474622,0.20649 -0.246557,0 -0.405278,-0.13869 -0.15718,-0.14023 -0.15718,-0.35442 0,-0.26043 0.197245,-0.40374 0.198787,-0.14485 0.557835,-0.14485 h 0.277377 v -0.13099 q 0,-0.14947 -0.08938,-0.23731 -0.08938,-0.0894 -0.263508,-0.0894 -0.152557,0 -0.255802,0.0771 -0.103246,0.077 -0.103246,0.18645 h -0.286623 q 0,-0.12481 0.08784,-0.24039 0.08938,-0.11711 0.240393,-0.18492 0.152557,-0.0678 0.334393,-0.0678 0.288164,0 0.451508,0.14485 0.163344,0.14331 0.169508,0.39604 v 0.7674 q 0,0.22961 0.05856,0.36522 v 0.0246 z m -0.473081,-0.21728 q 0.134066,0 0.254262,-0.0693 0.120197,-0.0693 0.174131,-0.1803 v -0.34209 h -0.223442 q -0.523934,0 -0.523934,0.30665 0,0.13407 0.08938,0.20958 0.08938,0.0755 0.229606,0.0755 z"
           style="font-style:normal;font-variant:normal;font-weight:normal;font-stretch:normal;font-size:3.15592885px;line-height:1;font-family:Roboto;-inkscape-font-specification:Roboto;fill:#333333;fill-opacity:1;stroke-width:0.40826154;stroke-miterlimit:4;stroke-dasharray:none"
           id="path44031" />
        <path
           d="m 91.558693,-489.92063 v 0.40374 h 0.311278 v 0.22036 h -0.311278 v 1.034 q 0,0.10016 0.04161,0.15101 0.04161,0.0493 0.14177,0.0493 0.04931,0 0.135606,-0.0185 v 0.23115 q -0.112491,0.0308 -0.218819,0.0308 -0.191082,0 -0.288164,-0.11557 -0.09708,-0.11558 -0.09708,-0.32823 v -1.034 h -0.303574 v -0.22036 h 0.303574 v -0.40374 z"
           style="font-style:normal;font-variant:normal;font-weight:normal;font-stretch:normal;font-size:3.15592885px;line-height:1;font-family:Roboto;-inkscape-font-specification:Roboto;fill:#333333;fill-opacity:1;stroke-width:0.40826154;stroke-miterlimit:4;stroke-dasharray:none"
           id="path44033" />
        <path
           d="m 93.252231,-489.51689 0.0077,0.18492 q 0.183377,-0.21574 0.494655,-0.21574 0.349802,0 0.476163,0.26813 0.08321,-0.1202 0.215737,-0.19416 0.134066,-0.074 0.315901,-0.074 0.548589,0 0.557835,0.58095 v 1.11721 h -0.285081 v -1.10026 q 0,-0.17875 -0.08167,-0.26659 -0.08167,-0.0894 -0.274295,-0.0894 -0.158721,0 -0.263507,0.0956 -0.104787,0.094 -0.121738,0.25426 v 1.10642 h -0.286622 v -1.09255 q 0,-0.36368 -0.355967,-0.36368 -0.280458,0 -0.383704,0.23886 v 1.21737 h -0.285082 v -1.66734 z"
           style="font-style:normal;font-variant:normal;font-weight:normal;font-stretch:normal;font-size:3.15592885px;line-height:1;font-family:Roboto;-inkscape-font-specification:Roboto;fill:#333333;fill-opacity:1;stroke-width:0.40826154;stroke-miterlimit:4;stroke-dasharray:none"
           id="path44035" />
        <path
           d="m 96.781078,-487.84955 q -0.02466,-0.0493 -0.04007,-0.17567 -0.198787,0.20649 -0.474622,0.20649 -0.246557,0 -0.405278,-0.13869 -0.15718,-0.14023 -0.15718,-0.35442 0,-0.26043 0.197245,-0.40374 0.198787,-0.14485 0.557836,-0.14485 h 0.277376 v -0.13099 q 0,-0.14947 -0.08938,-0.23731 -0.08938,-0.0894 -0.263508,-0.0894 -0.152557,0 -0.255802,0.0771 -0.103246,0.077 -0.103246,0.18645 h -0.286623 q 0,-0.12481 0.08784,-0.24039 0.08938,-0.11711 0.240393,-0.18492 0.152557,-0.0678 0.334393,-0.0678 0.288164,0 0.451508,0.14485 0.163344,0.14331 0.169508,0.39604 v 0.7674 q 0,0.22961 0.05856,0.36522 v 0.0246 z m -0.473082,-0.21728 q 0.134066,0 0.254262,-0.0693 0.120197,-0.0693 0.174131,-0.1803 v -0.34209 h -0.223442 q -0.523934,0 -0.523934,0.30665 0,0.13407 0.08938,0.20958 0.08938,0.0755 0.229606,0.0755 z"
           style="font-style:normal;font-variant:normal;font-weight:normal;font-stretch:normal;font-size:3.15592885px;line-height:1;font-family:Roboto;-inkscape-font-specification:Roboto;fill:#333333;fill-opacity:1;stroke-width:0.40826154;stroke-miterlimit:4;stroke-dasharray:none"
           id="path44037" />
        <path
           d="m 98.277369,-489.26109 q -0.06472,-0.0108 -0.140229,-0.0108 -0.280458,0 -0.380622,0.23885 v 1.18347 h -0.285082 v -1.66734 h 0.277377 l 0.0046,0.19262 q 0.140229,-0.22344 0.397573,-0.22344 0.08321,0 0.12636,0.0216 z"
           style="font-style:normal;font-variant:normal;font-weight:normal;font-stretch:normal;font-size:3.15592885px;line-height:1;font-family:Roboto;-inkscape-font-specification:Roboto;fill:#333333;fill-opacity:1;stroke-width:0.40826154;stroke-miterlimit:4;stroke-dasharray:none"
           id="path44039" />
        <path
           d="m 99.003172,-488.62158 -0.178754,0.18646 v 0.58557 h -0.285081 v -2.36694 h 0.285081 v 1.43157 l 0.152558,-0.18338 0.51931,-0.54859 h 0.346721 l -0.648753,0.69652 0.724261,0.97082 h -0.334393 z"
           style="font-style:normal;font-variant:normal;font-weight:normal;font-stretch:normal;font-size:3.15592885px;line-height:1;font-family:Roboto;-inkscape-font-specification:Roboto;fill:#333333;fill-opacity:1;stroke-width:0.40826154;stroke-miterlimit:4;stroke-dasharray:none"
           id="path44041" />
        <path
           d="m 100.8015,-487.81873 q -0.33902,0 -0.55167,-0.2219 -0.21266,-0.22344 -0.21266,-0.59636 v -0.0524 q 0,-0.2481 0.094,-0.44226 0.0955,-0.19571 0.26505,-0.30512 0.17105,-0.11095 0.36983,-0.11095 0.32515,0 0.50545,0.2142 0.18029,0.21419 0.18029,0.61331 v 0.11865 h -1.12954 q 0.006,0.24656 0.14331,0.39912 0.13869,0.15101 0.35135,0.15101 0.15101,0 0.2558,-0.0616 0.10479,-0.0616 0.18338,-0.16334 l 0.17413,0.13561 q -0.20958,0.32206 -0.62872,0.32206 z m -0.0354,-1.49475 q -0.17259,0 -0.2897,0.12636 -0.11711,0.12482 -0.14485,0.35134 h 0.83521 v -0.0216 q -0.0123,-0.21728 -0.11712,-0.33593 -0.10478,-0.1202 -0.28354,-0.1202 z"
           style="font-style:normal;font-variant:normal;font-weight:normal;font-stretch:normal;font-size:3.15592885px;line-height:1;font-family:Roboto;-inkscape-font-specification:Roboto;fill:#333333;fill-opacity:1;stroke-width:0.40826154;stroke-miterlimit:4;stroke-dasharray:none"
           id="path44043" />
        <path
           d="m 102.16681,-489.92063 v 0.40374 h 0.31127 v 0.22036 h -0.31127 v 1.034 q 0,0.10016 0.0416,0.15101 0.0416,0.0493 0.14177,0.0493 0.0493,0 0.13561,-0.0185 v 0.23115 q -0.11249,0.0308 -0.21882,0.0308 -0.19108,0 -0.28816,-0.11557 -0.0971,-0.11558 -0.0971,-0.32823 v -1.034 h -0.30357 v -0.22036 h 0.30357 v -0.40374 z"
           style="font-style:normal;font-variant:normal;font-weight:normal;font-stretch:normal;font-size:3.15592885px;line-height:1;font-family:Roboto;-inkscape-font-specification:Roboto;fill:#333333;fill-opacity:1;stroke-width:0.40826154;stroke-miterlimit:4;stroke-dasharray:none"
           id="path44045" />
        <path
           d="m 90.860629,-485.5088 q 0,0.38062 -0.174131,0.61331 -0.174131,0.23269 -0.47154,0.23269 -0.303573,0 -0.477704,-0.19262 v 0.80285 h -0.285082 v -2.30839 h 0.260426 l 0.01387,0.18492 q 0.174131,-0.21574 0.483868,-0.21574 0.300491,0 0.474622,0.22652 0.175672,0.22653 0.175672,0.63026 z m -0.285082,-0.0324 q 0,-0.282 -0.120196,-0.44534 -0.120197,-0.16335 -0.32977,-0.16335 -0.258885,0 -0.388327,0.22961 v 0.79669 q 0.127901,0.22806 0.391409,0.22806 0.20495,0 0.325147,-0.1618 0.121737,-0.16334 0.121737,-0.48387 z"
           style="font-style:normal;font-variant:normal;font-weight:normal;font-stretch:normal;font-size:3.15592885px;line-height:1;font-family:Roboto;-inkscape-font-specification:Roboto;fill:#333333;fill-opacity:1;stroke-width:0.40826154;stroke-miterlimit:4;stroke-dasharray:none"
           id="path44047" />
        <path
           d="m 92.027151,-486.10516 q -0.06472,-0.0108 -0.140229,-0.0108 -0.280458,0 -0.380622,0.23885 v 1.18347 h -0.285082 v -1.66734 h 0.277377 l 0.0046,0.19262 q 0.140229,-0.22344 0.397573,-0.22344 0.08321,0 0.12636,0.0216 z"
           style="font-style:normal;font-variant:normal;font-weight:normal;font-stretch:normal;font-size:3.15592885px;line-height:1;font-family:Roboto;-inkscape-font-specification:Roboto;fill:#333333;fill-opacity:1;stroke-width:0.40826154;stroke-miterlimit:4;stroke-dasharray:none"
           id="path44049" />
        <path
           d="m 92.597314,-484.69362 h -0.285081 v -1.66734 h 0.285081 z m -0.308196,-2.1096 q 0,-0.0693 0.04161,-0.11712 0.04315,-0.0478 0.12636,-0.0478 0.08321,0 0.12636,0.0478 0.04315,0.0478 0.04315,0.11712 0,0.0693 -0.04315,0.11557 -0.04315,0.0462 -0.12636,0.0462 -0.08321,0 -0.12636,-0.0462 -0.04161,-0.0462 -0.04161,-0.11557 z"
           style="font-style:normal;font-variant:normal;font-weight:normal;font-stretch:normal;font-size:3.15592885px;line-height:1;font-family:Roboto;-inkscape-font-specification:Roboto;fill:#333333;fill-opacity:1;stroke-width:0.40826154;stroke-miterlimit:4;stroke-dasharray:none"
           id="path44051" />
        <path
           d="m 93.720689,-484.89549 q 0.152558,0 0.26659,-0.0925 0.114033,-0.0925 0.126361,-0.23114 h 0.269671 q -0.0077,0.14331 -0.09862,0.27275 -0.09092,0.12944 -0.243475,0.20649 -0.151016,0.077 -0.320524,0.077 -0.340556,0 -0.542425,-0.22652 -0.200327,-0.22807 -0.200327,-0.62256 v -0.0478 q 0,-0.24348 0.08938,-0.43302 0.08938,-0.18954 0.255802,-0.29432 0.167967,-0.10479 0.396032,-0.10479 0.280459,0 0.465377,0.16797 0.186458,0.16796 0.198786,0.43609 H 94.11364 q -0.01233,-0.1618 -0.123279,-0.26504 -0.10941,-0.10479 -0.271213,-0.10479 -0.217278,0 -0.337474,0.15718 -0.118656,0.15564 -0.118656,0.45151 v 0.0539 q 0,0.28816 0.118656,0.4438 0.118655,0.15564 0.339015,0.15564 z"
           style="font-style:normal;font-variant:normal;font-weight:normal;font-stretch:normal;font-size:3.15592885px;line-height:1;font-family:Roboto;-inkscape-font-specification:Roboto;fill:#333333;fill-opacity:1;stroke-width:0.40826154;stroke-miterlimit:4;stroke-dasharray:none"
           id="path44053" />
        <path
           d="m 95.395735,-484.6628 q -0.339015,0 -0.551671,-0.2219 -0.212655,-0.22344 -0.212655,-0.59636 v -0.0524 q 0,-0.2481 0.094,-0.44227 0.09554,-0.1957 0.265048,-0.30511 0.171049,-0.11095 0.369836,-0.11095 0.325147,0 0.505442,0.2142 0.180294,0.21419 0.180294,0.61331 v 0.11865 H 94.91649 q 0.0062,0.24656 0.143312,0.39912 0.138688,0.15101 0.351343,0.15101 0.151016,0 0.255803,-0.0616 0.104787,-0.0616 0.183377,-0.16334 l 0.174131,0.13561 q -0.209574,0.32206 -0.628721,0.32206 z m -0.03544,-1.49475 q -0.17259,0 -0.289705,0.12636 -0.117114,0.12482 -0.144852,0.35134 h 0.835212 v -0.0216 q -0.01233,-0.21728 -0.117115,-0.33593 -0.104786,-0.1202 -0.28354,-0.1202 z"
           style="font-style:normal;font-variant:normal;font-weight:normal;font-stretch:normal;font-size:3.15592885px;line-height:1;font-family:Roboto;-inkscape-font-specification:Roboto;fill:#333333;fill-opacity:1;stroke-width:0.40826154;stroke-miterlimit:4;stroke-dasharray:none"
           id="path44055" />
      </g>
      <flowRoot
         xml:space="preserve"
         id="flowRoot44023"
         style="fill:black;fill-opacity:1;stroke:none;font-family:sans-serif;font-style:normal;font-weight:normal;font-size:40px;line-height:1.25;letter-spacing:0px;word-spacing:0px"><flowRegion
           id="flowRegion44025"><rect
             id="rect44027"
             width="690.7738"
             height="380.13492"
             x="-145.69048"
             y="-113.78984" /></flowRegion><flowPara
           id="flowPara44029"></flowPara></flowRoot>    </g>
  </g>
</svg>
