<?xml version="1.0" encoding="UTF-8" standalone="no"?>
<!-- Created with Inkscape (http://www.inkscape.org/) -->

<svg
   xmlns:dc="http://purl.org/dc/elements/1.1/"
   xmlns:cc="http://creativecommons.org/ns#"
   xmlns:rdf="http://www.w3.org/1999/02/22-rdf-syntax-ns#"
   xmlns:svg="http://www.w3.org/2000/svg"
   xmlns="http://www.w3.org/2000/svg"
   xmlns:sodipodi="http://sodipodi.sourceforge.net/DTD/sodipodi-0.dtd"
   xmlns:inkscape="http://www.inkscape.org/namespaces/inkscape"
   width="92mm"
   height="46mm"
   viewBox="0 0 92 46"
   version="1.1"
   id="svg5555"
   inkscape:version="0.92.4 (5da689c313, 2019-01-14)"
   sodipodi:docname="cancel-order.svg">
  <defs
     id="defs5549">
    <marker
       inkscape:stockid="Arrow2Mstart"
       orient="auto"
       refY="0"
       refX="0"
       id="Arrow2Mstart"
       style="overflow:visible"
       inkscape:isstock="true"
       inkscape:collect="always">
      <path
         id="path17201"
         style="fill:#333333;fill-opacity:1;fill-rule:evenodd;stroke:#333333;stroke-width:0.625;stroke-linejoin:round;stroke-opacity:1"
         d="M 8.7185878,4.0337352 -2.2072895,0.01601326 8.7185884,-4.0017078 c -1.7454984,2.3720609 -1.7354408,5.6174519 -6e-7,8.035443 z"
         transform="scale(0.6)"
         inkscape:connector-curvature="0" />
    </marker>
    <marker
       inkscape:stockid="Arrow2Mend"
       orient="auto"
       refY="0"
       refX="0"
       id="Arrow2Mend"
       style="overflow:visible"
       inkscape:isstock="true"
       inkscape:collect="always">
      <path
         id="path17204"
         style="fill:#333333;fill-opacity:1;fill-rule:evenodd;stroke:#333333;stroke-width:0.625;stroke-linejoin:round;stroke-opacity:1"
         d="M 8.7185878,4.0337352 -2.2072895,0.01601326 8.7185884,-4.0017078 c -1.7454984,2.3720609 -1.7354408,5.6174519 -6e-7,8.035443 z"
         transform="scale(-0.6)"
         inkscape:connector-curvature="0" />
    </marker>
  </defs>
  <sodipodi:namedview
     id="base"
     pagecolor="#ffffff"
     bordercolor="#666666"
     borderopacity="1.0"
     inkscape:pageopacity="0.0"
     inkscape:pageshadow="2"
     inkscape:zoom="1.344837"
     inkscape:cx="92.024652"
     inkscape:cy="80.634921"
     inkscape:document-units="mm"
     inkscape:current-layer="layer1"
     showgrid="false"
     inkscape:window-width="1920"
     inkscape:window-height="1017"
     inkscape:window-x="-8"
     inkscape:window-y="-8"
     inkscape:window-maximized="1" />
  <metadata
     id="metadata5552">
    <rdf:RDF>
      <cc:Work
         rdf:about="">
        <dc:format>image/svg+xml</dc:format>
        <dc:type
           rdf:resource="http://purl.org/dc/dcmitype/StillImage" />
        <dc:title />
      </cc:Work>
    </rdf:RDF>
  </metadata>
  <g
     inkscape:label="Layer 1"
     inkscape:groupmode="layer"
     id="layer1"
     transform="translate(0,-251)">
    <path
       style="opacity:1;fill:none;fill-opacity:0.50196078;stroke:#333333;stroke-width:0.33165091;stroke-miterlimit:4;stroke-dasharray:0.99495271, 0.3316509;stroke-dashoffset:0;stroke-opacity:1"
       d="m 60.327758,270.44368 a 5.7959213,5.2641854 0 0 1 -5.752064,5.26403 5.7959213,5.2641854 0 0 1 -5.839114,-5.18437 5.7959213,5.2641854 0 0 1 5.663697,-5.34249 5.7959213,5.2641854 0 0 1 5.924827,5.10352"
       id="path3801"
       inkscape:connector-curvature="0" />
    <path
       style="opacity:1;fill:none;fill-opacity:0.50196078;stroke:#333333;stroke-width:0.62131977;stroke-miterlimit:4;stroke-dasharray:1.86395933, 0.62131978;stroke-dashoffset:0;stroke-opacity:1"
       d="m 32.281509,288.6393 a 7.2524266,6.0372348 0 0 1 -7.197555,6.03706 7.2524266,6.0372348 0 0 1 -7.306468,-5.94571 7.2524266,6.0372348 0 0 1 7.086995,-6.12703 7.2524266,6.0372348 0 0 1 7.413707,5.85299"
       id="path3805"
       inkscape:connector-curvature="0" />
    <path
       style="opacity:1;fill:none;stroke:#333333;stroke-width:0.465;stroke-linecap:butt;stroke-linejoin:miter;stroke-miterlimit:4;stroke-dasharray:none;stroke-opacity:1;marker-start:url(#Arrow2Mstart);marker-end:url(#Arrow2Mend)"
       d="M 31.538229,285.88555 50.14933,273.55208"
       id="path3807"
       inkscape:connector-curvature="0"
       sodipodi:nodetypes="cc" />
    <path
       style="opacity:0.39899998;fill:#000000;fill-opacity:0;stroke:#333333;stroke-width:0.40000001;stroke-miterlimit:4;stroke-dasharray:none;stroke-dashoffset:0;stroke-opacity:1"
       d="M 2.5752905,259.08835 H 39.420147 v 35.60706 H 2.5752905 Z"
       id="rect16541"
       inkscape:connector-curvature="0" />
    <path
       style="opacity:0.39899998;fill:#000000;stroke:#333333;stroke-width:0.40000001;stroke-linecap:butt;stroke-linejoin:miter;stroke-miterlimit:4;stroke-dasharray:none;stroke-opacity:1"
       d="M 2.5752905,282.75574 H 39.320693"
       id="path16543"
       inkscape:connector-curvature="0"
       sodipodi:nodetypes="cc" />
    <path
       inkscape:connector-curvature="0"
       id="path16545"
       d="M 2.5752905,271.05412 H 39.320693"
       style="opacity:0.39899998;fill:#000000;stroke:#333333;stroke-width:0.40000001;stroke-linecap:butt;stroke-linejoin:miter;stroke-miterlimit:4;stroke-dasharray:none;stroke-opacity:1"
       sodipodi:nodetypes="cc" />
    <g
       aria-label="epoch pool"
       style="font-style:normal;font-variant:normal;font-weight:normal;font-stretch:normal;font-size:3.70416665px;line-height:1.25;font-family:'Roboto Medium';-inkscape-font-specification:'Roboto Medium, ';letter-spacing:0px;word-spacing:0px;opacity:0.39899998;fill:#333333;fill-opacity:1;stroke:none;stroke-width:0.26458332"
       id="text16549"
       transform="translate(42.692596,3.1478412)">
      <path
         d="m 17.465264,254.25335 q -0.417804,0 -0.678253,-0.26226 -0.258641,-0.26406 -0.258641,-0.70176 v -0.0543 q 0,-0.29301 0.112138,-0.52271 0.113947,-0.23151 0.318327,-0.35993 0.20438,-0.12841 0.455786,-0.12841 0.399717,0 0.616758,0.25502 0.21885,0.25502 0.21885,0.72166 v 0.17725 h -1.278733 q 0.0199,0.24237 0.160972,0.38344 0.142885,0.14108 0.358117,0.14108 0.302049,0 0.49196,-0.24417 l 0.236936,0.22608 q -0.117563,0.17544 -0.314709,0.27311 -0.195337,0.0959 -0.439508,0.0959 z m -0.05245,-1.67664 q -0.180867,0 -0.293005,0.12661 -0.110329,0.1266 -0.141077,0.35269 h 0.837417 v -0.0326 q -0.01447,-0.22066 -0.117564,-0.33279 -0.103095,-0.11395 -0.285771,-0.11395 z"
         style="font-style:normal;font-variant:normal;font-weight:normal;font-stretch:normal;font-size:3.70416665px;font-family:'Roboto Medium';-inkscape-font-specification:'Roboto Medium, ';fill:#333333;fill-opacity:1;stroke-width:0.26458332"
         id="path25407"
         inkscape:connector-curvature="0" />
      <path
         d="m 20.306692,253.25858 q 0,0.45398 -0.206189,0.72528 -0.206188,0.26949 -0.553454,0.26949 -0.321944,0 -0.515473,-0.21161 v 0.92785 h -0.439508 v -2.7094 h 0.405144 l 0.01809,0.19896 q 0.193529,-0.23513 0.526325,-0.23513 0.358118,0 0.560689,0.26768 0.20438,0.26588 0.20438,0.73975 z m -0.437699,-0.038 q 0,-0.29301 -0.117564,-0.46483 -0.115755,-0.17183 -0.332796,-0.17183 -0.269493,0 -0.387057,0.22247 v 0.86817 q 0.119373,0.22789 0.390674,0.22789 0.209807,0 0.327371,-0.16821 0.119372,-0.17001 0.119372,-0.51366 z"
         style="font-style:normal;font-variant:normal;font-weight:normal;font-stretch:normal;font-size:3.70416665px;font-family:'Roboto Medium';-inkscape-font-specification:'Roboto Medium, ';fill:#333333;fill-opacity:1;stroke-width:0.26458332"
         id="path25409"
         inkscape:connector-curvature="0" />
      <path
         d="m 20.594272,253.2206 q 0,-0.28758 0.113946,-0.51728 0.113947,-0.23151 0.320136,-0.3545 0.206189,-0.1248 0.473873,-0.1248 0.3961,0 0.642079,0.25502 0.247789,0.25502 0.267684,0.67645 l 0.0018,0.10309 q 0,0.28939 -0.112138,0.51728 -0.110329,0.22789 -0.318327,0.35269 -0.206189,0.1248 -0.47749,0.1248 -0.414187,0 -0.663784,-0.27492 -0.247788,-0.27672 -0.247788,-0.73613 z m 0.439508,0.038 q 0,0.30205 0.124798,0.47387 0.124799,0.17002 0.347266,0.17002 0.222467,0 0.345457,-0.17363 0.124799,-0.17364 0.124799,-0.50824 0,-0.29662 -0.128416,-0.47026 -0.126608,-0.17363 -0.345457,-0.17363 -0.215233,0 -0.34184,0.17182 -0.126607,0.17002 -0.126607,0.51005 z"
         style="font-style:normal;font-variant:normal;font-weight:normal;font-stretch:normal;font-size:3.70416665px;font-family:'Roboto Medium';-inkscape-font-specification:'Roboto Medium, ';fill:#333333;fill-opacity:1;stroke-width:0.26458332"
         id="path25411"
         inkscape:connector-curvature="0" />
      <path
         d="m 23.593055,253.90247 q 0.16459,0 0.27311,-0.0959 0.108521,-0.0959 0.115755,-0.23694 h 0.414187 q -0.0072,0.18268 -0.113947,0.34184 -0.106711,0.15736 -0.289388,0.2496 -0.182676,0.0922 -0.394291,0.0922 -0.410569,0 -0.651123,-0.26587 -0.240554,-0.26588 -0.240554,-0.73433 v -0.0452 q 0,-0.44675 0.238746,-0.71443 0.238745,-0.26949 0.651123,-0.26949 0.349074,0 0.567924,0.20438 0.220658,0.20257 0.23151,0.53356 H 23.98192 q -0.0072,-0.16821 -0.115755,-0.27673 -0.106712,-0.10852 -0.27311,-0.10852 -0.213423,0 -0.329179,0.15555 -0.115755,0.15373 -0.117564,0.46844 v 0.0705 q 0,0.31833 0.113947,0.47568 0.115755,0.15555 0.332796,0.15555 z"
         style="font-style:normal;font-variant:normal;font-weight:normal;font-stretch:normal;font-size:3.70416665px;font-family:'Roboto Medium';-inkscape-font-specification:'Roboto Medium, ';fill:#333333;fill-opacity:1;stroke-width:0.26458332"
         id="path25413"
         inkscape:connector-curvature="0" />
      <path
         d="m 25.161177,252.47362 q 0.215232,-0.2496 0.544411,-0.2496 0.625802,0 0.634845,0.71443 v 1.27873 h -0.439508 v -1.26246 q 0,-0.20257 -0.08863,-0.28577 -0.08682,-0.085 -0.256832,-0.085 -0.264067,0 -0.394291,0.23513 v 1.39811 h -0.439508 v -2.77813 h 0.439508 z"
         style="font-style:normal;font-variant:normal;font-weight:normal;font-stretch:normal;font-size:3.70416665px;font-family:'Roboto Medium';-inkscape-font-specification:'Roboto Medium, ';fill:#333333;fill-opacity:1;stroke-width:0.26458332"
         id="path25415"
         inkscape:connector-curvature="0" />
      <path
         d="m 29.422415,253.25858 q 0,0.45398 -0.206188,0.72528 -0.206189,0.26949 -0.553455,0.26949 -0.321944,0 -0.515472,-0.21161 v 0.92785 h -0.439509 v -2.7094 h 0.405144 l 0.01809,0.19896 q 0.193529,-0.23513 0.526325,-0.23513 0.358118,0 0.560689,0.26768 0.20438,0.26588 0.20438,0.73975 z m -0.437699,-0.038 q 0,-0.29301 -0.117564,-0.46483 -0.115755,-0.17183 -0.332796,-0.17183 -0.269493,0 -0.387056,0.22247 v 0.86817 q 0.119372,0.22789 0.390673,0.22789 0.209807,0 0.327371,-0.16821 0.119372,-0.17001 0.119372,-0.51366 z"
         style="font-style:normal;font-variant:normal;font-weight:normal;font-stretch:normal;font-size:3.70416665px;font-family:'Roboto Medium';-inkscape-font-specification:'Roboto Medium, ';fill:#333333;fill-opacity:1;stroke-width:0.26458332"
         id="path25417"
         inkscape:connector-curvature="0" />
      <path
         d="m 29.709994,253.2206 q 0,-0.28758 0.113947,-0.51728 0.113947,-0.23151 0.320135,-0.3545 0.206189,-0.1248 0.473873,-0.1248 0.3961,0 0.64208,0.25502 0.247789,0.25502 0.267684,0.67645 l 0.0018,0.10309 q 0,0.28939 -0.112138,0.51728 -0.110329,0.22789 -0.318327,0.35269 -0.206189,0.1248 -0.47749,0.1248 -0.414187,0 -0.663784,-0.27492 -0.247789,-0.27672 -0.247789,-0.73613 z m 0.439508,0.038 q 0,0.30205 0.124799,0.47387 0.124799,0.17002 0.347266,0.17002 0.222467,0 0.345457,-0.17363 0.124798,-0.17364 0.124798,-0.50824 0,-0.29662 -0.128416,-0.47026 -0.126607,-0.17363 -0.345457,-0.17363 -0.215232,0 -0.341839,0.17182 -0.126608,0.17002 -0.126608,0.51005 z"
         style="font-style:normal;font-variant:normal;font-weight:normal;font-stretch:normal;font-size:3.70416665px;font-family:'Roboto Medium';-inkscape-font-specification:'Roboto Medium, ';fill:#333333;fill-opacity:1;stroke-width:0.26458332"
         id="path25419"
         inkscape:connector-curvature="0" />
      <path
         d="m 31.822527,253.2206 q 0,-0.28758 0.113947,-0.51728 0.113946,-0.23151 0.320135,-0.3545 0.206189,-0.1248 0.473873,-0.1248 0.3961,0 0.64208,0.25502 0.247788,0.25502 0.267684,0.67645 l 0.0018,0.10309 q 0,0.28939 -0.112138,0.51728 -0.110329,0.22789 -0.318326,0.35269 -0.206189,0.1248 -0.477491,0.1248 -0.414186,0 -0.663783,-0.27492 -0.247789,-0.27672 -0.247789,-0.73613 z m 0.439508,0.038 q 0,0.30205 0.124799,0.47387 0.124798,0.17002 0.347265,0.17002 0.222467,0 0.345457,-0.17363 0.124799,-0.17364 0.124799,-0.50824 0,-0.29662 -0.128416,-0.47026 -0.126607,-0.17363 -0.345457,-0.17363 -0.215232,0 -0.34184,0.17182 -0.126607,0.17002 -0.126607,0.51005 z"
         style="font-style:normal;font-variant:normal;font-weight:normal;font-stretch:normal;font-size:3.70416665px;font-family:'Roboto Medium';-inkscape-font-specification:'Roboto Medium, ';fill:#333333;fill-opacity:1;stroke-width:0.26458332"
         id="path25421"
         inkscape:connector-curvature="0" />
      <path
         d="M 34.484898,254.21718 H 34.04539 v -2.77813 h 0.439508 z"
         style="font-style:normal;font-variant:normal;font-weight:normal;font-stretch:normal;font-size:3.70416665px;font-family:'Roboto Medium';-inkscape-font-specification:'Roboto Medium, ';fill:#333333;fill-opacity:1;stroke-width:0.26458332"
         id="path25423"
         inkscape:connector-curvature="0" />
    </g>
    <g
       transform="translate(1.8590045,240.92576)"
       id="g16559"
       style="opacity:0.39899998">
      <path
         style="fill:#0000ff;fill-opacity:0.50196078;stroke:#091400;stroke-width:0.25;stroke-miterlimit:4;stroke-dasharray:none;stroke-dashoffset:0;stroke-opacity:1"
         d="m 10.268041,23.780241 h 14.640533 v 3.614832 H 10.268041 Z"
         id="rect16551"
         inkscape:connector-curvature="0" />
      <path
         style="fill:none;stroke:#000000;stroke-width:0.25;stroke-linecap:butt;stroke-linejoin:miter;stroke-miterlimit:4;stroke-dasharray:none;stroke-opacity:1"
         d="m 13.749596,23.811258 v 3.614247"
         id="path16553"
         inkscape:connector-curvature="0"
         sodipodi:nodetypes="cc" />
      <path
         sodipodi:nodetypes="cc"
         inkscape:connector-curvature="0"
         id="path16555"
         d="m 17.453762,23.811258 v 3.614247"
         style="fill:none;stroke:#000000;stroke-width:0.25;stroke-linecap:butt;stroke-linejoin:miter;stroke-miterlimit:4;stroke-dasharray:none;stroke-opacity:1" />
      <path
         style="fill:none;stroke:#000000;stroke-width:0.25;stroke-linecap:butt;stroke-linejoin:miter;stroke-miterlimit:4;stroke-dasharray:none;stroke-opacity:1"
         d="m 21.157928,23.811258 v 3.614247"
         id="path16557"
         inkscape:connector-curvature="0"
         sodipodi:nodetypes="cc" />
    </g>
    <g
       transform="translate(1.2435785,240.92576)"
       id="g16565"
       style="opacity:0.39899998">
      <path
         style="fill:#0000ff;fill-opacity:0.50196078;stroke:#091400;stroke-width:0.25;stroke-miterlimit:4;stroke-dasharray:none;stroke-dashoffset:0;stroke-opacity:1"
         d="m 28.217197,23.780241 h 6.93652 v 3.614832 h -6.93652 z"
         id="rect16561"
         inkscape:connector-curvature="0" />
      <path
         sodipodi:nodetypes="cc"
         inkscape:connector-curvature="0"
         id="path16563"
         d="m 31.698755,23.811258 v 3.614247"
         style="fill:none;stroke:#000000;stroke-width:0.25;stroke-linecap:butt;stroke-linejoin:miter;stroke-miterlimit:4;stroke-dasharray:none;stroke-opacity:1" />
    </g>
    <g
       aria-label="L1"
       style="font-style:normal;font-variant:normal;font-weight:normal;font-stretch:normal;font-size:3.26319432px;line-height:1.25;font-family:Roboto;-inkscape-font-specification:Roboto;letter-spacing:0px;word-spacing:0px;opacity:0.39899998;fill:#333333;fill-opacity:1;stroke:none;stroke-width:0.30557004"
       id="text16569"
       transform="translate(42.692596,3.1478412)">
      <path
         d="m -24.198641,260.03625 h 1.099416 v 0.25016 h -1.406934 v -2.31993 h 0.307518 z"
         style="font-style:normal;font-variant:normal;font-weight:normal;font-stretch:normal;font-size:3.26319432px;font-family:Roboto;-inkscape-font-specification:Roboto;fill:#333333;fill-opacity:1;stroke-width:0.30557004"
         id="path25428"
         inkscape:connector-curvature="0" />
      <path
         d="m -21.854814,260.28641 h -0.296364 v -1.96461 l -0.594322,0.21829 v -0.26769 l 0.844479,-0.31707 h 0.04621 z"
         style="font-style:normal;font-variant:normal;font-weight:normal;font-stretch:normal;font-size:3.26319432px;font-family:Roboto;-inkscape-font-specification:Roboto;fill:#333333;fill-opacity:1;stroke-width:0.30557004"
         id="path25430"
         inkscape:connector-curvature="0" />
    </g>
    <g
       aria-label="L8"
       style="font-style:normal;font-variant:normal;font-weight:normal;font-stretch:normal;font-size:3.26319432px;line-height:1.25;font-family:Roboto;-inkscape-font-specification:Roboto;letter-spacing:0px;word-spacing:0px;opacity:0.39899998;fill:#333333;fill-opacity:1;stroke:none;stroke-width:0.26458332"
       id="text16573"
       transform="translate(42.692596,3.1478412)">
      <path
         d="m -10.826046,260.03772 h 1.0994156 v 0.25015 h -1.4069336 v -2.31992 h 0.307518 z"
         style="font-style:normal;font-variant:normal;font-weight:normal;font-stretch:normal;font-size:3.26319432px;font-family:Roboto;-inkscape-font-specification:Roboto;fill:#333333;fill-opacity:1;stroke-width:0.26458332"
         id="path25433"
         inkscape:connector-curvature="0" />
      <path
         d="m -8.0440458,258.57342 q 0,0.17368 -0.092415,0.30911 -0.090821,0.13544 -0.2469702,0.21192 0.1816426,0.0781 0.2868041,0.22785 0.1067549,0.14977 0.1067549,0.33938 0,0.30115 -0.2039496,0.4796 -0.2023563,0.17846 -0.5337745,0.17846 -0.3346049,0 -0.5369611,-0.17846 -0.200763,-0.18005 -0.200763,-0.4796 0,-0.18801 0.1019748,-0.33938 0.1035682,-0.15137 0.2852109,-0.22945 -0.1545556,-0.0765 -0.2437836,-0.21191 -0.089228,-0.13544 -0.089228,-0.30752 0,-0.29318 0.1880161,-0.46526 0.1880161,-0.17208 0.4955339,-0.17208 0.3059245,0 0.4939406,0.17208 0.1896094,0.17208 0.1896097,0.46526 z m -0.2405968,1.08189 q 0,-0.19439 -0.1242819,-0.31708 -0.1226884,-0.12269 -0.321858,-0.12269 -0.1991696,0 -0.3202647,0.1211 -0.1195017,0.12109 -0.1195017,0.31867 0,0.19758 0.116315,0.3107 0.1179084,0.11313 0.3266381,0.11313 0.2071364,0 0.3250448,-0.11313 0.1179084,-0.11472 0.1179084,-0.3107 z m -0.4429532,-1.47704 q -0.1736758,0 -0.2820241,0.10835 -0.1067549,0.10675 -0.1067549,0.29158 0,0.17686 0.1051616,0.2868 0.1067548,0.10835 0.2836174,0.10835 0.1768626,0 0.2820241,-0.10835 0.1067549,-0.10994 0.1067549,-0.2868 0,-0.17686 -0.1099416,-0.2884 -0.1099416,-0.11153 -0.2788374,-0.11153 z"
         style="font-style:normal;font-variant:normal;font-weight:normal;font-stretch:normal;font-size:3.26319432px;font-family:Roboto;-inkscape-font-specification:Roboto;fill:#333333;fill-opacity:1;stroke-width:0.26458332"
         id="path25435"
         inkscape:connector-curvature="0" />
    </g>
    <g
       transform="translate(1.2875365,242.92348)"
       id="g16581"
       style="opacity:0.39899998">
      <path
         style="fill:#0000ff;fill-opacity:0.50196078;stroke:#091400;stroke-width:0.25;stroke-miterlimit:4;stroke-dasharray:none;stroke-dashoffset:0;stroke-opacity:1"
         d="m 18.166039,33.709663 h 10.810943 v 3.61483 H 18.166039 Z"
         id="rect16575"
         inkscape:connector-curvature="0" />
      <path
         style="fill:none;stroke:#000000;stroke-width:0.25;stroke-linecap:butt;stroke-linejoin:miter;stroke-miterlimit:4;stroke-dasharray:none;stroke-opacity:1"
         d="m 21.647593,33.740681 v 3.614247"
         id="path16577"
         inkscape:connector-curvature="0"
         sodipodi:nodetypes="cc" />
      <path
         sodipodi:nodetypes="cc"
         inkscape:connector-curvature="0"
         id="path16579"
         d="m 25.351759,33.740681 v 3.614247"
         style="fill:none;stroke:#000000;stroke-width:0.25;stroke-linecap:butt;stroke-linejoin:miter;stroke-miterlimit:4;stroke-dasharray:none;stroke-opacity:1" />
    </g>
    <g
       aria-label="L15"
       style="font-style:normal;font-variant:normal;font-weight:normal;font-stretch:normal;font-size:3.26319432px;line-height:1.25;font-family:Roboto;-inkscape-font-specification:Roboto;letter-spacing:0px;word-spacing:0px;opacity:0.39899998;fill:#333333;fill-opacity:1;stroke:none;stroke-width:0.26458332"
       id="text16585"
       transform="translate(42.692596,3.1478412)">
      <path
         d="m -19.840388,271.83972 h 1.099416 v 0.25015 h -1.406934 v -2.31992 h 0.307518 z"
         style="font-style:normal;font-variant:normal;font-weight:normal;font-stretch:normal;font-size:3.26319432px;font-family:Roboto;-inkscape-font-specification:Roboto;fill:#333333;fill-opacity:1;stroke-width:0.26458332"
         id="path25439"
         inkscape:connector-curvature="0" />
      <path
         d="m -17.49656,272.08987 h -0.296365 v -1.9646 l -0.594322,0.21829 v -0.26769 l 0.844479,-0.31708 h 0.04621 z"
         style="font-style:normal;font-variant:normal;font-weight:normal;font-stretch:normal;font-size:3.26319432px;font-family:Roboto;-inkscape-font-specification:Roboto;fill:#333333;fill-opacity:1;stroke-width:0.26458332"
         id="path25441"
         inkscape:connector-curvature="0" />
      <path
         d="m -16.494339,270.92672 0.117909,-1.15677 h 1.188644 v 0.27246 h -0.938487 l -0.07011,0.63256 q 0.170489,-0.10038 0.387185,-0.10038 0.317078,0 0.503501,0.21033 0.186423,0.20872 0.186423,0.56564 0,0.3585 -0.19439,0.56564 -0.192796,0.20554 -0.540148,0.20554 -0.307517,0 -0.501907,-0.17049 -0.194389,-0.17049 -0.221476,-0.47163 h 0.278837 q 0.02709,0.19917 0.141809,0.30114 0.114721,0.10038 0.302737,0.10038 0.205543,0 0.321859,-0.14021 0.117908,-0.14022 0.117908,-0.38719 0,-0.23263 -0.127469,-0.37284 -0.125875,-0.14181 -0.336198,-0.14181 -0.192796,0 -0.302738,0.0845 l -0.07807,0.0637 z"
         style="font-style:normal;font-variant:normal;font-weight:normal;font-stretch:normal;font-size:3.26319432px;font-family:Roboto;-inkscape-font-specification:Roboto;fill:#333333;fill-opacity:1;stroke-width:0.26458332"
         id="path25443"
         inkscape:connector-curvature="0" />
    </g>
    <g
       aria-label="b"
       style="font-style:normal;font-variant:normal;font-weight:normal;font-stretch:normal;font-size:5.28458023px;line-height:1.25;font-family:Roboto;-inkscape-font-specification:Roboto;letter-spacing:0px;word-spacing:0px;opacity:0.39899998;fill:#333333;fill-opacity:1;stroke:none;stroke-width:0.24771468"
       id="text16589"
       transform="translate(42.692596,3.1478412)">
      <path
         d="m -35.737773,261.91325 q 0,0.63993 -0.294162,1.02956 -0.294161,0.38706 -0.78959,0.38706 -0.528974,0 -0.817975,-0.37416 l -0.02322,0.32255 h -0.438661 v -3.96344 h 0.477366 v 1.47855 q 0.289001,-0.35867 0.797332,-0.35867 0.508331,0 0.797332,0.38447 0.291581,0.38448 0.291581,1.05279 z m -0.477367,-0.0542 q 0,-0.48769 -0.188367,-0.75347 -0.188366,-0.26577 -0.541876,-0.26577 -0.472206,0 -0.678635,0.43866 v 1.20761 q 0.219331,0.43866 0.683796,0.43866 0.343188,0 0.534135,-0.26578 0.190947,-0.26577 0.190947,-0.79991 z"
         style="font-style:normal;font-variant:normal;font-weight:normal;font-stretch:normal;font-size:5.28458023px;font-family:Roboto;-inkscape-font-specification:Roboto;fill:#333333;fill-opacity:1;stroke-width:0.24771468"
         id="path25446"
         inkscape:connector-curvature="0" />
    </g>
    <path
       style="opacity:1;fill:#0000ff;fill-opacity:0.50196078;stroke:#091400;stroke-width:0.25;stroke-miterlimit:4;stroke-dasharray:none;stroke-dashoffset:0;stroke-opacity:1"
       d="m 21.324096,288.36073 h 6.93652 v 3.61483 h -6.93652 z"
       id="rect16591"
       inkscape:connector-curvature="0" />
    <path
       sodipodi:nodetypes="cc"
       inkscape:connector-curvature="0"
       id="path16593"
       d="m 24.805652,288.39178 v 3.61424"
       style="opacity:1;fill:none;stroke:#000000;stroke-width:0.25;stroke-linecap:butt;stroke-linejoin:miter;stroke-miterlimit:4;stroke-dasharray:none;stroke-opacity:1" />
    <g
       aria-label="L25"
       style="font-style:normal;font-variant:normal;font-weight:normal;font-stretch:normal;font-size:3.26319432px;line-height:1.25;font-family:Roboto;-inkscape-font-specification:Roboto;letter-spacing:0px;word-spacing:0px;opacity:1;fill:#333333;fill-opacity:1;stroke:none;stroke-width:0.26458332"
       id="text16597"
       transform="translate(42.692596,3.1478412)">
      <path
         d="m -20.084258,283.63003 h 1.099416 v 0.25016 h -1.406933 v -2.31993 h 0.307517 z"
         style="font-style:normal;font-variant:normal;font-weight:normal;font-stretch:normal;font-size:3.26319432px;font-family:Roboto;-inkscape-font-specification:Roboto;fill:#333333;fill-opacity:1;stroke-width:0.26458332"
         id="path25450"
         inkscape:connector-curvature="0" />
      <path
         d="m -17.189129,283.88019 h -1.520062 v -0.21192 l 0.803052,-0.89228 q 0.178456,-0.20235 0.245377,-0.32823 0.06851,-0.12747 0.06851,-0.2629 0,-0.18165 -0.109941,-0.29796 -0.109942,-0.11632 -0.293178,-0.11632 -0.219883,0 -0.342572,0.12588 -0.121095,0.12428 -0.121095,0.34735 h -0.294771 q 0,-0.32026 0.205543,-0.51784 0.207137,-0.19758 0.552895,-0.19758 0.323451,0 0.511467,0.17049 0.188016,0.1689 0.188016,0.45092 0,0.34257 -0.436579,0.8158 l -0.621409,0.67399 h 1.164743 z"
         style="font-style:normal;font-variant:normal;font-weight:normal;font-stretch:normal;font-size:3.26319432px;font-family:Roboto;-inkscape-font-specification:Roboto;fill:#333333;fill-opacity:1;stroke-width:0.26458332"
         id="path25452"
         inkscape:connector-curvature="0" />
      <path
         d="m -16.738209,282.71704 0.117909,-1.15678 h 1.188644 v 0.27246 h -0.938487 l -0.07011,0.63257 q 0.170489,-0.10038 0.387186,-0.10038 0.317078,0 0.5035,0.21032 0.186423,0.20873 0.186423,0.56564 0,0.35851 -0.194389,0.56564 -0.192797,0.20555 -0.540148,0.20555 -0.307518,0 -0.501908,-0.17049 -0.194389,-0.17049 -0.221476,-0.47164 h 0.278837 q 0.02709,0.19917 0.141809,0.30115 0.114722,0.10038 0.302738,0.10038 0.205543,0 0.321858,-0.14022 0.117908,-0.14021 0.117908,-0.38718 0,-0.23263 -0.127468,-0.37285 -0.125876,-0.14181 -0.336199,-0.14181 -0.192796,0 -0.302737,0.0845 l -0.07808,0.0637 z"
         style="font-style:normal;font-variant:normal;font-weight:normal;font-stretch:normal;font-size:3.26319432px;font-family:Roboto;-inkscape-font-specification:Roboto;fill:#333333;fill-opacity:1;stroke-width:0.26458332"
         id="path25454"
         inkscape:connector-curvature="0" />
    </g>
    <path
       style="opacity:0.39899998;fill:#000000;fill-opacity:0;stroke:#333333;stroke-width:0.40000001;stroke-miterlimit:4;stroke-dasharray:none;stroke-dashoffset:0;stroke-opacity:1"
       d="m 46.937447,253.21872 h 42.561618 v 41.47673 H 46.937447 Z"
       id="rect16651"
       inkscape:connector-curvature="0" />
    <g
       aria-label="cancel"
       style="font-style:normal;font-variant:normal;font-weight:normal;font-stretch:normal;font-size:3.88055563px;line-height:1.25;font-family:Roboto;-inkscape-font-specification:Roboto;letter-spacing:0px;word-spacing:0px;opacity:0.39899998;fill:#333333;fill-opacity:1;stroke:none;stroke-width:0.18278494"
       id="text16655"
       transform="translate(42.692596,3.1478412)">
      <path
         d="m 7.0173423,260.24855 q 0.1875855,0 0.3278009,-0.11369 0.1402153,-0.11369 0.1553738,-0.28422 h 0.3315904 q -0.00947,0.17621 -0.1212674,0.33538 -0.1117933,0.15916 -0.2993788,0.2539 -0.1856906,0.0947 -0.3941189,0.0947 -0.4187514,0 -0.6669705,-0.27853 -0.2463243,-0.28044 -0.2463243,-0.76551 v -0.0587 q 0,-0.29938 0.1098985,-0.53244 0.1098986,-0.23306 0.3145373,-0.36191 0.2065334,-0.12885 0.4869642,-0.12885 0.3448541,0 0.5722304,0.20654 0.2292711,0.20653 0.2444295,0.53623 H 7.500517 q -0.015159,-0.19896 -0.1515842,-0.32591 -0.134531,-0.12885 -0.3334853,-0.12885 -0.2671671,0 -0.4149617,0.19327 -0.1458998,0.19138 -0.1458998,0.55518 v 0.0663 q 0,0.35433 0.1458998,0.5457 0.1458997,0.19138 0.4168565,0.19138 z"
         style="font-style:normal;font-variant:normal;font-weight:normal;font-stretch:normal;font-size:3.88055563px;font-family:Roboto;-inkscape-font-specification:Roboto;fill:#333333;fill-opacity:1;stroke-width:0.18278494"
         id="path25458"
         inkscape:connector-curvature="0" />
      <path
         d="m 9.4919544,260.49677 q -0.030317,-0.0606 -0.049265,-0.21601 -0.2444295,0.2539 -0.5835991,0.2539 -0.3031684,0 -0.4983331,-0.17053 -0.1932699,-0.17243 -0.1932699,-0.43581 0,-0.32022 0.2425348,-0.49643 0.2444295,-0.17812 0.6859185,-0.17812 H 9.437005 v -0.16105 q 0,-0.1838 -0.1098985,-0.2918 -0.1098986,-0.1099 -0.3240112,-0.1099 -0.1875855,0 -0.3145373,0.0947 -0.1269517,0.0947 -0.1269517,0.22927 H 8.2091731 q 0,-0.15348 0.1080037,-0.29559 0.1098986,-0.144 0.2955892,-0.22738 0.1875855,-0.0834 0.4111722,-0.0834 0.3543281,0 0.5551771,0.17811 0.2008491,0.17622 0.2084283,0.48697 v 0.94361 q 0,0.28233 0.072002,0.44907 v 0.0303 z M 8.91025,260.2296 q 0.1648479,0 0.3126425,-0.0853 0.1477946,-0.0853 0.2141126,-0.22169 v -0.42065 H 9.1622588 q -0.6442329,0 -0.6442329,0.37707 0,0.16485 0.1098985,0.25769 0.1098986,0.0928 0.2823256,0.0928 z"
         style="font-style:normal;font-variant:normal;font-weight:normal;font-stretch:normal;font-size:3.88055563px;font-family:Roboto;-inkscape-font-specification:Roboto;fill:#333333;fill-opacity:1;stroke-width:0.18278494"
         id="path25460"
         inkscape:connector-curvature="0" />
      <path
         d="m 10.672417,258.44659 0.01137,0.25769 q 0.234955,-0.29559 0.613916,-0.29559 0.649917,0 0.655601,0.73329 v 1.35479 h -0.350538 v -1.35668 q -0.0019,-0.2217 -0.10232,-0.3278 -0.09853,-0.10611 -0.308852,-0.10611 -0.170533,0 -0.299379,0.0909 -0.128847,0.091 -0.200849,0.23874 v 1.4609 h -0.350539 v -2.05018 z"
         style="font-style:normal;font-variant:normal;font-weight:normal;font-stretch:normal;font-size:3.88055563px;font-family:Roboto;-inkscape-font-specification:Roboto;fill:#333333;fill-opacity:1;stroke-width:0.18278494"
         id="path25462"
         inkscape:connector-curvature="0" />
      <path
         d="m 13.308087,260.24855 q 0.187586,0 0.327801,-0.11369 0.140215,-0.11369 0.155374,-0.28422 h 0.33159 q -0.0095,0.17621 -0.121267,0.33538 -0.111794,0.15916 -0.299379,0.2539 -0.185691,0.0947 -0.394119,0.0947 -0.418751,0 -0.66697,-0.27853 -0.246325,-0.28044 -0.246325,-0.76551 v -0.0587 q 0,-0.29938 0.109899,-0.53244 0.109898,-0.23306 0.314537,-0.36191 0.206534,-0.12885 0.486964,-0.12885 0.344854,0 0.572231,0.20654 0.229271,0.20653 0.244429,0.53623 h -0.33159 q -0.01516,-0.19896 -0.151584,-0.32591 -0.134531,-0.12885 -0.333486,-0.12885 -0.267167,0 -0.414961,0.19327 -0.1459,0.19138 -0.1459,0.55518 v 0.0663 q 0,0.35433 0.1459,0.5457 0.145899,0.19138 0.416856,0.19138 z"
         style="font-style:normal;font-variant:normal;font-weight:normal;font-stretch:normal;font-size:3.88055563px;font-family:Roboto;-inkscape-font-specification:Roboto;fill:#333333;fill-opacity:1;stroke-width:0.18278494"
         id="path25464"
         inkscape:connector-curvature="0" />
      <path
         d="m 15.367737,260.53466 q -0.416856,0 -0.678339,-0.27285 -0.261483,-0.27475 -0.261483,-0.73329 v -0.0644 q 0,-0.30507 0.115583,-0.54381 0.117478,-0.24064 0.325906,-0.37517 0.210323,-0.13643 0.454753,-0.13643 0.399803,0 0.621495,0.26338 0.221692,0.26338 0.221692,0.75413 v 0.1459 h -1.38889 q 0.0076,0.30317 0.176216,0.49076 0.170532,0.18569 0.432015,0.18569 0.185691,0 0.314537,-0.0758 0.128847,-0.0758 0.225482,-0.20085 l 0.214113,0.16675 q -0.257694,0.39601 -0.77308,0.39601 z m -0.04358,-1.83796 q -0.212218,0 -0.356223,0.15538 -0.144005,0.15348 -0.178112,0.43201 h 1.026983 v -0.0265 q -0.01516,-0.26716 -0.144005,-0.41306 -0.128846,-0.1478 -0.348643,-0.1478 z"
         style="font-style:normal;font-variant:normal;font-weight:normal;font-stretch:normal;font-size:3.88055563px;font-family:Roboto;-inkscape-font-specification:Roboto;fill:#333333;fill-opacity:1;stroke-width:0.18278494"
         id="path25466"
         inkscape:connector-curvature="0" />
      <path
         d="m 16.951792,260.49677 h -0.350539 v -2.91042 h 0.350539 z"
         style="font-style:normal;font-variant:normal;font-weight:normal;font-stretch:normal;font-size:3.88055563px;font-family:Roboto;-inkscape-font-specification:Roboto;fill:#333333;fill-opacity:1;stroke-width:0.18278494"
         id="path25468"
         inkscape:connector-curvature="0" />
    </g>
    <path
       style="opacity:0.39899998;fill:none;stroke:#333333;stroke-width:0.40000001;stroke-linecap:butt;stroke-linejoin:miter;stroke-miterlimit:4;stroke-dasharray:none;stroke-opacity:1"
       d="m 61.77283,259.45516 v 35.24029"
       id="path16657"
       inkscape:connector-curvature="0"
       sodipodi:nodetypes="cc" />
    <path
       style="opacity:0.39899998;fill:none;stroke:#333333;stroke-width:0.40000001;stroke-linecap:butt;stroke-linejoin:miter;stroke-miterlimit:4;stroke-dasharray:none;stroke-opacity:1"
       d="M 46.942313,265.3047 H 89.496345"
       id="path16661"
       inkscape:connector-curvature="0"
       sodipodi:nodetypes="cc" />
    <g
       aria-label="buy"
       style="font-style:normal;font-variant:normal;font-weight:normal;font-stretch:normal;font-size:3.36065459px;line-height:1.25;font-family:Roboto;-inkscape-font-specification:Roboto;letter-spacing:0px;word-spacing:0px;opacity:0.39899998;fill:#333333;fill-opacity:1;stroke:none;stroke-width:0.15829617"
       id="text16665"
       transform="translate(42.692596,3.1478412)">
      <path
         d="m 25.321499,265.20729 q 0,0.40695 -0.187068,0.65474 -0.187068,0.24614 -0.502129,0.24614 -0.336394,0 -0.520179,-0.23794 l -0.01477,0.20512 h -0.278961 v -2.52049 h 0.303575 v 0.94026 q 0.183786,-0.22809 0.507052,-0.22809 0.323266,0 0.507052,0.2445 0.185427,0.2445 0.185427,0.6695 z m -0.303575,-0.0345 q 0,-0.31014 -0.119789,-0.47916 -0.119789,-0.16901 -0.344598,-0.16901 -0.300293,0 -0.431569,0.27896 v 0.76796 q 0.13948,0.27896 0.434851,0.27896 0.218245,0 0.339675,-0.16902 0.12143,-0.16902 0.12143,-0.50869 z"
         style="font-style:normal;font-variant:normal;font-weight:normal;font-stretch:normal;font-size:3.36065459px;font-family:Roboto;-inkscape-font-specification:Roboto;fill:#333333;fill-opacity:1;stroke-width:0.15829617"
         id="path25471"
         inkscape:connector-curvature="0" />
      <path
         d="m 26.798349,265.89977 q -0.177222,0.2084 -0.52018,0.2084 -0.283883,0 -0.433209,-0.1641 -0.147685,-0.16573 -0.149326,-0.489 v -1.15522 h 0.303575 v 1.14702 q 0,0.40367 0.328189,0.40367 0.34788,0 0.462746,-0.25927 v -1.29142 h 0.303575 v 1.7755 h -0.288806 z"
         style="font-style:normal;font-variant:normal;font-weight:normal;font-stretch:normal;font-size:3.36065459px;font-family:Roboto;-inkscape-font-specification:Roboto;fill:#333333;fill-opacity:1;stroke-width:0.15829617"
         id="path25473"
         inkscape:connector-curvature="0" />
      <path
         d="m 28.134078,265.63065 0.413518,-1.3308 h 0.324907 l -0.713811,2.04954 q -0.165736,0.44305 -0.526743,0.44305 l -0.05743,-0.005 -0.113226,-0.0213 v -0.24615 l 0.08205,0.007 q 0.154248,0 0.239578,-0.0624 0.08697,-0.0623 0.142762,-0.22809 l 0.06728,-0.1805 -0.633404,-1.75581 h 0.331471 z"
         style="font-style:normal;font-variant:normal;font-weight:normal;font-stretch:normal;font-size:3.36065459px;font-family:Roboto;-inkscape-font-specification:Roboto;fill:#333333;fill-opacity:1;stroke-width:0.15829617"
         id="path25475"
         inkscape:connector-curvature="0" />
    </g>
    <g
       aria-label="sell"
       style="font-style:normal;font-variant:normal;font-weight:normal;font-stretch:normal;font-size:3.36065459px;line-height:1.25;font-family:Roboto;-inkscape-font-specification:Roboto;letter-spacing:0px;word-spacing:0px;opacity:0.39899998;fill:#333333;fill-opacity:1;stroke:none;stroke-width:0.15829617"
       id="text16669"
       transform="translate(42.692596,3.1478412)">
      <path
         d="m 38.615204,265.64303 q 0,-0.12307 -0.09353,-0.19035 -0.09189,-0.0689 -0.323266,-0.11815 -0.229732,-0.0492 -0.36593,-0.11814 -0.134558,-0.0689 -0.200196,-0.1641 -0.064,-0.0952 -0.064,-0.22645 0,-0.21824 0.183785,-0.36921 0.185427,-0.15097 0.472592,-0.15097 0.301934,0 0.489002,0.15589 0.188709,0.15589 0.188709,0.39875 h -0.305216 q 0,-0.12471 -0.106661,-0.21496 -0.105021,-0.0902 -0.265834,-0.0902 -0.165735,0 -0.259269,0.0722 -0.09353,0.0722 -0.09353,0.18871 0,0.10994 0.08697,0.16573 0.08697,0.0558 0.313421,0.10666 0.228091,0.0509 0.369212,0.12143 0.141122,0.0706 0.2084,0.17066 0.06892,0.0985 0.06892,0.24122 0,0.23794 -0.19035,0.38234 -0.190349,0.14276 -0.493924,0.14276 -0.213323,0 -0.377417,-0.0755 -0.164095,-0.0755 -0.257628,-0.21004 -0.09189,-0.1362 -0.09189,-0.29373 h 0.303574 q 0.0082,0.15261 0.12143,0.24286 0.114866,0.0886 0.301934,0.0886 0.172299,0 0.275679,-0.0689 0.10502,-0.0706 0.10502,-0.18707 z"
         style="font-style:normal;font-variant:normal;font-weight:normal;font-stretch:normal;font-size:3.36065459px;font-family:Roboto;-inkscape-font-specification:Roboto;fill:#333333;fill-opacity:1;stroke-width:0.15829617"
         id="path25478"
         inkscape:connector-curvature="0" />
      <path
         d="m 40.051031,266.1468 q -0.361008,0 -0.587458,-0.23629 -0.226451,-0.23794 -0.226451,-0.63505 v -0.0558 q 0,-0.26419 0.100098,-0.47095 0.101739,-0.2084 0.282242,-0.32491 0.182145,-0.11815 0.393827,-0.11815 0.346239,0 0.53823,0.22809 0.191991,0.22809 0.191991,0.6531 v 0.12635 h -1.202813 q 0.0066,0.26255 0.152608,0.42501 0.147685,0.16081 0.374135,0.16081 0.160813,0 0.272397,-0.0656 0.111584,-0.0656 0.195273,-0.17394 l 0.185426,0.1444 q -0.223168,0.34296 -0.669505,0.34296 z m -0.03774,-1.59171 q -0.183786,0 -0.308497,0.13455 -0.124712,0.13292 -0.154249,0.37414 h 0.889392 v -0.023 q -0.01313,-0.23138 -0.124712,-0.35773 -0.111584,-0.12799 -0.301934,-0.12799 z"
         style="font-style:normal;font-variant:normal;font-weight:normal;font-stretch:normal;font-size:3.36065459px;font-family:Roboto;-inkscape-font-specification:Roboto;fill:#333333;fill-opacity:1;stroke-width:0.15829617"
         id="path25480"
         inkscape:connector-curvature="0" />
      <path
         d="m 41.422861,266.11398 h -0.303575 v -2.52049 h 0.303575 z"
         style="font-style:normal;font-variant:normal;font-weight:normal;font-stretch:normal;font-size:3.36065459px;font-family:Roboto;-inkscape-font-specification:Roboto;fill:#333333;fill-opacity:1;stroke-width:0.15829617"
         id="path25482"
         inkscape:connector-curvature="0" />
      <path
         d="m 42.236769,266.11398 h -0.303575 v -2.52049 h 0.303575 z"
         style="font-style:normal;font-variant:normal;font-weight:normal;font-stretch:normal;font-size:3.36065459px;font-family:Roboto;-inkscape-font-specification:Roboto;fill:#333333;fill-opacity:1;stroke-width:0.15829617"
         id="path25484"
         inkscape:connector-curvature="0" />
    </g>
    <path
       style="opacity:0.39899998;fill:none;stroke:#333333;stroke-width:0.40000001;stroke-linecap:butt;stroke-linejoin:miter;stroke-miterlimit:4;stroke-dasharray:none;stroke-opacity:1"
       d="M 61.642409,270.96638 H 89.459238"
       id="path16671"
       inkscape:connector-curvature="0"
       sodipodi:nodetypes="cc" />
    <path
       style="opacity:0.39899998;fill:none;stroke:#333333;stroke-width:0.40000001;stroke-linecap:butt;stroke-linejoin:miter;stroke-miterlimit:4;stroke-dasharray:none;stroke-opacity:1"
       d="m 75.853037,265.3047 v 29.39075"
       id="path16673"
       inkscape:connector-curvature="0"
       sodipodi:nodetypes="cc" />
    <path
       style="opacity:0.39899998;fill:none;stroke:#333333;stroke-width:0.40000001;stroke-linecap:butt;stroke-linejoin:miter;stroke-miterlimit:4;stroke-dasharray:none;stroke-opacity:1"
       d="M 46.942313,259.35011 H 89.514488"
       id="path16685"
       inkscape:connector-curvature="0"
       sodipodi:nodetypes="cc" />
    <g
       aria-label="standing buys"
       style="font-style:normal;font-variant:normal;font-weight:normal;font-stretch:normal;font-size:3.70416665px;line-height:1.25;font-family:'Roboto Medium';-inkscape-font-specification:'Roboto Medium, ';letter-spacing:0px;word-spacing:0px;opacity:0.39899998;fill:#333333;fill-opacity:1;stroke:none;stroke-width:0.26458332"
       id="text16689"
       transform="translate(42.692596,3.1478412)">
      <path
         d="m -28.604773,253.65544 q 0,-0.11756 -0.09767,-0.17905 -0.09586,-0.0615 -0.320136,-0.10853 -0.224275,-0.047 -0.374395,-0.11937 -0.329179,-0.15916 -0.329179,-0.46121 0,-0.25321 0.213423,-0.42323 0.213424,-0.17002 0.542603,-0.17002 0.350883,0 0.566115,0.17364 0.217041,0.17363 0.217041,0.45036 h -0.439508 q 0,-0.12661 -0.09405,-0.20981 -0.09405,-0.085 -0.249597,-0.085 -0.144694,0 -0.236937,0.0669 -0.09043,0.0669 -0.09043,0.17906 0,0.10129 0.08501,0.15736 0.08501,0.0561 0.343649,0.11394 0.25864,0.0561 0.405143,0.13566 0.148311,0.0778 0.21885,0.1881 0.07235,0.11033 0.07235,0.26768 0,0.26407 -0.21885,0.42866 -0.21885,0.16278 -0.57335,0.16278 -0.240554,0 -0.428656,-0.0868 -0.188102,-0.0868 -0.293005,-0.23874 -0.104904,-0.15193 -0.104904,-0.32737 h 0.426848 q 0.009,0.15554 0.117564,0.24055 0.10852,0.0832 0.287579,0.0832 0.173633,0 0.264067,-0.0651 0.09043,-0.0669 0.09043,-0.17364 z"
         style="font-style:normal;font-variant:normal;font-weight:normal;font-stretch:normal;font-size:3.70416665px;font-family:'Roboto Medium';-inkscape-font-specification:'Roboto Medium, ';fill:#333333;fill-opacity:1;stroke-width:0.26458332"
         id="path25487"
         inkscape:connector-curvature="0" />
      <path
         d="m -27.241032,251.75453 v 0.47568 h 0.345457 v 0.32556 h -0.345457 v 1.09244 q 0,0.11214 0.04341,0.16278 0.04522,0.0488 0.159163,0.0488 0.07596,0 0.153737,-0.0181 v 0.34003 q -0.15012,0.0416 -0.289388,0.0416 -0.506429,0 -0.506429,-0.55888 v -1.10872 h -0.321944 v -0.32556 h 0.321944 v -0.47568 z"
         style="font-style:normal;font-variant:normal;font-weight:normal;font-stretch:normal;font-size:3.70416665px;font-family:'Roboto Medium';-inkscape-font-specification:'Roboto Medium, ';fill:#333333;fill-opacity:1;stroke-width:0.26458332"
         id="path25489"
         inkscape:connector-curvature="0" />
      <path
         d="m -25.392566,254.18719 q -0.02894,-0.0561 -0.05064,-0.18267 -0.209807,0.21885 -0.513664,0.21885 -0.294814,0 -0.481108,-0.16821 -0.186293,-0.16821 -0.186293,-0.41599 0,-0.3129 0.23151,-0.4793 0.233319,-0.16821 0.665593,-0.16821 h 0.269492 v -0.12842 q 0,-0.15192 -0.08501,-0.24236 -0.08501,-0.0922 -0.25864,-0.0922 -0.15012,0 -0.24598,0.076 -0.09586,0.0742 -0.09586,0.18991 h -0.439508 q 0,-0.16097 0.106712,-0.30024 0.106712,-0.14107 0.289388,-0.22065 0.184485,-0.0796 0.410569,-0.0796 0.343649,0 0.548029,0.17364 0.20438,0.17182 0.209806,0.48472 v 0.88264 q 0,0.26406 0.07416,0.42142 v 0.0307 z m -0.482916,-0.31651 q 0.130225,0 0.244171,-0.0633 0.115756,-0.0633 0.173633,-0.17001 v -0.36897 h -0.236936 q -0.244171,0 -0.367161,0.085 -0.12299,0.085 -0.12299,0.24055 0,0.12661 0.0832,0.20257 0.08501,0.0742 0.226084,0.0742 z"
         style="font-style:normal;font-variant:normal;font-weight:normal;font-stretch:normal;font-size:3.70416665px;font-family:'Roboto Medium';-inkscape-font-specification:'Roboto Medium, ';fill:#333333;fill-opacity:1;stroke-width:0.26458332"
         id="path25491"
         inkscape:connector-curvature="0" />
      <path
         d="m -24.150006,252.23021 0.01266,0.22608 q 0.217041,-0.26226 0.569733,-0.26226 0.611332,0 0.622184,0.69996 v 1.2932 h -0.439508 v -1.26788 q 0,-0.18629 -0.08139,-0.27492 -0.07958,-0.0904 -0.262258,-0.0904 -0.265876,0 -0.3961,0.24055 v 1.39268 h -0.439508 v -1.95698 z"
         style="font-style:normal;font-variant:normal;font-weight:normal;font-stretch:normal;font-size:3.70416665px;font-family:'Roboto Medium';-inkscape-font-specification:'Roboto Medium, ';fill:#333333;fill-opacity:1;stroke-width:0.26458332"
         id="path25493"
         inkscape:connector-curvature="0" />
      <path
         d="m -22.578267,253.19423 q 0,-0.45217 0.209806,-0.72528 0.209807,-0.27492 0.562498,-0.27492 0.311092,0 0.502812,0.21705 v -1.00201 h 0.439508 v 2.77812 h -0.397908 l -0.02171,-0.20257 q -0.197145,0.23875 -0.526324,0.23875 -0.343648,0 -0.557072,-0.27673 -0.211615,-0.27673 -0.211615,-0.75241 z m 0.439508,0.038 q 0,0.29844 0.113947,0.46664 0.115755,0.1664 0.32737,0.1664 0.269492,0 0.394291,-0.24055 v -0.83561 q -0.121181,-0.23513 -0.390674,-0.23513 -0.213424,0 -0.329179,0.17002 -0.115755,0.1682 -0.115755,0.50823 z"
         style="font-style:normal;font-variant:normal;font-weight:normal;font-stretch:normal;font-size:3.70416665px;font-family:'Roboto Medium';-inkscape-font-specification:'Roboto Medium, ';fill:#333333;fill-opacity:1;stroke-width:0.26458332"
         id="path25495"
         inkscape:connector-curvature="0" />
      <path
         d="m -19.937602,254.18719 h -0.439508 v -1.95698 h 0.439508 z m -0.466638,-2.46522 q 0,-0.10129 0.0633,-0.16821 0.06511,-0.0669 0.184485,-0.0669 0.119372,0 0.184484,0.0669 0.06511,0.0669 0.06511,0.16821 0,0.0995 -0.06511,0.1664 -0.06511,0.0651 -0.184484,0.0651 -0.119373,0 -0.184485,-0.0651 -0.0633,-0.0669 -0.0633,-0.1664 z"
         style="font-style:normal;font-variant:normal;font-weight:normal;font-stretch:normal;font-size:3.70416665px;font-family:'Roboto Medium';-inkscape-font-specification:'Roboto Medium, ';fill:#333333;fill-opacity:1;stroke-width:0.26458332"
         id="path25497"
         inkscape:connector-curvature="0" />
      <path
         d="m -19.049542,252.23021 0.01266,0.22608 q 0.217041,-0.26226 0.569733,-0.26226 0.611332,0 0.622184,0.69996 v 1.2932 h -0.439508 v -1.26788 q 0,-0.18629 -0.08139,-0.27492 -0.07958,-0.0904 -0.262257,-0.0904 -0.265876,0 -0.3961,0.24055 v 1.39268 h -0.439508 v -1.95698 z"
         style="font-style:normal;font-variant:normal;font-weight:normal;font-stretch:normal;font-size:3.70416665px;font-family:'Roboto Medium';-inkscape-font-specification:'Roboto Medium, ';fill:#333333;fill-opacity:1;stroke-width:0.26458332"
         id="path25499"
         inkscape:connector-curvature="0" />
      <path
         d="m -17.472377,253.19423 q 0,-0.45578 0.213424,-0.72709 0.215232,-0.27311 0.569732,-0.27311 0.334605,0 0.526325,0.23332 l 0.01989,-0.19714 h 0.3961 v 1.8973 q 0,0.38525 -0.240554,0.60771 -0.238745,0.22247 -0.645697,0.22247 -0.215232,0 -0.421421,-0.0904 -0.20438,-0.0886 -0.311092,-0.23332 l 0.207997,-0.26407 q 0.202572,0.24055 0.499195,0.24055 0.218849,0 0.345457,-0.11937 0.126607,-0.11756 0.126607,-0.34726 v -0.13204 q -0.189911,0.21162 -0.506429,0.21162 -0.343648,0 -0.562498,-0.27311 -0.217041,-0.27311 -0.217041,-0.75603 z m 0.437699,0.038 q 0,0.29482 0.119373,0.46483 0.121181,0.16821 0.334605,0.16821 0.265875,0 0.394291,-0.22789 v -0.86093 q -0.124799,-0.22247 -0.390674,-0.22247 -0.217041,0 -0.338222,0.17183 -0.119373,0.17182 -0.119373,0.50642 z"
         style="font-style:normal;font-variant:normal;font-weight:normal;font-stretch:normal;font-size:3.70416665px;font-family:'Roboto Medium';-inkscape-font-specification:'Roboto Medium, ';fill:#333333;fill-opacity:1;stroke-width:0.26458332"
         id="path25501"
         inkscape:connector-curvature="0" />
      <path
         d="m -12.654066,253.2286 q 0,0.45578 -0.204381,0.72528 -0.202571,0.26949 -0.55888,0.26949 -0.343648,0 -0.535368,-0.24779 l -0.0217,0.21161 h -0.397909 v -2.77812 h 0.439508 v 1.00924 q 0.189911,-0.22428 0.511855,-0.22428 0.358118,0 0.562498,0.26588 0.204381,0.26588 0.204381,0.74337 z m -0.439508,-0.038 q 0,-0.31832 -0.112138,-0.47749 -0.112138,-0.15916 -0.325562,-0.15916 -0.28577,0 -0.401526,0.2496 v 0.80667 q 0.117564,0.25502 0.405144,0.25502 0.206189,0 0.318326,-0.15374 0.112138,-0.15373 0.115756,-0.46483 z"
         style="font-style:normal;font-variant:normal;font-weight:normal;font-stretch:normal;font-size:3.70416665px;font-family:'Roboto Medium';-inkscape-font-specification:'Roboto Medium, ';fill:#333333;fill-opacity:1;stroke-width:0.26458332"
         id="path25503"
         inkscape:connector-curvature="0" />
      <path
         d="m -11.102222,253.99548 q -0.193529,0.22789 -0.549838,0.22789 -0.318327,0 -0.482916,-0.1863 -0.162781,-0.18629 -0.162781,-0.53898 v -1.26788 h 0.439508 v 1.26245 q 0,0.37259 0.309284,0.37259 0.320135,0 0.432273,-0.2297 v -1.40534 h 0.439508 v 1.95698 h -0.414186 z"
         style="font-style:normal;font-variant:normal;font-weight:normal;font-stretch:normal;font-size:3.70416665px;font-family:'Roboto Medium';-inkscape-font-specification:'Roboto Medium, ';fill:#333333;fill-opacity:1;stroke-width:0.26458332"
         id="path25505"
         inkscape:connector-curvature="0" />
      <path
         d="m -9.5413358,253.55778 0.3979085,-1.32757 h 0.4684469 l -0.7777303,2.25361 q -0.1790589,0.49377 -0.6077153,0.49377 -0.09586,0 -0.211615,-0.0326 V 254.605 l 0.0832,0.005 q 0.166399,0 0.2495977,-0.0615 0.085008,-0.0597 0.1338419,-0.20257 l 0.063304,-0.16821 -0.6872966,-1.94794 h 0.4738729 z"
         style="font-style:normal;font-variant:normal;font-weight:normal;font-stretch:normal;font-size:3.70416665px;font-family:'Roboto Medium';-inkscape-font-specification:'Roboto Medium, ';fill:#333333;fill-opacity:1;stroke-width:0.26458332"
         id="path25507"
         inkscape:connector-curvature="0" />
      <path
         d="m -7.3275186,253.65544 q 0,-0.11756 -0.097668,-0.17905 -0.09586,-0.0615 -0.3201354,-0.10853 -0.2242758,-0.047 -0.3743958,-0.11937 -0.3291789,-0.15916 -0.3291789,-0.46121 0,-0.25321 0.2134237,-0.42323 0.2134237,-0.17002 0.5426025,-0.17002 0.350883,0 0.5661153,0.17364 0.2170411,0.17363 0.2170411,0.45036 h -0.4395081 q 0,-0.12661 -0.094051,-0.20981 -0.094051,-0.085 -0.2495972,-0.085 -0.144694,0 -0.2369364,0.0669 -0.090434,0.0669 -0.090434,0.17906 0,0.10129 0.085008,0.15736 0.085008,0.0561 0.3436482,0.11394 0.2586406,0.0561 0.4051433,0.13566 0.1483113,0.0778 0.2188497,0.1881 0.072347,0.11033 0.072347,0.26768 0,0.26407 -0.2188497,0.42866 -0.2188497,0.16278 -0.57335,0.16278 -0.2405538,0 -0.428656,-0.0868 -0.1881023,-0.0868 -0.2930054,-0.23874 -0.1049032,-0.15193 -0.1049032,-0.32737 h 0.4268474 q 0.00904,0.15554 0.1175638,0.24055 0.1085205,0.0832 0.2875794,0.0832 0.1736328,0 0.2640665,-0.0651 0.090434,-0.0669 0.090434,-0.17364 z"
         style="font-style:normal;font-variant:normal;font-weight:normal;font-stretch:normal;font-size:3.70416665px;font-family:'Roboto Medium';-inkscape-font-specification:'Roboto Medium, ';fill:#333333;fill-opacity:1;stroke-width:0.26458332"
         id="path25509"
         inkscape:connector-curvature="0" />
    </g>
    <path
       style="opacity:0.39899998;fill:none;stroke:#333333;stroke-width:0.40000001;stroke-linecap:butt;stroke-linejoin:miter;stroke-miterlimit:4;stroke-dasharray:none;stroke-opacity:1"
       d="M 9.6763855,253.17577 H 39.583096"
       id="path16691"
       inkscape:connector-curvature="0"
       sodipodi:nodetypes="cc" />
    <g
       aria-label="0"
       style="font-style:normal;font-variant:normal;font-weight:normal;font-stretch:normal;font-size:2.79941797px;line-height:1.25;font-family:Roboto;-inkscape-font-specification:Roboto;letter-spacing:0px;word-spacing:0px;opacity:0.39899998;fill:#333333;fill-opacity:1;stroke:none;stroke-width:0.1312227"
       id="text16695"
       transform="translate(42.692596,3.1478412)">
      <path
         d="m -34.215296,262.4537 q 0,0.44425 -0.151726,0.66022 -0.151726,0.21597 -0.474315,0.21597 -0.318489,0 -0.471582,-0.2105 -0.153093,-0.21187 -0.158561,-0.63151 v -0.33763 q 0,-0.43877 0.151727,-0.65201 0.151726,-0.21324 0.475682,-0.21324 0.321222,0 0.472948,0.2064 0.151727,0.20504 0.155827,0.63425 z m -0.252877,-0.34582 q 0,-0.32122 -0.09022,-0.46748 -0.09022,-0.14763 -0.285683,-0.14763 -0.1941,0 -0.282949,0.14626 -0.08885,0.14626 -0.09158,0.44971 v 0.4046 q 0,0.32259 0.09295,0.47705 0.09432,0.1531 0.284316,0.1531 0.187266,0 0.277481,-0.14489 0.09158,-0.1449 0.09568,-0.45655 z"
         style="font-style:normal;font-variant:normal;font-weight:normal;font-stretch:normal;font-size:2.79941797px;font-family:Roboto;-inkscape-font-specification:Roboto;fill:#333333;fill-opacity:1;stroke-width:0.1312227"
         id="path25512"
         inkscape:connector-curvature="0" />
    </g>
    <g
       aria-label="b"
       style="font-style:normal;font-variant:normal;font-weight:normal;font-stretch:normal;font-size:5.28458023px;line-height:1.25;font-family:Roboto;-inkscape-font-specification:Roboto;letter-spacing:0px;word-spacing:0px;opacity:0.39899998;fill:#333333;fill-opacity:1;stroke:none;stroke-width:0.24771468"
       id="text16699"
       transform="translate(42.692596,3.1478412)">
      <path
         d="m -35.737773,274.13761 q 0,0.63993 -0.294162,1.02957 -0.294161,0.38705 -0.78959,0.38705 -0.528974,0 -0.817975,-0.37415 l -0.02322,0.32254 h -0.438661 v -3.96343 h 0.477366 v 1.47855 q 0.289001,-0.35867 0.797332,-0.35867 0.508331,0 0.797332,0.38447 0.291581,0.38447 0.291581,1.05279 z m -0.477367,-0.0542 q 0,-0.48769 -0.188367,-0.75347 -0.188366,-0.26578 -0.541876,-0.26578 -0.472206,0 -0.678635,0.43866 v 1.20761 q 0.219331,0.43866 0.683796,0.43866 0.343188,0 0.534135,-0.26577 0.190947,-0.26578 0.190947,-0.79991 z"
         style="font-style:normal;font-variant:normal;font-weight:normal;font-stretch:normal;font-size:5.28458023px;font-family:Roboto;-inkscape-font-specification:Roboto;fill:#333333;fill-opacity:1;stroke-width:0.24771468"
         id="path25515"
         inkscape:connector-curvature="0" />
    </g>
    <g
       aria-label="1"
       style="font-style:normal;font-variant:normal;font-weight:normal;font-stretch:normal;font-size:2.79941797px;line-height:1.25;font-family:Roboto;-inkscape-font-specification:Roboto;letter-spacing:0px;word-spacing:0px;opacity:0.39899998;fill:#333333;fill-opacity:1;stroke:none;stroke-width:0.1312227"
       id="text16703"
       transform="translate(42.692596,3.1478412)">
      <path
         d="m -34.632201,275.52692 h -0.254244 v -1.6854 l -0.509855,0.18727 v -0.22964 l 0.724459,-0.27201 h 0.03964 z"
         style="font-style:normal;font-variant:normal;font-weight:normal;font-stretch:normal;font-size:2.79941797px;font-family:Roboto;-inkscape-font-specification:Roboto;fill:#333333;fill-opacity:1;stroke-width:0.1312227"
         id="path25518"
         inkscape:connector-curvature="0" />
    </g>
    <g
       aria-label="b"
       style="font-style:normal;font-variant:normal;font-weight:normal;font-stretch:normal;font-size:5.28458023px;line-height:1.25;font-family:Roboto;-inkscape-font-specification:Roboto;letter-spacing:0px;word-spacing:0px;opacity:0.39899998;fill:#333333;fill-opacity:1;stroke:none;stroke-width:0.24771468"
       id="text16707"
       transform="translate(42.692596,3.1478412)">
      <path
         d="m -35.737773,285.62934 q 0,0.63993 -0.294162,1.02957 -0.294161,0.38705 -0.78959,0.38705 -0.528974,0 -0.817975,-0.37415 l -0.02322,0.32254 h -0.438661 v -3.96343 h 0.477366 v 1.47855 q 0.289001,-0.35867 0.797332,-0.35867 0.508331,0 0.797332,0.38447 0.291581,0.38447 0.291581,1.05279 z m -0.477367,-0.0542 q 0,-0.48769 -0.188367,-0.75347 -0.188366,-0.26578 -0.541876,-0.26578 -0.472206,0 -0.678635,0.43866 v 1.20761 q 0.219331,0.43866 0.683796,0.43866 0.343188,0 0.534135,-0.26577 0.190947,-0.26578 0.190947,-0.79991 z"
         style="font-style:normal;font-variant:normal;font-weight:normal;font-stretch:normal;font-size:5.28458023px;font-family:Roboto;-inkscape-font-specification:Roboto;fill:#333333;fill-opacity:1;stroke-width:0.24771468"
         id="path25521"
         inkscape:connector-curvature="0" />
    </g>
    <g
       aria-label="2"
       style="font-style:normal;font-variant:normal;font-weight:normal;font-stretch:normal;font-size:2.79941797px;line-height:1.25;font-family:Roboto;-inkscape-font-specification:Roboto;letter-spacing:0px;word-spacing:0px;opacity:0.39899998;fill:#333333;fill-opacity:1;stroke:none;stroke-width:0.1312227"
       id="text16711"
       transform="translate(42.692596,3.1478412)">
      <path
         d="m -34.159252,287.01865 h -1.304026 v -0.1818 l 0.688919,-0.76547 q 0.153093,-0.17359 0.210503,-0.28158 0.05878,-0.10935 0.05878,-0.22554 0,-0.15583 -0.09432,-0.25561 -0.09432,-0.0998 -0.251511,-0.0998 -0.188632,0 -0.293884,0.10798 -0.103884,0.10662 -0.103884,0.29799 h -0.252878 q 0,-0.27475 0.176331,-0.44425 0.177697,-0.16949 0.474315,-0.16949 0.277482,0 0.438776,0.14626 0.161295,0.14489 0.161295,0.38683 0,0.29388 -0.374532,0.69985 l -0.533092,0.5782 h 0.999207 z"
         style="font-style:normal;font-variant:normal;font-weight:normal;font-stretch:normal;font-size:2.79941797px;font-family:Roboto;-inkscape-font-specification:Roboto;fill:#333333;fill-opacity:1;stroke-width:0.1312227"
         id="path25524"
         inkscape:connector-curvature="0" />
    </g>
    <path
       style="opacity:0.39899998;fill:none;stroke:#333333;stroke-width:0.40000001;stroke-linecap:butt;stroke-linejoin:miter;stroke-miterlimit:4;stroke-dasharray:none;stroke-opacity:1"
       d="m 9.8849595,252.97561 v 41.29998"
       id="path16713"
       inkscape:connector-curvature="0"
       sodipodi:nodetypes="cc" />
    <path
       style="opacity:0.39899998;fill:none;stroke:#333333;stroke-width:0.40000001;stroke-linecap:butt;stroke-linejoin:miter;stroke-miterlimit:4;stroke-dasharray:none;stroke-opacity:1"
       d="m 39.39397,259.08839 -3e-6,-6.11139"
       id="path16715"
       inkscape:connector-curvature="0"
       sodipodi:nodetypes="cc" />
    <g
       aria-label="C25"
       style="font-style:normal;font-variant:normal;font-weight:normal;font-stretch:normal;font-size:4.19308472px;line-height:1.25;font-family:Roboto;-inkscape-font-specification:Roboto;letter-spacing:0px;word-spacing:0px;opacity:1;fill:#d80000;fill-opacity:1;stroke:none;stroke-width:0.10482711"
       id="text16759"
       transform="translate(42.692596,3.1478412)">
      <path
         d="m 10.529062,267.37014 q -0.05528,0.47295 -0.350106,0.73092 -0.2927791,0.25593 -0.7800615,0.25593 -0.5282304,0 -0.8476255,-0.37877 -0.3173477,-0.37877 -0.3173477,-1.01347 v -0.28663 q 0,-0.41563 0.1474131,-0.73093 0.1494606,-0.3153 0.4217654,-0.48318 0.2723048,-0.16994 0.6306006,-0.16994 0.4749979,0 0.7616346,0.26616 0.286637,0.26412 0.333727,0.73297 h -0.395149 q -0.05119,-0.35624 -0.2231673,-0.51594 -0.1699346,-0.1597 -0.4770453,-0.1597 -0.3767224,0 -0.5916999,0.27845 -0.2129301,0.27844 -0.2129301,0.79234 v 0.28869 q 0,0.48523 0.2026931,0.77187 0.202693,0.28664 0.567131,0.28664 0.3275848,0 0.5016142,-0.14742 0.1760763,-0.14946 0.2334043,-0.51799 z"
         style="font-style:normal;font-variant:normal;font-weight:normal;font-stretch:normal;font-family:Roboto;-inkscape-font-specification:Roboto;fill:#d80000;fill-opacity:1;stroke-width:0.10482711"
         id="path25527"
         inkscape:connector-curvature="0" />
      <path
         d="m 12.918383,268.31604 h -1.953224 v -0.2723 l 1.031892,-1.14655 q 0.229309,-0.26002 0.3153,-0.42177 0.08804,-0.16379 0.08804,-0.33782 0,-0.2334 -0.141271,-0.38286 -0.141271,-0.14946 -0.376723,-0.14946 -0.282541,0 -0.440192,0.16174 -0.155602,0.1597 -0.155602,0.44634 h -0.37877 q 0,-0.41153 0.264115,-0.66541 0.266163,-0.25388 0.710449,-0.25388 0.415624,0 0.657217,0.21907 0.241594,0.21703 0.241594,0.57942 0,0.44019 -0.560989,1.04827 l -0.798488,0.86605 h 1.496653 z"
         style="font-style:normal;font-variant:normal;font-weight:normal;font-stretch:normal;font-family:Roboto;-inkscape-font-specification:Roboto;fill:#d80000;fill-opacity:1;stroke-width:0.10482711"
         id="path25529"
         inkscape:connector-curvature="0" />
      <path
         d="m 13.497799,266.82143 0.151508,-1.48641 h 1.527364 v 0.35011 h -1.205922 l -0.09009,0.81281 q 0.219072,-0.12898 0.497519,-0.12898 0.407433,0 0.64698,0.27026 0.239546,0.26821 0.239546,0.72682 0,0.46067 -0.249783,0.72683 -0.247736,0.26412 -0.69407,0.26412 -0.395149,0 -0.644933,-0.21907 -0.249783,-0.21908 -0.284589,-0.60604 h 0.358296 q 0.03481,0.25593 0.182219,0.38696 0.147413,0.12899 0.389007,0.12899 0.264115,0 0.413575,-0.18017 0.151508,-0.18017 0.151508,-0.49752 0,-0.29892 -0.163792,-0.47909 -0.161745,-0.18222 -0.432002,-0.18222 -0.247736,0 -0.389007,0.10851 l -0.100323,0.0819 z"
         style="font-style:normal;font-variant:normal;font-weight:normal;font-stretch:normal;font-family:Roboto;-inkscape-font-specification:Roboto;fill:#d80000;fill-opacity:1;stroke-width:0.10482711"
         id="path25531"
         inkscape:connector-curvature="0" />
    </g>
    <g
       id="g16767"
       transform="translate(36.010248,126.61379)"
       style="opacity:0.39899998">
      <path
         style="fill:#ffcc00;fill-opacity:0.50196078;stroke:#091400;stroke-width:0.25;stroke-miterlimit:4;stroke-dasharray:none;stroke-dashoffset:0;stroke-opacity:1"
         d="M 29.360083,150.05371 H 36.2966 v 6.58585 h -6.936517 z"
         id="rect16761"
         inkscape:connector-curvature="0" />
      <path
         sodipodi:nodetypes="cc"
         inkscape:connector-curvature="0"
         id="path16763"
         d="m 32.841641,150.08473 v 6.56359"
         style="fill:none;stroke:#000000;stroke-width:0.25;stroke-linecap:butt;stroke-linejoin:miter;stroke-miterlimit:4;stroke-dasharray:none;stroke-opacity:1" />
      <path
         style="fill:none;stroke:#000000;stroke-width:0.25;stroke-linecap:butt;stroke-linejoin:miter;stroke-miterlimit:4;stroke-dasharray:none;stroke-opacity:1"
         d="M 36.329453,153.26024 H 29.223711"
         id="path16765"
         inkscape:connector-curvature="0"
         sodipodi:nodetypes="cc" />
    </g>
    <path
       inkscape:connector-curvature="0"
       id="path2451"
       d="m 29.007881,285.48827 -8.130811,8.14015"
       style="fill:none;stroke:#d80000;stroke-width:0.86500001;stroke-linecap:round;stroke-linejoin:miter;stroke-miterlimit:4;stroke-dasharray:none;stroke-opacity:1"
       sodipodi:nodetypes="cc" />
    <path
       sodipodi:nodetypes="cc"
       style="fill:none;stroke:#d80000;stroke-width:0.86500001;stroke-linecap:round;stroke-linejoin:miter;stroke-miterlimit:4;stroke-dasharray:none;stroke-opacity:1"
       d="m 28.998522,292.67446 -8.595705,-6.9486"
       id="path2921"
       inkscape:connector-curvature="0" />
    <g
       id="g3021"
       transform="translate(-94.216614,158.41534)"
       style="opacity:0.40900005">
      <path
         style="fill:#ffcc00;fill-opacity:0.50196078;stroke:#091400;stroke-width:0.25;stroke-miterlimit:4;stroke-dasharray:none;stroke-dashoffset:0;stroke-opacity:1"
         d="m 171.55444,118.23267 h 10.81095 v 3.61483 h -10.81095 z"
         id="rect3015"
         inkscape:connector-curvature="0" />
      <path
         sodipodi:nodetypes="cc"
         inkscape:connector-curvature="0"
         id="path3017"
         d="m 175.03599,118.26369 v 3.61425"
         style="fill:none;stroke:#000000;stroke-width:0.25;stroke-linecap:butt;stroke-linejoin:miter;stroke-miterlimit:4;stroke-dasharray:none;stroke-opacity:1" />
      <path
         style="fill:none;stroke:#000000;stroke-width:0.25;stroke-linecap:butt;stroke-linejoin:miter;stroke-miterlimit:4;stroke-dasharray:none;stroke-opacity:1"
         d="m 178.74016,118.26369 v 3.61425"
         id="path3019"
         inkscape:connector-curvature="0"
         sodipodi:nodetypes="cc" />
    </g>
    <g
       id="g3029"
       transform="translate(49.848739,139.62275)"
       inkscape:transform-center-x="-10.363333"
       inkscape:transform-center-y="8.331907"
       style="opacity:0.40900005">
      <path
         style="fill:#ffcc00;fill-opacity:0.50196078;stroke:#091400;stroke-width:0.25;stroke-miterlimit:4;stroke-dasharray:none;stroke-dashoffset:0;stroke-opacity:1"
         d="M 29.360083,145.48926 H 36.2966 v 6.58585 h -6.936517 z"
         id="rect3023"
         inkscape:connector-curvature="0" />
      <path
         sodipodi:nodetypes="cc"
         inkscape:connector-curvature="0"
         id="path3025"
         d="m 32.841641,145.52028 v 6.56359"
         style="fill:none;stroke:#000000;stroke-width:0.25;stroke-linecap:butt;stroke-linejoin:miter;stroke-miterlimit:4;stroke-dasharray:none;stroke-opacity:1" />
      <path
         style="fill:none;stroke:#000000;stroke-width:0.25;stroke-linecap:butt;stroke-linejoin:miter;stroke-miterlimit:4;stroke-dasharray:none;stroke-opacity:1"
         d="M 36.329453,148.69579 H 29.223711"
         id="path3027"
         inkscape:connector-curvature="0"
         sodipodi:nodetypes="cc" />
    </g>
    <g
       aria-label="takers"
       style="font-style:normal;font-variant:normal;font-weight:normal;font-stretch:normal;font-size:3.88055563px;line-height:1.25;font-family:Roboto;-inkscape-font-specification:Roboto;letter-spacing:0px;word-spacing:0px;opacity:0.41199999;fill:#333333;fill-opacity:1;stroke:none;stroke-width:0.18278494"
       id="text16058-27"
       transform="translate(42.692596,3.1478412)">
      <path
         d="m 28.740311,257.89723 v 0.49644 h 0.38275 v 0.27096 h -0.38275 v 1.27141 q 0,0.12316 0.05116,0.18569 0.05116,0.0606 0.174321,0.0606 0.06063,0 0.166743,-0.0227 v 0.28422 q -0.138321,0.0379 -0.269062,0.0379 -0.234955,0 -0.354328,-0.14211 -0.119373,-0.14211 -0.119373,-0.40359 v -1.27141 h -0.373276 v -0.27096 h 0.373276 v -0.49644 z"
         style="font-style:normal;font-variant:normal;font-weight:normal;font-stretch:normal;font-size:3.88055563px;font-family:Roboto;-inkscape-font-specification:Roboto;fill:#333333;fill-opacity:1;stroke-width:0.18278494"
         id="path25537"
         inkscape:connector-curvature="0" />
      <path
         d="m 30.796172,260.44385 q -0.03032,-0.0606 -0.04926,-0.21601 -0.24443,0.2539 -0.583599,0.2539 -0.303169,0 -0.498333,-0.17053 -0.19327,-0.17243 -0.19327,-0.4358 0,-0.32022 0.242534,-0.49644 0.24443,-0.17811 0.685919,-0.17811 h 0.341064 v -0.16106 q 0,-0.1838 -0.109898,-0.2918 -0.109899,-0.1099 -0.324011,-0.1099 -0.187586,0 -0.314538,0.0947 -0.126951,0.0947 -0.126951,0.22927 H 29.51339 q 0,-0.15348 0.108004,-0.29559 0.109899,-0.144 0.295589,-0.22737 0.187586,-0.0834 0.411172,-0.0834 0.354328,0 0.555178,0.17811 0.200849,0.17621 0.208428,0.48696 v 0.94361 q 0,0.28233 0.072,0.44907 v 0.0303 z m -0.581705,-0.26717 q 0.164848,0 0.312643,-0.0853 0.147794,-0.0853 0.214112,-0.22169 v -0.42064 h -0.274746 q -0.644233,0 -0.644233,0.37706 0,0.16485 0.109899,0.2577 0.109898,0.0928 0.282325,0.0928 z"
         style="font-style:normal;font-variant:normal;font-weight:normal;font-stretch:normal;font-size:3.88055563px;font-family:Roboto;-inkscape-font-specification:Roboto;fill:#333333;fill-opacity:1;stroke-width:0.18278494"
         id="path25539"
         inkscape:connector-curvature="0" />
      <path
         d="m 32.217273,259.49455 -0.219797,0.22927 v 0.72003 h -0.350538 v -2.91042 h 0.350538 v 1.76027 l 0.187586,-0.22548 0.638548,-0.67455 h 0.426331 l -0.797712,0.85645 0.890557,1.19373 h -0.411172 z"
         style="font-style:normal;font-variant:normal;font-weight:normal;font-stretch:normal;font-size:3.88055563px;font-family:Roboto;-inkscape-font-specification:Roboto;fill:#333333;fill-opacity:1;stroke-width:0.18278494"
         id="path25541"
         inkscape:connector-curvature="0" />
      <path
         d="m 34.428508,260.48174 q -0.416856,0 -0.678339,-0.27285 -0.261483,-0.27474 -0.261483,-0.73329 v -0.0644 q 0,-0.30506 0.115583,-0.54381 0.117478,-0.24064 0.325906,-0.37517 0.210323,-0.13642 0.454753,-0.13642 0.399803,0 0.621495,0.26337 0.221692,0.26338 0.221692,0.75413 v 0.1459 h -1.38889 q 0.0076,0.30317 0.176216,0.49076 0.170532,0.18569 0.432015,0.18569 0.185691,0 0.314537,-0.0758 0.128847,-0.0758 0.225482,-0.20085 l 0.214113,0.16674 q -0.257694,0.39601 -0.77308,0.39601 z m -0.04358,-1.83795 q -0.212218,0 -0.356223,0.15537 -0.144005,0.15348 -0.178112,0.43201 h 1.026983 v -0.0265 q -0.01516,-0.26717 -0.144005,-0.41307 -0.128846,-0.14779 -0.348643,-0.14779 z"
         style="font-style:normal;font-variant:normal;font-weight:normal;font-stretch:normal;font-size:3.88055563px;font-family:Roboto;-inkscape-font-specification:Roboto;fill:#333333;fill-opacity:1;stroke-width:0.18278494"
         id="path25543"
         inkscape:connector-curvature="0" />
      <path
         d="m 36.62269,258.70821 q -0.07958,-0.0133 -0.172427,-0.0133 -0.344854,0 -0.468017,0.2937 v 1.45521 h -0.350538 v -2.05018 h 0.341064 l 0.0057,0.23685 q 0.172427,-0.27474 0.488859,-0.27474 0.102319,0 0.155374,0.0265 z"
         style="font-style:normal;font-variant:normal;font-weight:normal;font-stretch:normal;font-size:3.88055563px;font-family:Roboto;-inkscape-font-specification:Roboto;fill:#333333;fill-opacity:1;stroke-width:0.18278494"
         id="path25545"
         inkscape:connector-curvature="0" />
      <path
         d="m 38.136637,259.90004 q 0,-0.14211 -0.108004,-0.2198 -0.106109,-0.0796 -0.373276,-0.13642 -0.265272,-0.0568 -0.422541,-0.13643 -0.155374,-0.0796 -0.231166,-0.18948 -0.0739,-0.1099 -0.0739,-0.26148 0,-0.25201 0.212218,-0.42633 0.214113,-0.17432 0.545703,-0.17432 0.348644,0 0.564651,0.18 0.217902,0.18001 0.217902,0.46044 h -0.352433 q 0,-0.14401 -0.123162,-0.24822 -0.121267,-0.10421 -0.306958,-0.10421 -0.191375,0 -0.299379,0.0834 -0.108004,0.0834 -0.108004,0.2179 0,0.12695 0.100425,0.19137 0.100424,0.0644 0.361907,0.12317 0.263378,0.0587 0.426331,0.14021 0.162953,0.0815 0.24064,0.19706 0.07958,0.11369 0.07958,0.27854 0,0.27474 -0.219797,0.44149 -0.219797,0.16484 -0.570335,0.16484 -0.246325,0 -0.435805,-0.0872 -0.18948,-0.0872 -0.297484,-0.24253 -0.106109,-0.15727 -0.106109,-0.33917 h 0.350539 q 0.0095,0.17622 0.140215,0.28043 0.132636,0.10232 0.348644,0.10232 0.198954,0 0.318327,-0.0796 0.121267,-0.0815 0.121267,-0.21601 z"
         style="font-style:normal;font-variant:normal;font-weight:normal;font-stretch:normal;font-size:3.88055563px;font-family:Roboto;-inkscape-font-specification:Roboto;fill:#333333;fill-opacity:1;stroke-width:0.18278494"
         id="path25547"
         inkscape:connector-curvature="0" />
    </g>
  </g>
</svg>
