<?xml version="1.0" encoding="UTF-8" standalone="no"?>
<!-- Created with Inkscape (http://www.inkscape.org/) -->

<svg
   xmlns:dc="http://purl.org/dc/elements/1.1/"
   xmlns:cc="http://creativecommons.org/ns#"
   xmlns:rdf="http://www.w3.org/1999/02/22-rdf-syntax-ns#"
   xmlns:svg="http://www.w3.org/2000/svg"
   xmlns="http://www.w3.org/2000/svg"
   xmlns:sodipodi="http://sodipodi.sourceforge.net/DTD/sodipodi-0.dtd"
   xmlns:inkscape="http://www.inkscape.org/namespaces/inkscape"
   width="86mm"
   height="55mm"
   viewBox="0 0 86 55"
   version="1.1"
   id="svg3192"
   inkscape:version="0.92.4 (5da689c313, 2019-01-14)"
   sodipodi:docname="empty-epoch.svg">
  <defs
     id="defs3186">
    <marker
       inkscape:isstock="true"
       style="overflow:visible"
       id="marker17413"
       refX="0"
       refY="0"
       orient="auto"
       inkscape:stockid="Arrow1Mend">
      <path
         inkscape:connector-curvature="0"
         transform="matrix(-0.4,0,0,-0.4,-4,0)"
         style="fill:#333333;fill-opacity:1;fill-rule:evenodd;stroke:#333333;stroke-width:1.00000003pt;stroke-opacity:1"
         d="M 0,0 5,-5 -12.5,0 5,5 Z"
         id="path17411" />
    </marker>
    <marker
       inkscape:stockid="Arrow1Mend"
       orient="auto"
       refY="0"
       refX="0"
       id="Arrow1Mend"
       style="overflow:visible"
       inkscape:isstock="true"
       inkscape:collect="always">
      <path
         inkscape:connector-curvature="0"
         id="path17154"
         d="M 0,0 5,-5 -12.5,0 5,5 Z"
         style="fill:#333333;fill-opacity:1;fill-rule:evenodd;stroke:#333333;stroke-width:1.00000003pt;stroke-opacity:1"
         transform="matrix(-0.4,0,0,-0.4,-4,0)" />
    </marker>
  </defs>
  <sodipodi:namedview
     id="base"
     pagecolor="#ffffff"
     bordercolor="#666666"
     borderopacity="1.0"
     inkscape:pageopacity="0.0"
     inkscape:pageshadow="2"
     inkscape:zoom="1.5226586"
     inkscape:cx="228.99306"
     inkscape:cy="70"
     inkscape:document-units="mm"
     inkscape:current-layer="layer1"
     showgrid="false"
     inkscape:window-width="1920"
     inkscape:window-height="1017"
     inkscape:window-x="-8"
     inkscape:window-y="-8"
     inkscape:window-maximized="1" />
  <metadata
     id="metadata3189">
    <rdf:RDF>
      <cc:Work
         rdf:about="">
        <dc:format>image/svg+xml</dc:format>
        <dc:type
           rdf:resource="http://purl.org/dc/dcmitype/StillImage" />
        <dc:title></dc:title>
      </cc:Work>
    </rdf:RDF>
  </metadata>
  <g
     inkscape:label="Layer 1"
     inkscape:groupmode="layer"
     id="layer1"
     transform="translate(0,-242)">
    <path
       style="fill:#000000;fill-opacity:0;stroke:#333333;stroke-width:0.40000001;stroke-miterlimit:4;stroke-dasharray:none;stroke-dashoffset:0;stroke-opacity:1"
       d="M 5.3089085,259.89949 H 42.153765 v 35.24356 H 5.3089085 Z"
       id="rect15323"
       inkscape:connector-curvature="0" />
    <path
       style="fill:#000000;stroke:#333333;stroke-width:0.40000001;stroke-linecap:butt;stroke-linejoin:miter;stroke-miterlimit:4;stroke-dasharray:none;stroke-opacity:1"
       d="M 5.3089114,283.56684 H 42.054314"
       id="path15327"
       inkscape:connector-curvature="0"
       sodipodi:nodetypes="cc" />
    <path
       inkscape:connector-curvature="0"
       id="path15329"
       d="M 5.3089114,271.86523 H 42.054314"
       style="fill:#000000;stroke:#333333;stroke-width:0.40000001;stroke-linecap:butt;stroke-linejoin:miter;stroke-miterlimit:4;stroke-dasharray:none;stroke-opacity:1"
       sodipodi:nodetypes="cc" />
    <g
       transform="translate(4.5926244,241.73687)"
       id="g15343">
      <path
         style="fill:#0000ff;fill-opacity:0.50196078;stroke:#091400;stroke-width:0.25;stroke-miterlimit:4;stroke-dasharray:none;stroke-dashoffset:0;stroke-opacity:1"
         d="m 10.268041,23.780241 h 14.640533 v 3.614832 H 10.268041 Z"
         id="rect15335"
         inkscape:connector-curvature="0" />
      <path
         style="fill:none;stroke:#000000;stroke-width:0.25;stroke-linecap:butt;stroke-linejoin:miter;stroke-miterlimit:4;stroke-dasharray:none;stroke-opacity:1"
         d="m 13.749596,23.811258 v 3.614247"
         id="path15337"
         inkscape:connector-curvature="0"
         sodipodi:nodetypes="cc" />
      <path
         sodipodi:nodetypes="cc"
         inkscape:connector-curvature="0"
         id="path15339"
         d="m 17.453762,23.811258 v 3.614247"
         style="fill:none;stroke:#000000;stroke-width:0.25;stroke-linecap:butt;stroke-linejoin:miter;stroke-miterlimit:4;stroke-dasharray:none;stroke-opacity:1" />
      <path
         style="fill:none;stroke:#000000;stroke-width:0.25;stroke-linecap:butt;stroke-linejoin:miter;stroke-miterlimit:4;stroke-dasharray:none;stroke-opacity:1"
         d="m 21.157928,23.811258 v 3.614247"
         id="path15341"
         inkscape:connector-curvature="0"
         sodipodi:nodetypes="cc" />
    </g>
    <g
       transform="translate(3.9771984,241.73687)"
       id="g15349">
      <path
         style="fill:#0000ff;fill-opacity:0.50196078;stroke:#091400;stroke-width:0.25;stroke-miterlimit:4;stroke-dasharray:none;stroke-dashoffset:0;stroke-opacity:1"
         d="m 28.217197,23.780241 h 6.93652 v 3.614832 h -6.93652 z"
         id="rect15345"
         inkscape:connector-curvature="0" />
      <path
         sodipodi:nodetypes="cc"
         inkscape:connector-curvature="0"
         id="path15347"
         d="m 31.698755,23.811258 v 3.614247"
         style="fill:none;stroke:#000000;stroke-width:0.25;stroke-linecap:butt;stroke-linejoin:miter;stroke-miterlimit:4;stroke-dasharray:none;stroke-opacity:1" />
    </g>
    <g
       aria-label="L1"
       style="font-style:normal;font-variant:normal;font-weight:normal;font-stretch:normal;font-size:3.26319432px;line-height:1.25;font-family:Roboto;-inkscape-font-specification:Roboto;letter-spacing:0px;word-spacing:0px;fill:#333333;fill-opacity:1;stroke:none;stroke-width:0.30557004"
       id="text15353"
       transform="translate(0,-0.52129217)">
      <path
         d="m 21.227571,264.51654 h 1.099416 v 0.25015 h -1.406934 v -2.31992 h 0.307518 z"
         style="font-style:normal;font-variant:normal;font-weight:normal;font-stretch:normal;font-size:3.26319432px;font-family:Roboto;-inkscape-font-specification:Roboto;fill:#333333;fill-opacity:1;stroke-width:0.30557004"
         id="path17910"
         inkscape:connector-curvature="0" />
      <path
         d="m 23.571399,264.76669 h -0.296365 v -1.96461 l -0.594322,0.21829 v -0.26768 l 0.844479,-0.31708 h 0.04621 z"
         style="font-style:normal;font-variant:normal;font-weight:normal;font-stretch:normal;font-size:3.26319432px;font-family:Roboto;-inkscape-font-specification:Roboto;fill:#333333;fill-opacity:1;stroke-width:0.30557004"
         id="path17912"
         inkscape:connector-curvature="0" />
    </g>
    <g
       aria-label="L8"
       style="font-style:normal;font-variant:normal;font-weight:normal;font-stretch:normal;font-size:3.26319432px;line-height:1.25;font-family:Roboto;-inkscape-font-specification:Roboto;letter-spacing:0px;word-spacing:0px;fill:#333333;fill-opacity:1;stroke:none;stroke-width:0.26458332"
       id="text15357"
       transform="translate(0,-0.52129217)">
      <path
         d="m 34.600172,264.518 h 1.099416 v 0.25016 h -1.406934 v -2.31993 h 0.307518 z"
         style="font-style:normal;font-variant:normal;font-weight:normal;font-stretch:normal;font-size:3.26319432px;font-family:Roboto;-inkscape-font-specification:Roboto;fill:#333333;fill-opacity:1;stroke-width:0.26458332"
         id="path17905"
         inkscape:connector-curvature="0" />
      <path
         d="m 37.382172,263.05371 q 0,0.17367 -0.09241,0.30911 -0.09082,0.13543 -0.246971,0.21191 0.181643,0.0781 0.286804,0.22785 0.106755,0.14978 0.106755,0.33939 0,0.30114 -0.203949,0.4796 -0.202357,0.17846 -0.533775,0.17846 -0.334605,0 -0.536961,-0.17846 -0.200763,-0.18005 -0.200763,-0.4796 0,-0.18802 0.101975,-0.33939 0.103568,-0.15137 0.285211,-0.22944 -0.154556,-0.0765 -0.243784,-0.21192 -0.08923,-0.13543 -0.08923,-0.30751 0,-0.29318 0.188016,-0.46526 0.188016,-0.17209 0.495534,-0.17209 0.305925,0 0.493941,0.17209 0.189609,0.17208 0.189609,0.46526 z m -0.240597,1.08189 q 0,-0.19439 -0.124281,-0.31708 -0.122689,-0.12269 -0.321858,-0.12269 -0.19917,0 -0.320265,0.12109 -0.119502,0.1211 -0.119502,0.31868 0,0.19757 0.116315,0.3107 0.117909,0.11313 0.326638,0.11313 0.207137,0 0.325045,-0.11313 0.117908,-0.11472 0.117908,-0.3107 z m -0.442953,-1.47705 q -0.173676,0 -0.282024,0.10835 -0.106755,0.10676 -0.106755,0.29159 0,0.17686 0.105162,0.2868 0.106755,0.10835 0.283617,0.10835 0.176863,0 0.282024,-0.10835 0.106755,-0.10994 0.106755,-0.2868 0,-0.17687 -0.109941,-0.2884 -0.109942,-0.11154 -0.278838,-0.11154 z"
         style="font-style:normal;font-variant:normal;font-weight:normal;font-stretch:normal;font-size:3.26319432px;font-family:Roboto;-inkscape-font-specification:Roboto;fill:#333333;fill-opacity:1;stroke-width:0.26458332"
         id="path17907"
         inkscape:connector-curvature="0" />
    </g>
    <g
       transform="translate(4.0211564,243.73459)"
       id="g15365">
      <path
         style="fill:#0000ff;fill-opacity:0.50196078;stroke:#091400;stroke-width:0.25;stroke-miterlimit:4;stroke-dasharray:none;stroke-dashoffset:0;stroke-opacity:1"
         d="m 18.166039,33.709663 h 10.810943 v 3.61483 H 18.166039 Z"
         id="rect15359"
         inkscape:connector-curvature="0" />
      <path
         style="fill:none;stroke:#000000;stroke-width:0.25;stroke-linecap:butt;stroke-linejoin:miter;stroke-miterlimit:4;stroke-dasharray:none;stroke-opacity:1"
         d="m 21.647593,33.740681 v 3.614247"
         id="path15361"
         inkscape:connector-curvature="0"
         sodipodi:nodetypes="cc" />
      <path
         sodipodi:nodetypes="cc"
         inkscape:connector-curvature="0"
         id="path15363"
         d="m 25.351759,33.740681 v 3.614247"
         style="fill:none;stroke:#000000;stroke-width:0.25;stroke-linecap:butt;stroke-linejoin:miter;stroke-miterlimit:4;stroke-dasharray:none;stroke-opacity:1" />
    </g>
    <g
       aria-label="L15"
       style="font-style:normal;font-variant:normal;font-weight:normal;font-stretch:normal;font-size:3.26319432px;line-height:1.25;font-family:Roboto;-inkscape-font-specification:Roboto;letter-spacing:0px;word-spacing:0px;fill:#333333;fill-opacity:1;stroke:none;stroke-width:0.26458332"
       id="text15369"
       transform="translate(0,-0.52129217)">
      <path
         d="m 25.585828,276.32 h 1.099416 v 0.25016 H 25.27831 v -2.31993 h 0.307518 z"
         style="font-style:normal;font-variant:normal;font-weight:normal;font-stretch:normal;font-size:3.26319432px;font-family:Roboto;-inkscape-font-specification:Roboto;fill:#333333;fill-opacity:1;stroke-width:0.26458332"
         id="path17897"
         inkscape:connector-curvature="0" />
      <path
         d="m 27.929656,276.57016 h -0.296364 v -1.96461 l -0.594322,0.21829 v -0.26768 l 0.844479,-0.31708 h 0.04621 z"
         style="font-style:normal;font-variant:normal;font-weight:normal;font-stretch:normal;font-size:3.26319432px;font-family:Roboto;-inkscape-font-specification:Roboto;fill:#333333;fill-opacity:1;stroke-width:0.26458332"
         id="path17899"
         inkscape:connector-curvature="0" />
      <path
         d="m 28.931877,275.40701 0.117909,-1.15678 h 1.188644 v 0.27247 h -0.938487 l -0.07011,0.63256 q 0.170489,-0.10038 0.387186,-0.10038 0.317078,0 0.5035,0.21032 0.186423,0.20873 0.186423,0.56564 0,0.35851 -0.194389,0.56564 -0.192797,0.20555 -0.540148,0.20555 -0.307518,0 -0.501908,-0.17049 -0.194389,-0.17049 -0.221476,-0.47164 h 0.278837 q 0.02709,0.19917 0.141809,0.30115 0.114722,0.10038 0.302738,0.10038 0.205543,0 0.321858,-0.14022 0.117908,-0.14021 0.117908,-0.38718 0,-0.23263 -0.127468,-0.37285 -0.125876,-0.14181 -0.336199,-0.14181 -0.192796,0 -0.302737,0.0845 l -0.07807,0.0637 z"
         style="font-style:normal;font-variant:normal;font-weight:normal;font-stretch:normal;font-size:3.26319432px;font-family:Roboto;-inkscape-font-specification:Roboto;fill:#333333;fill-opacity:1;stroke-width:0.26458332"
         id="path17901"
         inkscape:connector-curvature="0" />
    </g>
    <g
       aria-label="b"
       style="font-style:normal;font-variant:normal;font-weight:normal;font-stretch:normal;font-size:5.28458023px;line-height:1.25;font-family:Roboto;-inkscape-font-specification:Roboto;letter-spacing:0px;word-spacing:0px;fill:#333333;fill-opacity:1;stroke:none;stroke-width:0.24771468"
       id="text15373"
       transform="translate(0,-0.52129217)">
      <path
         d="m 9.6884409,266.39353 q 0,0.63993 -0.2941612,1.02957 -0.2941612,0.38705 -0.7895906,0.38705 -0.5289741,0 -0.8179746,-0.37415 l -0.023223,0.32254 H 7.3248298 v -3.96343 h 0.4773668 v 1.47855 q 0.2890005,-0.35867 0.7973317,-0.35867 0.5083312,0 0.7973317,0.38447 0.2915809,0.38447 0.2915809,1.05279 z m -0.4773669,-0.0542 q 0,-0.48769 -0.1883664,-0.75347 -0.1883664,-0.26578 -0.5418759,-0.26578 -0.4722061,0 -0.6786351,0.43866 v 1.20761 q 0.2193308,0.43867 0.6837958,0.43867 0.3431881,0 0.5341348,-0.26578 0.1909468,-0.26578 0.1909468,-0.79991 z"
         style="font-style:normal;font-variant:normal;font-weight:normal;font-stretch:normal;font-size:5.28458023px;font-family:Roboto;-inkscape-font-specification:Roboto;fill:#333333;fill-opacity:1;stroke-width:0.24771468"
         id="path17894"
         inkscape:connector-curvature="0" />
    </g>
    <path
       style="fill:#0000ff;fill-opacity:0.50196078;stroke:#091400;stroke-width:0.25;stroke-miterlimit:4;stroke-dasharray:none;stroke-dashoffset:0;stroke-opacity:1"
       d="m 24.057716,289.17186 h 6.93652 v 3.61483 h -6.93652 z"
       id="rect15383"
       inkscape:connector-curvature="0" />
    <path
       sodipodi:nodetypes="cc"
       inkscape:connector-curvature="0"
       id="path15385"
       d="m 27.539272,289.20288 v 3.61424"
       style="fill:none;stroke:#000000;stroke-width:0.25;stroke-linecap:butt;stroke-linejoin:miter;stroke-miterlimit:4;stroke-dasharray:none;stroke-opacity:1" />
    <g
       aria-label="L25"
       style="font-style:normal;font-variant:normal;font-weight:normal;font-stretch:normal;font-size:3.26319432px;line-height:1.25;font-family:Roboto;-inkscape-font-specification:Roboto;letter-spacing:0px;word-spacing:0px;fill:#333333;fill-opacity:1;stroke:none;stroke-width:0.26458332"
       id="text15389"
       transform="translate(0,-0.52129217)">
      <path
         d="m 25.341959,288.11029 h 1.099416 v 0.25015 h -1.406934 v -2.31992 h 0.307518 z"
         style="font-style:normal;font-variant:normal;font-weight:normal;font-stretch:normal;font-size:3.26319432px;font-family:Roboto;-inkscape-font-specification:Roboto;fill:#333333;fill-opacity:1;stroke-width:0.26458332"
         id="path17886"
         inkscape:connector-curvature="0" />
      <path
         d="m 28.237088,288.36044 h -1.520063 v -0.21191 l 0.803052,-0.89228 q 0.178456,-0.20236 0.245377,-0.32823 0.06851,-0.12747 0.06851,-0.26291 0,-0.18164 -0.109941,-0.29796 -0.109942,-0.11631 -0.293178,-0.11631 -0.219883,0 -0.342572,0.12587 -0.121095,0.12429 -0.121095,0.34736 h -0.294771 q 0,-0.32027 0.205543,-0.51785 0.207137,-0.19757 0.552895,-0.19757 0.323451,0 0.511468,0.17049 0.188016,0.16889 0.188016,0.45092 0,0.34257 -0.43658,0.8158 l -0.621409,0.67399 h 1.164744 z"
         style="font-style:normal;font-variant:normal;font-weight:normal;font-stretch:normal;font-size:3.26319432px;font-family:Roboto;-inkscape-font-specification:Roboto;fill:#333333;fill-opacity:1;stroke-width:0.26458332"
         id="path17888"
         inkscape:connector-curvature="0" />
      <path
         d="m 28.688007,287.19729 0.117909,-1.15677 h 1.188644 v 0.27246 h -0.938487 l -0.07011,0.63256 q 0.170489,-0.10038 0.387186,-0.10038 0.317078,0 0.503501,0.21032 0.186422,0.20873 0.186422,0.56565 0,0.3585 -0.194389,0.56564 -0.192796,0.20554 -0.540148,0.20554 -0.307518,0 -0.501907,-0.17049 -0.19439,-0.17049 -0.221477,-0.47163 h 0.278837 q 0.02709,0.19917 0.141809,0.30114 0.114722,0.10038 0.302738,0.10038 0.205543,0 0.321858,-0.14021 0.117908,-0.14022 0.117908,-0.38719 0,-0.23263 -0.127468,-0.37284 -0.125875,-0.14181 -0.336199,-0.14181 -0.192796,0 -0.302737,0.0845 l -0.07808,0.0637 z"
         style="font-style:normal;font-variant:normal;font-weight:normal;font-stretch:normal;font-size:3.26319432px;font-family:Roboto;-inkscape-font-specification:Roboto;fill:#333333;fill-opacity:1;stroke-width:0.26458332"
         id="path17890"
         inkscape:connector-curvature="0" />
    </g>
    <g
       transform="translate(45.162623,253.51341)"
       id="g15433">
      <path
         style="fill:#0000ff;fill-opacity:0.50196078;stroke:#091400;stroke-width:0.25;stroke-miterlimit:4;stroke-dasharray:none;stroke-dashoffset:0;stroke-opacity:1"
         d="m 10.268041,23.780241 h 14.640533 v 3.614832 H 10.268041 Z"
         id="rect15425"
         inkscape:connector-curvature="0" />
      <path
         sodipodi:nodetypes="cc"
         inkscape:connector-curvature="0"
         id="path15427"
         d="m 13.749596,23.811258 v 3.614247"
         style="fill:none;stroke:#000000;stroke-width:0.25;stroke-linecap:butt;stroke-linejoin:miter;stroke-miterlimit:4;stroke-dasharray:none;stroke-opacity:1" />
      <path
         style="fill:none;stroke:#000000;stroke-width:0.25;stroke-linecap:butt;stroke-linejoin:miter;stroke-miterlimit:4;stroke-dasharray:none;stroke-opacity:1"
         d="m 17.453762,23.811258 v 3.614247"
         id="path15429"
         inkscape:connector-curvature="0"
         sodipodi:nodetypes="cc" />
      <path
         sodipodi:nodetypes="cc"
         inkscape:connector-curvature="0"
         id="path15431"
         d="m 21.157928,23.811258 v 3.614247"
         style="fill:none;stroke:#000000;stroke-width:0.25;stroke-linecap:butt;stroke-linejoin:miter;stroke-miterlimit:4;stroke-dasharray:none;stroke-opacity:1" />
    </g>
    <g
       transform="translate(31.070002,265.26476)"
       id="g15439">
      <path
         style="fill:#0000ff;fill-opacity:0.50196078;stroke:#091400;stroke-width:0.25;stroke-miterlimit:4;stroke-dasharray:none;stroke-dashoffset:0;stroke-opacity:1"
         d="m 28.217197,23.780241 h 6.93652 v 3.614832 h -6.93652 z"
         id="rect15435"
         inkscape:connector-curvature="0" />
      <path
         style="fill:none;stroke:#000000;stroke-width:0.25;stroke-linecap:butt;stroke-linejoin:miter;stroke-miterlimit:4;stroke-dasharray:none;stroke-opacity:1"
         d="m 31.698755,23.811258 v 3.614247"
         id="path15437"
         inkscape:connector-curvature="0"
         sodipodi:nodetypes="cc" />
    </g>
    <g
       aria-label="L55"
       style="font-style:normal;font-variant:normal;font-weight:normal;font-stretch:normal;font-size:3.26319432px;line-height:1.25;font-family:Roboto;-inkscape-font-specification:Roboto;letter-spacing:0px;word-spacing:0px;fill:#333333;fill-opacity:1;stroke:none;stroke-width:0.26458332"
       id="text15443"
       transform="translate(0,-0.52129217)">
      <path
         d="m 60.283666,276.29858 h 1.099416 v 0.25016 h -1.406934 v -2.31993 h 0.307518 z"
         style="font-style:normal;font-variant:normal;font-weight:normal;font-stretch:normal;font-size:3.26319432px;font-family:Roboto;-inkscape-font-specification:Roboto;fill:#333333;fill-opacity:1;stroke-width:0.26458332"
         id="path17877"
         inkscape:connector-curvature="0" />
      <path
         d="m 61.794168,275.38559 0.117909,-1.15678 h 1.188644 v 0.27246 h -0.938487 l -0.07011,0.63257 q 0.170489,-0.10039 0.387186,-0.10039 0.317078,0 0.5035,0.21033 0.186423,0.20873 0.186423,0.56564 0,0.3585 -0.19439,0.56564 -0.192796,0.20554 -0.540147,0.20554 -0.307518,0 -0.501908,-0.17049 -0.194389,-0.17048 -0.221476,-0.47163 h 0.278837 q 0.02709,0.19917 0.141809,0.30115 0.114722,0.10038 0.302738,0.10038 0.205543,0 0.321858,-0.14022 0.117908,-0.14021 0.117908,-0.38718 0,-0.23263 -0.127469,-0.37285 -0.125875,-0.14181 -0.336198,-0.14181 -0.192796,0 -0.302738,0.0845 l -0.07807,0.0637 z"
         style="font-style:normal;font-variant:normal;font-weight:normal;font-stretch:normal;font-size:3.26319432px;font-family:Roboto;-inkscape-font-specification:Roboto;fill:#333333;fill-opacity:1;stroke-width:0.26458332"
         id="path17879"
         inkscape:connector-curvature="0" />
      <path
         d="m 63.629715,275.38559 0.117908,-1.15678 h 1.188645 v 0.27246 H 63.99778 l -0.07011,0.63257 q 0.170489,-0.10039 0.387185,-0.10039 0.317078,0 0.503501,0.21033 0.186423,0.20873 0.186423,0.56564 0,0.3585 -0.19439,0.56564 -0.192796,0.20554 -0.540148,0.20554 -0.307517,0 -0.501907,-0.17049 -0.194389,-0.17048 -0.221476,-0.47163 h 0.278837 q 0.02709,0.19917 0.141809,0.30115 0.114721,0.10038 0.302737,0.10038 0.205543,0 0.321858,-0.14022 0.117909,-0.14021 0.117909,-0.38718 0,-0.23263 -0.127469,-0.37285 -0.125875,-0.14181 -0.336198,-0.14181 -0.192796,0 -0.302738,0.0845 l -0.07807,0.0637 z"
         style="font-style:normal;font-variant:normal;font-weight:normal;font-stretch:normal;font-size:3.26319432px;font-family:Roboto;-inkscape-font-specification:Roboto;fill:#333333;fill-opacity:1;stroke-width:0.26458332"
         id="path17881"
         inkscape:connector-curvature="0" />
    </g>
    <g
       aria-label="L18"
       style="font-style:normal;font-variant:normal;font-weight:normal;font-stretch:normal;font-size:3.26319432px;line-height:1.25;font-family:Roboto;-inkscape-font-specification:Roboto;letter-spacing:0px;word-spacing:0px;fill:#333333;fill-opacity:1;stroke:none;stroke-width:0.26458332"
       id="text15447"
       transform="translate(0,-0.52129217)">
      <path
         d="m 60.459508,288.01068 h 1.099416 v 0.25015 h -1.406933 v -2.31992 h 0.307517 z"
         style="font-style:normal;font-variant:normal;font-weight:normal;font-stretch:normal;font-size:3.26319432px;font-family:Roboto;-inkscape-font-specification:Roboto;fill:#333333;fill-opacity:1;stroke-width:0.26458332"
         id="path17870"
         inkscape:connector-curvature="0" />
      <path
         d="m 62.803336,288.26083 h -0.296364 v -1.9646 l -0.594322,0.21828 v -0.26768 l 0.844479,-0.31708 h 0.04621 z"
         style="font-style:normal;font-variant:normal;font-weight:normal;font-stretch:normal;font-size:3.26319432px;font-family:Roboto;-inkscape-font-specification:Roboto;fill:#333333;fill-opacity:1;stroke-width:0.26458332"
         id="path17872"
         inkscape:connector-curvature="0" />
      <path
         d="m 65.077056,286.54638 q 0,0.17368 -0.09242,0.30911 -0.09082,0.13544 -0.24697,0.21192 0.181643,0.0781 0.286804,0.22785 0.106755,0.14978 0.106755,0.33938 0,0.30115 -0.20395,0.4796 -0.202356,0.17846 -0.533774,0.17846 -0.334605,0 -0.536961,-0.17846 -0.200763,-0.18004 -0.200763,-0.4796 0,-0.18801 0.101975,-0.33938 0.103568,-0.15137 0.285211,-0.22944 -0.154556,-0.0765 -0.243784,-0.21192 -0.08923,-0.13544 -0.08923,-0.30752 0,-0.29318 0.188016,-0.46526 0.188016,-0.17208 0.495534,-0.17208 0.305924,0 0.493941,0.17208 0.189609,0.17208 0.189609,0.46526 z m -0.240597,1.08189 q 0,-0.19439 -0.124282,-0.31708 -0.122688,-0.12269 -0.321858,-0.12269 -0.199169,0 -0.320264,0.1211 -0.119502,0.12109 -0.119502,0.31867 0,0.19758 0.116315,0.31071 0.117908,0.11312 0.326638,0.11312 0.207136,0 0.325045,-0.11312 0.117908,-0.11473 0.117908,-0.31071 z m -0.442953,-1.47704 q -0.173676,0 -0.282024,0.10835 -0.106755,0.10675 -0.106755,0.29158 0,0.17686 0.105161,0.28681 0.106755,0.10834 0.283618,0.10834 0.176863,0 0.282024,-0.10834 0.106755,-0.10995 0.106755,-0.28681 0,-0.17686 -0.109942,-0.2884 -0.109941,-0.11153 -0.278837,-0.11153 z"
         style="font-style:normal;font-variant:normal;font-weight:normal;font-stretch:normal;font-size:3.26319432px;font-family:Roboto;-inkscape-font-specification:Roboto;fill:#333333;fill-opacity:1;stroke-width:0.26458332"
         id="path17874"
         inkscape:connector-curvature="0" />
    </g>
    <path
       style="fill:#0000ff;fill-opacity:0.50196078;stroke:#091400;stroke-width:0.25;stroke-miterlimit:4;stroke-dasharray:none;stroke-dashoffset:0;stroke-opacity:1"
       d="m 51.75473,265.47636 h 3.539809 v 3.61483 H 51.75473 Z"
       id="rect15485"
       inkscape:connector-curvature="0" />
    <g
       id="g15493"
       transform="translate(44.528512,231.78284)">
      <path
         style="fill:#0000ff;fill-opacity:0.50196078;stroke:#091400;stroke-width:0.25;stroke-miterlimit:4;stroke-dasharray:none;stroke-dashoffset:0;stroke-opacity:1"
         d="m 18.166039,33.709663 h 10.810943 v 3.61483 H 18.166039 Z"
         id="rect15487"
         inkscape:connector-curvature="0" />
      <path
         style="fill:none;stroke:#000000;stroke-width:0.25;stroke-linecap:butt;stroke-linejoin:miter;stroke-miterlimit:4;stroke-dasharray:none;stroke-opacity:1"
         d="m 21.647593,33.740681 v 3.614247"
         id="path15489"
         inkscape:connector-curvature="0"
         sodipodi:nodetypes="cc" />
      <path
         sodipodi:nodetypes="cc"
         inkscape:connector-curvature="0"
         id="path15491"
         d="m 25.351759,33.740681 v 3.614247"
         style="fill:none;stroke:#000000;stroke-width:0.25;stroke-linecap:butt;stroke-linejoin:miter;stroke-miterlimit:4;stroke-dasharray:none;stroke-opacity:1" />
    </g>
    <g
       aria-label="L8"
       style="font-style:normal;font-variant:normal;font-weight:normal;font-stretch:normal;font-size:3.26319432px;line-height:1.25;font-family:Roboto;-inkscape-font-specification:Roboto;letter-spacing:0px;word-spacing:0px;fill:#333333;fill-opacity:1;stroke:none;stroke-width:0.26458332"
       id="text15497"
       transform="translate(0,-0.52129217)">
      <path
         d="m 52.347433,264.48001 h 1.099416 v 0.25015 h -1.406934 v -2.31992 h 0.307518 z"
         style="font-style:normal;font-variant:normal;font-weight:normal;font-stretch:normal;font-size:3.26319432px;font-family:Roboto;-inkscape-font-specification:Roboto;fill:#333333;fill-opacity:1;stroke-width:0.26458332"
         id="path17863"
         inkscape:connector-curvature="0" />
      <path
         d="m 55.129433,263.01571 q 0,0.17368 -0.09241,0.30911 -0.09082,0.13544 -0.246971,0.21192 0.181643,0.0781 0.286805,0.22785 0.106754,0.14977 0.106754,0.33938 0,0.30115 -0.203949,0.4796 -0.202357,0.17846 -0.533775,0.17846 -0.334605,0 -0.536961,-0.17846 -0.200763,-0.18004 -0.200763,-0.4796 0,-0.18801 0.101975,-0.33938 0.103568,-0.15137 0.285211,-0.22944 -0.154556,-0.0765 -0.243784,-0.21192 -0.08923,-0.13544 -0.08923,-0.30752 0,-0.29318 0.188016,-0.46526 0.188016,-0.17208 0.495534,-0.17208 0.305925,0 0.493941,0.17208 0.189609,0.17208 0.189609,0.46526 z m -0.240597,1.08189 q 0,-0.19439 -0.124281,-0.31708 -0.122689,-0.12269 -0.321858,-0.12269 -0.19917,0 -0.320265,0.1211 -0.119502,0.12109 -0.119502,0.31867 0,0.19758 0.116315,0.31071 0.117909,0.11312 0.326638,0.11312 0.207137,0 0.325045,-0.11312 0.117908,-0.11473 0.117908,-0.31071 z m -0.442953,-1.47704 q -0.173676,0 -0.282024,0.10835 -0.106755,0.10675 -0.106755,0.29158 0,0.17686 0.105162,0.28681 0.106755,0.10834 0.283617,0.10834 0.176863,0 0.282024,-0.10834 0.106755,-0.10995 0.106755,-0.28681 0,-0.17686 -0.109941,-0.2884 -0.109942,-0.11153 -0.278838,-0.11153 z"
         style="font-style:normal;font-variant:normal;font-weight:normal;font-stretch:normal;font-size:3.26319432px;font-family:Roboto;-inkscape-font-specification:Roboto;fill:#333333;fill-opacity:1;stroke-width:0.26458332"
         id="path17865"
         inkscape:connector-curvature="0" />
    </g>
    <g
       aria-label="L24"
       inkscape:transform-center-x="1.4410285"
       inkscape:transform-center-y="-0.61758365"
       style="font-style:normal;font-variant:normal;font-weight:normal;font-stretch:normal;font-size:3.26319432px;line-height:1.25;font-family:Roboto;-inkscape-font-specification:Roboto;letter-spacing:0px;word-spacing:0px;fill:#333333;fill-opacity:1;stroke:none;stroke-width:0.26458332"
       id="text15501"
       transform="translate(0,-0.52129217)">
      <path
         d="m 66.236333,264.40127 h 1.099416 v 0.25016 h -1.406933 v -2.31993 h 0.307517 z"
         style="font-style:normal;font-variant:normal;font-weight:normal;font-stretch:normal;font-size:3.26319432px;font-family:Roboto;-inkscape-font-specification:Roboto;fill:#333333;fill-opacity:1;stroke-width:0.26458332"
         id="path17856"
         inkscape:connector-curvature="0" />
      <path
         d="M 69.131462,264.65143 H 67.6114 v -0.21192 l 0.803052,-0.89228 q 0.178456,-0.20235 0.245377,-0.32823 0.06851,-0.12747 0.06851,-0.2629 0,-0.18165 -0.109941,-0.29796 -0.109942,-0.11632 -0.293178,-0.11632 -0.219883,0 -0.342572,0.12588 -0.121095,0.12428 -0.121095,0.34735 h -0.294771 q 0,-0.32026 0.205543,-0.51784 0.207137,-0.19758 0.552895,-0.19758 0.323451,0 0.511467,0.17049 0.188016,0.1689 0.188016,0.45092 0,0.34257 -0.436579,0.8158 l -0.621409,0.67399 h 1.164743 z"
         style="font-style:normal;font-variant:normal;font-weight:normal;font-stretch:normal;font-size:3.26319432px;font-family:Roboto;-inkscape-font-specification:Roboto;fill:#333333;fill-opacity:1;stroke-width:0.26458332"
         id="path17858"
         inkscape:connector-curvature="0" />
      <path
         d="m 70.691359,263.87228 h 0.321858 v 0.24059 h -0.321858 v 0.53856 h -0.296365 v -0.53856 h -1.056395 v -0.17367 l 1.038868,-1.6077 h 0.313892 z m -1.018155,0 h 0.72179 v -1.13766 l -0.03505,0.0637 z"
         style="font-style:normal;font-variant:normal;font-weight:normal;font-stretch:normal;font-size:3.26319432px;font-family:Roboto;-inkscape-font-specification:Roboto;fill:#333333;fill-opacity:1;stroke-width:0.26458332"
         id="path17860"
         inkscape:connector-curvature="0" />
    </g>
    <g
       aria-label="standing buys"
       style="font-style:normal;font-variant:normal;font-weight:normal;font-stretch:normal;font-size:3.70416665px;line-height:1.25;font-family:'Roboto Medium';-inkscape-font-specification:'Roboto Medium, ';letter-spacing:0px;word-spacing:0px;fill:#333333;fill-opacity:1;stroke:none;stroke-width:0.26458332"
       id="text15610"
       transform="translate(0,-0.52129217)">
      <path
         d="m 16.821442,258.1357 q 0,-0.11756 -0.09767,-0.17906 -0.09586,-0.0615 -0.320135,-0.10852 -0.224276,-0.047 -0.374396,-0.11937 -0.329179,-0.15917 -0.329179,-0.46121 0,-0.25322 0.213424,-0.42323 0.213423,-0.17002 0.542602,-0.17002 0.350883,0 0.566115,0.17363 0.217041,0.17364 0.217041,0.45036 h -0.439508 q 0,-0.1266 -0.09405,-0.2098 -0.09405,-0.085 -0.249597,-0.085 -0.144694,0 -0.236936,0.0669 -0.09043,0.0669 -0.09043,0.17906 0,0.10128 0.08501,0.15735 0.08501,0.0561 0.343648,0.11395 0.25864,0.0561 0.405143,0.13565 0.148312,0.0778 0.21885,0.1881 0.07235,0.11033 0.07235,0.26769 0,0.26406 -0.21885,0.42865 -0.21885,0.16278 -0.57335,0.16278 -0.240554,0 -0.428656,-0.0868 -0.188102,-0.0868 -0.293005,-0.23875 -0.104903,-0.15193 -0.104903,-0.32737 h 0.426847 q 0.009,0.15555 0.117564,0.24056 0.10852,0.0832 0.287579,0.0832 0.173633,0 0.264067,-0.0651 0.09043,-0.0669 0.09043,-0.17363 z"
         style="font-style:normal;font-variant:normal;font-weight:normal;font-stretch:normal;font-size:3.70416665px;font-family:'Roboto Medium';-inkscape-font-specification:'Roboto Medium, ';fill:#333333;fill-opacity:1;stroke-width:0.26458332"
         id="path17831"
         inkscape:connector-curvature="0" />
      <path
         d="m 18.185183,256.23478 v 0.47568 h 0.345457 v 0.32556 h -0.345457 v 1.09244 q 0,0.11214 0.04341,0.16279 0.04522,0.0488 0.159163,0.0488 0.07597,0 0.153738,-0.0181 v 0.34003 q -0.15012,0.0416 -0.289388,0.0416 -0.506429,0 -0.506429,-0.55888 v -1.10872 H 17.42373 v -0.32556 h 0.321945 v -0.47568 z"
         style="font-style:normal;font-variant:normal;font-weight:normal;font-stretch:normal;font-size:3.70416665px;font-family:'Roboto Medium';-inkscape-font-specification:'Roboto Medium, ';fill:#333333;fill-opacity:1;stroke-width:0.26458332"
         id="path17833"
         inkscape:connector-curvature="0" />
      <path
         d="m 20.033649,258.66745 q -0.02894,-0.0561 -0.05064,-0.18268 -0.209807,0.21885 -0.513664,0.21885 -0.294814,0 -0.481108,-0.1682 -0.186293,-0.16821 -0.186293,-0.416 0,-0.3129 0.23151,-0.4793 0.233319,-0.1682 0.665593,-0.1682 h 0.269492 v -0.12842 q 0,-0.15193 -0.08501,-0.24236 -0.08501,-0.0922 -0.258641,-0.0922 -0.15012,0 -0.24598,0.076 -0.09586,0.0742 -0.09586,0.18991 H 18.84354 q 0,-0.16097 0.106712,-0.30024 0.106712,-0.14108 0.289388,-0.22066 0.184485,-0.0796 0.41057,-0.0796 0.343648,0 0.548028,0.17363 0.20438,0.17183 0.209806,0.48473 v 0.88263 q 0,0.26407 0.07416,0.42142 v 0.0307 z m -0.482917,-0.31652 q 0.130225,0 0.244172,-0.0633 0.115755,-0.0633 0.173632,-0.17002 v -0.36897 H 19.7316 q -0.244171,0 -0.367161,0.085 -0.12299,0.085 -0.12299,0.24055 0,0.12661 0.0832,0.20258 0.08501,0.0742 0.226084,0.0742 z"
         style="font-style:normal;font-variant:normal;font-weight:normal;font-stretch:normal;font-size:3.70416665px;font-family:'Roboto Medium';-inkscape-font-specification:'Roboto Medium, ';fill:#333333;fill-opacity:1;stroke-width:0.26458332"
         id="path17835"
         inkscape:connector-curvature="0" />
      <path
         d="m 21.276209,256.71046 0.01266,0.22609 q 0.217041,-0.26226 0.569733,-0.26226 0.611332,0 0.622184,0.69996 v 1.2932 h -0.439508 v -1.26788 q 0,-0.18629 -0.08139,-0.27492 -0.07958,-0.0904 -0.262258,-0.0904 -0.265875,0 -0.3961,0.24055 v 1.39268 h -0.439508 v -1.95699 z"
         style="font-style:normal;font-variant:normal;font-weight:normal;font-stretch:normal;font-size:3.70416665px;font-family:'Roboto Medium';-inkscape-font-specification:'Roboto Medium, ';fill:#333333;fill-opacity:1;stroke-width:0.26458332"
         id="path17837"
         inkscape:connector-curvature="0" />
      <path
         d="m 22.847947,257.67449 q 0,-0.45217 0.209807,-0.72528 0.209806,-0.27492 0.562498,-0.27492 0.311092,0 0.502811,0.21704 v -1.00201 h 0.439508 v 2.77813 h -0.397908 l -0.0217,-0.20257 q -0.197146,0.23874 -0.526325,0.23874 -0.343648,0 -0.557072,-0.27672 -0.211615,-0.27673 -0.211615,-0.75241 z m 0.439508,0.038 q 0,0.29843 0.113947,0.46664 0.115755,0.1664 0.32737,0.1664 0.269493,0 0.394291,-0.24056 v -0.83561 q -0.121181,-0.23512 -0.390674,-0.23512 -0.213423,0 -0.329178,0.17001 -0.115756,0.16821 -0.115756,0.50824 z"
         style="font-style:normal;font-variant:normal;font-weight:normal;font-stretch:normal;font-size:3.70416665px;font-family:'Roboto Medium';-inkscape-font-specification:'Roboto Medium, ';fill:#333333;fill-opacity:1;stroke-width:0.26458332"
         id="path17839"
         inkscape:connector-curvature="0" />
      <path
         d="m 25.488612,258.66745 h -0.439508 v -1.95699 h 0.439508 z m -0.466638,-2.46522 q 0,-0.10129 0.0633,-0.16821 0.06511,-0.0669 0.184485,-0.0669 0.119372,0 0.184485,0.0669 0.06511,0.0669 0.06511,0.16821 0,0.0995 -0.06511,0.16639 -0.06511,0.0651 -0.184485,0.0651 -0.119373,0 -0.184485,-0.0651 -0.0633,-0.0669 -0.0633,-0.16639 z"
         style="font-style:normal;font-variant:normal;font-weight:normal;font-stretch:normal;font-size:3.70416665px;font-family:'Roboto Medium';-inkscape-font-specification:'Roboto Medium, ';fill:#333333;fill-opacity:1;stroke-width:0.26458332"
         id="path17841"
         inkscape:connector-curvature="0" />
      <path
         d="m 26.376672,256.71046 0.01266,0.22609 q 0.217041,-0.26226 0.569733,-0.26226 0.611332,0 0.622184,0.69996 v 1.2932 h -0.439508 v -1.26788 q 0,-0.18629 -0.08139,-0.27492 -0.07958,-0.0904 -0.262258,-0.0904 -0.265876,0 -0.3961,0.24055 v 1.39268 h -0.439508 v -1.95699 z"
         style="font-style:normal;font-variant:normal;font-weight:normal;font-stretch:normal;font-size:3.70416665px;font-family:'Roboto Medium';-inkscape-font-specification:'Roboto Medium, ';fill:#333333;fill-opacity:1;stroke-width:0.26458332"
         id="path17843"
         inkscape:connector-curvature="0" />
      <path
         d="m 27.953837,257.67449 q 0,-0.45579 0.213424,-0.72709 0.215232,-0.27311 0.569732,-0.27311 0.334605,0 0.526325,0.23332 l 0.01989,-0.19715 h 0.3961 v 1.8973 q 0,0.38525 -0.240554,0.60772 -0.238745,0.22247 -0.645697,0.22247 -0.215232,0 -0.421421,-0.0904 -0.20438,-0.0886 -0.311092,-0.23332 l 0.207998,-0.26406 q 0.202571,0.24055 0.499194,0.24055 0.21885,0 0.345457,-0.11937 0.126607,-0.11757 0.126607,-0.34727 v -0.13203 q -0.189911,0.21161 -0.506429,0.21161 -0.343648,0 -0.562498,-0.27311 -0.217041,-0.27311 -0.217041,-0.75602 z m 0.4377,0.038 q 0,0.29481 0.119372,0.46483 0.121181,0.16821 0.334605,0.16821 0.265875,0 0.394291,-0.2279 v -0.86093 q -0.124798,-0.22246 -0.390674,-0.22246 -0.217041,0 -0.338222,0.17182 -0.119372,0.17182 -0.119372,0.50643 z"
         style="font-style:normal;font-variant:normal;font-weight:normal;font-stretch:normal;font-size:3.70416665px;font-family:'Roboto Medium';-inkscape-font-specification:'Roboto Medium, ';fill:#333333;fill-opacity:1;stroke-width:0.26458332"
         id="path17845"
         inkscape:connector-curvature="0" />
      <path
         d="m 32.772148,257.70885 q 0,0.45579 -0.20438,0.72528 -0.202572,0.26949 -0.558881,0.26949 -0.343648,0 -0.535368,-0.24779 l -0.0217,0.21162 h -0.397908 v -2.77813 h 0.439508 v 1.00925 q 0.189911,-0.22428 0.511855,-0.22428 0.358117,0 0.562498,0.26588 0.20438,0.26587 0.20438,0.74336 z m -0.439508,-0.038 q 0,-0.31833 -0.112138,-0.47749 -0.112138,-0.15916 -0.325562,-0.15916 -0.28577,0 -0.401525,0.24959 v 0.80667 q 0.117564,0.25503 0.405143,0.25503 0.206189,0 0.318327,-0.15374 0.112138,-0.15374 0.115755,-0.46483 z"
         style="font-style:normal;font-variant:normal;font-weight:normal;font-stretch:normal;font-size:3.70416665px;font-family:'Roboto Medium';-inkscape-font-specification:'Roboto Medium, ';fill:#333333;fill-opacity:1;stroke-width:0.26458332"
         id="path17847"
         inkscape:connector-curvature="0" />
      <path
         d="m 34.323992,258.47573 q -0.193528,0.22789 -0.549837,0.22789 -0.318327,0 -0.482917,-0.18629 -0.16278,-0.18629 -0.16278,-0.53899 v -1.26788 h 0.439508 v 1.26246 q 0,0.37259 0.309283,0.37259 0.320136,0 0.432273,-0.22971 v -1.40534 h 0.439508 v 1.95699 h -0.414186 z"
         style="font-style:normal;font-variant:normal;font-weight:normal;font-stretch:normal;font-size:3.70416665px;font-family:'Roboto Medium';-inkscape-font-specification:'Roboto Medium, ';fill:#333333;fill-opacity:1;stroke-width:0.26458332"
         id="path17849"
         inkscape:connector-curvature="0" />
      <path
         d="m 35.884878,258.03803 0.397909,-1.32757 h 0.468447 l -0.777731,2.25361 q -0.179058,0.49377 -0.607714,0.49377 -0.09586,0 -0.211615,-0.0326 v -0.34003 l 0.0832,0.005 q 0.166398,0 0.249597,-0.0615 0.08501,-0.0597 0.133842,-0.20257 l 0.0633,-0.1682 -0.687296,-1.94795 h 0.473873 z"
         style="font-style:normal;font-variant:normal;font-weight:normal;font-stretch:normal;font-size:3.70416665px;font-family:'Roboto Medium';-inkscape-font-specification:'Roboto Medium, ';fill:#333333;fill-opacity:1;stroke-width:0.26458332"
         id="path17851"
         inkscape:connector-curvature="0" />
      <path
         d="m 38.098696,258.1357 q 0,-0.11756 -0.09767,-0.17906 -0.09586,-0.0615 -0.320135,-0.10852 -0.224276,-0.047 -0.374396,-0.11937 -0.329179,-0.15917 -0.329179,-0.46121 0,-0.25322 0.213424,-0.42323 0.213423,-0.17002 0.542602,-0.17002 0.350883,0 0.566116,0.17363 0.217041,0.17364 0.217041,0.45036 h -0.439508 q 0,-0.1266 -0.09405,-0.2098 -0.09405,-0.085 -0.249597,-0.085 -0.144694,0 -0.236936,0.0669 -0.09043,0.0669 -0.09043,0.17906 0,0.10128 0.08501,0.15735 0.08501,0.0561 0.343648,0.11395 0.258641,0.0561 0.405143,0.13565 0.148312,0.0778 0.21885,0.1881 0.07235,0.11033 0.07235,0.26769 0,0.26406 -0.21885,0.42865 -0.218849,0.16278 -0.57335,0.16278 -0.240554,0 -0.428656,-0.0868 -0.188102,-0.0868 -0.293005,-0.23875 -0.104903,-0.15193 -0.104903,-0.32737 h 0.426847 q 0.009,0.15555 0.117564,0.24056 0.10852,0.0832 0.287579,0.0832 0.173633,0 0.264067,-0.0651 0.09043,-0.0669 0.09043,-0.17363 z"
         style="font-style:normal;font-variant:normal;font-weight:normal;font-stretch:normal;font-size:3.70416665px;font-family:'Roboto Medium';-inkscape-font-specification:'Roboto Medium, ';fill:#333333;fill-opacity:1;stroke-width:0.26458332"
         id="path17853"
         inkscape:connector-curvature="0" />
    </g>
    <path
       style="fill:none;stroke:#333333;stroke-width:0.40000001;stroke-linecap:butt;stroke-linejoin:miter;stroke-miterlimit:4;stroke-dasharray:none;stroke-opacity:1"
       d="M 12.410006,253.98687 H 42.316717"
       id="path15620"
       inkscape:connector-curvature="0"
       sodipodi:nodetypes="cc" />
    <g
       aria-label="0"
       style="font-style:normal;font-variant:normal;font-weight:normal;font-stretch:normal;font-size:2.79941797px;line-height:1.25;font-family:Roboto;-inkscape-font-specification:Roboto;letter-spacing:0px;word-spacing:0px;fill:#333333;fill-opacity:1;stroke:none;stroke-width:0.1312227"
       id="text15624"
       transform="translate(0,-0.52129217)">
      <path
         d="m 11.210919,266.93399 q 0,0.44424 -0.151727,0.66021 -0.151726,0.21597 -0.474315,0.21597 -0.318489,0 -0.471582,-0.2105 -0.1530928,-0.21187 -0.1585605,-0.63151 v -0.33762 q 0,-0.43878 0.1517265,-0.65202 0.151726,-0.21323 0.475682,-0.21323 0.321222,0 0.472949,0.2064 0.151726,0.20504 0.155827,0.63424 z m -0.252877,-0.34583 q 0,-0.32122 -0.09022,-0.46748 -0.09022,-0.14762 -0.285683,-0.14762 -0.1941,0 -0.282949,0.14626 -0.08885,0.14625 -0.09158,0.44971 v 0.4046 q 0,0.32259 0.09295,0.47705 0.09432,0.15309 0.284316,0.15309 0.187266,0 0.277481,-0.14489 0.09158,-0.14489 0.09568,-0.45654 z"
         style="font-style:normal;font-variant:normal;font-weight:normal;font-stretch:normal;font-size:2.79941797px;font-family:Roboto;-inkscape-font-specification:Roboto;fill:#333333;fill-opacity:1;stroke-width:0.1312227"
         id="path17828"
         inkscape:connector-curvature="0" />
    </g>
    <g
       aria-label="b"
       style="font-style:normal;font-variant:normal;font-weight:normal;font-stretch:normal;font-size:5.28458023px;line-height:1.25;font-family:Roboto;-inkscape-font-specification:Roboto;letter-spacing:0px;word-spacing:0px;fill:#333333;fill-opacity:1;stroke:none;stroke-width:0.24771468"
       id="text15640"
       transform="translate(0,-0.52129217)">
      <path
         d="m 9.6884409,278.6179 q 0,0.63993 -0.2941612,1.02956 -0.2941612,0.38706 -0.7895906,0.38706 -0.5289741,0 -0.8179746,-0.37416 l -0.023223,0.32255 H 7.3248298 v -3.96344 h 0.4773668 v 1.47855 q 0.2890005,-0.35867 0.7973317,-0.35867 0.5083312,0 0.7973317,0.38448 0.2915809,0.38447 0.2915809,1.05278 z M 9.211074,278.5637 q 0,-0.48769 -0.1883664,-0.75346 -0.1883664,-0.26578 -0.5418759,-0.26578 -0.4722061,0 -0.6786351,0.43866 v 1.20761 q 0.2193308,0.43866 0.6837958,0.43866 0.3431881,0 0.5341348,-0.26578 0.1909468,-0.26577 0.1909468,-0.79991 z"
         style="font-style:normal;font-variant:normal;font-weight:normal;font-stretch:normal;font-size:5.28458023px;font-family:Roboto;-inkscape-font-specification:Roboto;fill:#333333;fill-opacity:1;stroke-width:0.24771468"
         id="path17825"
         inkscape:connector-curvature="0" />
    </g>
    <g
       aria-label="1"
       style="font-style:normal;font-variant:normal;font-weight:normal;font-stretch:normal;font-size:2.79941797px;line-height:1.25;font-family:Roboto;-inkscape-font-specification:Roboto;letter-spacing:0px;word-spacing:0px;fill:#333333;fill-opacity:1;stroke:none;stroke-width:0.1312227"
       id="text15644"
       transform="translate(0,-0.52129217)">
      <path
         d="m 10.794013,280.0072 h -0.254244 v -1.68539 l -0.509855,0.18727 v -0.22964 l 0.724459,-0.27202 h 0.03964 z"
         style="font-style:normal;font-variant:normal;font-weight:normal;font-stretch:normal;font-size:2.79941797px;font-family:Roboto;-inkscape-font-specification:Roboto;fill:#333333;fill-opacity:1;stroke-width:0.1312227"
         id="path17822"
         inkscape:connector-curvature="0" />
    </g>
    <g
       aria-label="b"
       style="font-style:normal;font-variant:normal;font-weight:normal;font-stretch:normal;font-size:5.28458023px;line-height:1.25;font-family:Roboto;-inkscape-font-specification:Roboto;letter-spacing:0px;word-spacing:0px;fill:#333333;fill-opacity:1;stroke:none;stroke-width:0.24771468"
       id="text15648"
       transform="translate(0,-0.52129217)">
      <path
         d="m 9.6884409,290.1096 q 0,0.63993 -0.2941612,1.02956 -0.2941612,0.38706 -0.7895906,0.38706 -0.5289741,0 -0.8179746,-0.37416 l -0.023223,0.32255 H 7.3248298 v -3.96344 h 0.4773668 v 1.47855 q 0.2890005,-0.35867 0.7973317,-0.35867 0.5083312,0 0.7973317,0.38447 0.2915809,0.38448 0.2915809,1.05279 z M 9.211074,290.0554 q 0,-0.48769 -0.1883664,-0.75346 -0.1883664,-0.26578 -0.5418759,-0.26578 -0.4722061,0 -0.6786351,0.43866 v 1.20761 q 0.2193308,0.43866 0.6837958,0.43866 0.3431881,0 0.5341348,-0.26578 0.1909468,-0.26577 0.1909468,-0.79991 z"
         style="font-style:normal;font-variant:normal;font-weight:normal;font-stretch:normal;font-size:5.28458023px;font-family:Roboto;-inkscape-font-specification:Roboto;fill:#333333;fill-opacity:1;stroke-width:0.24771468"
         id="path17819"
         inkscape:connector-curvature="0" />
    </g>
    <g
       aria-label="2"
       style="font-style:normal;font-variant:normal;font-weight:normal;font-stretch:normal;font-size:2.79941797px;line-height:1.25;font-family:Roboto;-inkscape-font-specification:Roboto;letter-spacing:0px;word-spacing:0px;fill:#333333;fill-opacity:1;stroke:none;stroke-width:0.1312227"
       id="text15652"
       transform="translate(0,-0.52129217)">
      <path
         d="M 11.266962,291.4989 H 9.962936 v -0.1818 l 0.688919,-0.76546 q 0.153093,-0.1736 0.210503,-0.28158 0.05878,-0.10936 0.05878,-0.22554 0,-0.15583 -0.09432,-0.25561 -0.09432,-0.0998 -0.25151,-0.0998 -0.188633,0 -0.293885,0.10799 -0.103884,0.10662 -0.103884,0.29798 H 9.9246627 q 0,-0.27475 0.1763303,-0.44424 0.177698,-0.1695 0.474316,-0.1695 0.277481,0 0.438776,0.14626 0.161294,0.14489 0.161294,0.38683 0,0.29389 -0.374531,0.69986 l -0.533093,0.5782 h 0.999207 z"
         style="font-style:normal;font-variant:normal;font-weight:normal;font-stretch:normal;font-size:2.79941797px;font-family:Roboto;-inkscape-font-specification:Roboto;fill:#333333;fill-opacity:1;stroke-width:0.1312227"
         id="path17816"
         inkscape:connector-curvature="0" />
    </g>
    <path
       style="fill:none;stroke:#333333;stroke-width:0.40000001;stroke-linecap:butt;stroke-linejoin:miter;stroke-miterlimit:4;stroke-dasharray:none;stroke-opacity:1"
       d="m 12.61858,253.78671 v 41.59078"
       id="path15664"
       inkscape:connector-curvature="0"
       sodipodi:nodetypes="cc" />
    <path
       style="fill:none;stroke:#333333;stroke-width:0.40000001;stroke-linecap:butt;stroke-linejoin:miter;stroke-miterlimit:4;stroke-dasharray:none;stroke-opacity:1"
       d="m 42.12759,259.89949 -2e-6,-6.11139"
       id="path15666"
       inkscape:connector-curvature="0"
       sodipodi:nodetypes="cc" />
    <path
       style="fill:#000000;fill-opacity:0;stroke:#333333;stroke-width:0.40000001;stroke-miterlimit:4;stroke-dasharray:none;stroke-dashoffset:0;stroke-opacity:1"
       d="M 84.150681,259.89949 H 47.332008 v 35.24358 h 36.818673 z"
       id="rect15682"
       inkscape:connector-curvature="0" />
    <path
       sodipodi:nodetypes="cc"
       inkscape:connector-curvature="0"
       id="path15686"
       d="M 84.150692,283.46083 H 47.405263"
       style="fill:#000000;stroke:#333333;stroke-width:0.40000001;stroke-linecap:butt;stroke-linejoin:miter;stroke-miterlimit:4;stroke-dasharray:none;stroke-opacity:1" />
    <path
       sodipodi:nodetypes="cc"
       style="fill:#000000;stroke:#333333;stroke-width:0.40000001;stroke-linecap:butt;stroke-linejoin:miter;stroke-miterlimit:4;stroke-dasharray:none;stroke-opacity:1"
       d="M 84.150692,271.86523 H 47.405263"
       id="path15688"
       inkscape:connector-curvature="0" />
    <path
       sodipodi:nodetypes="cc"
       inkscape:connector-curvature="0"
       id="path15690"
       d="M 77.038332,253.9336 H 47.118455"
       style="fill:none;stroke:#333333;stroke-width:0.40000001;stroke-linecap:butt;stroke-linejoin:miter;stroke-miterlimit:4;stroke-dasharray:none;stroke-opacity:1" />
    <path
       sodipodi:nodetypes="cc"
       inkscape:connector-curvature="0"
       id="path15692"
       d="m 76.841022,253.73872 v 41.33165"
       style="fill:none;stroke:#333333;stroke-width:0.40000001;stroke-linecap:butt;stroke-linejoin:miter;stroke-miterlimit:4;stroke-dasharray:none;stroke-opacity:1" />
    <path
       sodipodi:nodetypes="cc"
       inkscape:connector-curvature="0"
       id="path15694"
       d="m 47.331995,259.89949 v -6.17225"
       style="fill:none;stroke:#333333;stroke-width:0.40000001;stroke-linecap:butt;stroke-linejoin:miter;stroke-miterlimit:4;stroke-dasharray:none;stroke-opacity:1" />
    <g
       aria-label="standing sells"
       style="font-style:normal;font-variant:normal;font-weight:normal;font-stretch:normal;font-size:3.70416665px;line-height:1.25;font-family:'Roboto Medium';-inkscape-font-specification:'Roboto Medium, ';letter-spacing:0px;word-spacing:0px;fill:#333333;fill-opacity:1;stroke:none;stroke-width:0.26458332"
       id="text15698"
       transform="translate(0,-0.52129217)">
      <path
         d="m 52.049826,258.22573 q 0,-0.11757 -0.09767,-0.17906 -0.09586,-0.0615 -0.320135,-0.10852 -0.224276,-0.047 -0.374396,-0.11938 -0.329179,-0.15916 -0.329179,-0.46121 0,-0.25321 0.213424,-0.42323 0.213423,-0.17001 0.542602,-0.17001 0.350883,0 0.566115,0.17363 0.217041,0.17363 0.217041,0.45036 H 52.02812 q 0,-0.12661 -0.09405,-0.20981 -0.09405,-0.085 -0.249597,-0.085 -0.144694,0 -0.236936,0.0669 -0.09043,0.0669 -0.09043,0.17906 0,0.10128 0.08501,0.15735 0.08501,0.0561 0.343648,0.11395 0.258641,0.0561 0.405143,0.13565 0.148312,0.0778 0.21885,0.1881 0.07235,0.11033 0.07235,0.26768 0,0.26407 -0.21885,0.42866 -0.218849,0.16278 -0.57335,0.16278 -0.240554,0 -0.428656,-0.0868 -0.188102,-0.0868 -0.293005,-0.23874 -0.104903,-0.15193 -0.104903,-0.32737 h 0.426847 q 0.009,0.15554 0.117564,0.24055 0.10852,0.0832 0.287579,0.0832 0.173633,0 0.264067,-0.0651 0.09043,-0.0669 0.09043,-0.17363 z"
         style="font-style:normal;font-variant:normal;font-weight:normal;font-stretch:normal;font-size:3.70416665px;font-family:'Roboto Medium';-inkscape-font-specification:'Roboto Medium, ';fill:#333333;fill-opacity:1;stroke-width:0.26458332"
         id="path17788"
         inkscape:connector-curvature="0" />
      <path
         d="m 53.413567,256.32481 v 0.47568 h 0.345457 v 0.32556 h -0.345457 v 1.09244 q 0,0.11214 0.04341,0.16278 0.04522,0.0488 0.159163,0.0488 0.07597,0 0.153738,-0.0181 v 0.34003 q -0.15012,0.0416 -0.289388,0.0416 -0.506429,0 -0.506429,-0.55888 V 257.126 h -0.321945 v -0.32556 h 0.321945 v -0.47568 z"
         style="font-style:normal;font-variant:normal;font-weight:normal;font-stretch:normal;font-size:3.70416665px;font-family:'Roboto Medium';-inkscape-font-specification:'Roboto Medium, ';fill:#333333;fill-opacity:1;stroke-width:0.26458332"
         id="path17790"
         inkscape:connector-curvature="0" />
      <path
         d="m 55.262033,258.75748 q -0.02894,-0.0561 -0.05064,-0.18268 -0.209807,0.21885 -0.513664,0.21885 -0.294814,0 -0.481108,-0.16821 -0.186293,-0.1682 -0.186293,-0.41599 0,-0.3129 0.23151,-0.4793 0.233319,-0.16821 0.665593,-0.16821 h 0.269492 v -0.12841 q 0,-0.15193 -0.08501,-0.24237 -0.08501,-0.0922 -0.258641,-0.0922 -0.15012,0 -0.24598,0.076 -0.09586,0.0741 -0.09586,0.18991 h -0.439509 q 0,-0.16098 0.106712,-0.30024 0.106712,-0.14108 0.289388,-0.22066 0.184485,-0.0796 0.41057,-0.0796 0.343648,0 0.548028,0.17363 0.20438,0.17182 0.209806,0.48472 v 0.88264 q 0,0.26406 0.07416,0.42142 v 0.0308 z m -0.482917,-0.31652 q 0.130225,0 0.244172,-0.0633 0.115755,-0.0633 0.173632,-0.17002 v -0.36897 h -0.236936 q -0.244171,0 -0.367161,0.085 -0.12299,0.085 -0.12299,0.24055 0,0.12661 0.0832,0.20257 0.08501,0.0742 0.226084,0.0742 z"
         style="font-style:normal;font-variant:normal;font-weight:normal;font-stretch:normal;font-size:3.70416665px;font-family:'Roboto Medium';-inkscape-font-specification:'Roboto Medium, ';fill:#333333;fill-opacity:1;stroke-width:0.26458332"
         id="path17792"
         inkscape:connector-curvature="0" />
      <path
         d="m 56.504593,256.80049 0.01266,0.22608 q 0.217041,-0.26225 0.569733,-0.26225 0.611332,0 0.622184,0.69995 v 1.29321 h -0.439508 v -1.26788 q 0,-0.1863 -0.08139,-0.27492 -0.07958,-0.0904 -0.262258,-0.0904 -0.265875,0 -0.3961,0.24056 v 1.39268 h -0.439508 v -1.95699 z"
         style="font-style:normal;font-variant:normal;font-weight:normal;font-stretch:normal;font-size:3.70416665px;font-family:'Roboto Medium';-inkscape-font-specification:'Roboto Medium, ';fill:#333333;fill-opacity:1;stroke-width:0.26458332"
         id="path17794"
         inkscape:connector-curvature="0" />
      <path
         d="m 58.076331,257.76451 q 0,-0.45216 0.209807,-0.72527 0.209806,-0.27492 0.562498,-0.27492 0.311092,0 0.502811,0.21704 v -1.00201 h 0.439508 v 2.77813 h -0.397908 l -0.0217,-0.20257 q -0.197146,0.23874 -0.526325,0.23874 -0.343648,0 -0.557072,-0.27673 -0.211615,-0.27672 -0.211615,-0.75241 z m 0.439508,0.038 q 0,0.29843 0.113947,0.46663 0.115755,0.1664 0.32737,0.1664 0.269493,0 0.394291,-0.24055 v -0.83561 q -0.121181,-0.23513 -0.390674,-0.23513 -0.213423,0 -0.329178,0.17002 -0.115756,0.16821 -0.115756,0.50824 z"
         style="font-style:normal;font-variant:normal;font-weight:normal;font-stretch:normal;font-size:3.70416665px;font-family:'Roboto Medium';-inkscape-font-specification:'Roboto Medium, ';fill:#333333;fill-opacity:1;stroke-width:0.26458332"
         id="path17796"
         inkscape:connector-curvature="0" />
      <path
         d="m 60.716996,258.75748 h -0.439508 v -1.95699 h 0.439508 z m -0.466638,-2.46523 q 0,-0.10128 0.0633,-0.1682 0.06511,-0.0669 0.184485,-0.0669 0.119372,0 0.184485,0.0669 0.06511,0.0669 0.06511,0.1682 0,0.0995 -0.06511,0.1664 -0.06511,0.0651 -0.184485,0.0651 -0.119373,0 -0.184485,-0.0651 -0.0633,-0.0669 -0.0633,-0.1664 z"
         style="font-style:normal;font-variant:normal;font-weight:normal;font-stretch:normal;font-size:3.70416665px;font-family:'Roboto Medium';-inkscape-font-specification:'Roboto Medium, ';fill:#333333;fill-opacity:1;stroke-width:0.26458332"
         id="path17798"
         inkscape:connector-curvature="0" />
      <path
         d="m 61.605056,256.80049 0.01266,0.22608 q 0.217041,-0.26225 0.569733,-0.26225 0.611332,0 0.622184,0.69995 v 1.29321 h -0.439508 v -1.26788 q 0,-0.1863 -0.08139,-0.27492 -0.07958,-0.0904 -0.262258,-0.0904 -0.265875,0 -0.3961,0.24056 v 1.39268 H 61.19087 v -1.95699 z"
         style="font-style:normal;font-variant:normal;font-weight:normal;font-stretch:normal;font-size:3.70416665px;font-family:'Roboto Medium';-inkscape-font-specification:'Roboto Medium, ';fill:#333333;fill-opacity:1;stroke-width:0.26458332"
         id="path17800"
         inkscape:connector-curvature="0" />
      <path
         d="m 63.182221,257.76451 q 0,-0.45578 0.213424,-0.72708 0.215232,-0.27311 0.569732,-0.27311 0.334605,0 0.526325,0.23332 l 0.01989,-0.19715 h 0.3961 v 1.8973 q 0,0.38525 -0.240554,0.60772 -0.238745,0.22246 -0.645697,0.22246 -0.215232,0 -0.421421,-0.0904 -0.20438,-0.0886 -0.311092,-0.23332 l 0.207998,-0.26407 q 0.202571,0.24056 0.499194,0.24056 0.21885,0 0.345457,-0.11938 0.126607,-0.11756 0.126607,-0.34726 v -0.13203 q -0.189911,0.21161 -0.506429,0.21161 -0.343648,0 -0.562498,-0.27311 -0.217041,-0.27311 -0.217041,-0.75603 z m 0.4377,0.038 q 0,0.29481 0.119372,0.46483 0.121181,0.1682 0.334605,0.1682 0.265875,0 0.394291,-0.22789 v -0.86093 q -0.124798,-0.22247 -0.390674,-0.22247 -0.217041,0 -0.338222,0.17183 -0.119372,0.17182 -0.119372,0.50643 z"
         style="font-style:normal;font-variant:normal;font-weight:normal;font-stretch:normal;font-size:3.70416665px;font-family:'Roboto Medium';-inkscape-font-specification:'Roboto Medium, ';fill:#333333;fill-opacity:1;stroke-width:0.26458332"
         id="path17802"
         inkscape:connector-curvature="0" />
      <path
         d="m 67.380156,258.22573 q 0,-0.11757 -0.09767,-0.17906 -0.09586,-0.0615 -0.320136,-0.10852 -0.224275,-0.047 -0.374395,-0.11938 -0.329179,-0.15916 -0.329179,-0.46121 0,-0.25321 0.213423,-0.42323 0.213424,-0.17001 0.542603,-0.17001 0.350883,0 0.566115,0.17363 0.217041,0.17363 0.217041,0.45036 H 67.35845 q 0,-0.12661 -0.09405,-0.20981 -0.09405,-0.085 -0.249597,-0.085 -0.144694,0 -0.236936,0.0669 -0.09043,0.0669 -0.09043,0.17906 0,0.10128 0.08501,0.15735 0.08501,0.0561 0.343648,0.11395 0.25864,0.0561 0.405143,0.13565 0.148311,0.0778 0.21885,0.1881 0.07235,0.11033 0.07235,0.26768 0,0.26407 -0.21885,0.42866 -0.21885,0.16278 -0.57335,0.16278 -0.240554,0 -0.428656,-0.0868 -0.188102,-0.0868 -0.293005,-0.23874 -0.104903,-0.15193 -0.104903,-0.32737 h 0.426847 q 0.009,0.15554 0.117564,0.24055 0.10852,0.0832 0.287579,0.0832 0.173633,0 0.264067,-0.0651 0.09043,-0.0669 0.09043,-0.17363 z"
         style="font-style:normal;font-variant:normal;font-weight:normal;font-stretch:normal;font-size:3.70416665px;font-family:'Roboto Medium';-inkscape-font-specification:'Roboto Medium, ';fill:#333333;fill-opacity:1;stroke-width:0.26458332"
         id="path17804"
         inkscape:connector-curvature="0" />
      <path
         d="m 69.054989,258.79365 q -0.417804,0 -0.678253,-0.26226 -0.25864,-0.26406 -0.25864,-0.70176 v -0.0543 q 0,-0.29301 0.112138,-0.52271 0.113946,-0.23151 0.318326,-0.35993 0.204381,-0.12841 0.455786,-0.12841 0.399718,0 0.616759,0.25502 0.218849,0.25502 0.218849,0.72166 v 0.17725 h -1.278733 q 0.01989,0.24236 0.160972,0.38344 0.142885,0.14108 0.358118,0.14108 0.302049,0 0.491959,-0.24417 l 0.236937,0.22608 q -0.117564,0.17544 -0.31471,0.27311 -0.195336,0.0959 -0.439508,0.0959 z m -0.05245,-1.67664 q -0.180868,0 -0.293006,0.12661 -0.110329,0.1266 -0.141076,0.35269 h 0.837416 v -0.0326 q -0.01447,-0.22066 -0.117564,-0.33279 -0.103094,-0.11395 -0.28577,-0.11395 z"
         style="font-style:normal;font-variant:normal;font-weight:normal;font-stretch:normal;font-size:3.70416665px;font-family:'Roboto Medium';-inkscape-font-specification:'Roboto Medium, ';fill:#333333;fill-opacity:1;stroke-width:0.26458332"
         id="path17806"
         inkscape:connector-curvature="0" />
      <path
         d="m 70.65024,258.75748 h -0.439508 v -2.77813 h 0.439508 z"
         style="font-style:normal;font-variant:normal;font-weight:normal;font-stretch:normal;font-size:3.70416665px;font-family:'Roboto Medium';-inkscape-font-specification:'Roboto Medium, ';fill:#333333;fill-opacity:1;stroke-width:0.26458332"
         id="path17808"
         inkscape:connector-curvature="0" />
      <path
         d="m 71.597986,258.75748 h -0.439508 v -2.77813 h 0.439508 z"
         style="font-style:normal;font-variant:normal;font-weight:normal;font-stretch:normal;font-size:3.70416665px;font-family:'Roboto Medium';-inkscape-font-specification:'Roboto Medium, ';fill:#333333;fill-opacity:1;stroke-width:0.26458332"
         id="path17810"
         inkscape:connector-curvature="0" />
      <path
         d="m 73.175152,258.22573 q 0,-0.11757 -0.09767,-0.17906 -0.09586,-0.0615 -0.320135,-0.10852 -0.224276,-0.047 -0.374396,-0.11938 -0.329179,-0.15916 -0.329179,-0.46121 0,-0.25321 0.213424,-0.42323 0.213423,-0.17001 0.542602,-0.17001 0.350883,0 0.566116,0.17363 0.217041,0.17363 0.217041,0.45036 h -0.439508 q 0,-0.12661 -0.09405,-0.20981 -0.09405,-0.085 -0.249597,-0.085 -0.144694,0 -0.236936,0.0669 -0.09043,0.0669 -0.09043,0.17906 0,0.10128 0.08501,0.15735 0.08501,0.0561 0.343648,0.11395 0.258641,0.0561 0.405143,0.13565 0.148312,0.0778 0.21885,0.1881 0.07235,0.11033 0.07235,0.26768 0,0.26407 -0.21885,0.42866 -0.218849,0.16278 -0.57335,0.16278 -0.240553,0 -0.428656,-0.0868 -0.188102,-0.0868 -0.293005,-0.23874 -0.104903,-0.15193 -0.104903,-0.32737 h 0.426847 q 0.009,0.15554 0.117564,0.24055 0.108521,0.0832 0.287579,0.0832 0.173633,0 0.264067,-0.0651 0.09043,-0.0669 0.09043,-0.17363 z"
         style="font-style:normal;font-variant:normal;font-weight:normal;font-stretch:normal;font-size:3.70416665px;font-family:'Roboto Medium';-inkscape-font-specification:'Roboto Medium, ';fill:#333333;fill-opacity:1;stroke-width:0.26458332"
         id="path17812"
         inkscape:connector-curvature="0" />
    </g>
    <g
       aria-label="s"
       style="font-style:normal;font-variant:normal;font-weight:normal;font-stretch:normal;font-size:5.28458023px;line-height:1.25;font-family:Roboto;-inkscape-font-specification:Roboto;letter-spacing:0px;word-spacing:0px;fill:#333333;fill-opacity:1;stroke:none;stroke-width:0.24771468"
       id="text15728"
       transform="translate(0,-0.52129217)">
      <path
         d="m 80.149087,266.49402 q 0,-0.19352 -0.147081,-0.29932 -0.1445,-0.10837 -0.508331,-0.18578 -0.361251,-0.0774 -0.575421,-0.18579 -0.211589,-0.10837 -0.314804,-0.25804 -0.100634,-0.14966 -0.100634,-0.35609 0,-0.34318 0.289001,-0.58058 0.291581,-0.23739 0.743144,-0.23739 0.474786,0 0.768948,0.24513 0.296741,0.24514 0.296741,0.62703 h -0.479947 q 0,-0.1961 -0.167724,-0.33802 -0.165143,-0.14192 -0.418018,-0.14192 -0.260617,0 -0.407697,0.11353 -0.147081,0.11354 -0.147081,0.29674 0,0.17289 0.136759,0.26062 0.136759,0.0877 0.492849,0.16772 0.358671,0.08 0.580582,0.19095 0.221911,0.11096 0.327706,0.26836 0.108375,0.15482 0.108375,0.37931 0,0.37415 -0.299322,0.60122 -0.299322,0.2245 -0.776689,0.2245 -0.335447,0 -0.593483,-0.1187 -0.258036,-0.1187 -0.405117,-0.33029 -0.1445,-0.21417 -0.1445,-0.46188 h 0.477367 q 0.0129,0.23997 0.190947,0.38189 0.180625,0.13934 0.474786,0.13934 0.270938,0 0.433501,-0.10837 0.165143,-0.11096 0.165143,-0.29417 z"
         style="font-style:normal;font-variant:normal;font-weight:normal;font-stretch:normal;font-size:5.28458023px;font-family:Roboto;-inkscape-font-specification:Roboto;fill:#333333;fill-opacity:1;stroke-width:0.24771468"
         id="path17785"
         inkscape:connector-curvature="0" />
    </g>
    <g
       aria-label="0"
       style="font-style:normal;font-variant:normal;font-weight:normal;font-stretch:normal;font-size:2.79941797px;line-height:1.25;font-family:Roboto;-inkscape-font-specification:Roboto;letter-spacing:0px;word-spacing:0px;fill:#333333;fill-opacity:1;stroke:none;stroke-width:0.1312227"
       id="text15732"
       transform="translate(0,-0.52129217)">
      <path
         d="m 82.40954,266.41003 q 0,0.44425 -0.151726,0.66022 -0.151726,0.21597 -0.474315,0.21597 -0.318489,0 -0.471582,-0.2105 -0.153093,-0.21187 -0.158561,-0.63151 v -0.33763 q 0,-0.43877 0.151727,-0.65201 0.151726,-0.21324 0.475682,-0.21324 0.321222,0 0.472948,0.2064 0.151727,0.20504 0.155827,0.63425 z m -0.252877,-0.34582 q 0,-0.32123 -0.09022,-0.46748 -0.09022,-0.14763 -0.285683,-0.14763 -0.1941,0 -0.282949,0.14626 -0.08885,0.14626 -0.09158,0.44971 v 0.4046 q 0,0.32259 0.09295,0.47705 0.09432,0.1531 0.284316,0.1531 0.187265,0 0.277481,-0.1449 0.09158,-0.14489 0.09568,-0.45654 z"
         style="font-style:normal;font-variant:normal;font-weight:normal;font-stretch:normal;font-size:2.79941797px;font-family:Roboto;-inkscape-font-specification:Roboto;fill:#333333;fill-opacity:1;stroke-width:0.1312227"
         id="path17782"
         inkscape:connector-curvature="0" />
    </g>
    <g
       aria-label="s"
       style="font-style:normal;font-variant:normal;font-weight:normal;font-stretch:normal;font-size:5.28458023px;line-height:1.25;font-family:Roboto;-inkscape-font-specification:Roboto;letter-spacing:0px;word-spacing:0px;fill:#333333;fill-opacity:1;stroke:none;stroke-width:0.24771468"
       id="text15736"
       transform="translate(0,-0.52129217)">
      <path
         d="m 80.149087,278.57163 q 0,-0.19353 -0.147081,-0.29932 -0.1445,-0.10838 -0.508331,-0.18579 -0.361251,-0.0774 -0.575421,-0.18578 -0.211589,-0.10838 -0.314804,-0.25804 -0.100634,-0.14966 -0.100634,-0.35609 0,-0.34319 0.289001,-0.58058 0.291581,-0.23739 0.743144,-0.23739 0.474786,0 0.768948,0.24513 0.296741,0.24514 0.296741,0.62703 h -0.479947 q 0,-0.19611 -0.167724,-0.33803 -0.165143,-0.14192 -0.418018,-0.14192 -0.260617,0 -0.407697,0.11354 -0.147081,0.11353 -0.147081,0.29674 0,0.17288 0.136759,0.26062 0.136759,0.0877 0.492849,0.16772 0.358671,0.08 0.580582,0.19095 0.221911,0.11095 0.327706,0.26835 0.108375,0.15482 0.108375,0.37932 0,0.37415 -0.299322,0.60122 -0.299322,0.22449 -0.776689,0.22449 -0.335447,0 -0.593483,-0.11869 -0.258036,-0.1187 -0.405117,-0.33029 -0.1445,-0.21417 -0.1445,-0.46189 h 0.477367 q 0.0129,0.23998 0.190947,0.3819 0.180625,0.13934 0.474786,0.13934 0.270938,0 0.433501,-0.10838 0.165143,-0.11095 0.165143,-0.29416 z"
         style="font-style:normal;font-variant:normal;font-weight:normal;font-stretch:normal;font-size:5.28458023px;font-family:Roboto;-inkscape-font-specification:Roboto;fill:#333333;fill-opacity:1;stroke-width:0.24771468"
         id="path17779"
         inkscape:connector-curvature="0" />
    </g>
    <g
       aria-label="1"
       style="font-style:normal;font-variant:normal;font-weight:normal;font-stretch:normal;font-size:2.79941797px;line-height:1.25;font-family:Roboto;-inkscape-font-specification:Roboto;letter-spacing:0px;word-spacing:0px;fill:#333333;fill-opacity:1;stroke:none;stroke-width:0.1312227"
       id="text15740"
       transform="translate(0,-0.52129217)">
      <path
         d="m 81.992635,279.33649 h -0.254244 v -1.68539 l -0.509855,0.18726 v -0.22964 l 0.724459,-0.27201 h 0.03964 z"
         style="font-style:normal;font-variant:normal;font-weight:normal;font-stretch:normal;font-size:2.79941797px;font-family:Roboto;-inkscape-font-specification:Roboto;fill:#333333;fill-opacity:1;stroke-width:0.1312227"
         id="path17776"
         inkscape:connector-curvature="0" />
    </g>
    <g
       aria-label="s"
       style="font-style:normal;font-variant:normal;font-weight:normal;font-stretch:normal;font-size:5.28458023px;line-height:1.25;font-family:Roboto;-inkscape-font-specification:Roboto;letter-spacing:0px;word-spacing:0px;fill:#333333;fill-opacity:1;stroke:none;stroke-width:0.24771468"
       id="text15744"
       transform="translate(0,-0.52129217)">
      <path
         d="m 80.149087,290.83799 q 0,-0.19353 -0.147081,-0.29932 -0.1445,-0.10838 -0.508331,-0.18579 -0.361251,-0.0774 -0.575421,-0.18579 -0.211589,-0.10837 -0.314804,-0.25803 -0.100634,-0.14966 -0.100634,-0.35609 0,-0.34319 0.289001,-0.58058 0.291581,-0.2374 0.743144,-0.2374 0.474786,0 0.768948,0.24514 0.296741,0.24513 0.296741,0.62703 h -0.479947 q 0,-0.19611 -0.167724,-0.33803 -0.165143,-0.14192 -0.418018,-0.14192 -0.260617,0 -0.407697,0.11353 -0.147081,0.11354 -0.147081,0.29675 0,0.17288 0.136759,0.26061 0.136759,0.0877 0.492849,0.16773 0.358671,0.08 0.580582,0.19094 0.221911,0.11096 0.327706,0.26836 0.108375,0.15482 0.108375,0.37931 0,0.37416 -0.299322,0.60123 -0.299322,0.22449 -0.776689,0.22449 -0.335447,0 -0.593483,-0.1187 -0.258036,-0.11869 -0.405117,-0.33028 -0.1445,-0.21417 -0.1445,-0.46189 h 0.477367 q 0.0129,0.23998 0.190947,0.3819 0.180625,0.13933 0.474786,0.13933 0.270938,0 0.433501,-0.10837 0.165143,-0.11096 0.165143,-0.29416 z"
         style="font-style:normal;font-variant:normal;font-weight:normal;font-stretch:normal;font-size:5.28458023px;font-family:Roboto;-inkscape-font-specification:Roboto;fill:#333333;fill-opacity:1;stroke-width:0.24771468"
         id="path17773"
         inkscape:connector-curvature="0" />
    </g>
    <g
       aria-label="2"
       style="font-style:normal;font-variant:normal;font-weight:normal;font-stretch:normal;font-size:2.79941797px;line-height:1.25;font-family:Roboto;-inkscape-font-specification:Roboto;letter-spacing:0px;word-spacing:0px;fill:#333333;fill-opacity:1;stroke:none;stroke-width:0.1312227"
       id="text15748"
       transform="translate(0,-0.52129217)">
      <path
         d="m 82.465583,291.60284 h -1.304025 v -0.18179 l 0.688919,-0.76547 q 0.153093,-0.1736 0.210503,-0.28158 0.05878,-0.10935 0.05878,-0.22554 0,-0.15583 -0.09432,-0.25561 -0.09432,-0.0998 -0.251511,-0.0998 -0.188632,0 -0.293884,0.10799 -0.103884,0.10662 -0.103884,0.29798 h -0.252878 q 0,-0.27474 0.176331,-0.44424 0.177697,-0.1695 0.474315,-0.1695 0.277482,0 0.438776,0.14626 0.161295,0.1449 0.161295,0.38684 0,0.29388 -0.374532,0.69985 l -0.533092,0.5782 h 0.999206 z"
         style="font-style:normal;font-variant:normal;font-weight:normal;font-stretch:normal;font-size:2.79941797px;font-family:Roboto;-inkscape-font-specification:Roboto;fill:#333333;fill-opacity:1;stroke-width:0.1312227"
         id="path17770"
         inkscape:connector-curvature="0" />
    </g>
    <path
       style="fill:#0000ff;fill-opacity:0.50196078;stroke:#091400;stroke-width:0.25;stroke-miterlimit:4;stroke-dasharray:none;stroke-dashoffset:0;stroke-opacity:1"
       d="m 15.187635,245.41169 h 3.539809 v 3.61484 h -3.539809 z"
       id="rect15552"
       inkscape:connector-curvature="0" />
    <g
       aria-label=" 1 lot"
       style="font-style:normal;font-variant:normal;font-weight:normal;font-stretch:normal;font-size:4.38263464px;line-height:1.25;font-family:Roboto;-inkscape-font-specification:Roboto;letter-spacing:0px;word-spacing:0px;fill:#333333;fill-opacity:1;stroke:none;stroke-width:0.41039598"
       id="text15556"
       transform="translate(0,-0.52129217)">
      <path
         d="m 22.696647,249.2399 h -0.398032 v -2.63857 l -0.798205,0.29317 v -0.35951 l 1.134178,-0.42585 h 0.06206 z"
         style="font-style:normal;font-variant:normal;font-weight:normal;font-stretch:normal;font-size:4.38263464px;font-family:Roboto;-inkscape-font-specification:Roboto;fill:#333333;fill-opacity:1;stroke-width:0.41039598"
         id="path17760"
         inkscape:connector-curvature="0" />
      <path
         d="m 25.418674,249.2399 h -0.395892 v -3.28698 h 0.395892 z"
         style="font-style:normal;font-variant:normal;font-weight:normal;font-stretch:normal;font-size:4.38263464px;font-family:Roboto;-inkscape-font-specification:Roboto;fill:#333333;fill-opacity:1;stroke-width:0.41039598"
         id="path17762"
         inkscape:connector-curvature="0" />
      <path
         d="m 25.945104,248.06078 q 0,-0.34025 0.132677,-0.61203 0.134818,-0.27177 0.372353,-0.41943 0.239675,-0.14766 0.545689,-0.14766 0.472931,0 0.763966,0.32742 0.293174,0.32741 0.293174,0.87096 v 0.0278 q 0,0.33811 -0.130538,0.60775 -0.128397,0.26749 -0.370212,0.41729 -0.239676,0.1498 -0.55211,0.1498 -0.470791,0 -0.763965,-0.32742 -0.291034,-0.32741 -0.291034,-0.86668 z m 0.398032,0.0471 q 0,0.38519 0.177617,0.61845 0.179756,0.23325 0.47935,0.23325 0.301734,0 0.479351,-0.23539 0.177617,-0.23754 0.177617,-0.66339 0,-0.38091 -0.181897,-0.61631 -0.179756,-0.23753 -0.479351,-0.23753 -0.293174,0 -0.47293,0.23325 -0.179757,0.23326 -0.179757,0.66767 z"
         style="font-style:normal;font-variant:normal;font-weight:normal;font-stretch:normal;font-size:4.38263464px;font-family:Roboto;-inkscape-font-specification:Roboto;fill:#333333;fill-opacity:1;stroke-width:0.41039598"
         id="path17764"
         inkscape:connector-curvature="0" />
      <path
         d="m 29.086563,246.36379 v 0.56067 h 0.432271 v 0.30602 h -0.432271 v 1.43591 q 0,0.1391 0.05778,0.20972 0.05778,0.0685 0.196877,0.0685 0.06848,0 0.188316,-0.0257 v 0.321 q -0.156217,0.0428 -0.303874,0.0428 -0.265355,0 -0.400172,-0.1605 -0.134818,-0.1605 -0.134818,-0.45581 v -1.43591 H 28.2691 v -0.30602 h 0.421572 v -0.56067 z"
         style="font-style:normal;font-variant:normal;font-weight:normal;font-stretch:normal;font-size:4.38263464px;font-family:Roboto;-inkscape-font-specification:Roboto;fill:#333333;fill-opacity:1;stroke-width:0.41039598"
         id="path17766"
         inkscape:connector-curvature="0" />
    </g>
    <path
       style="opacity:1;fill:none;fill-opacity:1;stroke:#333333;stroke-width:0.30100003;stroke-linecap:round;stroke-miterlimit:4;stroke-dasharray:none;stroke-opacity:1"
       d="m 12.61286,243.51603 h 19.264974 v 7.77869 H 12.61286 Z"
       id="rect15558"
       inkscape:connector-curvature="0" />
    <path
       style="fill:none;stroke:#333333;stroke-width:0.26458332px;stroke-linecap:butt;stroke-linejoin:miter;stroke-opacity:1"
       d="M 4.0404204,271.76208 H 1.1412354"
       id="path17125"
       inkscape:connector-curvature="0" />
    <path
       style="fill:none;stroke:#333333;stroke-width:0.26458332px;stroke-linecap:butt;stroke-linejoin:miter;stroke-opacity:1"
       d="M 4.0404204,259.8577 H 1.1412354"
       id="path17129"
       inkscape:connector-curvature="0" />
    <path
       style="fill:none;stroke:#333333;stroke-width:0.26458332px;stroke-linecap:butt;stroke-linejoin:miter;stroke-opacity:1"
       d="m 2.5278034,259.91324 v 11.91909"
       id="path17135"
       inkscape:connector-curvature="0"
       sodipodi:nodetypes="cc" />
    <g
       aria-label="price
bin"
       style="font-style:normal;font-variant:normal;font-weight:normal;font-stretch:normal;font-size:3.88055563px;line-height:1;font-family:Roboto;-inkscape-font-specification:Roboto;text-align:start;letter-spacing:0px;word-spacing:0px;text-anchor:start;fill:#333333;fill-opacity:1;stroke:none;stroke-width:0.26458332"
       id="text17139"
       transform="translate(0,-0.52129217)">
      <path
         d="m 4.1459943,249.11981 q 0,0.46802 -0.2141127,0.75413 -0.2141127,0.28612 -0.5798096,0.28612 -0.3732761,0 -0.5873888,-0.23685 v 0.98719 H 2.4141447 v -2.83841 h 0.3202217 l 0.017053,0.22737 q 0.2141127,-0.26527 0.594968,-0.26527 0.3694865,0 0.5835992,0.27854 0.2160075,0.27853 0.2160075,0.77497 z m -0.3505385,-0.0398 q 0,-0.34675 -0.1477946,-0.5476 -0.1477946,-0.20085 -0.4054878,-0.20085 -0.3183268,0 -0.4774902,0.28233 v 0.97961 q 0.1572686,0.28043 0.4812799,0.28043 0.2520087,0 0.3998033,-0.19895 0.1496894,-0.20085 0.1496894,-0.59497 z"
         style="font-style:normal;font-variant:normal;font-weight:normal;font-stretch:normal;font-size:3.88055563px;line-height:1;font-family:Roboto;-inkscape-font-specification:Roboto;text-align:start;text-anchor:start;fill:#333333;fill-opacity:1;stroke-width:0.26458332"
         id="path17742"
         inkscape:connector-curvature="0" />
      <path
         d="m 5.5803598,248.38652 q -0.079582,-0.0133 -0.172427,-0.0133 -0.3448541,0 -0.4680162,0.29369 v 1.45521 H 4.5893781 v -2.05017 h 0.3410645 l 0.00568,0.23685 q 0.172427,-0.27475 0.488859,-0.27475 0.1023194,0 0.1553738,0.0265 z"
         style="font-style:normal;font-variant:normal;font-weight:normal;font-stretch:normal;font-size:3.88055563px;line-height:1;font-family:Roboto;-inkscape-font-specification:Roboto;text-align:start;text-anchor:start;fill:#333333;fill-opacity:1;stroke-width:0.26458332"
         id="path17744"
         inkscape:connector-curvature="0" />
      <path
         d="M 6.2814369,250.12216 H 5.9308984 v -2.05017 h 0.3505385 z m -0.3789605,-2.59398 q 0,-0.0853 0.05116,-0.14401 0.053055,-0.0587 0.1553739,-0.0587 0.1023193,0 0.1553738,0.0587 0.053054,0.0587 0.053054,0.14401 0,0.0853 -0.053054,0.14211 -0.053055,0.0568 -0.1553738,0.0568 -0.1023194,0 -0.1553739,-0.0568 -0.05116,-0.0568 -0.05116,-0.14211 z"
         style="font-style:normal;font-variant:normal;font-weight:normal;font-stretch:normal;font-size:3.88055563px;line-height:1;font-family:Roboto;-inkscape-font-specification:Roboto;text-align:start;text-anchor:start;fill:#333333;fill-opacity:1;stroke-width:0.26458332"
         id="path17746"
         inkscape:connector-curvature="0" />
      <path
         d="m 7.6627481,249.87394 q 0.1875854,0 0.3278008,-0.11369 0.1402154,-0.11368 0.1553738,-0.28422 h 0.3315905 q -0.00947,0.17622 -0.1212674,0.33538 -0.1117933,0.15917 -0.2993788,0.25391 -0.1856906,0.0947 -0.3941189,0.0947 -0.4187514,0 -0.6669705,-0.27854 -0.2463243,-0.28043 -0.2463243,-0.7655 v -0.0587 q 0,-0.29938 0.1098985,-0.53244 0.1098985,-0.23306 0.3145372,-0.3619 0.2065335,-0.12885 0.4869643,-0.12885 0.344854,0 0.5722304,0.20653 0.2292711,0.20654 0.2444295,0.53623 H 8.1459227 q -0.015158,-0.19895 -0.1515842,-0.3259 -0.134531,-0.12885 -0.3334852,-0.12885 -0.2671672,0 -0.4149618,0.19327 -0.1458998,0.19137 -0.1458998,0.55518 v 0.0663 q 0,0.35433 0.1458998,0.54571 0.1458998,0.19137 0.4168566,0.19137 z"
         style="font-style:normal;font-variant:normal;font-weight:normal;font-stretch:normal;font-size:3.88055563px;line-height:1;font-family:Roboto;-inkscape-font-specification:Roboto;text-align:start;text-anchor:start;fill:#333333;fill-opacity:1;stroke-width:0.26458332"
         id="path17748"
         inkscape:connector-curvature="0" />
      <path
         d="m 9.7223982,250.16006 q -0.4168566,0 -0.6783393,-0.27285 -0.2614828,-0.27475 -0.2614828,-0.73329 v -0.0644 q 0,-0.30506 0.115583,-0.5438 0.1174777,-0.24064 0.325906,-0.37517 0.2103231,-0.13643 0.4547526,-0.13643 0.3998033,0 0.6214953,0.26338 0.221692,0.26337 0.221692,0.75413 v 0.1459 H 9.1331146 q 0.00758,0.30317 0.1762166,0.49075 0.1705323,0.18569 0.432015,0.18569 0.1856907,0 0.3145368,-0.0758 0.128847,-0.0758 0.225482,-0.20085 l 0.214113,0.16674 q -0.257694,0.39602 -0.7730798,0.39602 z m -0.043581,-1.83796 q -0.2122179,0 -0.3562229,0.15537 -0.1440049,0.15348 -0.1781114,0.43202 h 1.0269831 v -0.0265 q -0.01516,-0.26717 -0.144005,-0.41307 -0.1288467,-0.14779 -0.3486438,-0.14779 z"
         style="font-style:normal;font-variant:normal;font-weight:normal;font-stretch:normal;font-size:3.88055563px;line-height:1;font-family:Roboto;-inkscape-font-specification:Roboto;text-align:start;text-anchor:start;fill:#333333;fill-opacity:1;stroke-width:0.26458332"
         id="path17750"
         inkscape:connector-curvature="0" />
      <path
         d="m 4.1497839,253.00037 q 0,0.46991 -0.2160075,0.75602 -0.2160075,0.28422 -0.5798096,0.28422 -0.3884345,0 -0.6006524,-0.27474 l -0.017053,0.23685 H 2.4141447 v -2.91042 h 0.3505385 v 1.08572 q 0.2122179,-0.26337 0.585494,-0.26337 0.3732761,0 0.585494,0.28232 0.2141127,0.28233 0.2141127,0.77308 z m -0.3505385,-0.0398 q 0,-0.35812 -0.1383206,-0.55329 -0.1383206,-0.19516 -0.3979085,-0.19516 -0.3467489,0 -0.4983331,0.32212 v 0.88676 q 0.1610582,0.32212 0.5021227,0.32212 0.2520087,0 0.3922241,-0.19517 0.1402154,-0.19516 0.1402154,-0.58738 z"
         style="font-style:normal;font-variant:normal;font-weight:normal;font-stretch:normal;font-size:3.88055563px;line-height:1;font-family:Roboto;-inkscape-font-specification:Roboto;text-align:start;text-anchor:start;fill:#333333;fill-opacity:1;stroke-width:0.26458332"
         id="path17752"
         inkscape:connector-curvature="0" />
      <path
         d="M 4.9702334,254.00272 H 4.6196949 v -2.05018 h 0.3505385 z m -0.3789605,-2.59399 q 0,-0.0853 0.05116,-0.144 0.053054,-0.0587 0.1553738,-0.0587 0.1023193,0 0.1553738,0.0587 0.053055,0.0587 0.053055,0.144 0,0.0853 -0.053055,0.14211 -0.053055,0.0568 -0.1553738,0.0568 -0.1023194,0 -0.1553738,-0.0568 -0.05116,-0.0568 -0.05116,-0.14211 z"
         style="font-style:normal;font-variant:normal;font-weight:normal;font-stretch:normal;font-size:3.88055563px;line-height:1;font-family:Roboto;-inkscape-font-specification:Roboto;text-align:start;text-anchor:start;fill:#333333;fill-opacity:1;stroke-width:0.26458332"
         id="path17754"
         inkscape:connector-curvature="0" />
      <path
         d="m 5.8607907,251.95254 0.011369,0.25769 q 0.2349555,-0.29558 0.613916,-0.29558 0.6499173,0 0.6556017,0.73328 v 1.35479 H 6.7911388 v -1.35668 q -0.00189,-0.22169 -0.1023193,-0.3278 -0.09853,-0.10611 -0.3088529,-0.10611 -0.1705322,0 -0.2993788,0.0909 -0.1288465,0.0909 -0.200849,0.23874 v 1.4609 H 5.5292003 v -2.05018 z"
         style="font-style:normal;font-variant:normal;font-weight:normal;font-stretch:normal;font-size:3.88055563px;line-height:1;font-family:Roboto;-inkscape-font-specification:Roboto;text-align:start;text-anchor:start;fill:#333333;fill-opacity:1;stroke-width:0.26458332"
         id="path17756"
         inkscape:connector-curvature="0" />
    </g>
    <path
       inkscape:connector-curvature="0"
       id="path17143"
       d="m 2.6020824,254.57285 -0.0017,4.54794"
       style="fill:none;stroke:#333333;stroke-width:0.26499999;stroke-linecap:butt;stroke-linejoin:miter;stroke-miterlimit:4;stroke-dasharray:none;stroke-opacity:1;marker-end:url(#Arrow1Mend)"
       sodipodi:nodetypes="cc" />
    <path
       sodipodi:nodetypes="cc"
       style="fill:none;stroke:#333333;stroke-width:0.26499999;stroke-linecap:butt;stroke-linejoin:miter;stroke-miterlimit:4;stroke-dasharray:none;stroke-opacity:1;marker-end:url(#marker17413)"
       d="m 2.6020824,277.05932 -0.0017,-4.54794"
       id="path17409"
       inkscape:connector-curvature="0" />
  </g>
</svg>
